<svg width="128" height="128" viewBox="0 0 128 128" fill="none" xmlns="http://www.w3.org/2000/svg">
<g clip-path="url(#clip0_660_66)">
<path d="M64 0C81.6729 0 97.6731 7.16351 109.255 18.7452C120.836 30.3269 128 46.327 128 64C128 81.6729 120.836 97.6731 109.255 109.255C97.6731 120.836 81.673 128 64 128C46.3271 128 30.3269 120.836 18.7452 109.255C7.16351 97.6731 0 81.673 0 64C0 46.3271 7.16351 30.3269 18.7452 18.7452C30.3269 7.16351 46.327 0 64 0ZM107.802 20.1984C96.5919 8.98879 81.1056 2.05544 64 2.05544C46.8945 2.05544 31.4081 8.98887 20.1984 20.1984C8.98879 31.4081 2.05544 46.8944 2.05544 64C2.05544 81.1055 8.98887 96.5919 20.1984 107.802C31.4081 119.011 46.8944 125.945 64 125.945C81.1055 125.945 96.5919 119.011 107.802 107.802C119.011 96.5919 125.945 81.1056 125.945 64C125.945 46.8945 119.011 31.4081 107.802 20.1984Z" fill="#C29977"/>
<path fill-rule="evenodd" clip-rule="evenodd" d="M14.214 83.2533C14.3772 83.6754 14.1672 84.15 13.7451 84.3131C13.323 84.4762 12.8484 84.2663 12.6853 83.8442C11.6285 81.1113 10.7946 78.309 10.1887 75.4651C9.58181 72.6166 9.20147 69.7179 9.05284 66.7967C9.02982 66.3444 9.37779 65.959 9.83007 65.936C10.2824 65.913 10.6678 66.2609 10.6908 66.7132C10.8347 69.5416 11.2043 72.3545 11.7944 75.1247C12.3842 77.893 13.1924 80.6116 14.214 83.2533L14.214 83.2533ZM10.6909 61.2886C10.6679 61.7409 10.2824 62.0889 9.83015 62.0659C9.37787 62.0428 9.0299 61.6574 9.05291 61.2051C9.1953 58.4059 9.55209 55.6222 10.1183 52.8786C10.6839 50.1394 11.4588 47.441 12.4388 44.8082C12.5966 44.3842 13.0683 44.1686 13.4923 44.3263C13.9162 44.4841 14.1319 44.9558 13.9741 45.3798C13.0242 47.9316 12.2728 50.5484 11.7241 53.2061C11.1752 55.8654 10.8293 58.5675 10.6909 61.2886Z" fill="#C29977"/>
<path d="M20.8677 40.016L20.1358 41.4023L18.2828 40.7302L17.4379 42.3308L19.038 43.4818L18.3593 44.7672L10.2959 38.673L11.2872 36.7951L20.8676 40.016H20.8677ZM12.2111 38.5559L16.3337 41.5222L16.9925 40.2745L12.2111 38.5559ZM23.9833 34.9208L23.1141 36.3102L18.6976 35.0935L19.4206 36.3024L22.0785 37.9654L21.2471 39.2944L12.79 34.0032L13.6215 32.6743L17.258 34.9494L14.6646 31.007L15.5112 29.6539L17.6259 33.1791L23.9833 34.9209V34.9208ZM29.1911 30.8724L28.1687 32.0609L27.1532 31.1872L24.4951 34.277L16.9325 27.7713L17.9548 26.5829L24.4371 32.1593L25.5338 30.8844L19.0516 25.3081L20.0739 24.1197L26.5562 29.696L27.0952 29.0693L29.1912 30.8723L29.1911 30.8724ZM27.3446 25.8864L24.3436 19.8662L25.496 18.7825L32.3301 26.0496L31.3128 27.0063L26.8804 22.293L29.9009 28.3342L28.7485 29.4179L21.9143 22.1507L22.9317 21.194L27.3446 25.8864ZM31.8477 23.3761L28.8543 19.07C28.3987 18.4147 28.2139 17.791 28.2999 17.199C28.3858 16.607 28.7449 16.0913 29.3768 15.652C30.0086 15.2128 30.6171 15.056 31.202 15.1817C31.7869 15.3074 32.307 15.6978 32.7626 16.3531L35.7559 20.6594C36.2115 21.3147 36.3963 21.9383 36.3103 22.5303C36.2244 23.1224 35.8653 23.638 35.2334 24.0773C34.6015 24.5165 33.9931 24.6734 33.4082 24.5477C32.8233 24.422 32.3031 24.0314 31.8477 23.3761ZM34.5257 21.636L31.4185 17.166C31.0443 16.6278 30.6348 16.5132 30.1902 16.8222C29.7456 17.1313 29.7102 17.555 30.0845 18.0934L33.1918 22.5633C33.5659 23.1016 33.9754 23.2162 34.4201 22.9071C34.8648 22.598 34.9 22.1743 34.5257 21.636ZM39.4171 21.2161L38.0479 21.9795L33.1898 13.2665L34.559 12.5031L36.537 16.0506L38.0057 15.2316L36.0278 11.6842L37.3969 10.9207L42.2551 19.6337L40.8858 20.3972L38.6997 16.4763L37.231 17.2953L39.4171 21.2161ZM47.3197 17.4466L43.3663 19.0744L39.5682 9.84984L43.5216 8.22202L44.0641 9.53986L41.5604 10.5707L42.5642 13.0086L44.5541 12.1894L45.0967 13.5072L43.1068 14.3265L44.2734 17.1597L46.7771 16.1288L47.3197 17.4467V17.4466ZM49.7016 16.7464L48.1973 17.1875L45.3909 7.61448L47.6063 6.96504C49.1015 6.52664 50.0804 7.09619 50.5427 8.67345L50.8194 9.6171C51.2818 11.1943 50.7654 12.2021 49.2701 12.6404L48.559 12.8489L49.7016 16.7465V16.7464ZM47.2961 8.54113L48.1581 11.4813L48.8693 11.2728C49.1245 11.1979 49.2907 11.0725 49.3678 10.8965C49.4449 10.7205 49.4367 10.4728 49.3432 10.1537L49.0103 9.01861C48.9168 8.69958 48.79 8.48675 48.6301 8.38009C48.4701 8.27352 48.2625 8.25776 48.0072 8.33258L47.2961 8.54113ZM55.1007 15.4447L53.5537 15.6978L51.9428 5.85286L53.4899 5.59968L54.1458 9.60805L55.8053 9.33654L55.1494 5.32817L56.6965 5.075L58.3074 14.92L56.7603 15.1731L56.0354 10.7429L54.3759 11.0144L55.1007 15.4447ZM59.4012 12.3388L59.3429 7.09463C59.3339 6.29656 59.5314 5.67685 59.9349 5.23517C60.3385 4.79366 60.9252 4.56865 61.6947 4.56006C62.4642 4.55148 63.0556 4.76346 63.469 5.19585C63.8823 5.62832 64.0935 6.24359 64.1023 7.04165L64.1607 12.2858C64.1696 13.0838 63.9722 13.7036 63.5686 14.1452C63.1649 14.5868 62.5784 14.8117 61.8088 14.8203C61.0393 14.8289 60.4479 14.617 60.0346 14.1845C59.6212 13.752 59.41 13.1368 59.4012 12.3388ZM62.5944 12.4029L62.5337 6.95934C62.5264 6.30374 62.252 5.97902 61.7105 5.9851C61.169 5.99111 60.9018 6.32184 60.9091 6.97737L60.9697 12.421C60.9771 13.0765 61.2515 13.4012 61.793 13.3952C62.3345 13.3891 62.6016 13.0585 62.5944 12.4029ZM69.5808 14.9112L65.3176 14.5882L66.0714 4.64089L70.3346 4.96398L70.2269 6.38504L67.5269 6.18047L67.3277 8.80936L69.4735 8.97195L69.3658 10.3929L67.22 10.2303L66.9885 13.2856L69.6885 13.4903L69.5808 14.9112H69.5808ZM73.1591 13.0138L74.3139 7.898C74.4896 7.1196 74.8249 6.56214 75.3196 6.2258C75.8143 5.88945 76.4371 5.80597 77.1877 5.97551C77.9384 6.14497 78.4649 6.48779 78.7672 7.00397C79.0694 7.52031 79.1327 8.16764 78.957 8.94613L77.8021 14.0618C77.6264 14.8403 77.2912 15.3978 76.7964 15.7341C76.3017 16.0705 75.6789 16.1539 74.9283 15.9844C74.1776 15.815 73.6511 15.4721 73.3489 14.9559C73.0466 14.4395 72.9834 13.7922 73.1591 13.0138ZM76.251 13.814L77.4497 8.50368C77.5941 7.86414 77.4022 7.48481 76.8739 7.36559C76.3457 7.24638 76.0094 7.50642 75.8649 8.14595L74.6662 13.4562C74.5219 14.0958 74.7138 14.4751 75.2421 14.5943C75.7703 14.7135 76.1065 14.4535 76.251 13.814ZM80.6415 17.5241L78.3532 16.7282L81.6304 7.30599L85.5474 8.6683L85.0792 10.0144L82.6429 9.16708L81.8236 11.5225L82.6313 11.8035C84.1029 12.3153 84.5687 13.3475 84.0288 14.8999L83.6589 15.9633C83.1189 17.5157 82.1131 18.036 80.6415 17.5241L80.6415 17.5241ZM81.3553 12.8686L80.302 15.8971L81.1096 16.1781C81.3609 16.2654 81.569 16.2599 81.7341 16.1613C81.8991 16.0628 82.0362 15.8566 82.1455 15.5424L82.5809 14.2907C82.6901 13.9766 82.7106 13.7298 82.6424 13.5501C82.5741 13.3703 82.4143 13.2369 82.163 13.1495L81.3553 12.8686ZM94.874 13.2244L90.8818 20.786L91.6128 21.172L90.3153 23.6295L88.9291 22.8975L89.5611 21.7003L83.7135 18.6131L88.371 9.79124L89.7573 10.5232L85.7652 18.0847L86.9373 18.7035L90.9294 11.1419L92.3158 11.8738L88.3236 19.4354L89.4957 20.0542L93.4879 12.4926L94.8741 13.2245L94.874 13.2244ZM95.0537 25.4942L91.5612 23.0282L97.3153 14.8791L100.808 17.3451L99.9857 18.5093L97.7739 16.9475L96.2532 19.1012L98.0111 20.3425L97.1891 21.5066L95.4312 20.2654L93.6639 22.7683L95.8757 24.3301L95.0537 25.4942ZM97.2398 24.3541L100.914 20.4541C101.449 19.8871 102.008 19.5848 102.591 19.5473C103.175 19.5098 103.736 19.7451 104.276 20.2533C104.815 20.7615 105.083 21.308 105.081 21.8928C105.078 22.4776 104.809 23.0536 104.275 23.6206L103.552 24.3881L102.473 23.3718L103.265 22.5316C103.688 22.0822 103.71 21.6782 103.329 21.3199C102.949 20.9616 102.547 21.007 102.124 21.4565L98.3023 25.5121C97.8854 25.9547 97.8671 26.3552 98.2474 26.7134C98.6277 27.0718 99.0263 27.0297 99.4433 26.5871L100.44 25.5291L101.519 26.5455L100.6 27.5206C100.066 28.0875 99.5071 28.3898 98.9235 28.4273C98.3398 28.4648 97.7784 28.2295 97.2391 27.7213C96.6997 27.2131 96.4313 26.6666 96.4341 26.0817C96.4369 25.4969 96.7054 24.9211 97.2397 24.354L97.2398 24.3541ZM101.576 31.9995L100.536 30.8264L106.935 25.155L105.848 23.9284L106.915 22.9832L110.129 26.6094L109.062 27.5547L107.975 26.3282L101.576 31.9995ZM104.569 35.9145L103.162 33.8901L111.353 28.1961L112.704 30.1385C113.159 30.7938 113.34 31.3827 113.246 31.905C113.152 32.4273 112.785 32.9109 112.146 33.3555L111.818 33.5832C110.975 34.1689 110.249 34.2635 109.637 33.8668L109.614 33.8831C109.84 34.6745 109.493 35.3903 108.572 36.0302L107.87 36.5182C107.239 36.9575 106.642 37.1266 106.08 37.0255C105.518 36.9245 105.014 36.5541 104.569 35.9144V35.9145ZM111.078 30.2968L108.913 31.8016L109.263 32.3047C109.447 32.57 109.651 32.7176 109.874 32.7474C110.098 32.7773 110.362 32.6865 110.666 32.4751L111.122 32.1578C111.684 31.7673 111.813 31.3537 111.509 30.9169L111.078 30.2967V30.2968ZM107.743 32.615L105.227 34.3639L105.74 35.1012C105.902 35.3351 106.081 35.4628 106.275 35.4841C106.469 35.5054 106.714 35.4129 107.011 35.2068L107.725 34.7106C108.091 34.4557 108.305 34.2144 108.367 33.9866C108.428 33.7587 108.353 33.4926 108.142 33.1884L107.743 32.615H107.743ZM108.451 37.4958L113.063 34.9989C113.765 34.6189 114.405 34.5045 114.984 34.6557C115.563 34.8069 116.035 35.2209 116.402 35.8977C116.768 36.5744 116.856 37.1965 116.666 37.7638C116.477 38.3311 116.031 38.8047 115.329 39.1847L110.717 41.6816C110.015 42.0616 109.375 42.176 108.796 42.0248C108.217 41.8736 107.745 41.4596 107.378 40.7828C107.012 40.1061 106.924 39.484 107.114 38.9167C107.303 38.3494 107.749 37.8758 108.451 37.4958ZM109.883 40.3505L114.67 37.7587C115.247 37.4465 115.406 37.0524 115.148 36.5761C114.891 36.0999 114.474 36.0178 113.897 36.33L109.11 38.9218C108.533 39.234 108.374 39.6281 108.632 40.1044C108.889 40.5807 109.307 40.6627 109.883 40.3505Z" fill="#C29977"/>
<path d="M14.7887 92.7224C14.4635 92.5164 14.1747 92.1926 13.9239 91.7513C13.5998 91.1814 13.5238 90.6219 13.6962 90.0711C13.8681 89.5194 14.2527 89.0737 14.8484 88.735C15.4888 88.3709 16.1162 88.2701 16.7307 88.4303C17.3441 88.5909 17.8193 88.9677 18.1558 89.5595C18.3715 89.9387 18.496 90.2841 18.5284 90.5961L18.0291 90.88C18.026 90.5022 17.9262 90.1403 17.7295 89.7943C17.4683 89.335 17.103 89.0496 16.6326 88.9387C16.1632 88.8273 15.6712 88.9179 15.1575 89.2099C14.6696 89.4874 14.3566 89.8418 14.2187 90.2735C14.0812 90.706 14.1352 91.138 14.3822 91.5726C14.6104 91.9739 14.8983 92.2718 15.2444 92.4634L14.7889 92.7224H14.7887ZM17.0882 96.6292L16.7922 96.1704L20.2412 93.9455L18.9374 91.9243L15.4884 94.1492L15.1943 93.6932L19.0633 91.1973L20.9572 94.1332L17.0882 96.6292ZM19.3237 99.6591L17.8177 97.739L21.4406 94.8975L22.8837 96.7374L22.5007 97.0377L21.3906 95.6223L20.1846 96.5681L21.2117 97.8775L20.8287 98.1778L19.8016 96.8684L18.5336 97.8629L19.7067 99.3587L19.3237 99.659V99.6591ZM21.732 104.301L21.4039 103.925L22.3351 103.112L19.9797 100.415L23.4472 97.3865L23.8021 97.7926L20.7011 100.502L22.2691 102.296L25.3701 99.5876L25.7248 99.9937L22.6238 102.703L23.0299 103.167L21.732 104.301V104.301ZM26.0108 106.682L25.6188 106.31L27.9085 103.897C28.1154 103.679 28.2681 103.534 28.3678 103.461L28.3535 103.448C28.2525 103.495 28.1502 103.531 28.0477 103.555L23.8019 104.585L23.3177 104.126L26.4875 100.786L26.8787 101.157L24.6463 103.509C24.4078 103.761 24.2459 103.918 24.1616 103.983L24.1704 103.992C24.2695 103.956 24.3834 103.923 24.5129 103.892L28.6773 102.865L29.1806 103.342L26.0108 106.682H26.0108ZM29.8143 109.79L29.3467 109.418L29.767 108.105L28.2377 106.89L27.0759 107.613L26.6065 107.24L30.8539 104.735L31.2916 105.083L29.8143 109.79ZM29.9308 107.614L30.5855 105.629C30.6072 105.565 30.6524 105.469 30.7223 105.344L30.712 105.336C30.6146 105.425 30.5307 105.49 30.4629 105.532L28.6813 106.621L29.9308 107.614V107.614ZM33.1098 112.165L32.6699 111.853L35.052 108.495L34.0094 107.755C33.2185 108.617 32.6485 109.217 32.3015 109.559C31.954 109.901 31.6792 110.139 31.4763 110.273C31.2735 110.407 31.0784 110.476 30.8924 110.479C30.7067 110.483 30.5284 110.423 30.3567 110.302C30.2191 110.204 30.1118 110.101 30.0368 109.993L30.3293 109.581C30.3831 109.694 30.4638 109.789 30.5719 109.866C30.6801 109.942 30.8277 109.95 31.0145 109.888C31.2015 109.827 31.5365 109.559 32.0199 109.086C32.5047 108.613 33.1389 107.95 33.9243 107.098L35.7734 108.41L33.1097 112.166L33.1098 112.165ZM37.4407 114.669L36.9717 114.4L38.6245 111.514C38.7739 111.253 38.8879 111.076 38.9673 110.982L38.9503 110.972C38.8633 111.042 38.7726 111.101 38.6786 111.148L34.7979 113.156L34.2186 112.824L36.5066 108.828L36.9746 109.096L35.3632 111.91C35.1911 112.211 35.0712 112.403 35.0047 112.486L35.0151 112.492C35.1028 112.433 35.2059 112.375 35.3243 112.314L39.1265 110.329L39.7287 110.673L37.4407 114.669ZM38.4484 114.977L38.6913 114.445C38.9094 114.833 39.2259 115.122 39.6408 115.311C39.9431 115.449 40.2167 115.486 40.4621 115.421C40.706 115.356 40.8853 115.2 40.9986 114.952C41.2437 114.414 41.002 113.98 40.2759 113.649L39.84 113.45L40.0255 113.043L40.4266 113.226C40.7357 113.367 41.0066 113.41 41.2385 113.353C41.4705 113.296 41.6417 113.145 41.7536 112.9C41.8496 112.689 41.8556 112.488 41.7726 112.298C41.6888 112.106 41.523 111.955 41.2756 111.842C40.9254 111.682 40.5343 111.637 40.103 111.705L40.3295 111.208C40.716 111.177 41.1092 111.253 41.5102 111.436C41.9082 111.617 42.1772 111.854 42.3196 112.147C42.4606 112.44 42.4621 112.741 42.3215 113.049C42.0737 113.593 41.652 113.815 41.0577 113.715L41.0522 113.727C41.3255 113.891 41.5042 114.104 41.5906 114.364C41.6765 114.625 41.6576 114.891 41.5344 115.161C41.3594 115.545 41.083 115.789 40.7074 115.891C40.3315 115.995 39.9065 115.938 39.4327 115.722C38.959 115.506 38.6312 115.258 38.4484 114.977L38.4484 114.977ZM45.4618 118.099L44.958 117.904L46.1626 114.803C46.2714 114.523 46.3578 114.331 46.4223 114.226L46.404 114.218C46.3285 114.301 46.2476 114.373 46.1616 114.434L42.6232 116.996L42.0008 116.755L43.6684 112.463L44.1711 112.658L42.9967 115.681C42.8712 116.004 42.7813 116.211 42.7278 116.303L42.7391 116.308C42.8172 116.237 42.9103 116.164 43.0182 116.085L46.4825 113.556L47.1294 113.808L45.4619 118.099L45.4618 118.099ZM47.7416 117.018L47.2602 118.693L46.7418 118.544L48.0133 114.119L49.2293 114.469C49.7023 114.604 50.036 114.825 50.231 115.131C50.4252 115.435 50.4615 115.797 50.3411 116.216C50.2206 116.635 49.9776 116.937 49.6109 117.122C49.2457 117.305 48.8162 117.327 48.3253 117.186L47.7416 117.018V117.018ZM48.3973 114.736L47.876 116.55L48.4196 116.706C48.7768 116.809 49.0744 116.806 49.3089 116.696C49.5444 116.587 49.7044 116.383 49.7902 116.085C49.9582 115.5 49.6965 115.109 49.0053 114.911L48.3973 114.736V114.736ZM52.2193 119.99C51.5824 119.844 51.1206 119.518 50.8342 119.011C50.5479 118.503 50.4805 117.913 50.6343 117.241C50.7997 116.518 51.1273 115.986 51.6157 115.646C52.1044 115.304 52.6856 115.211 53.3578 115.365C53.9777 115.507 54.429 115.83 54.7117 116.334C54.9953 116.839 55.0595 117.428 54.9051 118.103C54.7373 118.836 54.4102 119.37 53.9248 119.708C53.4392 120.045 52.8712 120.139 52.2193 119.99ZM53.2107 115.831C52.7395 115.723 52.3181 115.805 51.9451 116.079C51.5734 116.351 51.3235 116.765 51.197 117.318C51.0702 117.871 51.1115 118.35 51.3216 118.753C51.5309 119.155 51.8674 119.41 52.3279 119.515C52.8206 119.628 53.2452 119.557 53.6031 119.3C53.9609 119.044 54.205 118.626 54.3376 118.047C54.4735 117.454 54.4416 116.964 54.24 116.577C54.0384 116.19 53.6949 115.942 53.2108 115.831H53.2107ZM55.3904 120.496L55.994 115.931L57.2927 116.103C57.6872 116.155 57.9886 116.293 58.1935 116.516C58.3995 116.74 58.4825 117.007 58.4415 117.316C58.4073 117.575 58.3068 117.791 58.1414 117.964C57.976 118.136 57.7656 118.247 57.5083 118.294L57.5066 118.307C57.8093 118.384 58.0408 118.533 58.1996 118.753C58.3583 118.974 58.4169 119.242 58.3754 119.556C58.3238 119.946 58.1418 120.244 57.8294 120.449C57.5169 120.654 57.1477 120.728 56.7206 120.672L55.3904 120.496V120.496ZM56.4649 116.484L56.27 117.958L56.8178 118.031C57.1102 118.069 57.3498 118.029 57.537 117.91C57.7231 117.791 57.833 117.603 57.8669 117.347C57.9256 116.903 57.6636 116.643 57.079 116.566L56.4649 116.484ZM56.2062 118.441L55.9889 120.084L56.7148 120.18C57.0289 120.222 57.2821 120.18 57.4746 120.054C57.6682 119.928 57.7809 119.736 57.8152 119.476C57.8865 118.937 57.5548 118.619 56.8202 118.522L56.2062 118.441ZM62.8444 121.193L62.2487 121.147L61.8599 119.825L59.9119 119.677L59.3563 120.928L58.7583 120.882L60.868 116.425L61.4255 116.467L62.8444 121.193V121.193ZM61.7197 119.326L61.1477 117.316C61.1296 117.251 61.1134 117.146 61.1011 117.004L61.088 117.003C61.0574 117.131 61.0244 117.232 60.9915 117.304L60.1281 119.205L61.7196 119.326L61.7197 119.326ZM67.1207 121.058L66.5816 121.069L66.5393 118.971L64.1565 119.019L64.1988 121.117L63.6595 121.128L63.5668 116.525L64.106 116.514L64.1467 118.533L66.5295 118.485L66.4888 116.466L67.028 116.455L67.1207 121.058ZM71.8823 120.607L71.3476 120.678L71.0725 118.598L68.7098 118.91L68.9849 120.99L68.4502 121.061L67.8465 116.496L68.3813 116.426L68.646 118.428L71.0087 118.115L70.744 116.113L71.2786 116.043L71.8823 120.607ZM77.0599 119.707L76.5274 119.799L75.7421 115.263L76.2747 115.17L77.0599 119.707ZM73.1766 120.379L72.3914 115.843L72.9229 115.751L73.2561 117.675L74.1171 117.526C74.5685 117.448 74.9385 117.497 75.2269 117.671C75.5163 117.846 75.6953 118.134 75.765 118.537C75.8372 118.954 75.7625 119.308 75.5409 119.595C75.3194 119.884 74.9806 120.067 74.5247 120.146L73.1766 120.379V120.379ZM73.3391 118.155L73.6251 119.808L74.3715 119.679C74.6859 119.624 74.9162 119.509 75.0612 119.331C75.2063 119.154 75.257 118.932 75.2108 118.666C75.1173 118.125 74.7422 117.912 74.0855 118.026L73.3391 118.155ZM81.9419 118.304L81.4224 118.453L80.5039 115.256C80.421 114.967 80.3734 114.762 80.3608 114.639L80.3419 114.645C80.3317 114.756 80.3109 114.862 80.2792 114.963L79.015 119.145L78.3733 119.329L77.1017 114.904L77.62 114.755L78.5156 117.872C78.6114 118.204 78.6653 118.424 78.6785 118.53L78.6901 118.526C78.7094 118.423 78.7392 118.308 78.7778 118.181L80.0033 114.07L80.6703 113.878L81.9419 118.304V118.304ZM79.6262 112.714C79.6792 113.013 79.6285 113.278 79.4744 113.503C79.3194 113.73 79.0908 113.887 78.7863 113.975C78.4733 114.065 78.1943 114.054 77.9487 113.942C77.7045 113.831 77.5309 113.631 77.4284 113.345L77.9288 113.202C78.0686 113.581 78.3223 113.718 78.688 113.613C78.8534 113.566 78.9748 113.476 79.0519 113.343C79.13 113.21 79.154 113.048 79.1267 112.857L79.6262 112.714V112.714ZM84.5334 117.165L84.3157 116.622C84.7473 116.732 85.1748 116.703 85.5981 116.533C85.9064 116.409 86.1219 116.237 86.2441 116.014C86.3656 115.793 86.377 115.556 86.2754 115.303C86.0555 114.754 85.5745 114.629 84.8336 114.926L84.3889 115.104L84.2225 114.689L84.6316 114.525C84.9472 114.399 85.165 114.232 85.284 114.025C85.4029 113.818 85.412 113.59 85.3116 113.34C85.2256 113.125 85.0844 112.982 84.8891 112.91C84.6928 112.839 84.4687 112.854 84.2163 112.956C83.8592 113.099 83.556 113.35 83.3079 113.709L83.1048 113.203C83.3491 112.902 83.6753 112.669 84.0843 112.505C84.4903 112.343 84.8476 112.312 85.1577 112.411C85.4672 112.511 85.6857 112.717 85.8117 113.032C86.034 113.587 85.9036 114.045 85.4211 114.406L85.426 114.418C85.7335 114.334 86.011 114.352 86.2586 114.468C86.5066 114.586 86.6861 114.784 86.7966 115.059C86.9536 115.451 86.9393 115.82 86.7541 116.162C86.5693 116.505 86.2352 116.774 85.7518 116.967C85.2685 117.161 84.8626 117.227 84.5331 117.165L84.5334 117.165ZM91.4276 114.144L90.8981 114.421L89.8685 113.504L88.1373 114.409L88.3275 115.765L87.7961 116.042L87.2279 111.144L87.7234 110.885L91.4276 114.144V114.144ZM89.4856 113.155L87.9367 111.752C87.8869 111.706 87.8177 111.626 87.7318 111.511L87.7202 111.517C87.7622 111.643 87.7875 111.746 87.7979 111.824L88.0712 113.895L89.4856 113.155ZM94.7294 112.021C94.5234 112.346 94.1996 112.635 93.7583 112.886C93.1884 113.21 92.6289 113.286 92.0781 113.113C91.5264 112.942 91.0807 112.557 90.742 111.961C90.3779 111.321 90.2771 110.693 90.4373 110.079C90.5979 109.465 90.9747 108.99 91.5665 108.654C91.9457 108.438 92.2911 108.314 92.6031 108.281L92.887 108.781C92.5092 108.784 92.1473 108.883 91.8013 109.08C91.342 109.341 91.0566 109.707 90.9457 110.177C90.8343 110.646 90.9249 111.138 91.2169 111.652C91.4944 112.14 91.8488 112.453 92.2805 112.591C92.713 112.728 93.1451 112.674 93.5796 112.427C93.9809 112.199 94.2788 111.911 94.4704 111.565L94.7294 112.021V112.021ZM95.5279 106.649L94.4412 107.415L96.8139 110.78L96.3731 111.091L94.0003 107.726L92.9162 108.491L92.6357 108.093L95.2474 106.251L95.5279 106.649ZM97.9859 107.749L99.0616 109.121L98.6372 109.454L95.7956 105.831L96.7911 105.05C97.1784 104.747 97.5523 104.605 97.9144 104.626C98.2749 104.647 98.5894 104.83 98.8586 105.173C99.128 105.516 99.2304 105.89 99.1649 106.295C99.0998 106.699 98.8656 107.059 98.4637 107.375L97.9858 107.749H97.9859ZM96.5205 105.881L97.6855 107.366L98.1307 107.017C98.4231 106.788 98.5945 106.545 98.6433 106.291C98.6928 106.036 98.6214 105.787 98.43 105.543C98.0545 105.064 97.5842 105.047 97.0183 105.491L96.5206 105.881H96.5205ZM102.955 105.889C102.481 106.338 101.954 106.542 101.373 106.5C100.791 106.457 100.263 106.187 99.7882 105.687C99.2781 105.149 99.0162 104.581 99.0032 103.986C98.9895 103.39 99.2339 102.855 99.7342 102.38C100.196 101.943 100.714 101.745 101.291 101.789C101.868 101.832 102.394 102.105 102.87 102.607C103.388 103.153 103.652 103.721 103.664 104.312C103.677 104.904 103.44 105.429 102.955 105.889L102.955 105.889ZM100.041 102.761C99.6898 103.093 99.5251 103.49 99.5462 103.952C99.5674 104.412 99.7737 104.85 100.164 105.261C100.555 105.673 100.976 105.903 101.428 105.952C101.879 106 102.277 105.861 102.62 105.536C102.987 105.188 103.162 104.795 103.147 104.355C103.131 103.915 102.919 103.48 102.51 103.049C102.091 102.608 101.665 102.363 101.232 102.317C100.798 102.27 100.401 102.419 100.04 102.761L100.041 102.761ZM107.707 100.772L107.354 101.181L104.837 99.0063C104.61 98.8099 104.458 98.664 104.38 98.5679L104.367 98.5828C104.419 98.6816 104.46 98.782 104.488 98.8833L105.716 103.076L105.279 103.581L101.796 100.571L102.148 100.163L104.602 102.283C104.864 102.509 105.029 102.664 105.098 102.745L105.106 102.736C105.065 102.639 105.028 102.526 104.99 102.399L103.769 98.2867L104.223 97.7616L107.707 100.772H107.707ZM102.712 97.3573C102.921 97.5792 103.023 97.8282 103.017 98.1014C103.011 98.3762 102.906 98.6326 102.698 98.8724C102.486 99.1187 102.246 99.2621 101.979 99.3026C101.714 99.3429 101.459 99.2706 101.217 99.0876L101.558 98.6936C101.882 98.935 102.17 98.911 102.418 98.6232C102.531 98.4929 102.584 98.3515 102.576 98.1982C102.568 98.044 102.5 97.8951 102.373 97.7505L102.712 97.3574V97.3573ZM112.917 95.907L112.629 96.313L111.62 95.5976L108.642 99.7966L104.887 97.1329L105.199 96.6929L108.557 99.075L109.544 97.6837L106.186 95.3016L106.498 94.8616L109.856 97.2438L110.841 95.8552L107.482 93.473L107.795 93.033L111.153 95.4151L111.511 94.9099L112.917 95.9069V95.907ZM114.247 91.2152L113.979 91.6842L111.092 90.0314C110.832 89.8821 110.655 89.768 110.56 89.6886L110.55 89.7057C110.62 89.7926 110.679 89.8833 110.727 89.9773L112.734 93.858L112.402 94.4374L108.407 92.1494L108.675 91.6813L111.489 93.2927C111.789 93.4648 111.981 93.5847 112.064 93.6512L112.07 93.6408C112.012 93.5531 111.953 93.45 111.892 93.3317L109.907 89.5294L110.252 88.9272L114.247 91.2152ZM116.341 87.172L115.995 87.8397L113.307 88.4508C113.206 88.4725 113.14 88.4852 113.108 88.4848L113.102 88.4964L115.115 89.5392L114.867 90.0181L110.779 87.9004L111.027 87.4214L112.948 88.4168L112.954 88.4051C112.926 88.3572 112.898 88.2969 112.871 88.2249L111.88 85.7735L112.189 85.1768L113.242 87.9469L116.341 87.172Z" fill="#C29977"/>
<path d="M14.7899 92.7143C14.6246 92.6097 14.4689 92.4753 14.323 92.3113C14.1776 92.1482 14.0414 91.9553 13.9151 91.7329C13.7512 91.4447 13.6499 91.1586 13.6114 90.875C13.5729 90.5908 13.5974 90.3088 13.6848 90.0293C13.7719 89.7497 13.9131 89.4968 14.1078 89.271C14.302 89.0458 14.5499 88.8474 14.8506 88.6765C15.1735 88.4928 15.4939 88.3754 15.8107 88.324C16.1287 88.2726 16.4436 88.2875 16.7549 88.3687C17.0655 88.4501 17.3413 88.5863 17.582 88.777C17.8227 88.9678 18.0282 89.2128 18.1982 89.512C18.3068 89.7029 18.3926 89.8857 18.4553 90.0602C18.5183 90.2353 18.5581 90.402 18.5744 90.5603L18.5765 90.5794L18.0168 90.8976L18.0163 90.8474C18.0148 90.6611 17.9893 90.4786 17.9402 90.3002C17.891 90.1217 17.8177 89.9469 17.7206 89.7761C17.5919 89.5498 17.4377 89.3665 17.2581 89.2263C17.0789 89.0864 16.8737 88.9892 16.6427 88.9347C16.4119 88.8799 16.1755 88.8748 15.9339 88.9193C15.6912 88.9639 15.4428 89.0584 15.1889 89.2027C14.9478 89.3398 14.75 89.4958 14.5957 89.6706C14.442 89.8446 14.3313 90.0377 14.2636 90.2495C14.1963 90.4614 14.1757 90.6736 14.2024 90.8858C14.229 91.0983 14.3031 91.3114 14.4246 91.5251C14.5374 91.7235 14.6652 91.8967 14.8072 92.0433C14.9488 92.1896 15.1051 92.3102 15.2754 92.4046L15.3214 92.4301L14.8047 92.7238L14.7898 92.7145L14.7899 92.7143ZM14.3671 92.272C14.5051 92.427 14.6517 92.5548 14.8065 92.6549L15.2015 92.4302C15.0437 92.3373 14.898 92.2218 14.765 92.0844C14.6194 91.934 14.4886 91.757 14.3734 91.5542C14.2479 91.3335 14.1713 91.1129 14.1437 90.8928C14.1161 90.6724 14.1373 90.452 14.2073 90.2315C14.2776 90.0118 14.3924 89.8115 14.5516 89.6313C14.7101 89.4516 14.913 89.2916 15.1597 89.1512C15.4195 89.0035 15.6742 88.9066 15.9233 88.8609C16.1733 88.815 16.4178 88.8202 16.6563 88.8768C16.8955 88.9333 17.1082 89.0342 17.2945 89.1795C17.4802 89.3245 17.6395 89.5137 17.7719 89.7466C17.8715 89.9217 17.9465 90.1011 17.9972 90.2842C18.0432 90.4517 18.0691 90.6226 18.0744 90.7967L18.5137 90.5469C18.4967 90.3989 18.4586 90.2432 18.3999 90.0799C18.3385 89.9089 18.2541 89.7292 18.1471 89.541C17.9807 89.2485 17.7801 89.009 17.5456 88.8231C17.3114 88.6376 17.0428 88.505 16.7402 88.4258C16.4369 88.3467 16.13 88.3321 15.8202 88.3822C15.5104 88.4323 15.1966 88.5474 14.88 88.7276C14.585 88.8952 14.3424 89.0893 14.1525 89.3096C13.9632 89.529 13.8261 89.7749 13.7414 90.0467C13.6565 90.3178 13.6328 90.5913 13.6702 90.8669C13.7076 91.1431 13.8066 91.4221 13.9666 91.7035C14.0907 91.9219 14.2245 92.1117 14.3673 92.2719L14.3671 92.272ZM17.0381 96.6585L16.7261 96.1749L20.1751 93.9501L18.9033 91.9784L15.4543 94.2034L15.1282 93.6978C16.4352 92.8564 17.7411 92.0131 19.0469 91.1698C19.6864 92.1662 20.3291 93.1617 20.9729 94.1554L17.0541 96.6834L17.0381 96.6585ZM16.8078 96.1925L17.0717 96.6017L20.8912 94.1378L19.0292 91.2514L15.2097 93.7154L15.4719 94.1219L18.9209 91.8968C19.3645 92.5879 19.8103 93.2784 20.2568 93.9676L16.8078 96.1925ZM19.3098 99.6598L17.7856 97.7165C19.0096 96.7586 20.2328 95.799 21.4549 94.8385C21.9462 95.4683 22.4398 96.0977 22.9345 96.7249L22.505 97.0616L21.3949 95.6462L20.2353 96.5556L21.2625 97.865L20.8331 98.2017L19.806 96.8923L18.5844 97.8504L19.7575 99.3462L19.3281 99.6829L19.3099 99.6597L19.3098 99.6598ZM17.8684 97.7265L19.338 99.6002L19.6745 99.3364L18.5014 97.8405L19.8159 96.8095L20.8429 98.119L21.1795 97.8551L20.1524 96.5457L21.4048 95.5634L22.5149 96.9789L22.8514 96.715L21.4447 94.9215L17.8683 97.7266L17.8684 97.7265ZM21.6922 104.34L21.3447 103.942L22.2759 103.129L19.9205 100.432C21.0911 99.4095 22.2604 98.3854 23.4325 97.3645L23.8262 97.815L20.7252 100.524L22.2543 102.274L25.3553 99.5656L25.7488 100.016L22.6478 102.725L23.0539 103.19L21.7116 104.362L21.6922 104.34ZM21.428 103.948L21.7173 104.279L22.9707 103.184L22.5646 102.719L25.6656 100.011L25.3496 99.6489L22.2486 102.358C21.712 101.746 21.1751 101.133 20.6418 100.518L23.7428 97.8095L23.4268 97.4478L20.0036 100.438L22.3591 103.134L21.4278 103.948L21.428 103.948ZM25.9877 106.732L25.5744 106.339L27.8844 103.906C27.9881 103.796 28.0784 103.705 28.1553 103.632L28.2383 103.556L28.2075 103.567C28.1556 103.585 28.1034 103.6 28.0516 103.612L23.7906 104.646C23.6175 104.483 23.4453 104.319 23.2733 104.155C24.3412 103.026 25.4135 101.9 26.4836 100.773L26.9176 101.185L24.6648 103.558C24.5464 103.683 24.4466 103.785 24.3657 103.864L24.2702 103.955L24.319 103.94C24.3758 103.924 24.4373 103.908 24.5029 103.892L28.6829 102.861L29.2194 103.37C28.1514 104.499 27.079 105.624 26.0092 106.752L25.9876 106.732L25.9877 106.732ZM25.6577 106.337L26.007 106.669L29.136 103.372L28.6658 102.926L24.5172 103.949C24.4534 103.965 24.3928 103.981 24.3356 103.997C24.279 104.013 24.2261 104.03 24.1776 104.048L24.1605 104.054L24.1137 104.009L24.1409 103.988C24.1825 103.956 24.2439 103.901 24.3247 103.822C24.4048 103.743 24.5041 103.642 24.6223 103.518L26.8344 101.187L26.4859 100.856L23.3568 104.153L23.808 104.581L28.0381 103.555C28.0885 103.543 28.1385 103.528 28.1881 103.511C28.2384 103.493 28.2887 103.473 28.3384 103.449L28.3566 103.441L28.4112 103.492L28.3827 103.513C28.3337 103.549 28.2714 103.603 28.1961 103.675C28.12 103.747 28.0303 103.837 27.9273 103.946L25.6579 106.337L25.6577 106.337ZM29.7908 109.833L29.3072 109.448L29.7275 108.136L28.2305 106.946L27.0687 107.669C26.8951 107.533 26.7223 107.394 26.5494 107.256C27.9831 106.41 29.4195 105.568 30.8514 104.719L31.3208 105.092C30.8172 106.679 30.3232 108.271 29.8245 109.86L29.7908 109.833V109.833ZM29.3759 109.428L29.7939 109.76L31.2523 105.113L30.8463 104.79L26.6534 107.264L27.0729 107.597L28.2347 106.874C28.755 107.287 29.2749 107.702 29.7963 108.115L29.3759 109.428V109.428ZM29.9109 107.584L30.5523 105.64C30.5637 105.606 30.5814 105.564 30.6053 105.514L30.632 105.461L30.5917 105.493C30.5483 105.527 30.5085 105.555 30.4732 105.577L28.7277 106.644L29.9109 107.584L29.9109 107.584ZM30.6085 105.658L29.9406 107.683C29.5019 107.335 29.0628 106.987 28.6248 106.637L30.4424 105.526C30.4759 105.506 30.5137 105.479 30.5552 105.447C30.5961 105.415 30.6403 105.377 30.6871 105.334L30.7057 105.317L30.7554 105.357L30.7431 105.379C30.7088 105.44 30.6805 105.494 30.6585 105.54C30.636 105.587 30.6191 105.627 30.6086 105.658H30.6085ZM33.0662 112.157L32.6023 111.827L34.9844 108.469L33.9871 107.762C33.6036 108.179 33.2719 108.535 32.9926 108.83C32.7038 109.135 32.4713 109.374 32.2958 109.547C32.1216 109.718 31.9654 109.864 31.8277 109.983C31.6892 110.103 31.5685 110.197 31.4663 110.265C31.363 110.333 31.2611 110.385 31.1615 110.42C31.0613 110.455 30.9627 110.474 30.8666 110.475C30.7703 110.477 30.6759 110.463 30.5838 110.432C30.4916 110.402 30.4014 110.355 30.3134 110.293C30.2435 110.243 30.181 110.192 30.1266 110.139C30.0717 110.086 30.0248 110.032 29.9862 109.976L29.9745 109.959L30.3081 109.489L30.3298 109.535C30.3555 109.589 30.3879 109.639 30.4264 109.685C30.4654 109.73 30.5108 109.772 30.5627 109.808C30.6123 109.843 30.6713 109.863 30.7393 109.866C30.8093 109.87 30.8894 109.857 30.9789 109.827C31.0692 109.797 31.1967 109.717 31.3614 109.585C31.5285 109.452 31.7325 109.267 31.9729 109.032C32.215 108.796 32.4947 108.512 32.8119 108.181C33.1284 107.85 33.4834 107.471 33.8763 107.045L33.894 107.026C34.524 107.476 35.1562 107.923 35.7884 108.37C34.8907 109.639 33.9895 110.905 33.0906 112.173L33.0664 112.156L33.0662 112.157ZM32.6846 111.813L33.0763 112.091L35.7057 108.384L33.9019 107.104C33.5166 107.522 33.1673 107.895 32.8542 108.222C32.5367 108.553 32.2565 108.837 32.0139 109.074C31.7711 109.312 31.5658 109.498 31.3979 109.632C31.2277 109.768 31.094 109.851 30.9971 109.883C30.9004 109.915 30.8133 109.929 30.7362 109.925C30.6566 109.921 30.5871 109.898 30.5282 109.857C30.4722 109.817 30.423 109.772 30.3811 109.723C30.3498 109.686 30.3222 109.646 30.2987 109.604L30.0465 109.96C30.0806 110.006 30.1209 110.052 30.1672 110.097C30.2194 110.147 30.2797 110.197 30.3473 110.244C30.4307 110.304 30.5158 110.348 30.602 110.376C30.6881 110.405 30.776 110.418 30.8654 110.416C30.9552 110.415 31.0475 110.398 31.1419 110.364C31.2368 110.331 31.3341 110.281 31.4335 110.216C31.5338 110.149 31.6525 110.057 31.7888 109.939C31.9259 109.82 32.0812 109.675 32.2543 109.505C32.429 109.333 32.6611 109.094 32.9497 108.79C33.2319 108.491 33.5692 108.129 33.9611 107.702L33.9787 107.683C34.341 107.941 34.7035 108.198 35.0665 108.455L32.6844 111.813H32.6846ZM37.4555 114.673L36.9609 114.39L38.6283 111.478C38.703 111.347 38.7692 111.237 38.8267 111.148L38.8894 111.054L38.8621 111.072C38.8163 111.102 38.7692 111.129 38.7215 111.153L34.8267 113.167C34.6199 113.05 34.414 112.931 34.2077 112.813L36.5251 108.766L37.0445 109.064L35.4182 111.903C35.3327 112.053 35.26 112.175 35.2004 112.271L35.1291 112.382L35.1729 112.356C35.2246 112.327 35.2805 112.297 35.3402 112.266L39.1567 110.273L39.7985 110.641C39.0278 111.991 38.2524 113.338 37.4812 114.688L37.4554 114.673L37.4555 114.673ZM37.0415 114.368L37.4592 114.607L39.7179 110.663L39.1553 110.341L35.3674 112.318C35.3086 112.348 35.2535 112.378 35.2024 112.408C35.1524 112.436 35.1051 112.465 35.0611 112.495L35.046 112.505L34.9897 112.473L35.0112 112.446C35.0436 112.405 35.0902 112.336 35.1503 112.24C35.2097 112.144 35.2821 112.022 35.3671 111.874L36.9638 109.085L36.547 108.847L34.2883 112.791L34.8281 113.1L38.6945 111.1C38.7404 111.077 38.7857 111.051 38.8299 111.022C38.8744 110.994 38.9182 110.962 38.9612 110.927L38.977 110.914L39.0421 110.952L39.0194 110.979C38.9803 111.025 38.9327 111.092 38.8764 111.18C38.8197 111.268 38.7541 111.377 38.6796 111.507L37.0414 114.368L37.0415 114.368ZM38.4447 114.954L38.7117 114.368L38.7401 114.419C38.8475 114.61 38.9794 114.777 39.1351 114.919C39.2911 115.062 39.4715 115.18 39.676 115.273C39.8243 115.34 39.9656 115.383 40.0995 115.401C40.2325 115.419 40.3586 115.412 40.4775 115.381C40.5952 115.349 40.6973 115.296 40.7833 115.221C40.8693 115.146 40.9399 115.048 40.9947 114.928C41.1129 114.669 41.1141 114.434 40.9987 114.226C40.8813 114.015 40.6437 113.827 40.2865 113.664L39.8238 113.453L40.0338 112.993L40.4615 113.188C40.6138 113.257 40.7565 113.303 40.8891 113.323C41.0203 113.344 41.1422 113.34 41.2543 113.313C41.3653 113.286 41.462 113.236 41.5442 113.163C41.6269 113.091 41.6954 112.995 41.7495 112.876C41.7957 112.775 41.8204 112.676 41.8234 112.579C41.8264 112.483 41.808 112.389 41.7683 112.298C41.728 112.206 41.668 112.124 41.5882 112.051C41.5078 111.977 41.4068 111.913 41.2861 111.857C41.114 111.779 40.9315 111.728 40.7391 111.706C40.5462 111.684 40.3432 111.689 40.1304 111.723L40.0762 111.731L40.3327 111.169L40.3499 111.167C40.5455 111.152 40.7433 111.163 40.9426 111.202C41.1413 111.24 41.3423 111.305 41.5452 111.398C41.7469 111.49 41.9163 111.596 42.053 111.716C42.1906 111.837 42.296 111.973 42.3689 112.123C42.4413 112.274 42.4781 112.426 42.4784 112.581C42.4789 112.735 42.4432 112.892 42.3711 113.05C42.2445 113.328 42.0725 113.524 41.856 113.638C41.6643 113.739 41.4381 113.775 41.178 113.747C41.2786 113.817 41.3647 113.894 41.4363 113.978C41.5285 114.088 41.5969 114.21 41.6414 114.343C41.6858 114.477 41.703 114.613 41.6933 114.75C41.6838 114.886 41.6473 115.024 41.5841 115.162C41.4948 115.358 41.3795 115.518 41.2386 115.643C41.0973 115.767 40.9302 115.856 40.7381 115.909C40.5464 115.961 40.3421 115.973 40.126 115.945C39.9108 115.916 39.6831 115.847 39.4435 115.738C39.2045 115.629 39.002 115.512 38.8366 115.386C38.67 115.26 38.5399 115.125 38.4466 114.982L38.4378 114.968L38.4445 114.954H38.4447ZM38.7174 114.497L38.5051 114.963C38.5938 115.096 38.7163 115.221 38.8724 115.339C39.0349 115.462 39.2337 115.577 39.4682 115.684C39.7022 115.791 39.9242 115.858 40.1338 115.886C40.3423 115.914 40.5389 115.902 40.7228 115.852C40.9061 115.802 41.0653 115.717 41.1998 115.598C41.3346 115.48 41.4451 115.326 41.5308 115.138C41.5908 115.006 41.6256 114.875 41.6346 114.746C41.6437 114.617 41.6273 114.489 41.5857 114.362C41.5438 114.235 41.4791 114.12 41.3915 114.017C41.3041 113.913 41.1936 113.821 41.0602 113.741L41.0376 113.727L41.0635 113.671L41.0858 113.674C41.3763 113.723 41.6242 113.694 41.8288 113.586C42.0336 113.478 42.1968 113.291 42.3178 113.025C42.3862 112.875 42.4201 112.727 42.4197 112.581C42.4194 112.435 42.3846 112.291 42.3162 112.148C42.2466 112.006 42.146 111.876 42.0142 111.76C41.8814 111.644 41.7169 111.54 41.521 111.451C41.323 111.361 41.1265 111.297 40.9319 111.26C40.7437 111.223 40.557 111.212 40.3721 111.225L40.1754 111.657C40.3742 111.629 40.5646 111.626 40.7461 111.647C40.9445 111.67 41.133 111.723 41.3109 111.804C41.4373 111.861 41.5434 111.929 41.6284 112.007C41.7144 112.086 41.7792 112.175 41.8228 112.274C41.8661 112.374 41.8861 112.476 41.8828 112.581C41.8796 112.685 41.8531 112.792 41.8035 112.901C41.7458 113.027 41.6725 113.13 41.5838 113.208C41.4945 113.286 41.3894 113.34 41.2685 113.37C41.149 113.399 41.0195 113.403 40.8804 113.381C40.7423 113.36 40.5945 113.313 40.4373 113.241L40.0632 113.071L39.9021 113.424L40.3113 113.611C40.6803 113.779 40.9269 113.975 41.0505 114.197C41.1756 114.423 41.1751 114.675 41.0485 114.953C40.9902 115.081 40.9147 115.185 40.8223 115.266C40.7292 115.347 40.6191 115.404 40.4927 115.438C40.3664 115.471 40.2327 115.479 40.092 115.46C39.9525 115.441 39.8055 115.397 39.6516 115.327C39.4413 115.231 39.2559 115.109 39.0955 114.963C38.9486 114.829 38.8225 114.674 38.7175 114.497H38.7174ZM45.4646 118.145L44.9333 117.939L46.1484 114.811C46.2031 114.67 46.2523 114.552 46.2955 114.456L46.3433 114.353L46.3191 114.375C46.2778 114.412 46.2353 114.446 46.1919 114.476L42.6408 117.048C42.4189 116.963 42.1973 116.876 41.976 116.79L43.6649 112.443L44.2226 112.66L43.0375 115.71C42.9744 115.872 42.9207 116.005 42.8767 116.107L42.8227 116.227L42.8623 116.195C42.9086 116.158 42.9595 116.12 43.0142 116.08L46.4915 113.542L47.1809 113.809C46.6163 115.257 46.053 116.707 45.4921 118.156L45.4646 118.145ZM45.0096 117.905L45.4584 118.08L47.1045 113.843L46.5001 113.608L43.0488 116.128C42.9957 116.166 42.9458 116.204 42.8991 116.241C42.8528 116.278 42.8103 116.313 42.7723 116.348L42.7587 116.36L42.6984 116.336L42.7155 116.307C42.7422 116.261 42.778 116.186 42.8224 116.083C42.8675 115.979 42.921 115.847 42.9825 115.689L44.1462 112.693L43.6984 112.52L42.0523 116.756L42.6321 116.982L46.1576 114.428C46.1999 114.398 46.2408 114.366 46.2798 114.331C46.3197 114.296 46.3585 114.257 46.3955 114.217L46.4092 114.202L46.4792 114.229L46.4608 114.259C46.4293 114.311 46.392 114.384 46.3493 114.48C46.3061 114.576 46.2574 114.693 46.2034 114.832L45.0095 117.905L45.0096 117.905ZM47.7756 117.027L47.2942 118.702L46.7191 118.537C47.1461 117.043 47.5756 115.548 48.0069 114.055L49.2511 114.413C49.4905 114.481 49.6951 114.572 49.8645 114.684C50.0348 114.796 50.1698 114.931 50.2696 115.087C50.3692 115.243 50.4284 115.414 50.4472 115.6C50.4658 115.785 50.4444 115.984 50.3833 116.197C50.322 116.41 50.2292 116.594 50.1051 116.748C49.9809 116.902 49.825 117.027 49.6379 117.121C49.4515 117.214 49.2487 117.267 49.0304 117.278C48.8128 117.288 48.5794 117.258 48.331 117.187L47.7756 117.027ZM47.2537 118.629L47.7352 116.954L48.3472 117.13C48.5895 117.199 48.8165 117.229 49.0276 117.219C49.2379 117.208 49.4328 117.158 49.6115 117.068C49.7909 116.978 49.9402 116.859 50.0591 116.711C50.1782 116.563 50.2674 116.386 50.3264 116.181C50.3856 115.974 50.4063 115.783 50.3885 115.606C50.3707 115.43 50.3145 115.267 50.2199 115.119C50.1248 114.97 49.9953 114.841 49.8319 114.733C49.6675 114.625 49.4685 114.537 49.235 114.47L48.0474 114.128L46.7922 118.497L47.2537 118.629ZM48.4314 114.745L47.9264 116.503L48.4415 116.651C48.6174 116.701 48.7784 116.726 48.9238 116.724C49.0676 116.722 49.1967 116.695 49.3102 116.642C49.4236 116.59 49.5191 116.514 49.5962 116.416C49.6739 116.317 49.7337 116.195 49.7754 116.05C49.8569 115.766 49.8348 115.53 49.7091 115.342C49.5824 115.152 49.3495 115.009 49.0109 114.912L48.4314 114.745ZM47.8613 116.515L48.3909 114.672L49.0271 114.855C49.3795 114.956 49.6234 115.108 49.7582 115.309C49.894 115.513 49.9187 115.765 49.8323 116.066C49.7884 116.219 49.7252 116.348 49.6427 116.452C49.5597 116.558 49.457 116.639 49.3352 116.696C49.2142 116.752 49.0768 116.781 48.9242 116.783C48.773 116.785 48.6065 116.76 48.4253 116.708L47.8532 116.543L47.8613 116.515ZM52.2115 120.05C51.8895 119.977 51.6111 119.857 51.3772 119.692C51.1429 119.526 50.9528 119.314 50.8074 119.056C50.6622 118.799 50.5723 118.52 50.5386 118.221C50.505 117.923 50.5269 117.605 50.6043 117.266C50.6877 116.901 50.8123 116.585 50.9775 116.316C51.1432 116.047 51.3502 115.825 51.5976 115.653C51.8456 115.48 52.1169 115.37 52.4115 115.322C52.7059 115.275 53.0233 115.29 53.3632 115.368C53.6768 115.44 53.9484 115.557 54.177 115.721C54.4063 115.885 54.5928 116.095 54.7362 116.351C54.8799 116.607 54.9682 116.884 55.0008 117.183C55.0332 117.481 55.0104 117.8 54.9327 118.141C54.8482 118.51 54.7231 118.83 54.558 119.1C54.3924 119.371 54.1863 119.593 53.9404 119.764C53.6941 119.935 53.4265 120.044 53.1379 120.092C52.8499 120.14 52.541 120.126 52.2115 120.05L52.2115 120.05ZM51.4112 119.643C51.6387 119.804 51.9102 119.921 52.2247 119.993C52.5468 120.066 52.8482 120.08 53.1284 120.034C53.4081 119.988 53.6675 119.881 53.9067 119.715C54.146 119.549 54.3466 119.333 54.5077 119.07C54.6693 118.805 54.7918 118.491 54.8751 118.127C54.9515 117.794 54.9739 117.481 54.9421 117.189C54.9103 116.899 54.8245 116.629 54.6846 116.38C54.5455 116.132 54.3648 115.928 54.1429 115.769C53.9205 115.61 53.6561 115.496 53.35 115.426C53.0173 115.349 52.7074 115.334 52.4209 115.38C52.1352 115.426 51.8718 115.533 51.6313 115.701C51.3905 115.869 51.1892 116.084 51.0278 116.347C50.866 116.61 50.7438 116.921 50.6619 117.279C50.5858 117.611 50.5643 117.924 50.5973 118.215C50.6302 118.506 50.7175 118.777 50.8587 119.028C50.9995 119.277 51.1839 119.483 51.4112 119.643V119.643ZM53.2029 115.891C52.9715 115.838 52.7523 115.832 52.5456 115.872C52.339 115.913 52.1441 116 51.9613 116.134C51.7787 116.268 51.6258 116.437 51.5032 116.64C51.3802 116.844 51.2871 117.083 51.2246 117.356C51.1619 117.629 51.1409 117.884 51.1612 118.121C51.1815 118.356 51.2433 118.573 51.3466 118.771C51.4491 118.968 51.5829 119.129 51.7471 119.253C51.9115 119.378 52.1072 119.466 52.3333 119.518C52.5758 119.573 52.8014 119.584 53.0099 119.549C53.2176 119.514 53.4092 119.433 53.5845 119.307C53.7602 119.182 53.908 119.016 54.0282 118.811C54.1487 118.605 54.2418 118.358 54.3076 118.072C54.3747 117.778 54.4005 117.51 54.3846 117.268C54.3687 117.027 54.3113 116.812 54.2125 116.622C54.1138 116.433 53.9806 116.277 53.8131 116.156C53.6448 116.034 53.4411 115.946 53.2029 115.891ZM52.5342 115.814C52.749 115.772 52.9765 115.779 53.2162 115.833C53.4622 115.89 53.673 115.981 53.8478 116.108C54.023 116.235 54.1623 116.398 54.265 116.595C54.3676 116.792 54.4272 117.015 54.4436 117.264C54.4599 117.512 54.4338 117.785 54.3652 118.085C54.2984 118.377 54.2029 118.629 54.079 118.841C53.9545 119.053 53.8011 119.225 53.6191 119.356C53.4365 119.487 53.2367 119.57 53.0198 119.607C52.8035 119.643 52.5701 119.633 52.3201 119.576C52.0858 119.522 51.8825 119.43 51.7115 119.301C51.54 119.171 51.4007 119.003 51.2941 118.798C51.1872 118.593 51.1232 118.369 51.1023 118.126C51.0813 117.884 51.1029 117.622 51.1669 117.343C51.2308 117.063 51.3262 116.819 51.4525 116.609C51.5793 116.399 51.7373 116.225 51.9263 116.086C52.1164 115.947 52.3189 115.856 52.5342 115.814H52.5342ZM55.3853 120.5L55.9929 115.906L57.3208 116.082C57.5207 116.108 57.6977 116.157 57.8507 116.227C58.0046 116.297 58.1345 116.39 58.2395 116.504C58.3453 116.62 58.4199 116.746 58.4626 116.883C58.5053 117.021 58.5161 117.169 58.4951 117.328C58.4777 117.46 58.4433 117.582 58.3921 117.692C58.3407 117.803 58.2721 117.903 58.187 117.992C58.1022 118.081 58.0055 118.153 57.8973 118.21C57.8143 118.254 57.7241 118.288 57.6272 118.312C57.7455 118.349 57.8524 118.398 57.9472 118.46C58.0658 118.536 58.1662 118.631 58.2477 118.744C58.3296 118.858 58.3856 118.984 58.4157 119.121C58.4458 119.258 58.4501 119.407 58.429 119.568C58.4027 119.767 58.3428 119.943 58.2497 120.095C58.1565 120.248 58.0297 120.377 57.8698 120.482C57.7103 120.586 57.5361 120.658 57.348 120.695C57.16 120.733 56.9576 120.738 56.7411 120.709L55.3816 120.529L55.3854 120.5H55.3853ZM56.0437 115.972L55.4478 120.478L56.7487 120.65C56.9591 120.678 57.1551 120.674 57.3365 120.638C57.5176 120.601 57.6847 120.533 57.8374 120.432C57.9899 120.332 58.1106 120.209 58.1993 120.064C58.288 119.919 58.3452 119.751 58.3704 119.56C58.3907 119.407 58.3865 119.264 58.3579 119.134C58.3296 119.004 58.2768 118.885 58.1999 118.778C58.1227 118.671 58.0276 118.581 57.9154 118.509C57.8026 118.437 57.6718 118.382 57.5238 118.344L57.4982 118.338L57.5062 118.277L57.5274 118.273C57.6531 118.25 57.7674 118.211 57.87 118.158C57.9724 118.104 58.064 118.035 58.1445 117.951C58.225 117.867 58.2899 117.772 58.3385 117.667C58.3871 117.562 58.42 117.447 58.4366 117.321C58.4564 117.17 58.4463 117.03 58.4063 116.901C58.3663 116.772 58.296 116.653 58.1962 116.544C58.0963 116.436 57.9729 116.348 57.8263 116.28C57.6789 116.213 57.5077 116.166 57.3133 116.14L56.0438 115.972H56.0437ZM56.5146 116.526L56.3274 117.941L56.8458 118.009C56.9889 118.028 57.1192 118.028 57.2361 118.008C57.3521 117.989 57.4552 117.951 57.5454 117.893C57.6343 117.836 57.7053 117.763 57.7578 117.673C57.8106 117.583 57.8454 117.475 57.8618 117.351C57.8897 117.139 57.8417 116.971 57.7175 116.848C57.5912 116.722 57.385 116.641 57.0994 116.603L56.5145 116.526L56.5146 116.526ZM56.265 117.962L56.4638 116.459L57.1071 116.544C57.406 116.584 57.6234 116.671 57.7593 116.806C57.8973 116.943 57.9509 117.127 57.9204 117.358C57.903 117.491 57.8657 117.605 57.8087 117.703C57.7514 117.801 57.674 117.881 57.5772 117.943C57.4802 118.005 57.3696 118.046 57.246 118.067C57.1232 118.087 56.9872 118.088 56.8382 118.068L56.2612 117.992L56.265 117.962V117.962ZM56.2559 118.482L56.0463 120.067L56.743 120.159C56.8971 120.179 57.0362 120.179 57.1599 120.159C57.2823 120.138 57.3901 120.098 57.4827 120.037C57.5757 119.977 57.6493 119.9 57.7035 119.808C57.7582 119.716 57.7937 119.606 57.8103 119.48C57.8445 119.221 57.7823 119.015 57.6238 118.863C57.4627 118.708 57.2015 118.607 56.8407 118.559L56.2559 118.482V118.482ZM55.9838 120.088L56.2051 118.416L56.8484 118.501C57.2219 118.55 57.4941 118.657 57.6647 118.82C57.8376 118.986 57.9057 119.209 57.8689 119.488C57.8512 119.622 57.8131 119.738 57.7543 119.838C57.6954 119.938 57.6155 120.021 57.5151 120.086C57.4153 120.152 57.3001 120.195 57.1693 120.217C57.0399 120.238 56.895 120.238 56.7353 120.217L55.9801 120.117L55.9839 120.088L55.9838 120.088ZM62.8359 121.251L62.2197 121.204L61.8309 119.882L59.924 119.737L59.3684 120.988L58.7069 120.938C59.4187 119.432 60.1297 117.927 60.8437 116.423L61.4417 116.468C61.9167 118.064 62.3976 119.66 62.8789 121.254L62.8359 121.251V121.251ZM62.2648 121.148L62.7973 121.189L61.3966 116.524L60.8795 116.485L58.7971 120.885L59.3315 120.926L59.8872 119.675C60.5496 119.727 61.2134 119.778 61.8761 119.826L62.2649 121.148H62.2648ZM61.6733 119.322L61.113 117.353C61.1034 117.318 61.0942 117.273 61.0861 117.219L61.0782 117.16L61.0633 117.209C61.0466 117.262 61.0292 117.307 61.012 117.345L60.1662 119.208L61.6733 119.322ZM61.1698 117.337L61.7534 119.388C61.1948 119.346 60.6359 119.304 60.0774 119.261L60.9582 117.321C60.9745 117.285 60.991 117.242 61.0071 117.191C61.0224 117.143 61.0378 117.088 61.0528 117.025L61.0587 117L61.1222 117.005L61.1243 117.03C61.1304 117.1 61.1372 117.16 61.1448 117.211C61.1527 117.263 61.1611 117.305 61.1698 117.337H61.1698ZM67.1077 121.112L66.539 121.124L66.4968 119.026L64.1731 119.073L64.2154 121.171L63.617 121.182C63.5843 119.628 63.5518 118.074 63.5232 116.52L64.1214 116.508L64.1621 118.527L66.4858 118.48L66.4451 116.461L67.0433 116.449C67.076 118.003 67.1085 119.558 67.1372 121.112L67.1077 121.112ZM66.5969 121.064L67.0771 121.054L66.9856 116.51L66.5054 116.519L66.546 118.538C65.7322 118.555 64.9182 118.572 64.1042 118.587L64.0635 116.569L63.5833 116.578L63.6747 121.122L64.155 121.113L64.1128 119.015C64.9267 119 65.7407 118.983 66.5546 118.966L66.5969 121.064ZM71.8808 120.627L71.3169 120.701L71.0419 118.621L68.7378 118.926L69.0128 121.006L68.4195 121.085C68.2192 119.543 68.0125 118.002 67.8083 116.461L68.4015 116.383L68.6662 118.385L70.9703 118.08L70.7056 116.078L71.2988 116C71.5027 117.541 71.7092 119.082 71.9101 120.623L71.8808 120.627ZM71.3678 120.635L71.8439 120.572L71.248 116.066L70.7719 116.129L71.0366 118.131C70.2295 118.238 69.4226 118.346 68.6153 118.451L68.3507 116.449L67.8745 116.512L68.4703 121.018L68.9465 120.955L68.6714 118.875C69.4787 118.77 70.2858 118.662 71.0927 118.555L71.3678 120.635ZM77.0848 119.76L76.5232 119.857L75.7279 115.262L76.3187 115.16C76.5874 116.691 76.8512 118.223 77.114 119.755L77.0849 119.76L77.0848 119.76ZM76.5713 119.789L77.0456 119.707L76.2706 115.228L75.7962 115.31L76.5713 119.789ZM73.1673 120.408L72.377 115.842L72.9667 115.74L73.2999 117.665L74.1319 117.521C74.3604 117.481 74.5688 117.474 74.7567 117.498C74.9456 117.523 75.114 117.58 75.2618 117.67C75.4106 117.76 75.5312 117.879 75.6232 118.027C75.7149 118.174 75.7784 118.351 75.814 118.556C75.8507 118.768 75.85 118.965 75.8118 119.145C75.7736 119.325 75.6975 119.49 75.5842 119.637C75.4709 119.785 75.3276 119.905 75.1546 119.999C74.9825 120.092 74.7807 120.159 74.5496 120.199L73.1725 120.437L73.1674 120.408L73.1673 120.408ZM72.4455 115.89L73.2205 120.369L74.5395 120.141C74.7642 120.102 74.96 120.037 75.1265 119.947C75.2921 119.857 75.4291 119.742 75.5372 119.601C75.6452 119.461 75.7175 119.304 75.7539 119.133C75.7904 118.96 75.7911 118.771 75.7556 118.566C75.7215 118.369 75.6605 118.199 75.573 118.058C75.4859 117.918 75.3719 117.805 75.2313 117.721C75.0909 117.635 74.9301 117.581 74.7491 117.557C74.5672 117.533 74.3646 117.541 74.1418 117.579L73.2517 117.733L72.9186 115.809L72.4454 115.89L72.4455 115.89ZM73.3931 118.203L73.6691 119.797L74.3865 119.673C74.5409 119.646 74.6746 119.605 74.7869 119.548C74.8979 119.492 74.9885 119.421 75.0582 119.336C75.1279 119.251 75.1749 119.155 75.1988 119.049C75.2229 118.942 75.224 118.824 75.2015 118.694L75.2011 118.692C75.1558 118.432 75.0436 118.252 74.8646 118.15C74.6832 118.047 74.4317 118.023 74.1103 118.079L73.393 118.203L73.3931 118.203ZM73.6159 119.836L73.3248 118.155C73.5842 118.11 73.8438 118.066 74.103 118.02C74.437 117.962 74.7006 117.989 74.8939 118.099C75.0894 118.21 75.2116 118.405 75.2598 118.684L75.2603 118.687C75.2836 118.823 75.2822 118.948 75.2565 119.062C75.2304 119.177 75.1794 119.281 75.104 119.373C75.029 119.465 74.9319 119.541 74.8134 119.601C74.6956 119.66 74.5564 119.704 74.3964 119.731L73.6209 119.866L73.6159 119.836V119.836ZM81.9394 118.342L81.3916 118.499L80.4649 115.274C80.4233 115.129 80.3905 115.005 80.3666 114.902L80.3428 114.792L80.3368 114.823C80.3264 114.877 80.313 114.93 80.2968 114.981L79.028 119.178L78.3424 119.375L77.0544 114.893L77.6296 114.728L78.5334 117.873C78.5807 118.038 78.618 118.175 78.6453 118.286L78.6752 118.414L78.6873 118.365C78.7022 118.306 78.7195 118.245 78.7387 118.182L79.9688 114.056C80.206 113.989 80.443 113.92 80.6798 113.851C81.1111 115.345 81.5408 116.839 81.9677 118.333L81.9393 118.342L81.9394 118.342ZM81.4322 118.426L81.8948 118.293L80.6395 113.925L80.0166 114.104L78.7956 118.199C78.7763 118.263 78.7592 118.323 78.7448 118.379C78.7302 118.437 78.7179 118.491 78.7086 118.541L78.7052 118.559L78.6428 118.577L78.6385 118.543C78.6319 118.491 78.6152 118.409 78.5881 118.3C78.5612 118.192 78.5241 118.055 78.4766 117.889L77.5892 114.801L77.1276 114.934L78.383 119.302L78.9806 119.13L80.2402 114.964C80.2557 114.915 80.2685 114.864 80.2788 114.812C80.2892 114.759 80.297 114.706 80.3019 114.652L80.3037 114.631L80.3759 114.611L80.3796 114.646C80.3857 114.706 80.4006 114.787 80.4243 114.889C80.448 114.991 80.4806 115.114 80.5218 115.258L81.4322 118.426H81.4322ZM79.6448 112.719C79.6719 112.872 79.6724 113.017 79.6464 113.152C79.6204 113.287 79.5676 113.414 79.4883 113.53C79.4088 113.646 79.3102 113.745 79.1925 113.826C79.0753 113.906 78.9392 113.969 78.7838 114.013C78.6245 114.059 78.4732 114.079 78.3305 114.073C78.1873 114.068 78.0522 114.036 77.9259 113.978C77.8002 113.921 77.6923 113.841 77.6029 113.738C77.5137 113.636 77.4427 113.511 77.3901 113.365L77.3794 113.335L77.9365 113.175L77.946 113.201C78.0132 113.384 78.1071 113.508 78.227 113.573C78.3465 113.638 78.4943 113.645 78.6695 113.595C78.7488 113.572 78.8175 113.539 78.875 113.496C78.9323 113.454 78.9794 113.401 79.0159 113.338C79.053 113.275 79.0773 113.205 79.089 113.127C79.101 113.049 79.1001 112.964 79.0869 112.871L79.0832 112.846L79.639 112.686L79.6448 112.719V112.719ZM79.5883 113.141C79.6112 113.022 79.6123 112.895 79.5919 112.761L79.1488 112.888C79.1596 112.977 79.1593 113.06 79.1476 113.136C79.1348 113.22 79.1079 113.298 79.0668 113.368C79.0264 113.437 78.974 113.496 78.9101 113.543C78.8465 113.591 78.7716 113.626 78.6855 113.651C78.495 113.706 78.3326 113.697 78.199 113.625C78.0718 113.556 77.9721 113.43 77.9003 113.247L77.4565 113.375C77.5052 113.501 77.5689 113.61 77.6473 113.699C77.7312 113.796 77.8325 113.871 77.9504 113.925C78.0694 113.979 78.197 114.009 78.3328 114.014C78.4692 114.02 78.6142 114 78.7676 113.956C78.9168 113.913 79.0474 113.854 79.1591 113.777C79.2705 113.7 79.364 113.607 79.4394 113.496C79.514 113.387 79.5637 113.268 79.5882 113.141L79.5883 113.141ZM84.504 117.165L84.2646 116.568L84.321 116.582C84.5337 116.636 84.7456 116.656 84.9562 116.642C85.1667 116.627 85.3766 116.578 85.5852 116.494C85.7367 116.434 85.8652 116.361 85.9705 116.277C86.0751 116.193 86.1572 116.097 86.2163 115.989C86.2749 115.882 86.307 115.772 86.312 115.658C86.317 115.543 86.2951 115.425 86.2461 115.302C86.14 115.038 85.9714 114.875 85.7409 114.815C85.5068 114.754 85.2072 114.796 84.8427 114.942L84.3706 115.132L84.1822 114.662L84.6188 114.487C84.7739 114.425 84.9051 114.353 85.0116 114.271C85.1173 114.19 85.1991 114.1 85.2565 114C85.3136 113.9 85.3443 113.796 85.3487 113.687C85.3531 113.577 85.3309 113.461 85.2824 113.34C85.2409 113.236 85.1862 113.15 85.1187 113.081C85.0514 113.013 84.9708 112.961 84.8771 112.927C84.7831 112.893 84.6818 112.88 84.5739 112.887C84.465 112.894 84.3487 112.923 84.2255 112.972C84.05 113.042 83.8875 113.139 83.7383 113.263C83.5889 113.387 83.4529 113.538 83.3304 113.715L83.2991 113.76L83.0691 113.186L83.0801 113.173C83.2038 113.02 83.3485 112.885 83.5139 112.767C83.6789 112.65 83.8649 112.55 84.0716 112.467C84.2775 112.385 84.4711 112.335 84.6526 112.319C84.8351 112.303 85.0059 112.321 85.1649 112.372C85.324 112.423 85.4599 112.502 85.5721 112.609C85.6843 112.715 85.7728 112.849 85.8373 113.01C85.9509 113.293 85.9742 113.553 85.9073 113.789C85.848 113.997 85.7182 114.186 85.518 114.354C85.6379 114.33 85.7532 114.321 85.8638 114.327C86.0066 114.336 86.1419 114.371 86.2694 114.431C86.3968 114.491 86.5069 114.572 86.5991 114.674C86.6912 114.775 86.7658 114.896 86.8223 115.037C86.9024 115.237 86.9387 115.431 86.9315 115.619C86.9242 115.808 86.8731 115.99 86.7784 116.165C86.6841 116.34 86.5517 116.496 86.3817 116.633C86.2124 116.769 86.0054 116.886 85.761 116.984C85.5175 117.081 85.293 117.147 85.0877 117.18C84.8812 117.214 84.6939 117.215 84.526 117.183L84.51 117.18L84.504 117.165L84.504 117.165ZM84.3624 116.653L84.5528 117.128C84.7102 117.155 84.8856 117.153 85.0785 117.122C85.2792 117.089 85.4996 117.025 85.7393 116.929C85.9782 116.833 86.1802 116.719 86.3449 116.587C86.5087 116.455 86.636 116.305 86.7265 116.137C86.817 115.97 86.8657 115.796 86.8726 115.617C86.8795 115.437 86.8445 115.251 86.7676 115.059C86.7137 114.925 86.643 114.809 86.5557 114.714C86.4687 114.618 86.3647 114.541 86.2444 114.484C86.124 114.427 85.9958 114.394 85.8606 114.386C85.7251 114.378 85.5822 114.395 85.4323 114.436L85.4068 114.443L85.3836 114.385L85.4018 114.371C85.6377 114.195 85.7874 113.995 85.8506 113.773C85.9139 113.55 85.8912 113.303 85.7826 113.032C85.7212 112.879 85.6374 112.752 85.5316 112.651C85.4259 112.551 85.2975 112.477 85.1471 112.428C84.996 112.38 84.8329 112.363 84.6579 112.378C84.4818 112.394 84.2936 112.442 84.0937 112.522C83.8914 112.603 83.7095 112.701 83.5482 112.816C83.3923 112.927 83.2551 113.054 83.137 113.197L83.3135 113.637C83.4308 113.474 83.56 113.334 83.7007 113.218C83.8544 113.09 84.0223 112.99 84.2037 112.917C84.3329 112.865 84.4551 112.835 84.5702 112.828C84.6862 112.82 84.7955 112.835 84.8975 112.872C84.9994 112.909 85.0874 112.965 85.161 113.04C85.2341 113.114 85.2931 113.207 85.3374 113.318C85.389 113.447 85.4127 113.571 85.4079 113.689C85.4032 113.808 85.3698 113.921 85.3079 114.029C85.2464 114.136 85.1595 114.233 85.0478 114.318C84.937 114.403 84.8011 114.478 84.6409 114.542L84.2592 114.695L84.4036 115.055L84.821 114.888C85.1974 114.737 85.5093 114.694 85.7558 114.758C86.0055 114.823 86.1876 114.998 86.3011 115.281C86.3533 115.411 86.3766 115.538 86.3712 115.66C86.3658 115.784 86.3313 115.903 86.2682 116.018C86.2054 116.132 86.1184 116.234 86.0077 116.323C85.8976 116.411 85.7641 116.487 85.6073 116.55C85.3927 116.636 85.1769 116.686 84.9602 116.701C84.7619 116.715 84.5627 116.699 84.3626 116.653L84.3624 116.653ZM91.4413 114.17L90.8936 114.456L89.8641 113.54L88.1695 114.426L88.3597 115.781C88.1641 115.884 87.9678 115.986 87.7717 116.088C87.5819 114.434 87.3885 112.781 87.1963 111.127L87.7278 110.849C88.9798 111.948 90.2288 113.05 91.4795 114.15L91.4414 114.17L91.4413 114.17ZM90.9026 114.385L91.3758 114.138L87.719 110.92L87.2596 111.161L87.8205 115.996L88.2954 115.748L88.1051 114.393C88.6947 114.086 89.2851 113.779 89.8729 113.468L90.9025 114.385L90.9026 114.385ZM89.4346 113.148L87.917 111.774C87.8904 111.749 87.8592 111.716 87.8236 111.674L87.7855 111.629L87.7988 111.678C87.8123 111.732 87.8217 111.779 87.8271 111.821L88.0948 113.849L89.4345 113.148H89.4346ZM87.9566 111.73L89.5367 113.161C89.0404 113.421 88.5442 113.681 88.0474 113.94L87.7686 111.828C87.7635 111.789 87.7544 111.744 87.7415 111.692C87.7289 111.642 87.7124 111.587 87.6922 111.527L87.6841 111.503L87.7402 111.473L87.7554 111.493C87.7974 111.55 87.8354 111.597 87.8684 111.636C87.9028 111.676 87.9323 111.708 87.9565 111.73L87.9566 111.73ZM94.7763 112.039C94.6716 112.204 94.5372 112.36 94.3733 112.505C94.2101 112.651 94.0172 112.787 93.7948 112.913C93.5066 113.077 93.2205 113.179 92.9369 113.217C92.6528 113.256 92.3707 113.231 92.0913 113.144C91.8117 113.057 91.5587 112.915 91.333 112.721C91.1078 112.526 90.9093 112.279 90.7384 111.978C90.5547 111.655 90.4373 111.335 90.386 111.018C90.3346 110.7 90.3495 110.385 90.4307 110.074C90.5121 109.763 90.6483 109.487 90.839 109.246C91.0297 109.006 91.2748 108.8 91.5739 108.63C91.7648 108.522 91.9476 108.436 92.1222 108.373C92.2973 108.31 92.464 108.27 92.6222 108.254L92.6413 108.252L92.9596 108.812L92.9094 108.812C92.723 108.814 92.5405 108.839 92.3622 108.888C92.1837 108.937 92.0088 109.011 91.838 109.108C91.6118 109.236 91.4284 109.391 91.2882 109.57C91.1484 109.75 91.0511 109.955 90.9967 110.186C90.9419 110.417 90.9367 110.653 90.9812 110.895C91.0258 111.137 91.1203 111.386 91.2647 111.64C91.4017 111.881 91.5578 112.078 91.7325 112.233C91.9065 112.386 92.0996 112.497 92.3115 112.565C92.5234 112.632 92.7356 112.653 92.9477 112.626C93.1602 112.599 93.3734 112.525 93.587 112.404C93.7855 112.291 93.9586 112.163 94.1053 112.021C94.2516 111.88 94.3722 111.723 94.4666 111.553L94.492 111.507L94.7858 112.024L94.7764 112.039L94.7763 112.039ZM94.334 112.461C94.489 112.323 94.6167 112.177 94.7169 112.022L94.4922 111.627C94.3993 111.785 94.2837 111.93 94.1463 112.063C93.9959 112.209 93.819 112.34 93.6161 112.455C93.3955 112.581 93.1749 112.657 92.9547 112.685C92.7343 112.712 92.5139 112.691 92.2934 112.621C92.0737 112.551 91.8734 112.436 91.6932 112.277C91.5135 112.118 91.3535 111.915 91.2132 111.669C91.0655 111.409 90.9686 111.154 90.9228 110.905C90.877 110.655 90.8822 110.411 90.9388 110.172C90.9952 109.933 91.0961 109.72 91.2415 109.534C91.3864 109.348 91.5756 109.189 91.8085 109.057C91.9836 108.957 92.1631 108.882 92.3462 108.831C92.5136 108.785 92.6845 108.759 92.8587 108.754L92.6089 108.315C92.4609 108.332 92.3051 108.37 92.1418 108.429C91.9708 108.49 91.7911 108.574 91.6029 108.681C91.3104 108.848 91.0709 109.048 90.8851 109.283C90.6996 109.517 90.5669 109.786 90.4877 110.088C90.4086 110.392 90.394 110.698 90.4441 111.008C90.4942 111.318 90.6094 111.632 90.7895 111.948C90.9572 112.243 91.1513 112.486 91.3715 112.676C91.5909 112.865 91.8369 113.002 92.1087 113.087C92.3798 113.172 92.6533 113.196 92.9288 113.158C93.2051 113.121 93.484 113.022 93.7654 112.862C93.9839 112.738 94.1736 112.604 94.3338 112.461L94.334 112.461ZM95.5764 106.646L94.5138 107.395L96.8866 110.76L96.3974 111.105L94.0246 107.74L92.9405 108.504L92.6259 108.058C93.5136 107.435 94.4015 106.81 95.286 106.183L95.6006 106.629L95.5764 106.646ZM94.4557 107.364L95.5182 106.615L95.2718 106.265L92.7085 108.073L92.9549 108.422L94.0389 107.658L96.4118 111.023L96.8042 110.746L94.4314 107.381L94.4557 107.364ZM98.0008 107.777L99.0766 109.149L98.6057 109.518C97.6478 108.294 96.6882 107.071 95.7277 105.849L96.7465 105.05C96.9426 104.896 97.1356 104.783 97.3253 104.712C97.5163 104.639 97.7046 104.609 97.8897 104.62C98.0745 104.63 98.2478 104.683 98.4091 104.776C98.5697 104.869 98.7186 105.003 98.8554 105.177C98.9924 105.352 99.0872 105.535 99.1392 105.726C99.1914 105.917 99.2009 106.116 99.1676 106.323C99.1343 106.529 99.0579 106.724 98.9387 106.907C98.8201 107.09 98.6588 107.261 98.4555 107.421L98.0008 107.777L98.0008 107.777ZM98.9937 109.139L97.9179 107.767L98.419 107.374C98.6174 107.219 98.7743 107.052 98.8893 106.875C99.004 106.698 99.0774 106.511 99.1094 106.313C99.1413 106.115 99.1324 105.924 99.0824 105.741C99.0324 105.558 98.9412 105.382 98.8089 105.214C98.6767 105.045 98.5334 104.916 98.3794 104.827C98.2262 104.738 98.0618 104.689 97.8863 104.678C97.7094 104.668 97.5293 104.698 97.3461 104.767C97.1617 104.836 96.9739 104.946 96.7828 105.096L95.8105 105.859L98.6156 109.435L98.9936 109.139L98.9937 109.139ZM96.5354 105.909L97.664 107.348L98.086 107.017C98.2297 106.904 98.3437 106.788 98.4276 106.669C98.5106 106.552 98.5641 106.431 98.5876 106.308C98.6115 106.185 98.6063 106.064 98.572 105.944C98.5375 105.823 98.4733 105.703 98.3802 105.584C98.1981 105.352 97.9939 105.231 97.768 105.223C97.5399 105.215 97.287 105.319 97.01 105.537L96.5355 105.909L96.5354 105.909ZM97.6357 107.408L96.4525 105.899L96.9733 105.49C97.2619 105.264 97.5276 105.155 97.7698 105.164C98.0142 105.173 98.2332 105.301 98.4265 105.547C98.5247 105.672 98.5922 105.799 98.6288 105.927C98.6657 106.057 98.6713 106.187 98.6457 106.319C98.6205 106.45 98.5638 106.579 98.4758 106.703C98.3888 106.827 98.2707 106.947 98.1222 107.063L97.6538 107.431L97.6356 107.407L97.6357 107.408ZM103.007 105.897C102.768 106.125 102.514 106.29 102.247 106.394C101.979 106.497 101.697 106.538 101.403 106.517C101.108 106.495 100.826 106.416 100.558 106.278C100.292 106.141 100.038 105.946 99.7988 105.694C99.5417 105.423 99.3468 105.144 99.2146 104.858C99.082 104.571 99.0123 104.276 99.0057 103.974C98.9987 103.672 99.0572 103.385 99.1807 103.113C99.3043 102.842 99.4928 102.586 99.7458 102.346C99.9794 102.125 100.228 101.964 100.491 101.864C100.754 101.764 101.032 101.725 101.325 101.747C101.617 101.769 101.897 101.849 102.164 101.987C102.43 102.125 102.683 102.321 102.924 102.574C103.185 102.849 103.382 103.13 103.515 103.418C103.649 103.705 103.72 103.999 103.726 104.299C103.732 104.599 103.675 104.883 103.555 105.149C103.435 105.415 103.253 105.665 103.007 105.898L103.007 105.897ZM102.225 106.339C102.486 106.238 102.733 106.077 102.967 105.855C103.206 105.627 103.385 105.384 103.501 105.125C103.618 104.866 103.673 104.591 103.667 104.3C103.661 104.009 103.593 103.723 103.462 103.442C103.331 103.161 103.137 102.885 102.881 102.615C102.645 102.367 102.397 102.175 102.137 102.04C101.878 101.905 101.605 101.828 101.321 101.806C101.037 101.785 100.767 101.822 100.512 101.919C100.256 102.016 100.014 102.173 99.7866 102.389C99.5391 102.624 99.3549 102.874 99.2345 103.138C99.1148 103.402 99.0581 103.68 99.0647 103.973C99.0711 104.267 99.1391 104.553 99.2682 104.833C99.3976 105.114 99.5889 105.387 99.8415 105.654C100.076 105.901 100.324 106.092 100.585 106.226C100.846 106.36 101.12 106.437 101.407 106.458C101.693 106.479 101.966 106.439 102.225 106.339L102.225 106.339ZM100.093 102.769C99.9207 102.933 99.794 103.112 99.7132 103.306C99.6326 103.501 99.5974 103.711 99.6078 103.938C99.6181 104.164 99.6741 104.385 99.7755 104.599C99.8771 104.815 100.025 105.024 100.217 105.228C100.411 105.431 100.611 105.59 100.819 105.704C101.026 105.817 101.241 105.886 101.463 105.909C101.684 105.933 101.893 105.911 102.087 105.843C102.282 105.775 102.464 105.661 102.632 105.502C102.812 105.33 102.946 105.148 103.032 104.955C103.118 104.763 103.157 104.558 103.15 104.343C103.142 104.127 103.086 103.912 102.981 103.699C102.876 103.484 102.723 103.27 102.52 103.057C102.313 102.838 102.104 102.668 101.894 102.548C101.684 102.428 101.473 102.356 101.261 102.333C101.049 102.311 100.845 102.336 100.651 102.408C100.457 102.48 100.27 102.601 100.093 102.769H100.093ZM99.6587 103.284C99.7426 103.081 99.8739 102.896 100.052 102.726C100.235 102.553 100.428 102.428 100.631 102.353C100.833 102.277 101.046 102.251 101.267 102.275C101.488 102.298 101.707 102.372 101.923 102.496C102.138 102.62 102.352 102.793 102.563 103.016C102.77 103.234 102.927 103.453 103.034 103.673C103.142 103.894 103.201 104.117 103.208 104.341C103.216 104.565 103.175 104.778 103.086 104.979C102.996 105.179 102.859 105.368 102.673 105.544C102.498 105.71 102.309 105.828 102.106 105.899C101.904 105.97 101.687 105.993 101.457 105.968C101.227 105.944 101.005 105.873 100.791 105.756C100.578 105.639 100.372 105.477 100.175 105.268C99.9773 105.06 99.8264 104.846 99.722 104.625C99.6174 104.403 99.5595 104.174 99.5488 103.94C99.5382 103.705 99.5748 103.486 99.6588 103.284L99.6587 103.284ZM107.734 100.811L107.362 101.243L104.823 99.0489C104.709 98.9505 104.613 98.8645 104.537 98.791L104.457 98.7115L104.469 98.742C104.49 98.7928 104.507 98.8441 104.522 98.8955L105.754 103.104C105.599 103.284 105.443 103.464 105.287 103.643C104.11 102.629 102.935 101.611 101.759 100.595L102.15 100.142L104.626 102.281C104.757 102.394 104.863 102.489 104.946 102.566L105.041 102.657L105.024 102.608C105.005 102.552 104.986 102.491 104.967 102.427L103.741 98.2999L104.225 97.7402C105.402 98.7548 106.577 99.773 107.753 100.789L107.734 100.811H107.734ZM107.356 101.159L107.67 100.795L104.231 97.8235L103.807 98.3141L105.024 102.411C105.042 102.474 105.061 102.534 105.08 102.589C105.099 102.645 105.118 102.697 105.138 102.745L105.145 102.762L105.103 102.811L105.08 102.784C105.047 102.744 104.988 102.686 104.906 102.609C104.824 102.532 104.717 102.438 104.588 102.326L102.156 100.225L101.842 100.588L105.281 103.56L105.688 103.089L104.465 98.9118C104.451 98.8623 104.434 98.8128 104.414 98.764C104.395 98.7147 104.372 98.6654 104.346 98.6169L104.336 98.599L104.386 98.5421L104.408 98.5697C104.446 98.6166 104.503 98.6763 104.578 98.7484C104.653 98.821 104.748 98.9062 104.861 99.0042L107.356 101.159H107.356ZM102.739 97.3574C102.845 97.4709 102.925 97.5918 102.977 97.7193C103.029 97.8473 103.054 97.9819 103.051 98.1223C103.049 98.2633 103.02 98.3998 102.966 98.5315C102.911 98.663 102.831 98.7899 102.726 98.912C102.617 99.0375 102.502 99.1371 102.379 99.2103C102.256 99.284 102.125 99.3314 101.988 99.3521C101.852 99.3728 101.718 99.3645 101.587 99.3276C101.456 99.2907 101.328 99.2252 101.204 99.1315L101.179 99.1124L101.558 98.6737L101.58 98.6901C101.736 98.8063 101.883 98.8586 102.019 98.8475C102.154 98.8365 102.282 98.7617 102.401 98.624C102.455 98.5616 102.494 98.4966 102.519 98.4293C102.544 98.3624 102.555 98.2924 102.551 98.2199C102.547 98.1465 102.529 98.0741 102.497 98.0033C102.464 97.9315 102.417 97.8604 102.355 97.7903L102.338 97.771L102.716 97.3334L102.739 97.3574H102.739ZM102.923 97.7417C102.877 97.63 102.808 97.5232 102.718 97.422L102.416 97.7708C102.474 97.8389 102.519 97.9084 102.551 97.979C102.586 98.0571 102.606 98.1365 102.61 98.2171C102.614 98.2978 102.602 98.3754 102.575 98.4499C102.548 98.524 102.504 98.595 102.446 98.6628C102.316 98.8128 102.175 98.8943 102.024 98.9067C101.88 98.9184 101.727 98.8675 101.567 98.7537L101.265 99.1032C101.376 99.1825 101.488 99.2386 101.603 99.2709C101.725 99.3055 101.851 99.3131 101.98 99.2937C102.109 99.2741 102.232 99.2293 102.349 99.1597C102.466 99.0898 102.577 98.9942 102.681 98.8735C102.783 98.756 102.859 98.6345 102.911 98.5093C102.962 98.3844 102.99 98.255 102.992 98.1213C102.995 97.9886 102.972 97.8619 102.923 97.7418L102.923 97.7417ZM112.951 95.9527L112.646 96.3827L111.638 95.6674L108.659 99.8663C107.39 98.9694 106.123 98.0681 104.856 97.1685L105.202 96.6803L108.56 99.0625L109.513 97.7193L106.155 95.3372L106.501 94.8491L109.859 97.2312L110.81 95.8908L107.451 93.5086L107.798 93.0205L111.156 95.4027L111.514 94.8975L112.968 95.9285L112.951 95.9527ZM112.632 96.3004L112.886 95.9426L111.529 94.9799L111.17 95.485L107.812 93.1029L107.534 93.4947L110.892 95.8768C110.554 96.3567 110.214 96.8353 109.873 97.3135L106.515 94.9315L106.237 95.3232L109.595 97.7053C109.257 98.1861 108.915 98.6658 108.574 99.1448L105.216 96.7627L104.938 97.1545L108.645 99.784L111.623 95.585L112.632 96.3004V96.3004ZM114.283 91.2271L114 91.7217L111.088 90.0543C110.958 89.9795 110.848 89.9134 110.758 89.8559L110.664 89.7932L110.682 89.8205C110.712 89.8663 110.739 89.9134 110.763 89.9611L112.778 93.8559C112.661 94.0627 112.542 94.2686 112.424 94.4749L108.377 92.1575L108.674 91.6381L111.514 93.2644C111.663 93.3499 111.786 93.4226 111.882 93.4822L111.993 93.5535L111.967 93.5096C111.937 93.458 111.907 93.4021 111.876 93.3424L109.884 89.5259L110.251 88.8841C111.601 89.6548 112.949 90.4302 114.298 91.2014L114.283 91.2272L114.283 91.2271ZM113.978 91.6411L114.217 91.2233L110.273 88.9647L109.951 89.5273L111.929 93.3151C111.959 93.374 111.989 93.4291 112.018 93.4802C112.047 93.5302 112.076 93.5775 112.105 93.6215L112.115 93.6366L112.083 93.6929L112.056 93.6714C112.015 93.639 111.947 93.5924 111.85 93.5323C111.755 93.4729 111.633 93.4005 111.484 93.3155L108.696 91.7188L108.457 92.1356L112.402 94.3942L112.711 93.8545L110.711 89.9881C110.688 89.9422 110.662 89.8969 110.633 89.8527C110.604 89.8082 110.572 89.7644 110.537 89.7214L110.525 89.7056L110.562 89.6405L110.589 89.6632C110.636 89.7023 110.703 89.7499 110.79 89.8062C110.878 89.8629 110.987 89.9285 111.117 90.003L113.978 91.6411L113.978 91.6411ZM116.374 87.1901L116.021 87.87L113.32 88.4843C113.268 88.4953 113.226 88.5041 113.193 88.51L113.19 88.5104L115.161 89.5312L114.886 90.0626C113.505 89.3478 112.125 88.6339 110.745 87.9177L111.02 87.3863L112.901 88.3605L112.891 88.34C112.877 88.3099 112.863 88.2766 112.85 88.2406L111.854 85.7765L112.2 85.1091L113.267 87.9165L116.404 87.132L116.374 87.1901H116.374ZM115.982 87.8185L116.291 87.2211L113.23 87.9864L112.191 85.2536L111.919 85.7796L112.905 88.2186C112.918 88.2539 112.931 88.286 112.945 88.3152C112.958 88.3449 112.972 88.3715 112.986 88.3948L112.994 88.4088L112.967 88.4613L111.046 87.4659L110.825 87.8924L114.86 89.9831L115.081 89.5565L113.068 88.5137L113.096 88.4596L113.115 88.4599C113.128 88.4601 113.151 88.4571 113.183 88.4516C113.216 88.4457 113.257 88.4372 113.307 88.4265L115.982 87.8184V87.8185Z" fill="#C29977"/>
<path d="M9.80274 60.4229C10.7904 60.4229 11.6848 60.8233 12.3321 61.4707C12.9794 62.1178 13.3799 63.0122 13.3799 64C13.3799 64.9878 12.9794 65.8822 12.3321 66.5293C11.6848 67.1767 10.7904 67.5772 9.80274 67.5772C8.81492 67.5772 7.92058 67.1767 7.2734 66.5293C6.62606 65.8822 6.22559 64.9878 6.22559 64C6.22559 63.0122 6.62606 62.1178 7.2734 61.4707C7.92058 60.8233 8.81492 60.4229 9.80274 60.4229ZM11.1694 62.6333C10.8198 62.2836 10.3366 62.0673 9.80274 62.0673C9.26892 62.0673 8.78574 62.2836 8.43605 62.6333C8.08637 62.983 7.87002 63.4662 7.87002 64C7.87002 64.5338 8.08637 65.017 8.43605 65.3667C8.78574 65.7164 9.26892 65.9327 9.80274 65.9327C10.3366 65.9327 10.8198 65.7164 11.1694 65.3667C11.5191 65.017 11.7355 64.5338 11.7355 64C11.7355 63.4662 11.5191 62.983 11.1694 62.6333Z" fill="#C29977"/>
<path fill-rule="evenodd" clip-rule="evenodd" d="M115.605 83.8441C115.441 84.2662 114.967 84.4762 114.545 84.313C114.123 84.1499 113.913 83.6753 114.076 83.2532C115.097 80.6114 115.906 77.8929 116.495 75.1245C117.086 72.3543 117.455 69.5415 117.599 66.7131C117.622 66.2608 118.007 65.9128 118.46 65.9358C118.912 65.9588 119.26 66.3443 119.237 66.7965C119.088 69.7177 118.708 72.6165 118.101 75.4649C117.495 78.309 116.661 81.1112 115.604 83.844L115.605 83.8441ZM119.237 61.2051C119.26 61.6574 118.912 62.0428 118.46 62.0659C118.007 62.0889 117.622 61.7409 117.599 61.2886C117.461 58.5676 117.115 55.8654 116.566 53.2061C116.017 50.5484 115.266 47.9316 114.316 45.3798C114.158 44.9558 114.374 44.4841 114.798 44.3263C115.222 44.1686 115.693 44.3842 115.851 44.8082C116.831 47.441 117.606 50.1394 118.172 52.8786C118.738 55.6222 119.095 58.4059 119.237 61.2051Z" fill="#C29977"/>
<path d="M118.489 62.0673C117.955 62.0673 117.472 62.2836 117.123 62.6333C116.773 62.983 116.557 63.4662 116.557 64C116.557 64.5338 116.773 65.017 117.123 65.3667C117.472 65.7164 117.955 65.9327 118.489 65.9327C119.023 65.9327 119.506 65.7164 119.856 65.3667C120.206 65.017 120.422 64.5338 120.422 64C120.422 63.4662 120.206 62.983 119.856 62.6333C119.506 62.2836 119.023 62.0673 118.489 62.0673ZM115.96 61.4707C116.607 60.8233 117.502 60.4229 118.489 60.4229C119.477 60.4229 120.371 60.8233 121.019 61.4707C121.666 62.1178 122.066 63.0122 122.066 64C122.066 64.9878 121.666 65.8822 121.019 66.5293C120.371 67.1767 119.477 67.5772 118.489 67.5772C117.502 67.5772 116.607 67.1767 115.96 66.5293C115.313 65.8822 114.912 64.9878 114.912 64C114.912 63.0122 115.313 62.1178 115.96 61.4707Z" fill="#C29977"/>
<path fill-rule="evenodd" clip-rule="evenodd" d="M36.1542 93.8936L36.1347 95.5361C35.532 95.0135 34.9448 94.4732 34.373 93.9174L36.1542 93.8936Z" fill="#C29977"/>
<path fill-rule="evenodd" clip-rule="evenodd" d="M36.2243 87.9297L36.2024 89.7728L30.6969 89.8467C30.2259 89.2514 29.7707 88.643 29.332 88.0221L36.2243 87.9297Z" fill="#C29977"/>
<path fill-rule="evenodd" clip-rule="evenodd" d="M36.2946 81.967L36.2727 83.8103L26.7829 83.9376C26.4542 83.3362 26.1394 82.7263 25.8398 82.1075L36.2946 81.9671V81.967Z" fill="#C29977"/>
<path fill-rule="evenodd" clip-rule="evenodd" d="M40.3806 75.95L38.3774 76.7513L36.348 77.563L36.3446 77.847L24.121 78.0111C23.9042 77.4059 23.7012 76.794 23.5117 76.1764L40.3806 75.95V75.95Z" fill="#C29977"/>
<path fill-rule="evenodd" clip-rule="evenodd" d="M50.089 69.8572L50.0783 71.7003L22.4779 72.0708C22.3573 71.4625 22.2493 70.8497 22.1553 70.2322L50.0891 69.8573L50.089 69.8572Z" fill="#C29977"/>
<path fill-rule="evenodd" clip-rule="evenodd" d="M50.1222 63.8948L50.1115 65.7379L21.7337 66.1187C21.7015 65.5082 21.6826 64.8939 21.6768 64.2766L50.1222 63.8948Z" fill="#C29977"/>
<path fill-rule="evenodd" clip-rule="evenodd" d="M50.1567 57.9314L50.1459 59.7745L21.8398 60.1543C21.8946 59.5353 21.9611 58.9198 22.0424 58.3088L50.1567 57.9314Z" fill="#C29977"/>
<path fill-rule="evenodd" clip-rule="evenodd" d="M50.1937 51.9683L50.183 53.8113L22.8057 54.1788C22.9531 53.5571 23.1128 52.9401 23.2876 52.3295L50.1938 51.9683L50.1937 51.9683Z" fill="#C29977"/>
<path fill-rule="evenodd" clip-rule="evenodd" d="M50.2273 46.0061L50.2166 47.8492L24.7119 48.1915C24.9647 47.566 25.2318 46.9479 25.5134 46.3378L50.2273 46.0061Z" fill="#C29977"/>
<path fill-rule="evenodd" clip-rule="evenodd" d="M93.5576 93.1229C92.9302 93.7663 92.2821 94.3896 91.6147 94.9918L90.376 95.0084L90.3778 93.1655L93.5576 93.1228V93.1229Z" fill="#C29977"/>
<path fill-rule="evenodd" clip-rule="evenodd" d="M98.4402 87.0942C98.0181 87.7267 97.5793 88.3471 97.1243 88.9548L90.3818 89.0453L90.3836 87.2024L98.4402 87.0942Z" fill="#C29977"/>
<path fill-rule="evenodd" clip-rule="evenodd" d="M101.772 81.0882C101.489 81.7148 101.192 82.3333 100.88 82.943L90.3877 83.0838L90.3895 81.2409L101.772 81.0881V81.0882Z" fill="#C29977"/>
<path fill-rule="evenodd" clip-rule="evenodd" d="M103.941 75.0955C103.768 75.7184 103.581 76.3351 103.38 76.9459L90.3928 77.1202L90.3928 77.0771L85.5635 75.3421L103.941 75.0955L103.941 75.0955Z" fill="#C29977"/>
<path fill-rule="evenodd" clip-rule="evenodd" d="M105.137 69.1175C105.06 69.7373 104.969 70.353 104.865 70.964L84.7275 71.2343L84.736 69.3913L105.137 69.1174V69.1175Z" fill="#C29977"/>
<path fill-rule="evenodd" clip-rule="evenodd" d="M105.454 63.1519C105.458 63.3924 105.463 63.6328 105.463 63.8742C105.463 64.249 105.458 64.6225 105.448 64.9949L84.7549 65.2727L84.7633 63.4296L105.454 63.1519V63.1519Z" fill="#C29977"/>
<path fill-rule="evenodd" clip-rule="evenodd" d="M104.931 57.1965C105.028 57.8053 105.112 58.4189 105.183 59.036L84.7812 59.3099L84.7896 57.4669L104.931 57.1965H104.931Z" fill="#C29977"/>
<path fill-rule="evenodd" clip-rule="evenodd" d="M103.525 51.2522C103.717 51.8581 103.893 52.4705 104.058 53.0879L68.2577 53.5685L65.8438 51.7581L103.525 51.2523V51.2522Z" fill="#C29977"/>
<path fill-rule="evenodd" clip-rule="evenodd" d="M101.139 45.3225C101.437 45.9249 101.721 46.5356 101.991 47.154L60.4491 47.7115L58.0352 45.901L101.139 45.3225Z" fill="#C29977"/>
<path fill-rule="evenodd" clip-rule="evenodd" d="M97.5785 39.4077C98.0091 40.0051 98.4253 40.6135 98.8247 41.2339L52.6394 41.8538L50.2633 40.0717L50.2528 41.8859L27.7188 42.1883C28.1013 41.5574 28.5006 40.9379 28.9149 40.3294L97.5785 39.4077Z" fill="#C29977"/>
<path fill-rule="evenodd" clip-rule="evenodd" d="M92.4374 33.5144C93.0549 34.1017 93.6526 34.7095 94.2335 35.3332L32.1494 36.1665C32.7137 35.5272 33.2954 34.9038 33.8971 34.3002L92.4374 33.5144Z" fill="#C29977"/>
<path fill-rule="evenodd" clip-rule="evenodd" d="M84.6367 27.6565C85.6049 28.2209 86.548 28.8236 87.4649 29.4614L38.7607 30.1151C39.6609 29.4525 40.5884 28.8252 41.5414 28.2349L84.6367 27.6565Z" fill="#C29977"/>
<path fill-rule="evenodd" clip-rule="evenodd" d="M63.5686 21.9802C67.6595 21.9802 71.6124 22.5691 75.3499 23.6624L50.7119 23.9931C54.7634 22.688 59.0831 21.9803 63.5686 21.9803V21.9802Z" fill="#C29977"/>
<path d="M38.8827 104.371C38.7892 104.312 38.6959 104.254 38.6028 104.195L38.6016 104.194V104.194C31.8759 99.9351 26.2919 94.0327 22.4138 87.0503C18.6192 80.2185 16.458 72.3589 16.458 64.0001C16.458 50.872 21.7794 38.9864 30.3827 30.383C38.9861 21.7796 50.8716 16.4583 63.9999 16.4583C77.128 16.4583 89.0136 21.7796 97.617 30.383C106.22 38.9864 111.542 50.8719 111.542 64.0001C111.542 72.5954 109.259 80.6595 105.268 87.6188C101.247 94.6302 95.4859 100.52 88.5734 104.702V104.702L88.5685 104.705C88.3785 104.82 88.1879 104.934 87.9961 105.046L87.9794 105.017L86.395 105.858L86.5222 80.2264L82.8571 78.9096L82.7078 107.73C81.4457 108.258 80.1528 108.697 78.5003 109.218C77.417 109.56 76.3116 109.882 75.2861 110.153V110.153L75.2857 110.153L75.2853 110.153C74.7101 110.305 74.1599 110.441 73.6529 110.556L73.6408 110.502L72.967 110.645L73.2431 73.2807L80.8377 76.0091L80.9147 58.9932L69.0804 61.561L69.2588 111.173H69.0614L69.0654 111.221C67.3513 111.365 65.633 111.437 63.8841 111.43C62.1534 111.423 60.4277 111.335 58.6844 111.16L58.9304 61.6622L67.0271 59.9053L67.0196 57.8175L54.943 48.7601L54.5895 109.344L52.5422 109.335L52.737 75.9425L41.0441 80.6198L40.7243 105.188L38.9044 104.336L38.8827 104.371L38.8827 104.371ZM88.5732 102.289C94.7128 98.3396 99.8421 92.9512 103.486 86.5991C107.303 79.9425 109.486 72.2269 109.486 64.0001C109.486 51.4393 104.395 40.0676 96.1639 31.8362C87.9326 23.6049 76.5608 18.5137 64 18.5137C51.4392 18.5137 40.0674 23.6049 31.836 31.8362C23.6047 40.0675 18.5135 51.4392 18.5135 64.0001C18.5135 72.0072 20.5786 79.5267 24.2043 86.0546C27.7094 92.3651 32.6736 97.7551 38.6416 101.77L39.0131 79.2241L52.7501 73.7294L52.9195 44.6831L69.0633 56.7909L69.0729 59.4614L82.9736 56.4451L82.8685 76.7386L88.571 78.7873L88.5732 102.289ZM75.2862 108.029C76.1174 107.8 77.0011 107.538 77.8823 107.259C78.862 106.95 79.8273 106.623 80.7007 106.303L80.828 78.1805L75.2852 76.1892L75.2862 108.028V108.029ZM60.6757 109.27C61.7558 109.341 62.8258 109.378 63.8922 109.382C64.9821 109.387 66.0844 109.356 67.2048 109.293L67.0347 62.0049L60.9674 63.3214L60.6757 109.27V109.27Z" fill="#C29977"/>
</g>
<defs>
<clipPath id="clip0_660_66">
<rect width="128" height="128" fill="white"/>
</clipPath>
</defs>
</svg>
