<svg width="56" height="56" viewBox="0 0 56 56" fill="none" xmlns="http://www.w3.org/2000/svg">
<rect x="0.5" y="0.5" width="55" height="55" rx="4.5" fill="white" stroke="#D9D9D9"/>
<path d="M28 4C34.6273 4 40.6274 6.68632 44.9705 11.0295C49.3137 15.3726 52 21.3726 52 28C52 34.6273 49.3137 40.6274 44.9705 44.9705C40.6274 49.3137 34.6274 52 28 52C21.3727 52 15.3726 49.3137 11.0295 44.9705C6.68632 40.6274 4 34.6274 4 28C4 21.3727 6.68632 15.3726 11.0295 11.0295C15.3726 6.68632 21.3726 4 28 4ZM44.4256 11.5744C40.222 7.3708 34.4146 4.77079 28 4.77079C21.5854 4.77079 15.778 7.37083 11.5744 11.5744C7.3708 15.778 4.77079 21.5854 4.77079 28C4.77079 34.4146 7.37083 40.222 11.5744 44.4256C15.778 48.6292 21.5854 51.2292 28 51.2292C34.4146 51.2292 40.222 48.6292 44.4256 44.4256C48.6292 40.222 51.2292 34.4146 51.2292 28C51.2292 21.5854 48.6292 15.778 44.4256 11.5744Z" fill="#C29977"/>
<path fill-rule="evenodd" clip-rule="evenodd" d="M9.33038 35.22C9.39156 35.3783 9.31283 35.5563 9.15455 35.6174C8.99626 35.6786 8.81829 35.5999 8.75711 35.4416C8.36082 34.4168 8.04808 33.3659 7.82087 32.2994C7.5933 31.2313 7.45067 30.1442 7.39494 29.0488C7.3863 28.8792 7.51679 28.7347 7.6864 28.726C7.85601 28.7174 8.00054 28.8479 8.00917 29.0175C8.06312 30.0781 8.20174 31.133 8.42302 32.1718C8.64421 33.2099 8.94726 34.2294 9.33035 35.22L9.33038 35.22ZM8.0092 26.9833C8.00057 27.1529 7.85604 27.2834 7.68643 27.2747C7.51682 27.2661 7.38633 27.1216 7.39497 26.952C7.44836 25.9023 7.58216 24.8583 7.79448 23.8295C8.00657 22.8023 8.29718 21.7904 8.66469 20.8031C8.72384 20.6441 8.90074 20.5632 9.05972 20.6224C9.21871 20.6816 9.29958 20.8585 9.24042 21.0174C8.88421 21.9744 8.60243 22.9557 8.39666 23.9523C8.19083 24.9495 8.0611 25.9628 8.0092 26.9833Z" fill="#C29977"/>
<path d="M11.8253 19.006L11.5508 19.5259L10.8559 19.2739L10.5391 19.8741L11.1391 20.3057L10.8846 20.7877L7.86084 18.5024L8.23259 17.7982L11.8252 19.006H11.8253ZM8.57903 18.4585L10.125 19.5708L10.372 19.103L8.57903 18.4585ZM12.9936 17.0953L12.6677 17.6163L11.0115 17.1601L11.2826 17.6134L12.2793 18.237L11.9675 18.7354L8.79615 16.7512L9.10794 16.2529L10.4716 17.1061L9.49912 15.6277L9.81656 15.1202L10.6096 16.4422L12.9936 17.0954V17.0953ZM14.9465 15.5772L14.5631 16.0229L14.1823 15.6952L13.1855 16.8539L10.3495 14.4143L10.7329 13.9686L13.1638 16.0597L13.5751 15.5817L11.1442 13.4906L11.5276 13.0449L13.9584 15.136L14.1606 14.901L14.9466 15.5771L14.9465 15.5772ZM14.2541 13.7074L13.1287 11.4498L13.5609 11.0435L16.1237 13.7686L15.7422 14.1274L14.08 12.3599L15.2127 14.6253L14.7806 15.0317L12.2177 12.3066L12.5993 11.9478L14.2541 13.7074ZM15.9428 12.7661L14.8202 11.1513C14.6494 10.9055 14.5801 10.6716 14.6124 10.4496C14.6446 10.2277 14.7792 10.0343 15.0162 9.86955C15.2531 9.70483 15.4813 9.64605 15.7006 9.69315C15.92 9.74029 16.115 9.88672 16.2859 10.1325L17.4084 11.7473C17.5792 11.993 17.6485 12.2269 17.6163 12.4489C17.584 12.6709 17.4494 12.8643 17.2124 13.029C16.9755 13.1937 16.7473 13.2525 16.528 13.2054C16.3086 13.1583 16.1136 13.0118 15.9428 12.7661ZM16.947 12.1135L15.7818 10.4373C15.6415 10.2354 15.4879 10.1925 15.3212 10.3084C15.1545 10.4243 15.1412 10.5832 15.2816 10.785L16.4468 12.4613C16.5871 12.6631 16.7407 12.7061 16.9074 12.5902C17.0742 12.4743 17.0874 12.3154 16.947 12.1135ZM18.7813 11.9561L18.2679 12.2423L16.4461 8.97497L16.9595 8.68868L17.7012 10.019L18.252 9.71188L17.5103 8.38159L18.0237 8.09531L19.8455 11.3627L19.3321 11.649L18.5123 10.1787L17.9615 10.4858L18.7813 11.9561ZM21.7448 10.5425L20.2623 11.1529L18.838 7.69372L20.3205 7.08329L20.5239 7.57748L19.585 7.96406L19.9615 8.87827L20.7077 8.57104L20.9111 9.06523L20.1649 9.37246L20.6024 10.4349L21.5413 10.0483L21.7448 10.5425V10.5425ZM22.638 10.2799L22.0739 10.4453L21.0215 6.85546L21.8522 6.61192C22.4129 6.44752 22.78 6.6611 22.9534 7.25257L23.0571 7.60644C23.2306 8.19789 23.0369 8.57581 22.4762 8.74017L22.2095 8.81838L22.638 10.28V10.2799ZM21.7359 7.20295L22.0592 8.30552L22.3259 8.22732C22.4216 8.19926 22.4839 8.15221 22.5128 8.08621C22.5417 8.0202 22.5386 7.92734 22.5036 7.80768L22.3787 7.38201C22.3437 7.26237 22.2961 7.18256 22.2361 7.14256C22.1762 7.1026 22.0983 7.09669 22.0026 7.12475L21.7359 7.20295ZM24.6627 9.79178L24.0825 9.88669L23.4784 6.19485L24.0586 6.09991L24.3045 7.60305L24.9269 7.50123L24.6809 5.9981L25.2611 5.90315L25.8651 9.59502L25.285 9.68993L25.0132 8.02863L24.3908 8.13045L24.6627 9.79178ZM26.2753 8.62707L26.2534 6.66052C26.2501 6.36124 26.3241 6.12885 26.4755 5.96322C26.6268 5.79765 26.8468 5.71327 27.1354 5.71005C27.424 5.70684 27.6457 5.78633 27.8007 5.94847C27.9557 6.11065 28.0349 6.34138 28.0382 6.64065L28.0601 8.6072C28.0635 8.90645 27.9894 9.13887 27.8381 9.30447C27.6867 9.47006 27.4668 9.55441 27.1782 9.55766C26.8896 9.56088 26.6678 9.48139 26.5128 9.31921C26.3578 9.15704 26.2786 8.92634 26.2753 8.62707ZM27.4728 8.65112L27.45 6.60978C27.4473 6.36393 27.3444 6.24216 27.1413 6.24444C26.9383 6.2467 26.838 6.37072 26.8408 6.61654L26.8635 8.6579C26.8663 8.90372 26.9692 9.02549 27.1723 9.02324C27.3753 9.02096 27.4755 8.89697 27.4728 8.65112ZM30.0927 9.59175L28.494 9.47062L28.7767 5.74037L30.3753 5.86152L30.335 6.39442L29.3225 6.31771L29.2478 7.30354L30.0524 7.36451L30.0121 7.89738L29.2074 7.83641L29.1206 8.98214L30.1331 9.05888L30.0927 9.59175H30.0927ZM31.4345 8.8802L31.8676 6.96178C31.9335 6.66988 32.0592 6.46083 32.2447 6.3347C32.4303 6.20857 32.6638 6.17727 32.9453 6.24085C33.2268 6.30439 33.4242 6.43295 33.5376 6.62652C33.6509 6.82015 33.6746 7.0629 33.6087 7.35483L33.1757 9.27322C33.1098 9.56515 32.9841 9.7742 32.7985 9.90033C32.613 10.0265 32.3795 10.0577 32.098 9.99418C31.8165 9.93064 31.619 9.80208 31.5057 9.60848C31.3924 9.41485 31.3686 9.1721 31.4345 8.8802ZM32.594 9.18027L33.0435 7.18891C33.0976 6.94908 33.0257 6.80683 32.8276 6.76213C32.6295 6.71742 32.5034 6.81494 32.4492 7.05476L31.9997 9.04612C31.9456 9.28595 32.0175 9.4282 32.2156 9.4729C32.4138 9.51761 32.5398 9.42009 32.594 9.18027ZM34.2404 10.5716L33.3823 10.2731L34.6113 6.73978L36.0801 7.25064L35.9046 7.75542L34.991 7.43769L34.6837 8.32097L34.9866 8.42633C35.5385 8.61826 35.7131 9.00534 35.5107 9.58747L35.372 9.98626C35.1695 10.5684 34.7923 10.7635 34.2404 10.5716L34.2404 10.5716ZM34.5081 8.82575L34.1131 9.96145L34.416 10.0668C34.5102 10.0996 34.5883 10.0975 34.6502 10.0605C34.7121 10.0236 34.7635 9.94626 34.8044 9.82844L34.9677 9.35903C35.0087 9.24124 35.0164 9.1487 34.9908 9.08132C34.9652 9.01391 34.9052 8.96385 34.811 8.93111L34.5081 8.82575ZM39.5776 8.9592L38.0806 11.7948L38.3547 11.9395L37.8681 12.8611L37.3483 12.5866L37.5853 12.1377L35.3924 10.9799L37.139 7.67175L37.6589 7.94621L36.1618 10.7818L36.6014 11.0138L38.0984 8.17825L38.6183 8.45272L37.1212 11.2883L37.5608 11.5203L39.0578 8.68476L39.5777 8.95923L39.5776 8.9592ZM39.645 13.5604L38.3353 12.6356L40.4931 9.57969L41.8028 10.5044L41.4945 10.941L40.6651 10.3553L40.0948 11.163L40.754 11.6285L40.4458 12.065L39.7866 11.5995L39.1238 12.5381L39.9533 13.1238L39.645 13.5604ZM40.4648 13.1328L41.8428 11.6703C42.0432 11.4577 42.2527 11.3443 42.4716 11.3303C42.6905 11.3162 42.901 11.4044 43.1033 11.595C43.3055 11.7856 43.4061 11.9905 43.4051 12.2098C43.404 12.4291 43.3034 12.6451 43.103 12.8577L42.8318 13.1456L42.4273 12.7644L42.7241 12.4494C42.8829 12.2808 42.891 12.1293 42.7484 11.995C42.6058 11.8606 42.455 11.8777 42.2962 12.0462L40.8633 13.5671C40.7069 13.733 40.7001 13.8832 40.8427 14.0176C40.9853 14.152 41.1347 14.1362 41.2911 13.9702L41.6649 13.5734L42.0695 13.9546L41.725 14.3202C41.5247 14.5329 41.315 14.6462 41.0962 14.6603C40.8773 14.6743 40.6668 14.5861 40.4645 14.3955C40.2622 14.2049 40.1616 14 40.1627 13.7807C40.1637 13.5614 40.2644 13.3454 40.4648 13.1328L40.4648 13.1328ZM42.0909 15.9999L41.701 15.5599L44.1007 13.4331L43.693 12.9732L44.093 12.6187L45.2982 13.9786L44.8982 14.3331L44.4906 13.8731L42.0909 15.9999ZM43.2134 17.468L42.6857 16.7088L45.7574 14.5736L46.2638 15.302C46.4346 15.5477 46.5024 15.7685 46.4672 15.9644C46.4319 16.1603 46.2944 16.3416 46.0545 16.5084L45.9316 16.5937C45.6157 16.8134 45.3431 16.8488 45.1139 16.7001L45.1051 16.7062C45.19 17.003 45.0598 17.2714 44.7145 17.5114L44.4513 17.6944C44.2143 17.8591 43.9905 17.9225 43.7797 17.8846C43.5689 17.8467 43.3802 17.7078 43.2134 17.4679V17.468ZM45.6541 15.3613L44.8423 15.9256L44.9735 16.1143C45.0426 16.2138 45.1191 16.2691 45.2028 16.2803C45.2866 16.2915 45.3855 16.2575 45.4995 16.1782L45.6707 16.0592C45.8813 15.9128 45.9296 15.7577 45.8158 15.5939L45.6541 15.3613V15.3613ZM44.4035 16.2307L43.46 16.8865L43.6522 17.163C43.7132 17.2507 43.7801 17.2986 43.853 17.3066C43.9257 17.3145 44.0177 17.2799 44.1289 17.2026L44.3966 17.0165C44.5341 16.9209 44.6144 16.8304 44.6374 16.745C44.6605 16.6595 44.6323 16.5598 44.553 16.4457L44.4035 16.2307H44.4035ZM44.669 18.061L46.3984 17.1246C46.6616 16.9821 46.9017 16.9392 47.1188 16.9959C47.3359 17.0526 47.5131 17.2079 47.6505 17.4617C47.7879 17.7154 47.821 17.9487 47.7498 18.1614C47.6786 18.3742 47.5114 18.5518 47.2483 18.6943L45.5188 19.6306C45.2556 19.7731 45.0155 19.816 44.7985 19.7593C44.5814 19.7026 44.4042 19.5474 44.2668 19.2936C44.1294 19.0398 44.0962 18.8065 44.1675 18.5938C44.2387 18.381 44.4059 18.2035 44.669 18.061ZM45.206 19.1315L47.0013 18.1595C47.2175 18.0425 47.2773 17.8947 47.1806 17.7161C47.0839 17.5375 46.9274 17.5067 46.7112 17.6238L44.916 18.5957C44.6998 18.7128 44.6401 18.8606 44.7367 19.0392C44.8334 19.2178 44.9899 19.2485 45.206 19.1315Z" fill="#C29977"/>
<path d="M9.54589 38.771C9.42392 38.6938 9.31563 38.5723 9.22157 38.4069C9.10006 38.1932 9.07154 37.9833 9.1362 37.7768C9.20065 37.5699 9.34489 37.4028 9.56827 37.2758C9.80842 37.1392 10.0437 37.1014 10.2741 37.1615C10.5042 37.2217 10.6824 37.363 10.8086 37.5849C10.8894 37.7271 10.9361 37.8567 10.9483 37.9737L10.761 38.0801C10.7599 37.9384 10.7225 37.8027 10.6487 37.673C10.5507 37.5007 10.4137 37.3937 10.2374 37.3521C10.0613 37.3104 9.87682 37.3443 9.68419 37.4538C9.50121 37.5579 9.38386 37.6908 9.33213 37.8527C9.28058 38.0149 9.30083 38.1769 9.39346 38.3399C9.47901 38.4903 9.587 38.602 9.71676 38.6739L9.54595 38.771H9.54589ZM10.4082 40.2361L10.2972 40.064L11.5906 39.2297L11.1016 38.4717L9.80827 39.3061L9.69797 39.1351L11.1489 38.1991L11.8591 39.3001L10.4082 40.2361ZM11.2465 41.3723L10.6818 40.6523L12.0403 39.5867L12.5815 40.2766L12.4379 40.3893L12.0216 39.8585L11.5693 40.2132L11.9545 40.7042L11.8109 40.8168L11.4257 40.3258L10.9502 40.6987L11.3901 41.2596L11.2465 41.3723V41.3723ZM12.1496 43.113L12.0266 42.9721L12.3758 42.6671L11.4925 41.6559L12.7928 40.52L12.9259 40.6724L11.763 41.6882L12.351 42.3613L13.5139 41.3455L13.6469 41.4978L12.4841 42.5136L12.6363 42.6879L12.1496 43.1131V43.113ZM13.7542 44.0058L13.6072 43.8662L14.4658 42.9616C14.5434 42.8799 14.6007 42.8255 14.6381 42.7981L14.6327 42.793C14.5948 42.8108 14.5565 42.8243 14.518 42.8332L12.9258 43.2196L12.7443 43.0472L13.9329 41.7949L14.0796 41.9341L13.2425 42.8161C13.1531 42.9104 13.0923 42.9695 13.0607 42.9939L13.064 42.997C13.1012 42.9836 13.1439 42.9714 13.1925 42.9596L14.7541 42.5743L14.9428 42.7535L13.7542 44.0058H13.7542ZM15.1805 45.1714L15.0051 45.0319L15.1627 44.5396L14.5893 44.0838L14.1536 44.3551L13.9776 44.2152L15.5703 43.2756L15.7345 43.4061L15.1805 45.1714ZM15.2242 44.3553L15.4697 43.611C15.4778 43.587 15.4948 43.5511 15.521 43.5042L15.5171 43.5012C15.4806 43.5346 15.4491 43.5589 15.4237 43.5744L14.7556 43.9829L15.2242 44.3553V44.3553ZM16.4163 46.0622L16.2513 45.9451L17.1446 44.6857L16.7536 44.4084C16.4571 44.7313 16.2433 44.9567 16.1132 45.0847C15.9829 45.2129 15.8798 45.3021 15.8037 45.3525C15.7277 45.4029 15.6545 45.4286 15.5848 45.4296C15.5151 45.4311 15.4483 45.4089 15.3839 45.3632C15.3323 45.3266 15.2921 45.288 15.2639 45.2474L15.3736 45.0928C15.3938 45.1354 15.424 45.171 15.4646 45.1997C15.5052 45.2285 15.5605 45.2314 15.6306 45.2081C15.7007 45.1852 15.8263 45.0848 16.0076 44.9075C16.1894 44.73 16.4272 44.4813 16.7218 44.162L17.4152 44.6539L16.4163 46.0622L16.4163 46.0622ZM18.0404 47.001L17.8645 46.9003L18.4843 45.8179C18.5403 45.7201 18.5831 45.6537 18.6129 45.6182L18.6065 45.6145C18.5739 45.6409 18.5398 45.6631 18.5046 45.6808L17.0493 46.4335L16.8321 46.3091L17.6901 44.8108L17.8656 44.9113L17.2613 45.9665C17.1968 46.0792 17.1518 46.1511 17.1269 46.1823L17.1308 46.1845C17.1637 46.1626 17.2023 46.1407 17.2467 46.1178L18.6726 45.3733L18.8984 45.5027L18.0404 47.001ZM18.4183 47.1166L18.5094 46.9168C18.5911 47.0626 18.7098 47.1709 18.8654 47.2418C18.9788 47.2935 19.0814 47.3073 19.1734 47.2828C19.2649 47.2586 19.3321 47.2002 19.3746 47.1071C19.4665 46.9055 19.3759 46.7426 19.1036 46.6185L18.9401 46.5439L19.0097 46.3913L19.1601 46.4599C19.276 46.5128 19.3776 46.5288 19.4646 46.5074C19.5515 46.4861 19.6158 46.4295 19.6577 46.3375C19.6937 46.2586 19.696 46.1833 19.6649 46.1117C19.6334 46.04 19.5712 45.9832 19.4785 45.9409C19.3472 45.881 19.2005 45.8639 19.0387 45.8895L19.1237 45.7033C19.2686 45.6916 19.4161 45.72 19.5664 45.7885C19.7157 45.8566 19.8166 45.9455 19.87 46.0552C19.9229 46.1652 19.9234 46.2779 19.8707 46.3935C19.7778 46.5973 19.6196 46.6807 19.3968 46.6432L19.3947 46.6477C19.4972 46.7093 19.5642 46.7892 19.5966 46.8866C19.6288 46.9844 19.6217 47.0842 19.5755 47.1856C19.5099 47.3296 19.4063 47.421 19.2654 47.4594C19.1244 47.4981 18.9651 47.477 18.7874 47.396C18.6097 47.315 18.4868 47.2219 18.4183 47.1165L18.4183 47.1166ZM21.0483 48.2874L20.8594 48.214L21.3111 47.0514C21.3519 46.9464 21.3843 46.8743 21.4085 46.8347L21.4016 46.832C21.3733 46.8629 21.343 46.89 21.3107 46.9127L19.9838 47.8737L19.7504 47.7831L20.3758 46.1737L20.5643 46.2469L20.1239 47.3804C20.0768 47.5015 20.0431 47.5792 20.0231 47.6138L20.0273 47.6154C20.0566 47.5889 20.0915 47.5614 20.132 47.5321L21.4311 46.5837L21.6736 46.6779L21.0483 48.2873L21.0483 48.2874ZM21.9032 47.8819L21.7227 48.5101L21.5283 48.4542L22.0051 46.7948L22.4611 46.9258C22.6385 46.9768 22.7636 47.0593 22.8367 47.1741C22.9096 47.2882 22.9232 47.4239 22.878 47.5811C22.8328 47.7384 22.7417 47.8516 22.6042 47.9208C22.4672 47.9896 22.3062 47.9977 22.1221 47.9447L21.9032 47.8818V47.8819ZM22.1491 47.0261L21.9536 47.7064L22.1575 47.765C22.2914 47.8035 22.403 47.8022 22.491 47.7612C22.5793 47.7202 22.6393 47.6438 22.6714 47.532C22.7345 47.3127 22.6363 47.166 22.3771 47.0916L22.1491 47.0261V47.0261ZM23.5824 48.9963C23.3435 48.9417 23.1704 48.8194 23.063 48.6291C22.9556 48.4388 22.9303 48.2175 22.988 47.9654C23.05 47.6945 23.1729 47.4949 23.356 47.3673C23.5393 47.2393 23.7572 47.2044 24.0093 47.2621C24.2417 47.3153 24.411 47.4363 24.517 47.6255C24.6234 47.8147 24.6474 48.0357 24.5895 48.2886C24.5266 48.5635 24.4039 48.764 24.2219 48.8906C24.0398 49.0172 23.8268 49.0523 23.5824 48.9963ZM23.9541 47.4367C23.7774 47.3963 23.6194 47.4271 23.4795 47.5297C23.3401 47.6319 23.2464 47.7871 23.199 47.9943C23.1515 48.2019 23.1669 48.3813 23.2457 48.5326C23.3242 48.6834 23.4504 48.7789 23.6231 48.8184C23.8079 48.8607 23.9671 48.8339 24.1013 48.7377C24.2355 48.6415 24.327 48.4849 24.3767 48.2677C24.4277 48.0453 24.4157 47.8617 24.3401 47.7166C24.2645 47.5714 24.1357 47.4783 23.9542 47.4367H23.9541ZM24.7715 49.186L24.9979 47.4743L25.4849 47.5388C25.6328 47.5583 25.7458 47.6102 25.8227 47.6937C25.8999 47.7777 25.931 47.8777 25.9157 47.9938C25.9029 48.0908 25.8652 48.1717 25.8032 48.2364C25.7411 48.3012 25.6622 48.3426 25.5657 48.3605L25.5651 48.3654C25.6786 48.3941 25.7654 48.45 25.825 48.5325C25.8845 48.6154 25.9065 48.7158 25.8909 48.8336C25.8716 48.9799 25.8033 49.0915 25.6861 49.1685C25.569 49.2455 25.4305 49.2732 25.2704 49.252L24.7715 49.1861V49.186ZM25.1745 47.6818L25.1014 48.2344L25.3068 48.2616C25.4164 48.2761 25.5063 48.261 25.5765 48.2165C25.6463 48.1717 25.6875 48.1013 25.7002 48.0051C25.7222 47.8388 25.624 47.7413 25.4047 47.7123L25.1745 47.6818ZM25.0775 48.4154L24.9959 49.0316L25.2682 49.0676C25.386 49.0832 25.4809 49.0676 25.5531 49.0203C25.6257 48.9731 25.668 48.9011 25.6808 48.8037C25.7075 48.6016 25.5832 48.4823 25.3077 48.4459L25.0775 48.4154ZM27.5668 49.4474L27.3434 49.4304L27.1976 48.9345L26.4671 48.879L26.2587 49.3481L26.0345 49.331L26.8256 47.6595L27.0347 47.6754L27.5668 49.4474V49.4474ZM27.145 48.7475L26.9305 47.9937C26.9237 47.9693 26.9176 47.93 26.913 47.8765L26.9081 47.8761C26.8967 47.9243 26.8843 47.9621 26.8719 47.9892L26.5481 48.7022L27.145 48.7475L27.145 48.7475ZM29.1704 49.397L28.9682 49.401L28.9524 48.6143L28.0588 48.6323L28.0747 49.419L27.8724 49.4231L27.8377 47.6968L28.0399 47.6928L28.0551 48.4498L28.9487 48.4318L28.9334 47.6748L29.1356 47.6707L29.1704 49.397ZM30.956 49.2278L30.7555 49.2543L30.6523 48.4742L29.7663 48.5914L29.8695 49.3715L29.6689 49.398L29.4426 47.6863L29.6431 47.6598L29.7424 48.4105L30.6284 48.2933L30.5291 47.5426L30.7296 47.5161L30.956 49.2278ZM32.8976 48.8904L32.6979 48.9249L32.4034 47.2236L32.6031 47.189L32.8976 48.8904ZM31.4414 49.1424L31.1469 47.4411L31.3462 47.4066L31.4711 48.1284L31.794 48.0725C31.9633 48.0432 32.1021 48.0614 32.2102 48.1269C32.3187 48.1924 32.3859 48.3005 32.412 48.4516C32.4391 48.608 32.4111 48.7405 32.328 48.8483C32.2449 48.9566 32.1179 49.0253 31.9469 49.0549L31.4414 49.1424V49.1424ZM31.5023 48.3083L31.6095 48.9281L31.8894 48.8796C32.0073 48.8592 32.0937 48.8159 32.1481 48.7493C32.2025 48.6827 32.2215 48.5997 32.2042 48.4997C32.1691 48.2972 32.0284 48.2172 31.7822 48.2598L31.5023 48.3083ZM34.7283 48.3639L34.5335 48.4199L34.1891 47.2212C34.158 47.1129 34.1401 47.0359 34.1354 46.9898L34.1283 46.9919C34.1245 47.0336 34.1167 47.0734 34.1048 47.1111L33.6307 48.6794L33.3901 48.7485L32.9133 47.0891L33.1076 47.0332L33.4435 48.2019C33.4794 48.3268 33.4996 48.4091 33.5045 48.4487L33.5089 48.4475C33.5161 48.4086 33.5273 48.3656 33.5418 48.3178L34.0014 46.7764L34.2515 46.7045L34.7283 48.364V48.3639ZM33.8599 46.2678C33.8798 46.3801 33.8608 46.4793 33.803 46.5639C33.7449 46.649 33.6592 46.7079 33.545 46.7407C33.4276 46.7744 33.323 46.7703 33.2309 46.7283C33.1393 46.6866 33.0742 46.6116 33.0358 46.5046L33.2234 46.4507C33.2758 46.593 33.371 46.6444 33.5081 46.605C33.5701 46.5872 33.6157 46.5536 33.6446 46.5038C33.6739 46.4539 33.6829 46.3931 33.6726 46.3216L33.8599 46.2678V46.2678ZM35.7002 47.937L35.6185 47.7332C35.7804 47.7747 35.9407 47.7636 36.0994 47.7C36.215 47.6536 36.2958 47.5889 36.3417 47.5055C36.3872 47.4226 36.3915 47.3336 36.3534 47.2386C36.2709 47.0329 36.0906 46.9861 35.8127 47.0974L35.646 47.1642L35.5836 47.0085L35.737 46.9471C35.8553 46.8997 35.937 46.8372 35.9816 46.7595C36.0262 46.6819 36.0296 46.5964 35.992 46.5025C35.9597 46.422 35.9068 46.3684 35.8335 46.3415C35.7599 46.3147 35.6759 46.3205 35.5813 46.3585C35.4473 46.4121 35.3336 46.5064 35.2406 46.6411L35.1644 46.4511C35.2561 46.3382 35.3783 46.2511 35.5317 46.1896C35.684 46.1286 35.818 46.117 35.9343 46.1541C36.0503 46.1917 36.1323 46.2692 36.1795 46.3871C36.2629 46.5951 36.214 46.767 36.033 46.9024L36.0349 46.9069C36.1502 46.8753 36.2543 46.882 36.3471 46.9258C36.4401 46.97 36.5074 47.044 36.5489 47.1474C36.6077 47.2943 36.6024 47.4324 36.5329 47.5608C36.4636 47.6895 36.3383 47.7902 36.157 47.8629C35.9758 47.9355 35.8236 47.9602 35.7 47.937L35.7002 47.937ZM38.2855 46.804L38.0869 46.9079L37.7008 46.5642L37.0516 46.9036L37.1229 47.4118L36.9237 47.516L36.7106 45.6791L36.8964 45.5819L38.2855 46.804V46.804ZM37.5572 46.4333L36.9764 45.907C36.9577 45.89 36.9318 45.8598 36.8995 45.8169L36.8952 45.8191C36.9109 45.8661 36.9204 45.9047 36.9243 45.9343L37.0268 46.7106L37.5572 46.4333ZM39.5237 46.0079C39.4464 46.1299 39.325 46.2382 39.1595 46.3323C38.9458 46.4538 38.7359 46.4823 38.5294 46.4176C38.3225 46.3532 38.1554 46.2089 38.0284 45.9856C37.8918 45.7454 37.854 45.5101 37.9141 45.2797C37.9743 45.0497 38.1156 44.8715 38.3375 44.7453C38.4798 44.6644 38.6093 44.6177 38.7263 44.6056L38.8328 44.7928C38.6911 44.794 38.5554 44.8314 38.4256 44.9052C38.2534 45.0031 38.1463 45.1401 38.1048 45.3165C38.063 45.4925 38.097 45.677 38.2065 45.8696C38.3105 46.0526 38.4434 46.17 38.6053 46.2217C38.7675 46.2733 38.9295 46.253 39.0925 46.1604C39.243 46.0748 39.3547 45.9668 39.4265 45.8371L39.5237 46.0079V46.0079ZM39.8231 43.9935L39.4156 44.2809L40.3054 45.5428L40.14 45.6594L39.2502 44.3974L38.8437 44.6841L38.7385 44.5349L39.7179 43.8444L39.8231 43.9935ZM40.7448 44.4062L41.1482 44.9205L40.9891 45.0453L39.9235 43.6868L40.2968 43.394C40.442 43.2801 40.5822 43.227 40.718 43.2349C40.8532 43.2428 40.9711 43.3112 41.0721 43.44C41.1731 43.5687 41.2115 43.7089 41.187 43.8608C41.1625 44.0122 41.0747 44.1474 40.924 44.2656L40.7448 44.4062H40.7448ZM40.1953 43.7055L40.6322 44.2626L40.7991 44.1316C40.9088 44.0456 40.9731 43.9544 40.9914 43.8591C41.0099 43.7636 40.9831 43.6702 40.9114 43.5786C40.7706 43.3991 40.5942 43.3927 40.382 43.5591L40.1953 43.7055H40.1953ZM42.6083 43.7084C42.4305 43.8771 42.2328 43.9535 42.0148 43.9376C41.7969 43.9217 41.5987 43.8202 41.4207 43.6326C41.2294 43.431 41.1312 43.2182 41.1263 42.995C41.1212 42.7715 41.2128 42.5707 41.4004 42.3927C41.5735 42.2286 41.7679 42.1547 41.9841 42.1711C42.2006 42.1873 42.3979 42.2896 42.5765 42.4778C42.7706 42.6824 42.8696 42.8956 42.8743 43.1172C42.8789 43.339 42.7902 43.5358 42.6082 43.7084L42.6083 43.7084ZM41.5153 42.5353C41.3838 42.6601 41.322 42.8088 41.33 42.9821C41.3379 43.1547 41.4153 43.3187 41.5616 43.4729C41.7081 43.6274 41.866 43.7139 42.0357 43.732C42.2047 43.7501 42.3541 43.698 42.4826 43.576C42.6202 43.4456 42.686 43.2982 42.6802 43.1331C42.6743 42.9681 42.5946 42.8052 42.4412 42.6435C42.2842 42.478 42.1247 42.3863 41.962 42.3689C41.7993 42.3515 41.6504 42.4072 41.5153 42.5354L41.5153 42.5353ZM44.3903 41.7896L44.2578 41.9429L43.314 41.1275C43.2287 41.0538 43.1717 40.9991 43.1426 40.9631L43.1378 40.9687C43.1573 41.0057 43.1726 41.0434 43.1832 41.0813L43.6436 42.6537L43.4799 42.8431L42.1735 41.7143L42.3057 41.5612L43.2258 42.3562C43.3242 42.4412 43.3861 42.499 43.4119 42.5295L43.4149 42.5261C43.3997 42.4896 43.3855 42.4475 43.3715 42.3996L42.9137 40.8576L43.0838 40.6607L44.3903 41.7896H44.3903ZM42.5173 40.5091C42.5953 40.5923 42.6336 40.6857 42.6314 40.7882C42.6293 40.8912 42.5897 40.9873 42.512 41.0773C42.4322 41.1697 42.3423 41.2234 42.2423 41.2386C42.1428 41.2537 42.0473 41.2266 41.9566 41.158L42.0843 41.0102C42.206 41.1007 42.3137 41.0917 42.407 40.9838C42.4492 40.935 42.469 40.8819 42.4659 40.8244C42.4632 40.7666 42.4375 40.7108 42.3898 40.6566L42.5173 40.5091V40.5091ZM46.344 39.9652L46.236 40.1175L45.8578 39.8492L44.7409 41.4238L43.3326 40.425L43.4496 40.2599L44.7091 41.1533L45.0791 40.6315L43.8197 39.7382L43.9367 39.5732L45.1961 40.4665L45.5655 39.9458L44.306 39.0525L44.4231 38.8875L45.6825 39.7808L45.8169 39.5913L46.344 39.9652V39.9652ZM46.8428 38.2058L46.7421 38.3817L45.6598 37.7619C45.562 37.7059 45.4956 37.6631 45.4601 37.6333L45.4564 37.6397C45.4827 37.6723 45.5049 37.7064 45.5226 37.7416L46.2753 39.1969L46.1509 39.4141L44.6526 38.5561L44.7531 38.3806L45.8084 38.9849C45.9211 39.0494 45.9929 39.0944 46.0241 39.1193L46.0264 39.1154C46.0045 39.0825 45.9825 39.0439 45.9596 38.9995L45.2152 37.5737L45.3445 37.3478L46.8428 38.2058ZM47.6281 36.6896L47.4984 36.94L46.4903 37.1692C46.4523 37.1773 46.4276 37.1821 46.4157 37.1819L46.4134 37.1863L47.1682 37.5773L47.0752 37.7569L45.5421 36.9628L45.6351 36.7831L46.3557 37.1564L46.358 37.152C46.3474 37.1341 46.3368 37.1115 46.3268 37.0845L45.9552 36.1652L46.0711 35.9414L46.4659 36.9802L47.6281 36.6896Z" fill="#C29977"/>
<path d="M9.54622 38.768C9.48422 38.7287 9.42583 38.6783 9.37111 38.6168C9.31661 38.5557 9.26552 38.4833 9.21815 38.3999C9.15668 38.2918 9.11871 38.1846 9.10428 38.0782C9.08983 37.9717 9.09902 37.8659 9.13182 37.7611C9.16447 37.6562 9.21739 37.5614 9.29042 37.4767C9.36324 37.3923 9.45619 37.3179 9.56898 37.2538C9.69008 37.1849 9.81021 37.1409 9.92903 37.1216C10.0483 37.1023 10.1664 37.1079 10.2831 37.1384C10.3995 37.1689 10.503 37.22 10.5933 37.2915C10.6835 37.363 10.7606 37.4549 10.8243 37.5671C10.865 37.6387 10.8972 37.7072 10.9207 37.7727C10.9444 37.8383 10.9593 37.9009 10.9654 37.9602L10.9662 37.9674L10.7563 38.0867L10.7561 38.0679C10.7556 37.998 10.746 37.9296 10.7276 37.8627C10.7091 37.7957 10.6816 37.7302 10.6452 37.6661C10.597 37.5813 10.5391 37.5125 10.4718 37.4599C10.4046 37.4075 10.3276 37.371 10.241 37.3506C10.1545 37.3301 10.0658 37.3281 9.9752 37.3448C9.8842 37.3615 9.79105 37.397 9.69584 37.4511C9.60541 37.5025 9.53124 37.561 9.4734 37.6266C9.41576 37.6918 9.37424 37.7642 9.34885 37.8437C9.3236 37.9231 9.3159 38.0027 9.32588 38.0822C9.33589 38.1619 9.36365 38.2419 9.40924 38.322C9.45154 38.3964 9.49947 38.4613 9.55272 38.5163C9.60579 38.5712 9.66442 38.6164 9.72829 38.6518L9.74552 38.6614L9.55178 38.7715L9.54619 38.768L9.54622 38.768ZM9.38764 38.6021C9.4394 38.6602 9.49438 38.7081 9.55242 38.7457L9.70055 38.6614C9.6414 38.6266 9.58674 38.5833 9.53686 38.5317C9.48226 38.4753 9.43323 38.409 9.39001 38.3329C9.34297 38.2502 9.31424 38.1674 9.30388 38.0849C9.29352 38.0022 9.30148 37.9196 9.32775 37.8369C9.35409 37.7545 9.39715 37.6794 9.45684 37.6118C9.51629 37.5444 9.59236 37.4844 9.6849 37.4318C9.78233 37.3764 9.87783 37.3401 9.97125 37.3229C10.065 37.3057 10.1567 37.3077 10.2461 37.3289C10.3358 37.3501 10.4156 37.3879 10.4854 37.4424C10.5551 37.4968 10.6148 37.5677 10.6645 37.6551C10.7018 37.7207 10.73 37.788 10.7489 37.8567C10.7662 37.9195 10.7759 37.9836 10.7779 38.0489L10.9427 37.9552C10.9363 37.8997 10.922 37.8413 10.9 37.78C10.8769 37.7159 10.8453 37.6485 10.8051 37.578C10.7428 37.4683 10.6675 37.3785 10.5796 37.3088C10.4918 37.2392 10.391 37.1895 10.2776 37.1598C10.1638 37.1301 10.0487 37.1246 9.93257 37.1434C9.81638 37.1622 9.69874 37.2054 9.57998 37.2729C9.46939 37.3358 9.3784 37.4086 9.30719 37.4912C9.23621 37.5735 9.18477 37.6657 9.15303 37.7676C9.1212 37.8693 9.1123 37.9718 9.12632 38.0752C9.14036 38.1788 9.17746 38.2834 9.23747 38.3889C9.28401 38.4708 9.33419 38.542 9.38773 38.602L9.38764 38.6021ZM10.3893 40.247L10.2723 40.0657L11.5657 39.2314L11.0887 38.492L9.79538 39.3264L9.67308 39.1367C10.1632 38.8212 10.6529 38.505 11.1426 38.1888C11.3824 38.5624 11.6234 38.9357 11.8648 39.3084L10.3953 40.2563L10.3893 40.247ZM10.3029 40.0723L10.4019 40.2257L11.8342 39.3018L11.136 38.2194L9.70366 39.1434L9.80196 39.2958L11.0954 38.4614C11.2617 38.7206 11.4289 38.9795 11.5963 39.238L10.3029 40.0723ZM11.2412 41.3725L10.6696 40.6438C11.1286 40.2846 11.5873 39.9247 12.0456 39.5645C12.2298 39.8007 12.4149 40.0367 12.6004 40.2719L12.4394 40.3982L12.0231 39.8674L11.5883 40.2084L11.9734 40.6995L11.8124 40.8257L11.4272 40.3347L10.9691 40.694L11.4091 41.2549L11.248 41.3812L11.2412 41.3725L11.2412 41.3725ZM10.7006 40.6475L11.2517 41.3502L11.3779 41.2512L10.938 40.6903L11.431 40.3037L11.8161 40.7947L11.9423 40.6958L11.5572 40.2047L12.0268 39.8364L12.4431 40.3672L12.5693 40.2682L12.0418 39.5957L10.7006 40.6476L10.7006 40.6475ZM12.1346 43.1277L12.0043 42.9784L12.3535 42.6734L11.4702 41.6622C11.9092 41.2787 12.3477 40.8946 12.7872 40.5118L12.9348 40.6807L11.7719 41.6966L12.3454 42.353L13.5082 41.3372L13.6558 41.5061L12.4929 42.522L12.6452 42.6963L12.1419 43.136L12.1346 43.1277ZM12.0355 42.9806L12.144 43.1048L12.614 42.6942L12.4617 42.5199L13.6246 41.5041L13.5061 41.3684L12.3432 42.3842C12.142 42.1548 11.9407 41.925 11.7407 41.6945L12.9036 40.6787L12.785 40.543L11.5014 41.6643L12.3846 42.6755L12.0354 42.9806L12.0355 42.9806ZM13.7454 44.0244L13.5904 43.8773L14.4567 42.9647C14.4956 42.9237 14.5294 42.8895 14.5582 42.8621L14.5894 42.8334L14.5778 42.8376C14.5583 42.8445 14.5388 42.8502 14.5193 42.8547L12.9215 43.2424C12.8566 43.1813 12.792 43.1197 12.7275 43.0583C13.128 42.6348 13.5301 42.2127 13.9313 41.7899L14.0941 41.9444L13.2493 42.8344C13.2049 42.8812 13.1675 42.9195 13.1371 42.9491L13.1013 42.9832L13.1196 42.9777C13.1409 42.9715 13.164 42.9655 13.1886 42.9595L14.7561 42.5728L14.9573 42.7637C14.5568 43.1872 14.1546 43.6092 13.7534 44.0321L13.7454 44.0245L13.7454 44.0244ZM13.6217 43.8765L13.7526 44.0008L14.926 42.7645L14.7497 42.5972L13.1939 42.9811C13.17 42.9868 13.1473 42.9928 13.1259 42.999C13.1046 43.0051 13.0848 43.0115 13.0666 43.0181L13.0602 43.0204L13.0426 43.0036L13.0528 42.9958C13.0684 42.9838 13.0915 42.9629 13.1218 42.9333C13.1518 42.9039 13.1891 42.8658 13.2333 42.8192L14.0629 41.9452L13.9322 41.8212L12.7588 43.0575L12.928 43.218L14.5143 42.8331C14.5332 42.8287 14.5519 42.8232 14.5705 42.8167C14.5894 42.8101 14.6083 42.8023 14.6269 42.7936L14.6337 42.7903L14.6542 42.8098L14.6435 42.8176C14.6251 42.8311 14.6018 42.8513 14.5735 42.8781C14.545 42.9052 14.5114 42.9392 14.4727 42.9799L13.6217 43.8764L13.6217 43.8765ZM15.1715 45.1875L14.9902 45.0433L15.1478 44.551L14.5864 44.1048L14.1508 44.376C14.0857 44.3248 14.0209 44.2729 13.956 44.2212C14.4936 43.9039 15.0323 43.588 15.5693 43.2696L15.7453 43.4096C15.5565 44.0048 15.3712 44.6016 15.1842 45.1975L15.1715 45.1875V45.1875ZM15.016 45.0354L15.1727 45.1601L15.7196 43.4175L15.5673 43.2964L13.995 44.2239L14.1523 44.349L14.588 44.0777C14.7831 44.2329 14.9781 44.3885 15.1736 44.5432L15.016 45.0355V45.0354ZM15.2166 44.3442L15.4571 43.615C15.4614 43.6023 15.468 43.5866 15.477 43.5679L15.487 43.5478L15.4719 43.56C15.4556 43.5728 15.4407 43.5833 15.4275 43.5913L14.7729 43.9914L15.2166 44.3441L15.2166 44.3442ZM15.4782 43.6219L15.2277 44.3813C15.0632 44.2507 14.8985 44.1201 14.7343 43.9891L15.4159 43.5725C15.4285 43.5648 15.4426 43.5548 15.4582 43.5426C15.4735 43.5305 15.4901 43.5165 15.5077 43.5004L15.5146 43.4941L15.5333 43.5088L15.5287 43.517C15.5158 43.5401 15.5052 43.5603 15.497 43.5775C15.4885 43.5952 15.4822 43.6101 15.4782 43.6219H15.4782ZM16.3998 46.0588L16.2259 45.9354L17.1191 44.6759L16.7452 44.4107C16.6014 44.5672 16.477 44.7008 16.3722 44.8114C16.2639 44.9258 16.1767 45.0154 16.1109 45.0802C16.0456 45.1445 15.987 45.1991 15.9354 45.2438C15.8834 45.2887 15.8382 45.324 15.7999 45.3494C15.7611 45.3751 15.7229 45.3945 15.6856 45.4076C15.648 45.4209 15.611 45.4278 15.575 45.4283C15.5389 45.429 15.5035 45.4237 15.4689 45.4122C15.4343 45.4007 15.4005 45.3832 15.3675 45.3598C15.3413 45.3413 15.3179 45.3221 15.2975 45.3024C15.2769 45.2825 15.2593 45.2621 15.2448 45.2413L15.2404 45.2349L15.3656 45.0585L15.3737 45.0757C15.3833 45.0961 15.3955 45.1148 15.4099 45.1318C15.4245 45.149 15.4416 45.1645 15.461 45.1782C15.4796 45.1914 15.5017 45.1987 15.5272 45.1999C15.5535 45.2013 15.5835 45.1964 15.6171 45.1851C15.6509 45.1741 15.6988 45.1439 15.7605 45.0946C15.8232 45.0446 15.8997 44.9754 15.9899 44.8871C16.0806 44.7985 16.1855 44.692 16.3045 44.5678C16.4232 44.4438 16.5563 44.3019 16.7036 44.1421L16.7103 44.1349C16.9465 44.3034 17.1836 44.4713 17.4206 44.6388C17.084 45.1146 16.746 45.5896 16.409 46.0652L16.3999 46.0588L16.3998 46.0588ZM16.2567 45.9301L16.4036 46.0343L17.3897 44.6441L16.7132 44.1643C16.5687 44.3208 16.4377 44.4605 16.3203 44.5832C16.2013 44.7075 16.0962 44.8141 16.0052 44.903C15.9142 44.992 15.8372 45.0618 15.7742 45.112C15.7104 45.1629 15.6602 45.1944 15.6239 45.2062C15.5876 45.2182 15.555 45.2235 15.5261 45.2221C15.4962 45.2206 15.4702 45.2119 15.4481 45.1963C15.4271 45.1814 15.4086 45.1647 15.3929 45.1462C15.3812 45.1323 15.3708 45.1175 15.362 45.1017L15.2675 45.235C15.2802 45.2525 15.2953 45.2697 15.3127 45.2864C15.3323 45.3052 15.3549 45.3238 15.3802 45.3418C15.4115 45.364 15.4434 45.3805 15.4757 45.3912C15.508 45.4018 15.541 45.4069 15.5745 45.4061C15.6082 45.4057 15.6428 45.3992 15.6782 45.3867C15.7138 45.3742 15.7503 45.3556 15.7876 45.3309C15.8252 45.306 15.8697 45.2713 15.9208 45.227C15.9722 45.1825 16.0304 45.1283 16.0954 45.0644C16.1609 44.9999 16.2479 44.9105 16.3561 44.7962C16.462 44.6844 16.5885 44.5485 16.7354 44.3885L16.742 44.3813C16.8779 44.4779 17.0138 44.5745 17.1499 44.6706L16.2567 45.9301H16.2567ZM18.0458 47.0024L17.8603 46.8962L18.4856 45.8042C18.5136 45.7553 18.5385 45.714 18.56 45.6806L18.5835 45.6453L18.5733 45.6521C18.5561 45.6632 18.5385 45.6734 18.5206 45.6824L17.06 46.4379C16.9824 46.3939 16.9052 46.3493 16.8279 46.305L17.6969 44.7874L17.8917 44.8989L17.2818 45.9638C17.2498 46.0199 17.2225 46.0659 17.2002 46.1018L17.1734 46.1434L17.1899 46.1338C17.2092 46.1226 17.2302 46.1113 17.2526 46.0997L18.6838 45.3526L18.9244 45.4904C18.6354 45.9966 18.3446 46.5018 18.0554 47.0079L18.0458 47.0024L18.0458 47.0024ZM17.8906 46.888L18.0472 46.9777L18.8942 45.4986L18.6832 45.3778L17.2628 46.1194C17.2407 46.1308 17.2201 46.142 17.2009 46.153C17.1822 46.1637 17.1644 46.1746 17.1479 46.1856L17.1423 46.1893L17.1211 46.1773L17.1292 46.1672C17.1413 46.152 17.1588 46.1262 17.1814 46.09C17.2036 46.0542 17.2308 46.0085 17.2626 45.9528L17.8614 44.9071L17.7051 44.8176L16.8581 46.2967L17.0605 46.4126L18.5104 45.6627C18.5277 45.6541 18.5446 45.6443 18.5612 45.6335C18.5779 45.6227 18.5943 45.6107 18.6105 45.5977L18.6164 45.5929L18.6408 45.6069L18.6323 45.6171C18.6176 45.6345 18.5997 45.6597 18.5787 45.6925C18.5574 45.7255 18.5328 45.7664 18.5048 45.8152L17.8905 46.888L17.8906 46.888ZM18.4168 47.1077L18.5169 46.888L18.5275 46.9071C18.5678 46.9789 18.6173 47.0415 18.6757 47.0948C18.7342 47.1482 18.8018 47.1925 18.8785 47.2274C18.9341 47.2528 18.9871 47.2689 19.0373 47.2756C19.0872 47.2822 19.1345 47.2796 19.179 47.2678C19.2232 47.2561 19.2615 47.2362 19.2937 47.208C19.326 47.1798 19.3525 47.1432 19.373 47.0982C19.4174 47.0008 19.4178 46.913 19.3745 46.8349C19.3305 46.7556 19.2414 46.6853 19.1074 46.6242L18.9339 46.5451L19.0127 46.3724L19.1731 46.4455C19.2302 46.4715 19.2837 46.4885 19.3334 46.4963C19.3826 46.504 19.4283 46.5027 19.4704 46.4924C19.512 46.4822 19.5482 46.4635 19.5791 46.4364C19.6101 46.4091 19.6358 46.3731 19.6561 46.3286C19.6734 46.2906 19.6827 46.2535 19.6838 46.2174C19.6849 46.1813 19.678 46.1461 19.6631 46.1118C19.648 46.0774 19.6255 46.0465 19.5956 46.0191C19.5654 45.9915 19.5276 45.9673 19.4823 45.9466C19.4178 45.9172 19.3493 45.8983 19.2771 45.8898C19.2048 45.8814 19.1287 45.8835 19.0489 45.8962L19.0286 45.8994L19.1248 45.6884L19.1312 45.6879C19.2046 45.6821 19.2787 45.6863 19.3535 45.7007C19.428 45.715 19.5034 45.7395 19.5794 45.7742C19.6551 45.8087 19.7186 45.8485 19.7699 45.8936C19.8215 45.939 19.861 45.9899 19.8883 46.0461C19.9155 46.1027 19.9293 46.16 19.9294 46.218C19.9296 46.2759 19.9162 46.3346 19.8892 46.3938C19.8417 46.498 19.7772 46.5716 19.696 46.6144C19.6241 46.6522 19.5393 46.6659 19.4418 46.6552C19.4795 46.6813 19.5118 46.7103 19.5386 46.742C19.5732 46.783 19.5988 46.8287 19.6155 46.8789C19.6322 46.9291 19.6386 46.9799 19.635 47.0313C19.6314 47.0823 19.6177 47.134 19.594 47.1859C19.5606 47.2593 19.5173 47.3194 19.4645 47.3661C19.4115 47.4129 19.3488 47.4462 19.2768 47.4658C19.2049 47.4855 19.1283 47.4901 19.0472 47.4793C18.9665 47.4687 18.8811 47.4427 18.7913 47.4018C18.7017 47.3609 18.6258 47.317 18.5637 47.27C18.5013 47.2227 18.4525 47.1721 18.4175 47.1183L18.4142 47.1132L18.4167 47.1077H18.4168ZM18.519 46.9366L18.4394 47.1113C18.4727 47.1609 18.5186 47.2079 18.5772 47.2522C18.6381 47.2984 18.7126 47.3416 18.8006 47.3817C18.8883 47.4216 18.9716 47.4469 19.0502 47.4573C19.1284 47.4677 19.2021 47.4634 19.2711 47.4445C19.3398 47.4257 19.3995 47.394 19.4499 47.3495C19.5005 47.3049 19.5419 47.2472 19.5741 47.1767C19.5966 47.1273 19.6096 47.0782 19.613 47.0297C19.6164 46.9813 19.6102 46.9333 19.5946 46.8858C19.5789 46.8384 19.5547 46.7952 19.5218 46.7563C19.489 46.7175 19.4476 46.683 19.3976 46.6529L19.3891 46.6478L19.3988 46.6266L19.4072 46.628C19.5161 46.6463 19.6091 46.6352 19.6858 46.5948C19.7626 46.5543 19.8238 46.4842 19.8692 46.3846C19.8948 46.3284 19.9075 46.2727 19.9074 46.218C19.9073 46.1633 19.8942 46.1092 19.8686 46.0558C19.8425 46.0023 19.8048 45.9537 19.7553 45.9103C19.7055 45.8665 19.6438 45.8278 19.5704 45.7943C19.4961 45.7604 19.4224 45.7364 19.3495 45.7224C19.2789 45.7088 19.2089 45.7046 19.1395 45.7095L19.0658 45.8713C19.1403 45.861 19.2117 45.8599 19.2798 45.8678C19.3542 45.8765 19.4249 45.8961 19.4916 45.9265C19.539 45.9481 19.5788 45.9736 19.6107 46.0028C19.6429 46.0323 19.6672 46.0657 19.6835 46.103C19.6998 46.1403 19.7073 46.1787 19.7061 46.218C19.7049 46.257 19.6949 46.297 19.6763 46.3378C19.6547 46.3853 19.6272 46.4237 19.5939 46.453C19.5604 46.4825 19.521 46.5028 19.4757 46.5138C19.4309 46.5248 19.3823 46.5262 19.3302 46.5181C19.2784 46.51 19.2229 46.4925 19.164 46.4656L19.0237 46.4016L18.9633 46.5341L19.1167 46.6041C19.2551 46.6672 19.3476 46.7406 19.3939 46.8241C19.4408 46.9087 19.4407 47.0032 19.3932 47.1074C19.3713 47.1553 19.343 47.1944 19.3084 47.2247C19.2735 47.2551 19.2322 47.2766 19.1848 47.2892C19.1374 47.3018 19.0873 47.3046 19.0345 47.2975C18.9822 47.2906 18.9271 47.2738 18.8694 47.2475C18.7905 47.2116 18.721 47.1661 18.6608 47.1112C18.6057 47.061 18.5584 47.0027 18.5191 46.9366H18.519ZM21.0492 48.3046L20.85 48.2272L21.3057 47.0543C21.3262 47.0015 21.3446 46.957 21.3608 46.9209L21.3787 46.8826L21.3697 46.8908C21.3542 46.9046 21.3382 46.9172 21.322 46.9287L19.9903 47.8932C19.9071 47.8613 19.824 47.8287 19.741 47.7963L20.3743 46.1663L20.5835 46.2476L20.139 47.3913C20.1154 47.4522 20.0952 47.5018 20.0787 47.5401L20.0585 47.5851L20.0734 47.5731C20.0907 47.5593 20.1098 47.545 20.1303 47.5301L21.4343 46.5782L21.6928 46.6786C21.4811 47.2216 21.2699 47.765 21.0595 48.3086L21.0492 48.3046ZM20.8786 48.2146L21.0469 48.28L21.6642 46.6912L21.4375 46.6031L20.1433 47.548C20.1234 47.5625 20.1047 47.5766 20.0872 47.5904C20.0698 47.6042 20.0539 47.6176 20.0396 47.6305L20.0345 47.6352L20.0119 47.6262L20.0183 47.6151C20.0283 47.598 20.0417 47.57 20.0584 47.5313C20.0753 47.4921 20.0954 47.4427 20.1184 47.3833L20.5548 46.2602L20.3869 46.1949L19.7696 47.7837L19.9871 47.8682L21.3091 46.9107C21.325 46.8995 21.3403 46.8873 21.3549 46.8742C21.3699 46.861 21.3844 46.8467 21.3983 46.8315L21.4034 46.8259L21.4297 46.8361L21.4228 46.8474C21.411 46.8667 21.397 46.8942 21.381 46.9299C21.3648 46.966 21.3465 47.0101 21.3263 47.0622L20.8786 48.2146L20.8786 48.2146ZM21.9159 47.8853L21.7353 48.5135L21.5197 48.4515C21.6798 47.8911 21.8408 47.3307 22.0026 46.7708L22.4692 46.9048C22.5589 46.9306 22.6357 46.9645 22.6992 47.0065C22.763 47.0487 22.8137 47.0991 22.8511 47.1578C22.8884 47.2163 22.9106 47.2805 22.9177 47.3501C22.9247 47.4193 22.9166 47.4939 22.8937 47.5738C22.8707 47.6539 22.836 47.7229 22.7894 47.7806C22.7428 47.8385 22.6844 47.8851 22.6142 47.9203C22.5443 47.9555 22.4683 47.9751 22.3864 47.9792C22.3048 47.9832 22.2173 47.9719 22.1241 47.9451L21.9159 47.8853ZM21.7202 48.4861L21.9007 47.8578L22.1302 47.9238C22.221 47.9499 22.3062 47.961 22.3854 47.9571C22.4642 47.9531 22.5373 47.9343 22.6043 47.9006C22.6716 47.8668 22.7276 47.8221 22.7722 47.7668C22.8168 47.7114 22.8503 47.645 22.8724 47.5678C22.8946 47.4905 22.9024 47.4186 22.8957 47.3522C22.889 47.2862 22.8679 47.2253 22.8325 47.1697C22.7968 47.1138 22.7482 47.0655 22.6869 47.025C22.6253 46.9843 22.5507 46.9514 22.4631 46.9262L22.0178 46.7982L21.5471 48.4363L21.7202 48.4861ZM22.1618 47.0295L21.9724 47.6886L22.1656 47.7441C22.2315 47.763 22.2919 47.7722 22.3464 47.7716C22.4004 47.771 22.4488 47.7607 22.4913 47.7409C22.5339 47.7212 22.5697 47.6929 22.5986 47.6561C22.6277 47.619 22.6501 47.5732 22.6658 47.5187C22.6963 47.4124 22.6881 47.3239 22.6409 47.2534C22.5934 47.1823 22.506 47.1284 22.3791 47.092L22.1618 47.0295ZM21.948 47.6932L22.1466 47.0021L22.3852 47.0706C22.5173 47.1086 22.6088 47.1654 22.6593 47.2411C22.7103 47.3173 22.7195 47.4119 22.6871 47.5248C22.6706 47.5821 22.6469 47.6305 22.616 47.6698C22.5849 47.7093 22.5464 47.7398 22.5007 47.7609C22.4553 47.7821 22.4038 47.7931 22.3466 47.7937C22.2899 47.7944 22.2274 47.7849 22.1595 47.7654L21.9449 47.7037L21.948 47.6932ZM23.5793 49.0189C23.4586 48.9913 23.3542 48.9464 23.2664 48.8844C23.1786 48.8223 23.1073 48.7429 23.0528 48.6463C22.9983 48.5497 22.9646 48.4452 22.952 48.3331C22.9394 48.2213 22.9476 48.1018 22.9766 47.9747C23.0079 47.8381 23.0546 47.7193 23.1166 47.6186C23.1787 47.5176 23.2563 47.4346 23.3491 47.3699C23.4421 47.3051 23.5438 47.2637 23.6543 47.2459C23.7647 47.2282 23.8837 47.2339 24.0112 47.263C24.1288 47.2899 24.2306 47.3341 24.3164 47.3955C24.4023 47.457 24.4723 47.5358 24.5261 47.6318C24.58 47.7277 24.6131 47.8317 24.6253 47.9438C24.6375 48.0555 24.6289 48.1752 24.5997 48.3028C24.5681 48.4413 24.5212 48.5613 24.4593 48.6627C24.3971 48.7643 24.3199 48.8473 24.2276 48.9114C24.1353 48.9757 24.0349 49.0167 23.9267 49.0346C23.8187 49.0524 23.7029 49.0472 23.5793 49.0189L23.5793 49.0189ZM23.2792 48.8663C23.3645 48.9266 23.4663 48.9703 23.5843 48.9973C23.705 49.0249 23.8181 49.0301 23.9232 49.0128C24.028 48.9954 24.1253 48.9556 24.215 48.8932C24.3047 48.8308 24.38 48.7501 24.4404 48.6512C24.501 48.552 24.5469 48.4342 24.5782 48.2979C24.6068 48.1727 24.6152 48.0554 24.6033 47.9461C24.5914 47.8372 24.5592 47.736 24.5067 47.6426C24.4546 47.5495 24.3868 47.4731 24.3036 47.4136C24.2202 47.3539 24.121 47.3109 24.0063 47.2847C23.8815 47.2561 23.7653 47.2505 23.6578 47.2678C23.5507 47.285 23.4519 47.3251 23.3617 47.3881C23.2715 47.4511 23.1959 47.5318 23.1354 47.6302C23.0748 47.7288 23.0289 47.8454 22.9982 47.9796C22.9697 48.1043 22.9616 48.2214 22.974 48.3307C22.9863 48.44 23.0191 48.5416 23.072 48.6354C23.1248 48.7291 23.1939 48.8061 23.2792 48.8663V48.8663ZM23.9511 47.4592C23.8643 47.4394 23.7821 47.437 23.7046 47.4522C23.6271 47.4674 23.5541 47.5001 23.4855 47.5504C23.417 47.6006 23.3597 47.6639 23.3137 47.7401C23.2676 47.8165 23.2327 47.9061 23.2092 48.0085C23.1857 48.1111 23.1778 48.2067 23.1855 48.2953C23.1931 48.3836 23.2162 48.4649 23.255 48.5392C23.2934 48.6131 23.3436 48.6735 23.4052 48.7201C23.4668 48.7668 23.5402 48.7999 23.625 48.8193C23.7159 48.8401 23.8005 48.844 23.8787 48.8308C23.9566 48.8177 24.0285 48.7875 24.0942 48.7404C24.1601 48.6932 24.2155 48.631 24.2606 48.5542C24.3058 48.4769 24.3407 48.3845 24.3653 48.2769C24.3905 48.1668 24.4002 48.0663 24.3942 47.9755C24.3883 47.8853 24.3667 47.8045 24.3297 47.7334C24.2927 47.6624 24.2427 47.6041 24.1799 47.5586C24.1168 47.5128 24.0404 47.4797 23.9511 47.4592ZM23.7003 47.4304C23.7809 47.4146 23.8662 47.4171 23.9561 47.4376C24.0483 47.4587 24.1274 47.4931 24.1929 47.5406C24.2586 47.5883 24.3109 47.6492 24.3494 47.7231C24.3879 47.7971 24.4102 47.8808 24.4164 47.9741C24.4225 48.067 24.4127 48.1696 24.387 48.2819C24.3619 48.3915 24.3261 48.486 24.2796 48.5654C24.2329 48.6451 24.1754 48.7095 24.1072 48.7585C24.0387 48.8076 23.9637 48.8389 23.8824 48.8527C23.8013 48.8663 23.7138 48.8624 23.62 48.841C23.5322 48.8208 23.456 48.7864 23.3918 48.7378C23.3275 48.6891 23.2753 48.6262 23.2353 48.5494C23.1952 48.4725 23.1712 48.3884 23.1633 48.2972C23.1555 48.2064 23.1636 48.1085 23.1876 48.0036C23.2115 47.8988 23.2473 47.8071 23.2947 47.7286C23.3422 47.6499 23.4015 47.5844 23.4724 47.5324C23.5436 47.4803 23.6196 47.4462 23.7003 47.4304H23.7003ZM24.7695 49.1875L24.9973 47.4649L25.4953 47.5307C25.5703 47.5406 25.6366 47.5588 25.694 47.5851C25.7517 47.6116 25.8004 47.6463 25.8398 47.6892C25.8795 47.7324 25.9075 47.7798 25.9235 47.8314C25.9395 47.8829 25.9435 47.9385 25.9357 47.9982C25.9292 48.0477 25.9162 48.0933 25.897 48.1347C25.8777 48.1763 25.852 48.2138 25.8201 48.2471C25.7883 48.2803 25.7521 48.3076 25.7115 48.3288C25.6803 48.3452 25.6466 48.3579 25.6102 48.3671C25.6546 48.3811 25.6947 48.3995 25.7302 48.4224C25.7747 48.451 25.8123 48.4866 25.8429 48.529C25.8736 48.5717 25.8946 48.619 25.9059 48.6706C25.9172 48.722 25.9188 48.7778 25.9109 48.8379C25.901 48.9126 25.8785 48.9786 25.8436 49.0357C25.8087 49.093 25.7611 49.1413 25.7012 49.1807C25.6413 49.22 25.576 49.2468 25.5055 49.2609C25.435 49.275 25.3591 49.2767 25.2779 49.2659L24.7681 49.1985L24.7695 49.1875H24.7695ZM25.0164 47.4897L24.7929 49.1794L25.2807 49.244C25.3597 49.2544 25.4332 49.2529 25.5012 49.2392C25.5691 49.2255 25.6318 49.1999 25.689 49.1622C25.7462 49.1247 25.7915 49.0786 25.8247 49.0242C25.858 48.9698 25.8794 48.9067 25.8889 48.8351C25.8965 48.7775 25.8949 48.7242 25.8842 48.6752C25.8736 48.6266 25.8538 48.5821 25.825 48.5419C25.796 48.5018 25.7604 48.4681 25.7183 48.441C25.676 48.4139 25.6269 48.3932 25.5714 48.3791L25.5618 48.3767L25.5648 48.3541L25.5728 48.3526C25.6199 48.3438 25.6628 48.3293 25.7012 48.3092C25.7397 48.2891 25.774 48.2632 25.8042 48.2317C25.8344 48.2002 25.8587 48.1647 25.8769 48.1254C25.8952 48.086 25.9075 48.0426 25.9137 47.9953C25.9212 47.9388 25.9174 47.8863 25.9024 47.8379C25.8873 47.7895 25.861 47.7449 25.8236 47.7042C25.7861 47.6634 25.7398 47.6304 25.6849 47.6052C25.6296 47.5799 25.5654 47.5623 25.4925 47.5527L25.0164 47.4897H25.0164ZM25.193 47.6972L25.1228 48.2279L25.3172 48.2536C25.3708 48.2606 25.4197 48.2605 25.4635 48.2532C25.507 48.246 25.5457 48.2315 25.5795 48.21C25.6129 48.1886 25.6395 48.1611 25.6592 48.1274C25.679 48.0936 25.692 48.0533 25.6982 48.0066C25.7086 47.9271 25.6906 47.8642 25.6441 47.818C25.5967 47.771 25.5194 47.7403 25.4123 47.7262L25.1929 47.6972L25.193 47.6972ZM25.0994 48.236L25.1739 47.6723L25.4152 47.7042C25.5272 47.7191 25.6088 47.7518 25.6597 47.8023C25.7115 47.8537 25.7316 47.9228 25.7202 48.0095C25.7136 48.0591 25.6996 48.1021 25.6783 48.1387C25.6568 48.1754 25.6277 48.2055 25.5915 48.2287C25.5551 48.2519 25.5136 48.2673 25.4672 48.2751C25.4212 48.2828 25.3702 48.2829 25.3143 48.2756L25.0979 48.2469L25.0994 48.236V48.236ZM25.096 48.4308L25.0174 49.0251L25.2786 49.0596C25.3364 49.0672 25.3886 49.0672 25.435 49.0595C25.4809 49.0519 25.5213 49.0367 25.556 49.014C25.5909 48.9913 25.6185 48.9627 25.6388 48.9282C25.6593 48.8934 25.6726 48.8524 25.6789 48.8052C25.6917 48.7079 25.6684 48.6306 25.6089 48.5736C25.5485 48.5156 25.4506 48.4777 25.3153 48.4598L25.096 48.4308V48.4308ZM24.9939 49.0332L25.0769 48.4059L25.3181 48.4378C25.4582 48.4563 25.5603 48.4963 25.6243 48.5576C25.6891 48.6198 25.7146 48.7034 25.7008 48.808C25.6942 48.8582 25.6799 48.902 25.6579 48.9394C25.6358 48.9769 25.6058 49.008 25.5681 49.0325C25.5308 49.0569 25.4875 49.0733 25.4385 49.0814C25.39 49.0894 25.3356 49.0894 25.2757 49.0815L24.9925 49.0441L24.994 49.0331L24.9939 49.0332ZM27.5635 49.4693L27.3324 49.4517L27.1866 48.9558L26.4715 48.9015L26.2632 49.3705L26.0151 49.3517C26.282 48.7873 26.5486 48.2227 26.8164 47.6587L27.0406 47.6757C27.2188 48.2743 27.3991 48.8726 27.5796 49.4705L27.5635 49.4693V49.4693ZM27.3493 49.4307L27.549 49.4459L27.0237 47.6967L26.8298 47.682L26.0489 49.332L26.2493 49.3472L26.4577 48.8782C26.7061 48.8978 26.955 48.9168 27.2036 48.9348L27.3493 49.4307H27.3493ZM27.1275 48.746L26.9174 48.0074C26.9138 47.9943 26.9103 47.9776 26.9073 47.9573L26.9043 47.9352L26.8987 47.9536C26.8925 47.9732 26.886 47.9903 26.8795 48.0045L26.5623 48.7031L27.1275 48.746ZM26.9387 48.0014L27.1575 48.7705C26.948 48.7547 26.7385 48.739 26.529 48.7228L26.8593 47.9954C26.8655 47.982 26.8716 47.9658 26.8777 47.9469C26.8834 47.9289 26.8892 47.908 26.8948 47.8843L26.897 47.8751L26.9208 47.8769L26.9216 47.8863C26.9239 47.9124 26.9265 47.9351 26.9293 47.9541C26.9323 47.9738 26.9354 47.9896 26.9387 48.0014H26.9387ZM29.1654 49.4172L28.9521 49.4215L28.9363 48.6348L28.0649 48.6523L28.0808 49.439L27.8564 49.4435C27.8441 48.8608 27.8319 48.2779 27.8212 47.6951L28.0455 47.6906L28.0608 48.4477L28.9322 48.4302L28.9169 47.6731L29.1413 47.6686C29.1535 48.2513 29.1657 48.8342 29.1765 49.417L29.1654 49.4172ZM28.9738 49.3989L29.1539 49.3953L29.1196 47.6912L28.9395 47.6948L28.9548 48.4519C28.6496 48.4583 28.3443 48.4647 28.0391 48.4703L28.0238 47.7133L27.8437 47.7169L27.878 49.421L28.0581 49.4174L28.0423 48.6307C28.3475 48.625 28.6528 48.6187 28.958 48.6122L28.9738 49.3989ZM30.9553 49.2352L30.7438 49.2631L30.6407 48.4831L29.7767 48.5973L29.8798 49.3774L29.6573 49.4068C29.5822 48.8288 29.5047 48.2509 29.4281 47.6731L29.6506 47.6437L29.7498 48.3944L30.6139 48.2802L30.5146 47.5294L30.7371 47.5C30.8135 48.0779 30.8909 48.6557 30.9663 49.2337L30.9553 49.2352ZM30.7629 49.2383L30.9414 49.2146L30.718 47.5249L30.5395 47.5485L30.6387 48.2993C30.3361 48.3394 30.0335 48.38 29.7307 48.4193L29.6315 47.6686L29.4529 47.6922L29.6764 49.382L29.8549 49.3583L29.7518 48.5783C30.0545 48.539 30.3572 48.4984 30.6598 48.4582L30.7629 49.2383ZM32.9068 48.9101L32.6962 48.9466L32.3979 47.2234L32.6195 47.1851C32.7203 47.7591 32.8192 48.3338 32.9177 48.9082L32.9068 48.9102L32.9068 48.9101ZM32.7143 48.9209L32.8921 48.8902L32.6015 47.2107L32.4236 47.2415L32.7143 48.9209ZM31.4377 49.1531L31.1414 47.4409L31.3625 47.4026L31.4875 48.1244L31.7995 48.0705C31.8851 48.0556 31.9633 48.0528 32.0338 48.062C32.1046 48.0713 32.1677 48.0927 32.2232 48.1263C32.279 48.1599 32.3242 48.2046 32.3587 48.2602C32.3931 48.3155 32.4169 48.3817 32.4302 48.4586C32.444 48.5382 32.4437 48.6119 32.4294 48.6794C32.4151 48.7471 32.3866 48.8087 32.3441 48.8639C32.3016 48.9193 32.2479 48.9646 32.183 48.9997C32.1184 49.0347 32.0428 49.0597 31.9561 49.0747L31.4397 49.164L31.4378 49.1531L31.4377 49.1531ZM31.1671 47.4589L31.4577 49.1384L31.9523 49.0528C32.0366 49.0382 32.11 49.0141 32.1724 48.9802C32.2345 48.9466 32.2859 48.9033 32.3264 48.8505C32.367 48.7979 32.3941 48.7393 32.4077 48.6748C32.4214 48.6101 32.4216 48.5391 32.4084 48.4624C32.3955 48.3883 32.3727 48.3247 32.3399 48.2719C32.3072 48.2193 32.2645 48.1771 32.2118 48.1453C32.1591 48.1133 32.0988 48.0929 32.0309 48.084C31.9627 48.0751 31.8867 48.0779 31.8032 48.0924L31.4694 48.1501L31.3445 47.4283L31.167 47.459L31.1671 47.4589ZM31.5224 48.3261L31.6259 48.9241L31.8949 48.8775C31.9528 48.8675 32.003 48.8519 32.0451 48.8306C32.0867 48.8097 32.1207 48.7831 32.1468 48.7511C32.173 48.7192 32.1906 48.6833 32.1996 48.6435C32.2086 48.6034 32.209 48.559 32.2006 48.5104L32.2004 48.5096C32.1834 48.4122 32.1414 48.3444 32.0742 48.3063C32.0062 48.2677 31.9119 48.2588 31.7914 48.2796L31.5224 48.3262L31.5224 48.3261ZM31.6059 48.9387L31.4968 48.3081C31.5941 48.2912 31.6914 48.2747 31.7886 48.2575C31.9139 48.236 32.0127 48.2459 32.0852 48.287C32.1585 48.3287 32.2044 48.402 32.2224 48.5066L32.2226 48.5076C32.2314 48.5587 32.2308 48.6056 32.2212 48.6483C32.2114 48.6916 32.1923 48.7306 32.164 48.7651C32.1359 48.7995 32.0995 48.828 32.055 48.8504C32.0108 48.8726 31.9586 48.889 31.8986 48.8994L31.6078 48.9497L31.6059 48.9388V48.9387ZM34.7273 48.3783L34.5218 48.4372L34.1743 47.2278C34.1588 47.1736 34.1464 47.1271 34.1375 47.0884L34.1285 47.047L34.1263 47.0589C34.1224 47.0789 34.1174 47.0987 34.1113 47.1179L33.6355 48.6919L33.3784 48.7658L32.8954 47.085L33.1111 47.023L33.45 48.2024C33.4678 48.2642 33.4818 48.3159 33.492 48.3572L33.5032 48.4053L33.5077 48.3868C33.5133 48.3649 33.5198 48.342 33.527 48.3182L33.9883 46.7709C34.0772 46.7458 34.1661 46.7199 34.2549 46.6943C34.4167 47.2543 34.5778 47.8147 34.7379 48.3751L34.7272 48.3782L34.7273 48.3783ZM34.5371 48.4098L34.7106 48.36L34.2398 46.7218L34.0062 46.789L33.5484 48.3246C33.5411 48.3486 33.5347 48.3712 33.5293 48.3923C33.5238 48.4139 33.5192 48.4341 33.5157 48.453L33.5144 48.4598L33.491 48.4665L33.4894 48.4537C33.487 48.4341 33.4807 48.4036 33.4705 48.3625C33.4605 48.322 33.4465 48.2705 33.4287 48.2086L33.0959 47.0505L32.9229 47.1003L33.3936 48.7384L33.6177 48.674L34.0901 47.1115C34.0959 47.0932 34.1007 47.0742 34.1045 47.0546C34.1084 47.0348 34.1114 47.0147 34.1132 46.9945L34.1139 46.9869L34.141 46.9791L34.1423 46.9923C34.1447 47.0148 34.1502 47.0452 34.1591 47.0835C34.168 47.1218 34.1802 47.1679 34.1957 47.2218L34.5371 48.4098H34.5371ZM33.8668 46.2695C33.8769 46.327 33.8772 46.3813 33.8674 46.432C33.8576 46.4829 33.8379 46.5302 33.8081 46.5738C33.7783 46.6175 33.7413 46.6545 33.6972 46.6847C33.6532 46.7148 33.6022 46.7383 33.5439 46.755C33.4842 46.7722 33.4275 46.7797 33.374 46.7776C33.3202 46.7755 33.2696 46.7636 33.2222 46.742C33.1751 46.7205 33.1346 46.6904 33.1011 46.652C33.0677 46.6137 33.041 46.5669 33.0213 46.512L33.0173 46.5009L33.2262 46.4408L33.2297 46.4506C33.255 46.5191 33.2902 46.5655 33.3351 46.5899C33.3799 46.6142 33.4354 46.6169 33.501 46.598C33.5308 46.5895 33.5565 46.5772 33.5781 46.5612C33.5996 46.5453 33.6173 46.5255 33.631 46.5019C33.6449 46.4783 33.654 46.4518 33.6584 46.4228C33.6629 46.3935 33.6625 46.3615 33.6576 46.3269L33.6562 46.3173L33.8646 46.2574L33.8668 46.2696V46.2695ZM33.8456 46.4279C33.8542 46.3834 33.8546 46.3358 33.847 46.2855L33.6808 46.3333C33.6848 46.3665 33.6847 46.3975 33.6803 46.4261C33.6755 46.4577 33.6654 46.4868 33.6501 46.5129C33.6349 46.5391 33.6152 46.5611 33.5913 46.5789C33.5674 46.5966 33.5393 46.61 33.5071 46.6193C33.4356 46.6398 33.3747 46.6365 33.3246 46.6093C33.2769 46.5835 33.2395 46.5363 33.2126 46.4678L33.0462 46.5156C33.0644 46.563 33.0883 46.6037 33.1177 46.6374C33.1492 46.6734 33.1872 46.7017 33.2314 46.7219C33.276 46.7422 33.3239 46.7534 33.3748 46.7554C33.4259 46.7574 33.4803 46.7502 33.5379 46.7337C33.5938 46.7176 33.6428 46.6952 33.6847 46.6664C33.7264 46.6378 33.7615 46.6027 33.7898 46.5613C33.8178 46.5203 33.8364 46.4757 33.8456 46.4279L33.8456 46.4279ZM35.689 47.937L35.5992 47.7129L35.6204 47.7183C35.7001 47.7387 35.7796 47.7462 35.8586 47.7408C35.9375 47.7353 36.0162 47.7169 36.0944 47.6855C36.1513 47.6628 36.1994 47.6355 36.2389 47.6038C36.2781 47.5724 36.309 47.5364 36.3311 47.496C36.3531 47.456 36.3651 47.4145 36.367 47.3717C36.3689 47.3289 36.3607 47.2845 36.3423 47.2385C36.3025 47.1392 36.2393 47.0783 36.1528 47.0557C36.0651 47.0328 35.9527 47.0488 35.816 47.1035L35.639 47.1745L35.5683 46.9982L35.7321 46.9326C35.7902 46.9093 35.8394 46.8823 35.8794 46.8517C35.919 46.8214 35.9497 46.7874 35.9712 46.7499C35.9926 46.7127 36.0041 46.6735 36.0058 46.6325C36.0074 46.5913 35.9991 46.5479 35.9809 46.5025C35.9653 46.4636 35.9448 46.4313 35.9195 46.4056C35.8943 46.38 35.864 46.3607 35.8289 46.3477C35.7937 46.3349 35.7557 46.3299 35.7152 46.3326C35.6744 46.3354 35.6308 46.3461 35.5846 46.3645C35.5187 46.3909 35.4578 46.4274 35.4019 46.4738C35.3459 46.5202 35.2948 46.5768 35.2489 46.6432L35.2372 46.6602L35.1509 46.445L35.155 46.4399C35.2014 46.3828 35.2557 46.332 35.3177 46.2879C35.3796 46.2438 35.4493 46.2062 35.5268 46.1752C35.6041 46.1443 35.6767 46.1258 35.7447 46.1198C35.8132 46.1138 35.8772 46.1204 35.9368 46.1394C35.9965 46.1587 36.0475 46.1884 36.0896 46.2283C36.1316 46.2682 36.1648 46.3184 36.189 46.3788C36.2316 46.4851 36.2403 46.5825 36.2152 46.6708C36.193 46.749 36.1443 46.8197 36.0692 46.883C36.1142 46.8737 36.1575 46.8703 36.1989 46.8728C36.2525 46.876 36.3032 46.889 36.351 46.9116C36.3988 46.9343 36.4401 46.9647 36.4747 47.0027C36.5092 47.0407 36.5372 47.0862 36.5584 47.1391C36.5884 47.214 36.602 47.2868 36.5993 47.3573C36.5966 47.4279 36.5774 47.4963 36.5419 47.5619C36.5065 47.6275 36.4569 47.6861 36.3931 47.7373C36.3296 47.7884 36.252 47.8323 36.1604 47.869C36.0691 47.9056 35.9849 47.9302 35.9079 47.9426C35.8304 47.9552 35.7602 47.9555 35.6972 47.9438L35.6912 47.9426L35.689 47.937L35.689 47.937ZM35.6359 47.7449L35.7073 47.923C35.7663 47.9333 35.8321 47.9325 35.9044 47.9208C35.9797 47.9086 36.0623 47.8844 36.1522 47.8484C36.2418 47.8125 36.3176 47.7697 36.3793 47.7201C36.4408 47.6707 36.4885 47.6144 36.5224 47.5514C36.5564 47.4887 36.5746 47.4237 36.5772 47.3565C36.5798 47.2891 36.5667 47.2193 36.5379 47.1474C36.5176 47.0969 36.4911 47.0536 36.4584 47.0177C36.4258 46.9818 36.3868 46.9531 36.3417 46.9316C36.2965 46.9103 36.2484 46.898 36.1977 46.895C36.1469 46.8919 36.0933 46.8981 36.0371 46.9134L36.0276 46.916L36.0189 46.8944L36.0257 46.8894C36.1141 46.8232 36.1703 46.7483 36.194 46.6648C36.2177 46.5813 36.2092 46.4887 36.1685 46.387C36.1455 46.3296 36.114 46.282 36.0743 46.2444C36.0347 46.2068 35.9866 46.1788 35.9302 46.1605C35.8735 46.1424 35.8123 46.1362 35.7467 46.142C35.6807 46.1477 35.6101 46.1657 35.5351 46.1958C35.4593 46.2262 35.3911 46.2629 35.3306 46.306C35.2721 46.3476 35.2207 46.3953 35.1764 46.4489L35.2425 46.6139C35.2866 46.553 35.335 46.5005 35.3878 46.4567C35.4454 46.4089 35.5084 46.3713 35.5764 46.344C35.6249 46.3246 35.6707 46.3134 35.7138 46.3105C35.7573 46.3076 35.7983 46.3131 35.8366 46.327C35.8748 46.341 35.9078 46.3621 35.9354 46.3901C35.9628 46.418 35.9849 46.4528 36.0015 46.4943C36.0209 46.5427 36.0298 46.5891 36.028 46.6335C36.0262 46.678 36.0137 46.7206 35.9905 46.761C35.9674 46.8011 35.9348 46.8373 35.8929 46.8694C35.8514 46.9012 35.8004 46.9292 35.7403 46.9533L35.5972 47.0106L35.6514 47.1458L35.8079 47.083C35.949 47.0265 36.066 47.0102 36.1584 47.0343C36.2521 47.0588 36.3203 47.1242 36.3629 47.2304C36.3825 47.2793 36.3912 47.3268 36.3892 47.3727C36.3872 47.419 36.3742 47.4637 36.3506 47.5067C36.327 47.5497 36.2944 47.5879 36.2529 47.6212C36.2116 47.6542 36.1615 47.6826 36.1027 47.7062C36.0223 47.7384 35.9413 47.7574 35.8601 47.763C35.7857 47.7681 35.711 47.7621 35.636 47.745L35.6359 47.7449ZM38.2905 46.8138L38.0851 46.9211L37.699 46.5774L37.0636 46.9097L37.1349 47.4179C37.0616 47.4566 36.9879 47.4948 36.9144 47.5332C36.8432 46.9129 36.7707 46.2928 36.6986 45.6727L36.8979 45.5685C37.3674 45.9805 37.8358 46.3937 38.3048 46.8062L38.2905 46.8137L38.2905 46.8138ZM38.0885 46.8945L38.2659 46.8017L36.8946 45.5952L36.7224 45.6853L36.9327 47.4987L37.1108 47.4056L37.0394 46.8974C37.2605 46.7822 37.4819 46.6671 37.7024 46.5508L38.0884 46.8945L38.0885 46.8945ZM37.538 46.4308L36.9689 45.9152C36.9589 45.9061 36.9472 45.8937 36.9338 45.878L36.9196 45.8608L36.9246 45.8794C36.9296 45.8994 36.9331 45.9173 36.9352 45.9328L37.0356 46.6934L37.5379 46.4308H37.538ZM36.9837 45.8988L37.5762 46.4356C37.3902 46.5331 37.2041 46.6306 37.0178 46.7276L36.9132 45.9356C36.9113 45.9211 36.9079 45.904 36.9031 45.8847C36.8983 45.866 36.8921 45.8452 36.8846 45.8226L36.8815 45.8135L36.9026 45.8026L36.9083 45.8101C36.924 45.8312 36.9383 45.849 36.9507 45.8636C36.9636 45.8787 36.9746 45.8905 36.9837 45.8988L36.9837 45.8988ZM39.5411 46.0145C39.5019 46.0765 39.4515 46.1349 39.39 46.1896C39.3288 46.2441 39.2565 46.2952 39.1731 46.3426C39.065 46.4041 38.9577 46.442 38.8514 46.4565C38.7448 46.4709 38.639 46.4617 38.5342 46.4289C38.4294 46.3963 38.3345 46.3434 38.2499 46.2703C38.1654 46.1975 38.091 46.1046 38.0269 45.9918C37.958 45.8707 37.914 45.7505 37.8947 45.6317C37.8755 45.5125 37.8811 45.3944 37.9115 45.2777C37.942 45.1612 37.9931 45.0578 38.0646 44.9675C38.1362 44.8772 38.228 44.8002 38.3402 44.7364C38.4118 44.6957 38.4804 44.6635 38.5458 44.64C38.6115 44.6164 38.674 44.6015 38.7333 44.5953L38.7405 44.5946L38.8598 44.8045L38.841 44.8046C38.7711 44.8052 38.7027 44.8148 38.6358 44.8332C38.5689 44.8516 38.5033 44.8791 38.4393 44.9155C38.3544 44.9638 38.2857 45.0216 38.2331 45.089C38.1807 45.1562 38.1442 45.2331 38.1237 45.3197C38.1032 45.4063 38.1013 45.495 38.118 45.5856C38.1347 45.6766 38.1701 45.7697 38.2242 45.8649C38.2757 45.9553 38.3342 46.0295 38.3997 46.0874C38.4649 46.145 38.5374 46.1865 38.6168 46.2119C38.6963 46.2372 38.7758 46.2449 38.8554 46.2349C38.9351 46.2249 39.015 46.1971 39.0951 46.1515C39.1696 46.1092 39.2345 46.0613 39.2895 46.008C39.3443 45.955 39.3896 45.8963 39.425 45.8325L39.4345 45.8152L39.5447 46.009L39.5412 46.0146L39.5411 46.0145ZM39.3752 46.1731C39.4334 46.1214 39.4813 46.0664 39.5188 46.0083L39.4346 45.8602C39.3997 45.9194 39.3564 45.974 39.3049 46.0239C39.2485 46.0785 39.1821 46.1275 39.106 46.1707C39.0233 46.2178 38.9406 46.2465 38.858 46.2569C38.7754 46.2672 38.6927 46.2593 38.61 46.233C38.5276 46.2067 38.4525 46.1636 38.385 46.1039C38.3176 46.0445 38.2576 45.9684 38.2049 45.8759C38.1496 45.7784 38.1132 45.6829 38.0961 45.5895C38.0789 45.4958 38.0808 45.4041 38.102 45.3146C38.1232 45.225 38.161 45.1452 38.2156 45.0753C38.2699 45.0057 38.3409 44.946 38.4282 44.8963C38.4939 44.8589 38.5611 44.8308 38.6298 44.8118C38.6926 44.7946 38.7567 44.7848 38.822 44.7828L38.7283 44.6181C38.6728 44.6245 38.6144 44.6388 38.5532 44.6608C38.4891 44.6838 38.4217 44.7155 38.3511 44.7556C38.2414 44.818 38.1516 44.8932 38.0819 44.9812C38.0123 45.069 37.9626 45.1697 37.9329 45.2832C37.9032 45.3969 37.8978 45.512 37.9165 45.6282C37.9353 45.7444 37.9785 45.862 38.0461 45.9808C38.1089 46.0914 38.1817 46.1824 38.2643 46.2536C38.3466 46.3245 38.4388 46.376 38.5408 46.4077C38.6424 46.4396 38.745 46.4485 38.8483 46.4344C38.9519 46.4204 39.0565 46.3833 39.162 46.3233C39.244 46.2767 39.3151 46.2266 39.3752 46.173L39.3752 46.1731ZM39.8411 43.9923L39.4427 44.2733L40.3325 45.5352L40.149 45.6645L39.2592 44.4026L38.8527 44.6892L38.7347 44.522C39.0676 44.2883 39.4006 44.054 39.7322 43.8186L39.8502 43.9859L39.8411 43.9923ZM39.4209 44.2615L39.8193 43.9806L39.7269 43.8495L38.7657 44.5273L38.8581 44.6584L39.2646 44.3717L40.1544 45.6337L40.3016 45.5299L39.4118 44.2679L39.4209 44.2615ZM40.7503 44.4166L41.1537 44.9309L40.9772 45.0694C40.6179 44.6104 40.2581 44.1517 39.8979 43.6934L40.2799 43.3938C40.3535 43.3362 40.4258 43.2938 40.497 43.267C40.5686 43.2399 40.6392 43.2284 40.7086 43.2324C40.7779 43.2364 40.8429 43.2561 40.9034 43.2911C40.9636 43.326 41.0195 43.3762 41.0708 43.4417C41.1222 43.5072 41.1577 43.5757 41.1772 43.6473C41.1968 43.719 41.2004 43.7937 41.1878 43.8711C41.1754 43.9483 41.1467 44.0215 41.102 44.0903C41.0576 44.1588 40.997 44.2231 40.9208 44.2829L40.7503 44.4166L40.7503 44.4166ZM41.1226 44.9271L40.7192 44.4128L40.9071 44.2654C40.9815 44.2071 41.0403 44.1446 41.0835 44.0781C41.1265 44.012 41.154 43.9417 41.166 43.8676C41.178 43.7932 41.1746 43.7216 41.1559 43.6531C41.1372 43.5845 41.103 43.5185 41.0533 43.4553C41.0037 43.3921 40.95 43.3436 40.8923 43.3102C40.8348 43.2769 40.7732 43.2583 40.7074 43.2545C40.641 43.2507 40.5735 43.2617 40.5048 43.2876C40.4357 43.3137 40.3652 43.3549 40.2935 43.4111L39.9289 43.6971L40.9809 45.0383L41.1226 44.9271L41.1226 44.9271ZM40.2008 43.7159L40.624 44.2556L40.7822 44.1315C40.8361 44.0892 40.8789 44.0456 40.9104 44.0011C40.9415 43.9569 40.9615 43.9116 40.9704 43.8656C40.9793 43.8196 40.9774 43.774 40.9645 43.7289C40.9516 43.6836 40.9275 43.6386 40.8926 43.594C40.8243 43.507 40.7477 43.4618 40.663 43.4588C40.5775 43.4556 40.4826 43.4949 40.3787 43.5764L40.2008 43.716L40.2008 43.7159ZM40.6134 44.2779L40.1697 43.7122L40.365 43.5589C40.4732 43.4741 40.5729 43.4333 40.6637 43.4366C40.7553 43.44 40.8374 43.4879 40.9099 43.5803C40.9468 43.6273 40.9721 43.6748 40.9858 43.7229C40.9996 43.7713 41.0018 43.8203 40.9921 43.8697C40.9827 43.9189 40.9614 43.9671 40.9284 44.0138C40.8958 44.0601 40.8515 44.1052 40.7958 44.1489L40.6202 44.2866L40.6134 44.2779L40.6134 44.2779ZM42.6278 43.7116C42.5379 43.7969 42.4428 43.859 42.3425 43.8977C42.2421 43.9365 42.1365 43.9519 42.0259 43.9439C41.9155 43.9358 41.8099 43.906 41.7094 43.8544C41.6093 43.8031 41.5143 43.73 41.4246 43.6354C41.3281 43.5338 41.255 43.4291 41.2055 43.3217C41.1557 43.2141 41.1296 43.1035 41.1271 42.9904C41.1245 42.8771 41.1464 42.7694 41.1927 42.6676C41.2391 42.5658 41.3098 42.4699 41.4047 42.3799C41.4923 42.2968 41.5854 42.2365 41.684 42.1991C41.7828 42.1615 41.8871 42.1469 41.9968 42.1553C42.1065 42.1634 42.2114 42.1935 42.3115 42.2453C42.4113 42.297 42.5063 42.3704 42.5964 42.4654C42.6942 42.5686 42.7682 42.674 42.8183 42.7817C42.8685 42.8896 42.8948 42.9998 42.8972 43.1123C42.8995 43.2248 42.8782 43.3311 42.8332 43.4311C42.7883 43.5308 42.7198 43.6244 42.6277 43.7117L42.6278 43.7116ZM42.3346 43.8771C42.4321 43.8395 42.5248 43.7789 42.6125 43.6956C42.7024 43.6104 42.7693 43.5191 42.813 43.422C42.8567 43.325 42.8774 43.2219 42.8751 43.1127C42.8728 43.0034 42.8472 42.8962 42.7983 42.791C42.7492 42.6855 42.6765 42.5821 42.5804 42.4807C42.492 42.3875 42.399 42.3156 42.3014 42.2651C42.2041 42.2146 42.1019 42.1854 41.9952 42.1774C41.8888 42.1694 41.7876 42.1835 41.6919 42.2198C41.596 42.2562 41.5053 42.315 41.42 42.396C41.3272 42.484 41.2581 42.5777 41.2129 42.6768C41.1681 42.7757 41.1468 42.8801 41.1493 42.99C41.1517 43.1 41.1772 43.2076 41.2256 43.3125C41.2741 43.4177 41.3458 43.5204 41.4406 43.6202C41.5286 43.713 41.6216 43.7846 41.7195 43.8348C41.8172 43.8849 41.9199 43.9139 42.0275 43.9218C42.1349 43.9296 42.2372 43.9147 42.3345 43.8772L42.3346 43.8771ZM41.5349 42.5385C41.4703 42.5998 41.4227 42.667 41.3925 42.7399C41.3622 42.8128 41.349 42.8918 41.3529 42.9768C41.3568 43.0615 41.3778 43.1443 41.4158 43.2248C41.4539 43.3056 41.5092 43.3842 41.5815 43.4604C41.654 43.5369 41.7292 43.5964 41.8072 43.6391C41.8849 43.6815 41.9655 43.7073 42.0488 43.7161C42.1317 43.725 42.2097 43.7167 42.2827 43.6912C42.3557 43.6658 42.4239 43.623 42.487 43.5632C42.5546 43.499 42.6047 43.4307 42.637 43.3582C42.6692 43.286 42.6839 43.2095 42.6811 43.1287C42.6782 43.0478 42.6572 42.9672 42.618 42.8871C42.5787 42.8065 42.521 42.7263 42.4452 42.6463C42.3674 42.5644 42.2891 42.5007 42.2102 42.4554C42.1317 42.4104 42.0525 42.3836 41.9728 42.3751C41.8933 42.3666 41.817 42.3759 41.7443 42.403C41.6712 42.4302 41.6014 42.4755 41.5349 42.5385H41.5349ZM41.372 42.7315C41.4035 42.6556 41.4527 42.586 41.5196 42.5225C41.5883 42.4574 41.6606 42.4106 41.7365 42.3823C41.8125 42.354 41.8921 42.3442 41.9751 42.3531C42.0579 42.3619 42.14 42.3897 42.2212 42.4362C42.3019 42.4825 42.3819 42.5476 42.4612 42.6311C42.5386 42.7128 42.5976 42.7949 42.6379 42.8774C42.6784 42.9603 42.7002 43.0439 42.7031 43.1279C42.7061 43.2121 42.6908 43.2919 42.6572 43.3673C42.6237 43.4424 42.572 43.513 42.5022 43.5792C42.4368 43.6413 42.3659 43.6857 42.2899 43.7122C42.2138 43.7387 42.1326 43.7475 42.0464 43.7382C41.9602 43.729 41.8769 43.7024 41.7966 43.6585C41.7166 43.6147 41.6395 43.5538 41.5655 43.4758C41.4915 43.3978 41.4349 43.3172 41.3958 43.2343C41.3565 43.1512 41.3348 43.0655 41.3308 42.9777C41.3268 42.8896 41.3406 42.8074 41.372 42.7315L41.372 42.7315ZM44.4004 41.8044L44.2606 41.9661L43.3085 41.1434C43.2658 41.1065 43.23 41.0743 43.2013 41.0467L43.1712 41.0169L43.176 41.0283C43.1836 41.0474 43.1903 41.0666 43.1956 41.0859L43.6576 42.6639C43.5998 42.7317 43.5412 42.799 43.4828 42.8663C43.0411 42.486 42.6006 42.1041 42.1596 41.723L42.3063 41.5532L43.2348 42.3555C43.2837 42.3977 43.3237 42.4334 43.3547 42.4622L43.3903 42.4963L43.384 42.4783C43.3767 42.4571 43.3696 42.4344 43.3626 42.4103L42.903 40.8626L43.0843 40.6527C43.5259 41.0331 43.9664 41.415 44.4075 41.796L44.4003 41.8044H44.4004ZM44.2584 41.9349L44.3764 41.7983L43.0867 40.6839L42.9278 40.8679L43.3839 42.404C43.3908 42.4278 43.3978 42.4503 43.405 42.4711C43.412 42.492 43.4193 42.5114 43.4268 42.5294L43.4294 42.5357L43.4136 42.5542L43.4052 42.5443C43.3925 42.5292 43.3705 42.5072 43.3396 42.4784C43.3089 42.4497 43.269 42.4142 43.2203 42.3722L42.3086 41.5844L42.1908 41.7208L43.4805 42.8351L43.6331 42.6586L43.1744 41.092C43.1692 41.0735 43.1628 41.0549 43.1554 41.0366C43.1479 41.0181 43.1393 40.9996 43.1297 40.9814L43.1262 40.9747L43.1446 40.9534L43.153 40.9637C43.1672 40.9813 43.1885 41.0037 43.2167 41.0307C43.2451 41.058 43.2805 41.0899 43.323 41.1267L44.2584 41.9349H44.2584ZM42.527 40.5091C42.567 40.5517 42.5968 40.597 42.6164 40.6448C42.636 40.6928 42.6453 40.7433 42.6442 40.7959C42.6432 40.8488 42.6324 40.9 42.6121 40.9494C42.5917 40.9987 42.5617 41.0463 42.5221 41.0921C42.4815 41.1391 42.4381 41.1765 42.3921 41.2039C42.3459 41.2316 42.297 41.2494 42.2456 41.2571C42.1945 41.2649 42.1441 41.2618 42.095 41.2479C42.046 41.2341 41.9981 41.2095 41.9516 41.1744L41.9422 41.1672L42.0843 41.0027L42.0925 41.0089C42.1511 41.0524 42.206 41.0721 42.2571 41.0679C42.3079 41.0638 42.3557 41.0357 42.4004 40.9841C42.4205 40.9607 42.4354 40.9363 42.4447 40.9111C42.454 40.886 42.458 40.8598 42.4565 40.8325C42.4552 40.805 42.4484 40.7779 42.4363 40.7513C42.4241 40.7244 42.4063 40.6978 42.3832 40.6715L42.3768 40.6642L42.5186 40.5001L42.527 40.5091H42.527ZM42.5959 40.6532C42.5788 40.6113 42.5532 40.5713 42.5192 40.5333L42.4062 40.6641C42.4277 40.6897 42.4445 40.7157 42.4566 40.7422C42.4698 40.7715 42.4773 40.8013 42.4787 40.8315C42.4803 40.8617 42.4759 40.8909 42.4656 40.9188C42.4553 40.9466 42.4391 40.9732 42.4171 40.9986C42.3685 41.0549 42.3157 41.0854 42.2588 41.0901C42.2049 41.0945 42.1478 41.0754 42.0877 41.0327L41.9745 41.1638C42.0158 41.1935 42.0581 41.2146 42.101 41.2267C42.147 41.2396 42.1942 41.2425 42.2423 41.2352C42.2909 41.2279 42.3372 41.2111 42.3808 41.185C42.4247 41.1588 42.4663 41.1229 42.5054 41.0776C42.5435 41.0336 42.5722 40.988 42.5916 40.9411C42.6109 40.8943 42.6211 40.8457 42.6221 40.7956C42.6231 40.7458 42.6144 40.6983 42.596 40.6533L42.5959 40.6532ZM46.3567 39.9824L46.2423 40.1436L45.8641 39.8754L44.7472 41.4499C44.2712 41.1136 43.7961 40.7756 43.3208 40.4383L43.4506 40.2552L44.7101 41.1485L45.0674 40.6448L43.8079 39.7515L43.9377 39.5685L45.1972 40.4618L45.5537 39.9592L44.2943 39.0658L44.4241 38.8828L45.6836 39.7761L45.8179 39.5866L46.3631 39.9733L46.3567 39.9824ZM46.2371 40.1128L46.3322 39.9786L45.8232 39.6175L45.6889 39.807L44.4294 38.9137L44.3252 39.0606L45.5846 39.9539C45.4579 40.1338 45.3301 40.3133 45.2025 40.4927L43.943 39.5994L43.8388 39.7463L45.0982 40.6396C44.9713 40.8199 44.8433 40.9998 44.7154 41.1794L43.4559 40.2861L43.3517 40.433L44.742 41.4191L45.8588 39.8445L46.2371 40.1127V40.1128ZM46.8563 38.2103L46.7501 38.3957L45.6581 37.7704C45.6091 37.7424 45.5679 37.7176 45.5344 37.696L45.4991 37.6726L45.5059 37.6828C45.517 37.7 45.5273 37.7176 45.5362 37.7355L46.2917 39.1961C46.2478 39.2736 46.2031 39.3508 46.1588 39.4282L44.6413 38.5591L44.7528 38.3644L45.8177 38.9742C45.8737 39.0063 45.9197 39.0336 45.9556 39.0559L45.9972 39.0827L45.9876 39.0662C45.9765 39.0468 45.9651 39.0259 45.9536 39.0035L45.2064 37.5723L45.3442 37.3316C45.8504 37.6207 46.3557 37.9114 46.8618 38.2006L46.8563 38.2103L46.8563 38.2103ZM46.7418 38.3655L46.8315 38.2088L45.3524 37.3618L45.2316 37.5728L45.9732 38.9933C45.9846 39.0153 45.9958 39.036 46.0068 39.0552C46.0175 39.0739 46.0284 39.0916 46.0394 39.1082L46.0432 39.1138L46.0311 39.1349L46.021 39.1269C46.0058 39.1147 45.98 39.0972 45.9438 39.0747C45.9081 39.0524 45.8623 39.0253 45.8066 38.9934L44.761 38.3946L44.6715 38.5509L46.1506 39.3979L46.2665 39.1955L45.5165 37.7456C45.5079 37.7284 45.4981 37.7114 45.4874 37.6948C45.4765 37.6782 45.4645 37.6617 45.4515 37.6456L45.4468 37.6397L45.4608 37.6153L45.4709 37.6238C45.4884 37.6384 45.5135 37.6563 45.5463 37.6774C45.5793 37.6987 45.6203 37.7233 45.669 37.7512L46.7418 38.3655L46.7418 38.3655ZM47.6401 36.6964L47.508 36.9514L46.4949 37.1817C46.4756 37.1858 46.4597 37.1891 46.4473 37.1913L46.4463 37.1915L47.1854 37.5743L47.0821 37.7736C46.5645 37.5055 46.0467 37.2378 45.5294 36.9692L45.6326 36.77L46.3378 37.1353L46.3342 37.1276C46.329 37.1163 46.3238 37.1038 46.3187 37.0903L45.9453 36.1663L46.0749 35.916L46.4751 36.9688L47.6515 36.6746L47.6402 36.6964H47.6401ZM47.4931 36.932L47.6092 36.708L46.4613 36.995L46.0718 35.9702L45.9696 36.1675L46.3392 37.0821C46.3442 37.0953 46.3492 37.1074 46.3542 37.1183C46.3593 37.1294 46.3646 37.1394 46.3697 37.1481L46.3728 37.1534L46.3627 37.1731L45.6421 36.7998L45.5592 36.9598L47.0727 37.7437L47.1556 37.5838L46.4006 37.1927L46.4111 37.1725L46.418 37.1726C46.4231 37.1726 46.4317 37.1715 46.4435 37.1694C46.4559 37.1672 46.4715 37.1641 46.4902 37.16L47.4931 36.932V36.932Z" fill="#C29977"/>
<path d="M7.6759 26.6584C8.04628 26.6584 8.38168 26.8086 8.62441 27.0514C8.86716 27.2941 9.01734 27.6294 9.01734 27.9999C9.01734 28.3703 8.86716 28.7057 8.62441 28.9484C8.38168 29.1911 8.04628 29.3413 7.6759 29.3413C7.30547 29.3413 6.97009 29.1911 6.7274 28.9484C6.48465 28.7057 6.33447 28.3703 6.33447 27.9999C6.33447 27.6294 6.48465 27.2941 6.7274 27.0514C6.97009 26.8086 7.30547 26.6584 7.6759 26.6584ZM8.18841 27.4874C8.05731 27.3562 7.87608 27.2751 7.6759 27.2751C7.47572 27.2751 7.29453 27.3562 7.1634 27.4874C7.03227 27.6185 6.95113 27.7997 6.95113 27.9999C6.95113 28.2001 7.03227 28.3813 7.1634 28.5124C7.29453 28.6435 7.47572 28.7246 7.6759 28.7246C7.87608 28.7246 8.05731 28.6435 8.18841 28.5124C8.31954 28.3813 8.40067 28.2001 8.40067 27.9999C8.40067 27.7997 8.31954 27.6185 8.18841 27.4874Z" fill="#C29977"/>
<path fill-rule="evenodd" clip-rule="evenodd" d="M47.3518 35.4416C47.2906 35.5999 47.1127 35.6786 46.9544 35.6174C46.7961 35.5562 46.7174 35.3783 46.7786 35.22C47.1617 34.2293 47.4647 33.2099 47.6859 32.1717C47.9072 31.1329 48.0458 30.0781 48.0997 29.0174C48.1084 28.8478 48.2529 28.7173 48.4225 28.726C48.5921 28.7346 48.7226 28.8791 48.714 29.0487C48.6582 30.1442 48.5156 31.2312 48.288 32.2994C48.0608 33.3659 47.7481 34.4167 47.3518 35.4415L47.3518 35.4416ZM48.714 26.952C48.7226 27.1216 48.5921 27.2661 48.4225 27.2747C48.2529 27.2834 48.1084 27.1529 48.0997 26.9833C48.0478 25.9629 47.9181 24.9495 47.7123 23.9523C47.5065 22.9557 47.2247 21.9744 46.8685 21.0174C46.8094 20.8585 46.8902 20.6816 47.0492 20.6224C47.2082 20.5632 47.3851 20.6441 47.4443 20.8031C47.8118 21.7904 48.1024 22.8023 48.3145 23.8295C48.5268 24.8583 48.6606 25.9023 48.714 26.952Z" fill="#C29977"/>
<path d="M48.4337 27.2751C48.2335 27.2751 48.0523 27.3562 47.9212 27.4874C47.7901 27.6185 47.7089 27.7997 47.7089 27.9999C47.7089 28.2001 47.7901 28.3813 47.9212 28.5124C48.0523 28.6435 48.2335 28.7246 48.4337 28.7246C48.6339 28.7246 48.8151 28.6435 48.9462 28.5124C49.0774 28.3813 49.1585 28.2001 49.1585 27.9999C49.1585 27.7997 49.0774 27.6185 48.9462 27.4874C48.8151 27.3562 48.6339 27.2751 48.4337 27.2751ZM47.4852 27.0514C47.7279 26.8086 48.0633 26.6584 48.4337 26.6584C48.8041 26.6584 49.1395 26.8086 49.3822 27.0514C49.625 27.2941 49.7751 27.6294 49.7751 27.9999C49.7751 28.3703 49.625 28.7057 49.3822 28.9484C49.1395 29.1911 48.8041 29.3413 48.4337 29.3413C48.0633 29.3413 47.7279 29.1911 47.4852 28.9484C47.2425 28.7057 47.0923 28.3703 47.0923 27.9999C47.0923 27.6294 47.2425 27.2941 47.4852 27.0514Z" fill="#C29977"/>
<path fill-rule="evenodd" clip-rule="evenodd" d="M17.5571 39.2102L17.5498 39.8262C17.3238 39.6302 17.1036 39.4276 16.8892 39.2192L17.5571 39.2102Z" fill="#C29977"/>
<path fill-rule="evenodd" clip-rule="evenodd" d="M17.5836 36.9734L17.5754 37.6646L15.5109 37.6923C15.3342 37.469 15.1635 37.2409 14.999 37.0081L17.5836 36.9734Z" fill="#C29977"/>
<path fill-rule="evenodd" clip-rule="evenodd" d="M17.6105 34.7375L17.6023 35.4288L14.0436 35.4765C13.9203 35.251 13.8023 35.0223 13.6899 34.7902L17.6105 34.7376V34.7375Z" fill="#C29977"/>
<path fill-rule="evenodd" clip-rule="evenodd" d="M19.1432 32.4812L18.392 32.7817L17.631 33.0861L17.6297 33.1926L13.0459 33.2541C12.9645 33.0272 12.8884 32.7977 12.8174 32.5661L19.1432 32.4812V32.4812Z" fill="#C29977"/>
<path fill-rule="evenodd" clip-rule="evenodd" d="M22.7823 30.1963L22.7783 30.8874L12.4281 31.0264C12.3829 30.7983 12.3424 30.5685 12.3071 30.3369L22.7823 30.1963L22.7823 30.1963Z" fill="#C29977"/>
<path fill-rule="evenodd" clip-rule="evenodd" d="M22.7959 27.9604L22.7919 28.6516L12.1503 28.7944C12.1382 28.5655 12.1311 28.3351 12.1289 28.1036L22.7959 27.9604Z" fill="#C29977"/>
<path fill-rule="evenodd" clip-rule="evenodd" d="M22.8087 25.7241L22.8047 26.4153L12.1899 26.5577C12.2105 26.3256 12.2354 26.0948 12.2659 25.8656L22.8087 25.7241Z" fill="#C29977"/>
<path fill-rule="evenodd" clip-rule="evenodd" d="M22.8228 23.488L22.8187 24.1792L12.5522 24.317C12.6075 24.0839 12.6674 23.8525 12.733 23.6235L22.8228 23.4881L22.8228 23.488Z" fill="#C29977"/>
<path fill-rule="evenodd" clip-rule="evenodd" d="M22.8353 21.2524L22.8313 21.9436L13.2671 22.0719C13.3619 21.8374 13.462 21.6056 13.5677 21.3768L22.8353 21.2524Z" fill="#C29977"/>
<path fill-rule="evenodd" clip-rule="evenodd" d="M39.0837 38.9209C38.8485 39.1622 38.6054 39.396 38.3551 39.6218L37.8906 39.628L37.8913 38.9369L39.0837 38.9209V38.9209Z" fill="#C29977"/>
<path fill-rule="evenodd" clip-rule="evenodd" d="M40.915 36.6604C40.7567 36.8976 40.5921 37.1302 40.4215 37.3581L37.8931 37.392L37.8937 36.701L40.915 36.6604Z" fill="#C29977"/>
<path fill-rule="evenodd" clip-rule="evenodd" d="M42.1645 34.408C42.0585 34.643 41.9471 34.8749 41.83 35.1035L37.8955 35.1563L37.8962 34.4652L42.1645 34.408V34.408Z" fill="#C29977"/>
<path fill-rule="evenodd" clip-rule="evenodd" d="M42.9774 32.1609C42.9126 32.3945 42.8424 32.6258 42.7672 32.8548L37.8969 32.9202L37.897 32.904L36.0859 32.2534L42.9774 32.1609L42.9774 32.1609Z" fill="#C29977"/>
<path fill-rule="evenodd" clip-rule="evenodd" d="M43.427 29.9195C43.398 30.1519 43.3641 30.3828 43.325 30.6119L35.7734 30.7133L35.7766 30.0221L43.427 29.9194V29.9195Z" fill="#C29977"/>
<path fill-rule="evenodd" clip-rule="evenodd" d="M43.5459 27.6822C43.5475 27.7723 43.5493 27.8625 43.5493 27.953C43.5493 28.0935 43.5473 28.2336 43.5436 28.3733L35.7837 28.4774L35.7869 27.7863L43.5459 27.6821V27.6822Z" fill="#C29977"/>
<path fill-rule="evenodd" clip-rule="evenodd" d="M43.3489 25.4487C43.3856 25.677 43.4168 25.9071 43.4436 26.1385L35.793 26.2412L35.7961 25.5501L43.349 25.4487H43.3489Z" fill="#C29977"/>
<path fill-rule="evenodd" clip-rule="evenodd" d="M42.8221 23.2197C42.8938 23.4469 42.96 23.6766 43.0216 23.9081L29.5966 24.0884L28.6914 23.4094L42.8221 23.2198V23.2197Z" fill="#C29977"/>
<path fill-rule="evenodd" clip-rule="evenodd" d="M41.9272 20.9958C42.0389 21.2217 42.1454 21.4507 42.2464 21.6826L26.6684 21.8917L25.7632 21.2128L41.9272 20.9958Z" fill="#C29977"/>
<path fill-rule="evenodd" clip-rule="evenodd" d="M40.5919 18.7781C40.7534 19.0021 40.9095 19.2303 41.0593 19.4629L23.7398 19.6954L22.8487 19.0271L22.8448 19.7074L14.3945 19.8208C14.538 19.5842 14.6877 19.3519 14.8431 19.1237L40.5919 18.7781Z" fill="#C29977"/>
<path fill-rule="evenodd" clip-rule="evenodd" d="M38.6641 16.5676C38.8957 16.7879 39.1199 17.0158 39.3377 17.2497L16.0562 17.5622C16.2677 17.3224 16.4859 17.0886 16.7116 16.8623L38.6641 16.5676Z" fill="#C29977"/>
<path fill-rule="evenodd" clip-rule="evenodd" d="M35.7386 14.3711C36.1017 14.5827 36.4554 14.8088 36.7992 15.0479L18.5352 15.2931C18.8727 15.0446 19.2205 14.8094 19.5779 14.588L35.7386 14.3711Z" fill="#C29977"/>
<path fill-rule="evenodd" clip-rule="evenodd" d="M27.8383 12.2427C29.3724 12.2427 30.8548 12.4635 32.2563 12.8735L23.0171 12.9975C24.5364 12.5081 26.1563 12.2427 27.8383 12.2427V12.2427Z" fill="#C29977"/>
<path d="M18.5812 43.1393C18.5461 43.1174 18.5111 43.0954 18.4762 43.0733L18.4757 43.0731V43.073C15.9536 41.4759 13.8596 39.2625 12.4053 36.6441C10.9823 34.0822 10.1719 31.1349 10.1719 28.0003C10.1719 23.0773 12.1674 18.6202 15.3937 15.3939C18.6199 12.1676 23.077 10.1721 28.0001 10.1721C32.9231 10.1721 37.3802 12.1676 40.6065 15.3939C43.8328 18.6202 45.8283 23.0772 45.8283 28.0003C45.8283 31.2236 44.9724 34.2476 43.4756 36.8573C41.9676 39.4866 39.8073 41.6953 37.2151 43.2635V43.2636L37.2133 43.2646C37.1421 43.3077 37.0706 43.3503 36.9987 43.3925L36.9924 43.3818L36.3983 43.6972L36.446 34.0852L35.0715 33.5914L35.0155 44.3989C34.5422 44.5972 34.0574 44.7615 33.4377 44.9572C33.0315 45.0855 32.617 45.2061 32.2324 45.3077V45.3077L32.2322 45.3078L32.2321 45.3078C32.0164 45.3648 31.8101 45.4157 31.6199 45.4587L31.6154 45.4385L31.3627 45.4921L31.4663 31.4805L34.3142 32.5037L34.3431 26.1227L29.9053 27.0857L29.9722 45.6902H29.8982L29.8997 45.7081C29.2569 45.762 28.6125 45.7891 27.9567 45.7865C27.3076 45.7838 26.6605 45.751 26.0068 45.6854L26.099 27.1236L29.1353 26.4648L29.1325 25.6818L24.6037 22.2853L24.4712 45.0041L23.7035 45.0011L23.7765 32.4787L19.3916 34.2327L19.2717 43.4457L18.5893 43.1263L18.5811 43.1393L18.5812 43.1393ZM37.2151 42.3585C39.5174 40.8776 41.4409 38.857 42.8072 36.4749C44.2389 33.9787 45.0575 31.0854 45.0575 28.0003C45.0575 23.29 43.1483 19.0256 40.0616 15.9388C36.9748 12.8521 32.7104 10.9429 28.0001 10.9429C23.2898 10.9429 19.0254 12.8521 15.9386 15.9388C12.8519 19.0256 10.9427 23.29 10.9427 28.0003C10.9427 31.003 11.7171 33.8228 13.0767 36.2708C14.3911 38.6372 16.2527 40.6584 18.4907 42.1639L18.63 33.7093L23.7814 31.6488L23.8449 20.7564L29.8989 25.2969L29.9025 26.2983L35.1152 25.1672L35.0758 32.7773L37.2143 33.5455L37.2151 42.3585ZM32.2324 44.511C32.5441 44.4251 32.8755 44.3268 33.206 44.2225C33.5734 44.1064 33.9354 43.984 34.2629 43.8639L34.3106 33.318L32.2321 32.5712L32.2324 44.511V44.511ZM26.7535 44.9765C27.1585 45.0032 27.5598 45.0171 27.9597 45.0187C28.3684 45.0204 28.7818 45.0089 29.2019 44.9851L29.1381 27.2521L26.8629 27.7458L26.7535 44.9765V44.9765Z" fill="#C29977"/>
</svg>
