<svg width="81" height="81" viewBox="0 0 81 81" fill="none" xmlns="http://www.w3.org/2000/svg">
<g clip-path="url(#clip0_500_638)">
<path d="M40.5 0C51.6836 0 61.8087 4.53316 69.1378 11.8622C76.4668 19.1913 81 29.3163 81 40.5C81 51.6836 76.4668 61.8087 69.1378 69.1378C61.8087 76.4668 51.6837 81 40.5 81C29.3164 81 19.1913 76.4668 11.8622 69.1378C4.53316 61.8087 0 51.6837 0 40.5C0 29.3164 4.53316 19.1913 11.8622 11.8622C19.1913 4.53316 29.3163 0 40.5 0ZM68.2182 12.7818C61.1246 5.68822 51.3247 1.30071 40.5 1.30071C29.6754 1.30071 19.8754 5.68827 12.7818 12.7818C5.68822 19.8754 1.30071 29.6753 1.30071 40.5C1.30071 51.3246 5.68827 61.1246 12.7818 68.2182C19.8754 75.3118 29.6753 79.6993 40.5 79.6993C51.3246 79.6993 61.1246 75.3117 68.2182 68.2182C75.3118 61.1246 79.6993 51.3247 79.6993 40.5C79.6993 29.6754 75.3117 19.8754 68.2182 12.7818Z" fill="#F5EDE0"/>
<path fill-rule="evenodd" clip-rule="evenodd" d="M8.99527 52.6828C9.0985 52.9499 8.96564 53.2502 8.69854 53.3534C8.43144 53.4567 8.13111 53.3238 8.02787 53.0567C7.35912 51.3273 6.83138 49.554 6.44796 47.7543C6.06394 45.9517 5.82325 44.1174 5.7292 42.2688C5.71463 41.9826 5.93483 41.7387 6.22104 41.7242C6.50725 41.7096 6.75115 41.9298 6.76572 42.216C6.85676 44.0058 7.09069 45.7859 7.46409 47.5389C7.83734 49.2907 8.34874 51.0111 8.99522 52.6828L8.99527 52.6828ZM6.76577 38.7833C6.7512 39.0695 6.5073 39.2897 6.22109 39.2751C5.93488 39.2605 5.71468 39.0166 5.72925 38.7304C5.81935 36.959 6.04513 35.1974 6.40343 33.4613C6.76132 31.7279 7.25174 30.0203 7.8719 28.3542C7.97173 28.0859 8.27024 27.9495 8.53852 28.0493C8.80681 28.1491 8.94328 28.4476 8.84345 28.7159C8.24234 30.3307 7.76684 31.9867 7.4196 33.6685C7.07227 35.3513 6.85335 37.0613 6.76577 38.7833Z" fill="#F5EDE0"/>
<path d="M13.2056 25.3228L12.7424 26.2001L11.5699 25.7748L11.0352 26.7877L12.0477 27.5161L11.6182 28.3295L6.51562 24.473L7.14295 23.2847L13.2055 25.3228H13.2056ZM7.72756 24.3989L10.3364 26.276L10.7533 25.4865L7.72756 24.3989ZM15.1772 22.0985L14.6271 22.9778L11.8323 22.2079L12.2898 22.9729L13.9718 24.0252L13.4457 24.8662L8.09395 21.5179L8.62011 20.6769L10.9214 22.1167L9.28022 19.6219L9.81591 18.7656L11.1541 20.9964L15.1772 22.0986V22.0985ZM18.4727 19.5367L17.8258 20.2888L17.1831 19.7359L15.5011 21.6912L10.7153 17.5743L11.3623 16.8222L15.4644 20.351L16.1584 19.5443L12.0563 16.0155L12.7032 15.2635L16.8053 18.7922L17.1464 18.3957L18.4728 19.5366L18.4727 19.5367ZM17.3043 16.3815L15.4052 12.5718L16.1344 11.8861L20.4592 16.4847L19.8154 17.0902L17.0105 14.1076L18.9219 17.9304L18.1927 18.6162L13.8679 14.0175L14.5117 13.4121L17.3043 16.3815ZM20.1539 14.7929L18.2596 12.0679C17.9713 11.6533 17.8544 11.2586 17.9088 10.8839C17.9632 10.5094 18.1904 10.183 18.5902 9.90505C18.9901 9.62708 19.3751 9.52789 19.7452 9.60738C20.1154 9.68692 20.4446 9.93403 20.7328 10.3487L22.6271 13.0738C22.9153 13.4884 23.0323 13.8831 22.9779 14.2577C22.9235 14.6324 22.6963 14.9586 22.2964 15.2366C21.8965 15.5146 21.5115 15.6139 21.1414 15.5343C20.7712 15.4548 20.4421 15.2076 20.1539 14.7929ZM21.8485 13.6918L19.8823 10.8631C19.6455 10.5225 19.3864 10.45 19.105 10.6455C18.8236 10.8411 18.8012 11.1093 19.0381 11.45L21.0044 14.2786C21.2412 14.6193 21.5003 14.6917 21.7817 14.4961C22.0631 14.3005 22.0854 14.0324 21.8485 13.6918ZM24.9439 13.426L24.0775 13.9091L21.0032 8.39544L21.8696 7.91234L23.1213 10.1572L24.0507 9.63898L22.7991 7.39413L23.6655 6.91102L26.7398 12.4247L25.8733 12.9078L24.4899 10.4267L23.5605 10.9449L24.9439 13.426ZM29.9447 11.0407L27.443 12.0708L25.0395 6.23334L27.5413 5.20324L27.8846 6.03718L26.3002 6.68954L26.9354 8.23227L28.1947 7.71381L28.538 8.54776L27.2787 9.06621L28.017 10.8591L29.6014 10.2068L29.9447 11.0407V11.0407ZM31.452 10.5976L30.5001 10.8767L28.7242 4.81877L30.1261 4.4078C31.0723 4.13038 31.6917 4.49079 31.9843 5.4889L32.1594 6.08606C32.452 7.08412 32.1252 7.72186 31.179 7.99923L30.729 8.1312L31.452 10.5976V10.5976ZM29.9298 5.40517L30.4753 7.26576L30.9253 7.13379C31.0868 7.08644 31.192 7.00705 31.2408 6.89566C31.2896 6.78428 31.2844 6.62757 31.2252 6.42564L31.0146 5.70732C30.9554 5.50544 30.8752 5.37075 30.774 5.30326C30.6727 5.23582 30.5414 5.22585 30.3798 5.2732L29.9298 5.40517ZM34.8687 9.77382L33.8897 9.93398L32.8703 3.704L33.8493 3.54379L34.2644 6.08033L35.3146 5.90852L34.8995 3.37197L35.8785 3.21176L36.8979 9.44179L35.9189 9.60195L35.4602 6.7985L34.41 6.97031L34.8687 9.77382ZM37.5901 7.80836L37.5532 4.48981C37.5475 3.98478 37.6724 3.59262 37.9278 3.31312C38.1832 3.03372 38.5545 2.89133 39.0414 2.8859C39.5284 2.88047 39.9026 3.01462 40.1642 3.28824C40.4258 3.56191 40.5594 3.95126 40.565 4.45628L40.6019 7.77483C40.6076 8.27981 40.4826 8.67203 40.2272 8.95147C39.9718 9.23092 39.6006 9.37326 39.1137 9.37874C38.6267 9.38417 38.2524 9.25003 37.9909 8.97636C37.7293 8.70269 37.5957 8.31339 37.5901 7.80836ZM39.6107 7.84894L39.5724 4.4042C39.5677 3.98932 39.3941 3.78383 39.0514 3.78769C38.7088 3.79149 38.5397 4.00078 38.5443 4.4156L38.5827 7.8604C38.5873 8.27522 38.7609 8.48071 39.1036 8.47691C39.4463 8.47306 39.6153 8.26382 39.6107 7.84894ZM44.0318 9.43626L41.3341 9.23186L41.8111 2.93705L44.5089 3.1415L44.4407 4.04077L42.7321 3.91131L42.606 5.57491L43.9639 5.6778L43.8958 6.57702L42.5379 6.47412L42.3914 8.40754L44.1 8.53704L44.0319 9.43626H44.0318ZM46.2962 8.23553L47.027 4.99819C47.1382 4.50561 47.3504 4.15284 47.6634 3.94C47.9765 3.72716 48.3706 3.67433 48.8456 3.78161C49.3207 3.88885 49.6538 4.10579 49.8451 4.43244C50.0364 4.75918 50.0764 5.16882 49.9652 5.66146L49.2344 8.89874C49.1232 9.39138 48.9111 9.74414 48.598 9.95699C48.2849 10.1699 47.8908 10.2226 47.4158 10.1154C46.9408 10.0081 46.6076 9.79119 46.4163 9.4645C46.2251 9.13775 46.185 8.72811 46.2962 8.23553ZM48.2528 8.74189L49.0114 5.38147C49.1027 4.97676 48.9813 4.73672 48.647 4.66128C48.3127 4.58584 48.0999 4.75039 48.0085 5.1551L47.2499 8.51552C47.1586 8.92022 47.2801 9.16027 47.6144 9.23571C47.9487 9.31115 48.1614 9.14659 48.2528 8.74189ZM51.0312 11.0897L49.5831 10.586L51.657 4.62356L54.1357 5.48564L53.8394 6.33746L52.2977 5.80128L51.7793 7.29183L52.2904 7.46962C53.2216 7.7935 53.5164 8.44669 53.1747 9.42905L52.9406 10.102C52.5989 11.0844 51.9625 11.4136 51.0312 11.0897L51.0312 11.0897ZM51.4829 8.14364L50.8163 10.0601L51.3274 10.2379C51.4864 10.2932 51.6181 10.2897 51.7226 10.2273C51.827 10.165 51.9138 10.0345 51.983 9.83568L52.2585 9.04355C52.3276 8.84478 52.3406 8.68861 52.2974 8.57491C52.2542 8.46116 52.153 8.37668 51.994 8.32143L51.4829 8.14364ZM60.0377 8.36883L57.5114 13.1539L57.974 13.3981L57.1529 14.9533L56.2757 14.4901L56.6756 13.7325L52.9752 11.7788L55.9225 6.19626L56.7998 6.65942L54.2735 11.4445L55.0153 11.836L57.5415 7.05099L58.4188 7.51415L55.8925 12.2992L56.6343 12.6908L59.1605 7.90572L60.0378 8.36888L60.0377 8.36883ZM60.1514 16.1333L57.9413 14.5728L61.5826 9.41592L63.7927 10.9764L63.2725 11.7132L61.8728 10.7248L60.9105 12.0877L62.0229 12.8732L61.5027 13.6099L60.3903 12.8244L59.2719 14.4083L60.6716 15.3966L60.1514 16.1333ZM61.5348 15.4118L63.8602 12.9439C64.1983 12.585 64.5519 12.3938 64.9212 12.37C65.2906 12.3463 65.6459 12.4952 65.9872 12.8168C66.3285 13.1384 66.4983 13.4842 66.4966 13.8543C66.4948 14.2244 66.3249 14.5888 65.9868 14.9476L65.5292 15.4333L64.8465 14.7902L65.3474 14.2585C65.6154 13.9741 65.6291 13.7185 65.3884 13.4917C65.1478 13.265 64.8933 13.2938 64.6254 13.5782L62.2072 16.1446C61.9434 16.4247 61.9318 16.6781 62.1724 16.9048C62.4131 17.1316 62.6653 17.105 62.9292 16.8249L63.56 16.1554L64.2427 16.7986L63.6614 17.4156C63.3233 17.7744 62.9696 17.9656 62.6003 17.9894C62.2309 18.0131 61.8757 17.8642 61.5344 17.5426C61.193 17.221 61.0232 16.8752 61.025 16.5051C61.0267 16.135 61.1966 15.7706 61.5347 15.4118L61.5348 15.4118ZM64.2788 20.25L63.6208 19.5075L67.6703 15.9186L66.9825 15.1424L67.6574 14.5443L69.6911 16.839L69.0162 17.4372L68.3283 16.661L64.2788 20.25ZM66.1731 22.7274L65.2826 21.4463L70.4661 17.8431L71.3206 19.0723C71.6088 19.487 71.7232 19.8596 71.6638 20.1901C71.6044 20.5207 71.3722 20.8267 70.9675 21.108L70.7601 21.2521C70.2269 21.6227 69.767 21.6826 69.3802 21.4316L69.3653 21.4419C69.5086 21.9427 69.2888 22.3957 68.7063 22.8006L68.262 23.1094C67.8621 23.3874 67.4844 23.4944 67.1287 23.4305C66.773 23.3665 66.4545 23.1321 66.1731 22.7273V22.7274ZM70.2918 19.1724L68.9219 20.1247L69.1433 20.443C69.2599 20.6109 69.3889 20.7043 69.5302 20.7232C69.6715 20.7421 69.8384 20.6847 70.0309 20.5509L70.3197 20.3501C70.6751 20.103 70.7567 19.8412 70.5646 19.5649L70.2918 19.1724V19.1724ZM68.1814 20.6394L66.5893 21.7462L66.9136 22.2127C67.0165 22.3608 67.1294 22.4415 67.2523 22.455C67.3751 22.4685 67.5304 22.41 67.718 22.2795L68.1697 21.9655C68.4017 21.8042 68.5372 21.6515 68.5761 21.5074C68.615 21.3631 68.5675 21.1948 68.4337 21.0023L68.1814 20.6394H68.1814ZM68.6294 23.7281L71.5478 22.148C71.9919 21.9075 72.3971 21.8351 72.7635 21.9308C73.1297 22.0265 73.4288 22.2885 73.6607 22.7167C73.8925 23.145 73.9483 23.5386 73.8282 23.8976C73.7081 24.2567 73.426 24.5563 72.9819 24.7968L70.0634 26.3769C69.6193 26.6173 69.2141 26.6897 68.8479 26.594C68.4816 26.4983 68.1825 26.2364 67.9507 25.8081C67.7188 25.3799 67.6629 24.9862 67.7831 24.6272C67.9032 24.2682 68.1853 23.9685 68.6294 23.7281ZM69.5357 25.5346L72.5651 23.8944C72.9299 23.6969 73.0308 23.4475 72.8676 23.1461C72.7045 22.8447 72.4405 22.7928 72.0757 22.9903L69.0462 24.6304C68.6814 24.828 68.5806 25.0774 68.7437 25.3788C68.9069 25.6802 69.1708 25.7321 69.5357 25.5346Z" fill="#F5EDE0"/>
<path d="M9.35851 58.6763C9.15268 58.546 8.96995 58.3411 8.81122 58.0618C8.60617 57.7012 8.55804 57.3471 8.66715 56.9986C8.77592 56.6494 9.01932 56.3674 9.39628 56.1531C9.80152 55.9227 10.1986 55.8589 10.5874 55.9602C10.9756 56.0619 11.2763 56.3003 11.4893 56.6748C11.6257 56.9148 11.7045 57.1334 11.725 57.3308L11.409 57.5105C11.4071 57.2714 11.344 57.0424 11.2194 56.8234C11.0542 56.5328 10.823 56.3522 10.5254 56.282C10.2283 56.2115 9.91696 56.2688 9.59189 56.4536C9.28312 56.6292 9.08508 56.8535 8.99779 57.1267C8.9108 57.4003 8.94497 57.6737 9.10128 57.9487C9.24564 58.2027 9.42788 58.3912 9.64684 58.5124L9.35861 58.6763H9.35851ZM10.8137 61.1486L10.6263 60.8583L12.8089 59.4503L11.9838 58.1713L9.80128 59.5793L9.61514 59.2907L12.0635 57.7112L13.262 59.5691L10.8137 61.1486ZM12.2283 63.066L11.2753 61.8509L13.5679 60.0527L14.4811 61.2171L14.2387 61.4071L13.5362 60.5114L12.7731 61.11L13.423 61.9386L13.1807 62.1286L12.5307 61.3L11.7283 61.9293L12.4707 62.8759L12.2283 63.0659V63.066ZM13.7523 66.0035L13.5447 65.7657L14.134 65.2509L12.6434 63.5446L14.8377 61.6278L15.0623 61.8848L13.0999 63.5991L14.0922 64.7349L16.0545 63.0207L16.279 63.2777L14.3167 64.9919L14.5736 65.286L13.7523 66.0035V66.0035ZM16.46 67.51L16.2119 67.2745L17.6609 65.748C17.7918 65.6101 17.8884 65.5182 17.9515 65.472L17.9425 65.4634C17.8786 65.4935 17.8138 65.5163 17.749 65.5312L15.0622 66.1832L14.7558 65.8924L16.7617 63.7791L17.0092 64.0141L15.5965 65.5025C15.4456 65.6615 15.3432 65.7613 15.2898 65.8024L15.2954 65.8078C15.3581 65.785 15.4301 65.7645 15.5121 65.7446L18.1473 65.0944L18.4658 65.3967L16.46 67.51H16.46ZM18.8669 69.4769L18.571 69.2416L18.8369 68.4109L17.8692 67.6416L17.134 68.0994L16.837 67.8633L19.5248 66.2778L19.8018 66.498L18.8669 69.4769ZM18.9406 68.0999L19.3549 66.8438C19.3686 66.8033 19.3973 66.7428 19.4415 66.6636L19.435 66.6584C19.3733 66.7148 19.3202 66.756 19.2773 66.7821L18.1499 67.4713L18.9406 68.0998V68.0999ZM20.9523 70.9801L20.6739 70.7827L22.1813 68.6573L21.5216 68.1894C21.0211 68.7343 20.6604 69.1146 20.4408 69.3306C20.2209 69.5471 20.047 69.6976 19.9186 69.7827C19.7903 69.8677 19.6668 69.9111 19.5491 69.9127C19.4316 69.9153 19.3188 69.8777 19.2101 69.8007C19.123 69.7389 19.0552 69.6738 19.0077 69.6052L19.1928 69.3444C19.2268 69.4162 19.2779 69.4763 19.3463 69.5247C19.4148 69.5733 19.5082 69.5783 19.6264 69.5389C19.7447 69.5003 19.9567 69.3309 20.2626 69.0316C20.5694 68.7321 20.9707 68.3125 21.4678 67.7737L22.6379 68.6037L20.9523 70.9802L20.9523 70.9801ZM23.693 72.5644L23.3962 72.3945L24.4421 70.568C24.5366 70.403 24.6088 70.2909 24.659 70.231L24.6482 70.2248C24.5932 70.2692 24.5358 70.3067 24.4763 70.3365L22.0206 71.6067L21.654 71.3968L23.1018 68.8684L23.398 69.038L22.3783 70.8187C22.2694 71.0089 22.1935 71.1302 22.1514 71.1828L22.158 71.1866C22.2135 71.1496 22.2788 71.1126 22.3537 71.0739L24.7598 69.8178L25.1409 70.036L23.693 72.5644ZM24.3307 72.7595L24.4844 72.4224C24.6224 72.6683 24.8227 72.8511 25.0852 72.9708C25.2765 73.058 25.4496 73.0813 25.6049 73.04C25.7593 72.9991 25.8728 72.9006 25.9444 72.7435C26.0996 72.4032 25.9466 72.1284 25.4871 71.9189L25.2113 71.7932L25.3287 71.5356L25.5824 71.6513C25.7781 71.7405 25.9495 71.7675 26.0963 71.7315C26.243 71.6955 26.3514 71.6001 26.4222 71.4448C26.483 71.3116 26.4868 71.1845 26.4343 71.0638C26.3812 70.9427 26.2763 70.8468 26.1197 70.7754C25.8981 70.6745 25.6506 70.6455 25.3777 70.6888L25.521 70.3745C25.7656 70.3549 26.0144 70.4027 26.2682 70.5184C26.52 70.6332 26.6903 70.7832 26.7804 70.9684C26.8696 71.154 26.8706 71.3442 26.7816 71.5393C26.6248 71.8833 26.3579 72.0239 25.9819 71.9607L25.9784 71.9683C26.1513 72.0722 26.2644 72.2069 26.3191 72.3714C26.3734 72.5364 26.3615 72.7049 26.2835 72.8759C26.1727 73.1189 25.9979 73.2732 25.7602 73.338C25.5223 73.4033 25.2534 73.3676 24.9535 73.231C24.6538 73.0943 24.4463 72.9372 24.3306 72.7594L24.3307 72.7595ZM28.7688 74.7352L28.45 74.6113L29.2123 72.6494C29.2812 72.4722 29.3358 72.3506 29.3767 72.2839L29.365 72.2793C29.3173 72.3314 29.2661 72.3771 29.2117 72.4154L26.9725 74.0372L26.5787 73.8842L27.6339 71.1683L27.952 71.2919L27.2089 73.2047C27.1295 73.409 27.0725 73.5402 27.0387 73.5985L27.0458 73.6013C27.0953 73.5565 27.1542 73.5102 27.2225 73.4607L29.4147 71.8602L29.8241 72.0193L28.7689 74.7351L28.7688 74.7352ZM30.2115 74.0509L29.9069 75.1111L29.5788 75.0168L30.3834 72.2164L31.1529 72.4376C31.4523 72.5236 31.6634 72.6629 31.7868 72.8565C31.9097 73.0491 31.9327 73.278 31.8565 73.5434C31.7802 73.8088 31.6264 73.9999 31.3944 74.1165C31.1633 74.2327 30.8915 74.2463 30.5809 74.157L30.2115 74.0508V74.0509ZM30.6265 72.6067L30.2966 73.7549L30.6406 73.8537C30.8666 73.9186 31.0549 73.9165 31.2033 73.8472C31.3523 73.7782 31.4536 73.6491 31.5079 73.4605C31.6142 73.0905 31.4486 72.843 31.0112 72.7173L30.6265 72.6068V72.6067ZM33.0451 75.9316C32.642 75.8393 32.3498 75.6329 32.1686 75.3118C31.9874 74.9906 31.9447 74.6172 32.0421 74.1918C32.1467 73.7347 32.354 73.3978 32.6631 73.1825C32.9723 72.9665 33.3402 72.9077 33.7655 73.005C34.1578 73.0948 34.4434 73.299 34.6222 73.6182C34.8018 73.9376 34.8424 74.3105 34.7446 74.7373C34.6384 75.2012 34.4315 75.5395 34.1243 75.7531C33.817 75.9667 33.4576 76.026 33.0451 75.9316ZM33.6724 73.2997C33.3742 73.2315 33.1076 73.2835 32.8715 73.4565C32.6363 73.629 32.4782 73.891 32.3981 74.2406C32.3179 74.5909 32.344 74.8936 32.477 75.149C32.6094 75.4034 32.8223 75.5646 33.1138 75.6313C33.4256 75.7027 33.6943 75.6575 33.9207 75.4951C34.1471 75.3327 34.3016 75.0685 34.3856 74.702C34.4715 74.3267 34.4513 74.0168 34.3237 73.7719C34.1962 73.5271 33.9788 73.3699 33.6725 73.2997H33.6724ZM35.0517 76.2517L35.4337 73.3632L36.2556 73.4719C36.5052 73.5049 36.6959 73.5924 36.8256 73.7334C36.9559 73.8752 37.0085 74.0438 36.9825 74.2398C36.9609 74.4035 36.8973 74.5399 36.7927 74.6492C36.6879 74.7585 36.5548 74.8284 36.392 74.8587L36.3909 74.8669C36.5825 74.9153 36.729 75.0095 36.8294 75.1488C36.9299 75.2888 36.967 75.4581 36.9407 75.6569C36.9081 75.9038 36.7929 76.0922 36.5952 76.2221C36.3974 76.352 36.1638 76.3988 35.8935 76.363L35.0517 76.2517V76.2517ZM35.7317 73.7133L35.6084 74.6459L35.9551 74.6917C36.14 74.7162 36.2917 74.6908 36.4102 74.6155C36.5279 74.5401 36.5975 74.4212 36.6189 74.2589C36.656 73.9783 36.4903 73.8137 36.1203 73.7647L35.7317 73.7133ZM35.568 74.9512L35.4305 75.9911L35.8899 76.0518C36.0887 76.0782 36.2489 76.0517 36.3707 75.972C36.4932 75.8923 36.5645 75.7709 36.5862 75.6065C36.6313 75.2654 36.4214 75.0642 35.9566 75.0026L35.568 74.9512ZM39.7688 76.6927L39.3917 76.6641L39.1457 75.8272L37.9131 75.7336L37.5614 76.5251L37.183 76.4963L38.5181 73.6757L38.8708 73.7025L39.7688 76.6927V76.6927ZM39.057 75.5116L38.6951 74.2395C38.6836 74.1984 38.6733 74.1321 38.6656 74.0418L38.6573 74.0412C38.6379 74.1225 38.617 74.1862 38.5962 74.232L38.0498 75.4351L39.057 75.5116L39.057 75.5116ZM42.4748 76.6076L42.1337 76.6145L42.1069 75.2869L40.599 75.3173L40.6258 76.6449L40.2845 76.6517L40.2259 73.7386L40.5671 73.7318L40.5929 75.0094L42.1007 74.979L42.075 73.7014L42.4162 73.6946L42.4748 76.6076ZM45.488 76.3221L45.1497 76.3668L44.9756 75.0505L43.4805 75.2483L43.6545 76.5646L43.3161 76.6094L42.9342 73.7208L43.2725 73.6761L43.4401 74.9429L44.9352 74.7452L44.7677 73.4784L45.106 73.4336L45.488 76.3221ZM48.7645 75.7527L48.4275 75.8111L47.9306 72.9401L48.2676 72.8818L48.7645 75.7527ZM46.3071 76.178L45.8102 73.3071L46.1466 73.2488L46.3574 74.4669L46.9022 74.3727C47.1879 74.3232 47.422 74.3538 47.6045 74.4644C47.7877 74.5749 47.9009 74.7574 47.9451 75.0124C47.9907 75.2762 47.9435 75.4998 47.8032 75.6818C47.6631 75.8645 47.4487 75.9804 47.1602 76.0304L46.3071 76.178V76.178ZM46.4099 74.7705L46.5909 75.8163L47.0632 75.7346C47.2622 75.7002 47.4079 75.627 47.4997 75.5147C47.5915 75.4024 47.6236 75.2623 47.5943 75.0935C47.5352 74.7517 47.2978 74.6168 46.8822 74.6887L46.4099 74.7705ZM51.8539 74.8644L51.5252 74.9588L50.9439 72.936C50.8914 72.7533 50.8613 72.6233 50.8533 72.5455L50.8414 72.549C50.8349 72.6194 50.8217 72.6867 50.8017 72.7502L50.0017 75.3967L49.5956 75.5134L48.7909 72.7131L49.119 72.6188L49.6857 74.591C49.7463 74.8017 49.7804 74.9406 49.7887 75.0075L49.7961 75.0054C49.8083 74.9398 49.8271 74.8673 49.8516 74.7866L50.6271 72.1854L51.0492 72.0642L51.8539 74.8645V74.8644ZM50.3885 71.3271C50.422 71.5167 50.3899 71.684 50.2924 71.8268C50.1943 71.9705 50.0497 72.0698 49.857 72.1252C49.6589 72.1821 49.4823 72.1751 49.327 72.1042C49.1724 72.0338 49.0625 71.9074 48.9976 71.7268L49.3143 71.6358C49.4028 71.876 49.5634 71.9627 49.7948 71.8962C49.8994 71.8661 49.9762 71.8094 50.025 71.7254C50.0745 71.6411 50.0897 71.5386 50.0724 71.418L50.3885 71.3272V71.3271ZM53.4938 74.144L53.356 73.8001C53.6292 73.87 53.8997 73.8513 54.1676 73.7439C54.3627 73.6657 54.499 73.5565 54.5764 73.4157C54.6533 73.2758 54.6604 73.1257 54.5961 72.9653C54.457 72.6183 54.1526 72.5392 53.6838 72.7271L53.4024 72.8398L53.2971 72.5771L53.556 72.4734C53.7556 72.3934 53.8935 72.2881 53.9688 72.157C54.044 72.0259 54.0498 71.8816 53.9863 71.7232C53.9319 71.5874 53.8425 71.4969 53.7189 71.4515C53.5947 71.4064 53.4529 71.4161 53.2932 71.4801C53.0672 71.5707 52.8753 71.7298 52.7183 71.9572L52.5898 71.6365C52.7444 71.446 52.9508 71.299 53.2096 71.1953C53.4666 71.0923 53.6926 71.0727 53.8889 71.1353C54.0848 71.1988 54.223 71.3294 54.3027 71.5285C54.4434 71.8795 54.3609 72.1696 54.0556 72.398L54.0587 72.4057C54.2533 72.3524 54.4289 72.3635 54.5855 72.4375C54.7425 72.5121 54.856 72.637 54.926 72.8115C55.0253 73.0594 55.0163 73.2925 54.8991 73.5091C54.7821 73.7263 54.5707 73.8963 54.2648 74.0188C53.959 74.1414 53.7021 74.1831 53.4936 74.144L53.4938 74.144ZM57.8565 72.2321L57.5215 72.4073L56.8699 71.8273L55.7744 72.4L55.8948 73.2577L55.5585 73.4335L55.1989 70.3337L55.5125 70.1697L57.8565 72.232V72.2321ZM56.6276 71.6064L55.6474 70.7184C55.6159 70.6895 55.5722 70.6387 55.5178 70.5662L55.5104 70.5701C55.537 70.6493 55.553 70.7145 55.5596 70.7643L55.7326 72.0744L56.6276 71.6064ZM59.946 70.8887C59.8156 71.0945 59.6107 71.2772 59.3314 71.4359C58.9708 71.641 58.6167 71.6891 58.2682 71.58C57.919 71.4712 57.637 71.2278 57.4227 70.8509C57.1923 70.4456 57.1285 70.0486 57.2299 69.6597C57.3315 69.2716 57.5699 68.9708 57.9444 68.7579C58.1844 68.6214 58.403 68.5426 58.6004 68.5221L58.7801 68.8381C58.541 68.8401 58.312 68.9032 58.093 69.0277C57.8024 69.193 57.6218 69.4242 57.5516 69.7218C57.4811 70.0189 57.5384 70.3302 57.7232 70.6553C57.8988 70.964 58.1231 71.1621 58.3963 71.2494C58.6699 71.3364 58.9434 71.3022 59.2184 71.1459C59.4723 71.0015 59.6608 70.8193 59.7821 70.6003L59.946 70.8886V70.8887ZM60.4512 67.4893L59.7636 67.9742L61.2651 70.1037L60.9861 70.3004L59.4846 68.1709L58.7986 68.6546L58.6211 68.4029L60.2738 67.2376L60.4512 67.4893ZM62.0067 68.1856L62.6875 69.0536L62.4189 69.2643L60.6207 66.9717L61.2506 66.4775C61.4957 66.2854 61.7323 66.1958 61.9615 66.2092C62.1896 66.2225 62.3886 66.3379 62.559 66.5552C62.7294 66.7724 62.7943 67.009 62.7528 67.2654C62.7116 67.5208 62.5634 67.749 62.3091 67.9484L62.0067 68.1856H62.0067ZM61.0794 67.0033L61.8166 67.9433L62.0984 67.7224C62.2834 67.5773 62.3919 67.4233 62.4227 67.2625C62.4541 67.1013 62.4089 66.9437 62.2877 66.7892C62.0501 66.4862 61.7525 66.4754 61.3944 66.7563L61.0795 67.0033H61.0794ZM65.1513 67.0082C64.8513 67.2928 64.5177 67.4218 64.1499 67.395C63.7821 67.3681 63.4475 67.1968 63.1472 66.8803C62.8245 66.5401 62.6587 66.1809 62.6505 65.8043C62.6418 65.4272 62.7965 65.0883 63.113 64.7879C63.405 64.511 63.7332 64.3862 64.098 64.414C64.4633 64.4413 64.7963 64.614 65.0976 64.9316C65.4251 65.2768 65.5923 65.6365 65.6001 66.0106C65.6079 66.3847 65.4583 66.717 65.1512 67.0082L65.1513 67.0082ZM63.3069 65.0286C63.085 65.2392 62.9807 65.4901 62.9941 65.7825C63.0075 66.0738 63.1381 66.3506 63.3849 66.6108C63.6323 66.8715 63.8988 67.0174 64.185 67.048C64.4703 67.0786 64.7224 66.9906 64.9393 66.7848C65.1713 66.5647 65.2824 66.3159 65.2726 66.0374C65.2627 65.7589 65.1282 65.484 64.8694 65.2112C64.6044 64.9318 64.3352 64.7771 64.0606 64.7477C63.7861 64.7185 63.5349 64.8124 63.3068 65.0287L63.3069 65.0286ZM68.1584 63.7701L67.9348 64.0289L66.3422 62.6529C66.1983 62.5286 66.1021 62.4363 66.0529 62.3755L66.0448 62.3849C66.0778 62.4474 66.1036 62.5109 66.1215 62.575L66.8984 65.2283L66.6222 65.548L64.4175 63.6431L64.6407 63.3848L66.1934 64.7264C66.3593 64.8697 66.4638 64.9673 66.5074 65.0188L66.5124 65.013C66.4868 64.9515 66.4629 64.8805 66.4393 64.7995L65.6666 62.1975L65.9537 61.8652L68.1584 63.7701H68.1584ZM64.9977 61.6094C65.1294 61.7498 65.194 61.9074 65.1904 62.0803C65.1868 62.2542 65.12 62.4164 64.9889 62.5682C64.8542 62.724 64.7025 62.8148 64.5337 62.8403C64.3659 62.8659 64.2047 62.8201 64.0516 62.7043L64.267 62.455C64.4725 62.6078 64.6543 62.5925 64.8117 62.4104C64.8829 62.328 64.9162 62.2385 64.9111 62.1415C64.9064 62.0439 64.8631 61.9497 64.7827 61.8582L64.9977 61.6094V61.6094ZM71.4553 60.6916L71.2731 60.9485L70.6348 60.4958L68.7501 63.153L66.3735 61.4674L66.571 61.1889L68.6964 62.6964L69.3208 61.8159L67.1955 60.3085L67.393 60.0301L69.5183 61.5375L70.1416 60.6588L68.0163 59.1513L68.2137 58.8729L70.3391 60.3803L70.5658 60.0606L71.4553 60.6915V60.6916ZM72.2971 57.7226L72.1272 58.0194L70.3007 56.9734C70.1357 56.879 70.0236 56.8068 69.9637 56.7565L69.9575 56.7673C70.0019 56.8223 70.0394 56.8797 70.0692 56.9392L71.3394 59.395L71.1295 59.7616L68.6011 58.3137L68.7707 58.0175L70.5514 59.0373C70.7416 59.1462 70.8629 59.222 70.9155 59.2641L70.9193 59.2575C70.8824 59.202 70.8453 59.1368 70.8067 59.0619L69.5505 56.6558L69.7687 56.2747L72.2971 57.7226ZM73.6222 55.164L73.4033 55.5865L71.7022 55.9732C71.6381 55.9869 71.5964 55.995 71.5762 55.9947L71.5724 56.0021L72.8462 56.662L72.6892 56.9651L70.1021 55.6249L70.2591 55.3218L71.4751 55.9517L71.4789 55.9443C71.461 55.914 71.4432 55.8759 71.4262 55.8303L70.7993 54.279L70.9949 53.9014L71.6611 55.6543L73.6222 55.164Z" fill="#F5EDE0"/>
<path d="M9.359 58.671C9.25438 58.6048 9.15584 58.5197 9.06351 58.416C8.97153 58.3127 8.88533 58.1906 8.80539 58.0499C8.70166 57.8675 8.63758 57.6865 8.61324 57.507C8.58885 57.3272 8.60435 57.1487 8.65969 56.9719C8.71479 56.7949 8.80411 56.6349 8.92734 56.492C9.05023 56.3495 9.20708 56.2239 9.39741 56.1158C9.60177 55.9995 9.80449 55.9252 10.005 55.8928C10.2062 55.8602 10.4055 55.8696 10.6024 55.921C10.799 55.9725 10.9736 56.0587 11.1259 56.1794C11.2782 56.3001 11.4082 56.4552 11.5158 56.6445C11.5845 56.7653 11.6388 56.881 11.6785 56.9914C11.7184 57.1022 11.7436 57.2077 11.7539 57.3079L11.7552 57.32L11.401 57.5213L11.4007 57.4896C11.3998 57.3716 11.3836 57.2562 11.3526 57.1433C11.3214 57.0303 11.275 56.9197 11.2136 56.8116C11.1322 56.6684 11.0345 56.5524 10.9209 56.4637C10.8075 56.3752 10.6776 56.3137 10.5315 56.2792C10.3854 56.2445 10.2358 56.2413 10.0829 56.2694C9.92935 56.2977 9.77215 56.3574 9.61149 56.4488C9.45888 56.5355 9.33372 56.6343 9.23611 56.7449C9.13885 56.855 9.06879 56.9772 9.02594 57.1112C8.98333 57.2453 8.97034 57.3796 8.98718 57.5138C9.00407 57.6483 9.05092 57.7832 9.12784 57.9184C9.19923 58.044 9.28011 58.1536 9.36996 58.2464C9.45952 58.3389 9.55847 58.4153 9.66625 58.475L9.69533 58.4911L9.36838 58.677L9.35895 58.6711L9.359 58.671ZM9.09141 58.3911C9.17874 58.4892 9.27151 58.57 9.36947 58.6334L9.61944 58.4912C9.51961 58.4324 9.42738 58.3593 9.3432 58.2723C9.25108 58.1772 9.16833 58.0652 9.0954 57.9368C9.01601 57.7972 8.96753 57.6576 8.95005 57.5183C8.93258 57.3788 8.946 57.2393 8.99034 57.0998C9.03478 56.9608 9.10745 56.834 9.20817 56.72C9.3085 56.6063 9.43686 56.505 9.59303 56.4162C9.75744 56.3227 9.91859 56.2614 10.0762 56.2325C10.2344 56.2035 10.3892 56.2068 10.5401 56.2426C10.6914 56.2783 10.826 56.3421 10.9439 56.4341C11.0615 56.5259 11.1622 56.6456 11.2461 56.793C11.3091 56.9037 11.3566 57.0173 11.3886 57.1332C11.4177 57.2391 11.4341 57.3473 11.4375 57.4575L11.7155 57.2994C11.7047 57.2058 11.6806 57.1072 11.6435 57.0039C11.6046 56.8957 11.5512 56.7819 11.4834 56.6629C11.3782 56.4778 11.2512 56.3262 11.1028 56.2086C10.9546 56.0912 10.7846 56.0072 10.5932 55.9571C10.4012 55.9071 10.207 55.8978 10.011 55.9295C9.81491 55.9612 9.61638 56.0341 9.41598 56.1481C9.22935 56.2542 9.0758 56.377 8.95563 56.5164C8.83586 56.6553 8.74906 56.8109 8.69549 56.9829C8.64177 57.1545 8.62676 57.3275 8.65041 57.5019C8.67411 57.6767 8.73672 57.8532 8.83798 58.0313C8.91653 58.1695 9.0012 58.2896 9.09155 58.391L9.09141 58.3911ZM10.7817 61.1669L10.5843 60.8609L12.7668 59.453L11.962 58.2053L9.77946 59.6133L9.57308 59.2933C10.4002 58.7609 11.2266 58.2272 12.0529 57.6936C12.4576 58.3241 12.8643 58.9541 13.2716 59.5829L10.7918 61.1826L10.7817 61.1669ZM10.6359 60.872L10.8029 61.131L13.22 59.5718L12.0417 57.7452L9.62467 59.3045L9.79056 59.5617L11.9732 58.1537C12.2538 58.591 12.536 59.0279 12.8185 59.4641L10.6359 60.872ZM12.2192 63.0662L11.2547 61.8364C12.0293 61.2302 12.8033 60.623 13.5767 60.0152C13.8876 60.4138 14.1999 60.812 14.513 61.2089L14.2412 61.422L13.5387 60.5263L12.8049 61.1018L13.4549 61.9304L13.1832 62.1435L12.5332 61.3149L11.7602 61.9211L12.5026 62.8677L12.2308 63.0808L12.2193 63.0661L12.2192 63.0662ZM11.3071 61.8427L12.2371 63.0285L12.45 62.8615L11.7077 61.9149L12.5395 61.2625L13.1894 62.0911L13.4024 61.9242L12.7525 61.0955L13.545 60.4739L14.2474 61.3697L14.4604 61.2027L13.5703 60.0677L11.307 61.8428L11.3071 61.8427ZM13.7269 66.028L13.507 65.7761L14.0962 65.2614L12.6057 63.555C13.3464 62.9078 14.0864 62.2597 14.8282 61.6137L15.0773 61.8988L13.1149 63.613L14.0825 64.7207L16.0449 63.0065L16.2939 63.2917L14.3316 65.0059L14.5886 65.3L13.7392 66.042L13.7269 66.028ZM13.5596 65.7797L13.7427 65.9894L14.5359 65.2965L14.2789 65.0023L16.2412 63.2882L16.0413 63.0593L14.0789 64.7734C13.7394 64.3863 13.3996 63.9984 13.0622 63.6095L15.0245 61.8953L14.8245 61.6664L12.6583 63.5586L14.1488 65.265L13.5595 65.7798L13.5596 65.7797ZM16.4451 67.5413L16.1836 67.293L17.6454 65.7529C17.711 65.6838 17.7681 65.6261 17.8168 65.5799L17.8693 65.5315L17.8498 65.5385C17.817 65.5501 17.7839 65.5597 17.7511 65.5673L15.0547 66.2216C14.9452 66.1186 14.8363 66.0146 14.7274 65.9109C15.4032 65.1962 16.0818 64.484 16.7589 63.7705L17.0336 64.0312L15.6079 65.5332C15.533 65.6121 15.4698 65.6767 15.4186 65.7267L15.3583 65.7842L15.3891 65.7749C15.4251 65.7645 15.464 65.7543 15.5055 65.7443L18.1507 65.0917L18.4901 65.4138C17.8143 66.1284 17.1357 66.8406 16.4587 67.5542L16.445 67.5413L16.4451 67.5413ZM16.2363 67.2917L16.4573 67.5014L18.4374 65.4152L18.1398 65.1329L15.5145 65.7806C15.4741 65.7903 15.4358 65.8004 15.3996 65.8108C15.3638 65.8212 15.3303 65.832 15.2997 65.8431L15.2888 65.847L15.2592 65.8186L15.2764 65.8054C15.3027 65.7852 15.3416 65.7499 15.3927 65.6999C15.4434 65.6504 15.5063 65.5861 15.581 65.5074L16.9809 64.0326L16.7604 63.8233L14.7802 65.9095L15.0657 66.1805L17.7426 65.5308C17.7745 65.5235 17.8061 65.5142 17.8375 65.5032C17.8694 65.4921 17.9012 65.479 17.9326 65.4642L17.9442 65.4587L17.9787 65.4915L17.9607 65.5048C17.9297 65.5275 17.8902 65.5616 17.8426 65.6068C17.7944 65.6525 17.7377 65.7099 17.6725 65.7785L16.2364 67.2916L16.2363 67.2917ZM18.8517 69.5039L18.5457 69.2606L18.8117 68.4299L17.8643 67.6769L17.1292 68.1346C17.0193 68.0481 16.91 67.9605 16.8006 67.8734C17.7078 67.3379 18.6168 66.8048 19.5229 66.2675L19.82 66.5037C19.5013 67.5082 19.1887 68.5152 18.8731 69.5208L18.8517 69.5039V69.5039ZM18.5892 69.2473L18.8537 69.4577L19.7766 66.5171L19.5196 66.3128L16.8664 67.8779L17.1318 68.089L17.867 67.6312C18.1963 67.8931 18.5253 68.1556 18.8552 68.4166L18.5892 69.2474V69.2473ZM18.9277 68.0808L19.3337 66.8503C19.3409 66.829 19.3521 66.8025 19.3672 66.7709L19.3841 66.737L19.3586 66.7575C19.3311 66.7791 19.3059 66.7968 19.2836 66.8104L18.179 67.4856L18.9278 68.0808L18.9277 68.0808ZM19.3692 66.862L18.9465 68.1436C18.6689 67.923 18.3911 67.7027 18.1139 67.4817L19.2641 66.7786C19.2853 66.7656 19.3092 66.7488 19.3355 66.7282C19.3614 66.7078 19.3893 66.6841 19.4189 66.657L19.4307 66.6463L19.4621 66.6711L19.4544 66.6851C19.4327 66.724 19.4147 66.7581 19.4009 66.7871C19.3866 66.8169 19.3759 66.842 19.3693 66.862H19.3692ZM20.9245 70.9743L20.6309 70.766L22.1383 68.6407L21.5072 68.1931C21.2646 68.4572 21.0546 68.6827 20.8779 68.8693C20.6951 69.0623 20.548 69.2136 20.4369 69.3228C20.3267 69.4314 20.2278 69.5235 20.1407 69.5989C20.0531 69.6748 19.9767 69.7342 19.912 69.7771C19.8466 69.8204 19.7822 69.8533 19.7192 69.8754C19.6557 69.8978 19.5934 69.9094 19.5325 69.9103C19.4716 69.9115 19.4119 69.9025 19.3536 69.8832C19.2952 69.8638 19.2381 69.8343 19.1824 69.7948C19.1382 69.7635 19.0987 69.731 19.0642 69.6978C19.0295 69.6643 18.9998 69.6299 18.9754 69.5947L18.968 69.5839L19.1791 69.2863L19.1928 69.3152C19.2091 69.3497 19.2296 69.3813 19.254 69.41C19.2786 69.4389 19.3074 69.4651 19.3402 69.4883C19.3716 69.5105 19.4089 69.5228 19.452 69.525C19.4963 69.5272 19.547 69.5189 19.6036 69.5C19.6607 69.4814 19.7414 69.4304 19.8457 69.3472C19.9514 69.2628 20.0805 69.146 20.2326 68.997C20.3858 68.8475 20.5628 68.6678 20.7635 68.4582C20.9638 68.249 21.1885 68.0095 21.4371 67.7398L21.4483 67.7277C21.847 68.012 22.2471 68.2954 22.6471 68.5779C22.079 69.381 21.5087 70.1825 20.9399 70.985L20.9246 70.9742L20.9245 70.9743ZM20.683 70.7571L20.9309 70.933L22.5948 68.5869L21.4533 67.7772C21.2095 68.0415 20.9884 68.2772 20.7903 68.4841C20.5894 68.6939 20.4121 68.8739 20.2586 69.0238C20.1049 69.1741 19.975 69.2918 19.8688 69.3765C19.761 69.4625 19.6764 69.5155 19.6151 69.5355C19.5539 69.5558 19.4988 69.5647 19.45 69.5623C19.3996 69.5598 19.3556 69.5452 19.3184 69.5188C19.283 69.4937 19.2518 69.4654 19.2253 69.4342C19.2055 69.4109 19.188 69.3858 19.1732 69.3591L19.0136 69.5841C19.0351 69.6136 19.0606 69.6427 19.09 69.6709C19.1229 69.7026 19.1611 69.7339 19.2039 69.7643C19.2567 69.8017 19.3106 69.8296 19.3651 69.8477C19.4196 69.8656 19.4752 69.8741 19.5317 69.8729C19.5886 69.8721 19.647 69.8611 19.7068 69.8401C19.7668 69.8191 19.8284 69.7876 19.8913 69.7459C19.9547 69.7039 20.0299 69.6454 20.1161 69.5707C20.2029 69.4956 20.3011 69.404 20.4107 69.2962C20.5213 69.1873 20.6681 69.0365 20.8507 68.8436C21.0293 68.655 21.2428 68.4256 21.4907 68.1557L21.5019 68.1435C21.7312 68.3064 21.9606 68.4695 22.1903 68.6318L20.6829 70.7571H20.683ZM23.7021 72.5666L23.3891 72.3874L24.4442 70.5447C24.4915 70.4621 24.5334 70.3925 24.5698 70.336L24.6094 70.2764L24.5921 70.288C24.5632 70.3067 24.5334 70.3239 24.5032 70.3391L22.0385 71.6139C21.9076 71.5398 21.7773 71.4645 21.6468 71.3897L23.1133 68.8289L23.442 69.017L22.4129 70.814C22.3587 70.9086 22.3127 70.9862 22.275 71.0468L22.2299 71.117L22.2576 71.1008C22.2903 71.082 22.3257 71.0628 22.3635 71.0433L24.7786 69.7825L25.1848 70.0151C24.697 70.8693 24.2064 71.7219 23.7183 72.5759L23.702 72.5667L23.7021 72.5666ZM23.4401 72.3735L23.7044 72.5249L25.1338 70.0289L24.7777 69.8251L22.3807 71.0765C22.3435 71.0957 22.3086 71.1146 22.2762 71.1332C22.2446 71.1512 22.2147 71.1696 22.1868 71.1882L22.1773 71.1945L22.1417 71.1742L22.1553 71.1572C22.1758 71.1315 22.2053 71.088 22.2433 71.0269C22.2809 70.9665 22.3267 70.8894 22.3805 70.7954L23.3909 69.0308L23.1272 68.8798L21.6979 71.3758L22.0394 71.5713L24.4861 70.3058C24.5152 70.2913 24.5438 70.2748 24.5718 70.2566C24.5999 70.2383 24.6277 70.218 24.6549 70.1961L24.6649 70.1881L24.7061 70.2118L24.6917 70.2289C24.667 70.2583 24.6368 70.3008 24.6012 70.3561C24.5653 70.4118 24.5238 70.4809 24.4767 70.5632L23.44 72.3735L23.4401 72.3735ZM24.3281 72.7443L24.497 72.3736L24.515 72.4058C24.583 72.5269 24.6664 72.6326 24.7649 72.7226C24.8636 72.8126 24.9778 72.8874 25.1072 72.9463C25.2011 72.9891 25.2905 73.0163 25.3752 73.0276C25.4594 73.0388 25.5392 73.0344 25.6144 73.0144C25.6889 72.9947 25.7535 72.9611 25.8079 72.9136C25.8623 72.866 25.907 72.8042 25.9417 72.7282C26.0165 72.5639 26.0173 72.4157 25.9443 72.284C25.8699 72.1501 25.7196 72.0315 25.4935 71.9284L25.2008 71.7949L25.3336 71.5034L25.6043 71.6269C25.7007 71.6708 25.791 71.6995 25.8749 71.7125C25.9579 71.7255 26.035 71.7233 26.106 71.706C26.1763 71.6887 26.2374 71.6572 26.2895 71.6114C26.3418 71.5654 26.3851 71.5047 26.4194 71.4296C26.4486 71.3655 26.4642 71.3028 26.4661 71.2419C26.468 71.181 26.4564 71.1216 26.4313 71.0638C26.4058 71.0057 26.3678 70.9535 26.3173 70.9073C26.2664 70.8607 26.2025 70.8198 26.1261 70.785C26.0172 70.7354 25.9017 70.7034 25.7799 70.6892C25.6579 70.6749 25.5294 70.6785 25.3948 70.6998L25.3605 70.7052L25.5228 70.3492L25.5337 70.3484C25.6574 70.3385 25.7826 70.3456 25.9088 70.3699C26.0345 70.3941 26.1617 70.4355 26.2901 70.494C26.4177 70.5522 26.5249 70.6194 26.6114 70.6955C26.6985 70.7721 26.7652 70.858 26.8113 70.9528C26.8571 71.0483 26.8804 71.145 26.8806 71.2429C26.8809 71.3406 26.8583 71.4396 26.8127 71.5396C26.7326 71.7155 26.6238 71.8396 26.4868 71.9118C26.3654 71.9757 26.2223 71.9987 26.0577 71.9807C26.1214 72.0248 26.1759 72.0737 26.2211 72.1272C26.2795 72.1963 26.3228 72.2734 26.351 72.3582C26.379 72.4429 26.3899 72.5287 26.3838 72.6153C26.3778 72.7015 26.3547 72.7887 26.3147 72.8763C26.2582 73.0002 26.1852 73.1016 26.0961 73.1804C26.0067 73.2593 25.9009 73.3155 25.7794 73.3486C25.658 73.3819 25.5287 73.3895 25.392 73.3714C25.2558 73.3534 25.1117 73.3097 24.9601 73.2406C24.8088 73.1716 24.6807 73.0974 24.5761 73.0181C24.4706 72.9383 24.3883 72.8529 24.3292 72.7622L24.3237 72.7536L24.3279 72.7443H24.3281ZM24.5006 72.4556L24.3663 72.7503C24.4224 72.8341 24.4999 72.9135 24.5987 72.9882C24.7015 73.0661 24.8273 73.1389 24.9757 73.2066C25.1238 73.2741 25.2643 73.3167 25.3969 73.3343C25.5289 73.3517 25.6533 73.3445 25.7697 73.3126C25.8856 73.281 25.9864 73.2275 26.0715 73.1524C26.1568 73.0771 26.2267 72.9798 26.281 72.8607C26.3189 72.7773 26.341 72.6945 26.3466 72.6127C26.3524 72.531 26.342 72.45 26.3157 72.3698C26.2892 72.2898 26.2482 72.2169 26.1928 72.1514C26.1375 72.0859 26.0676 72.0276 25.9832 71.9769L25.9688 71.9682L25.9853 71.9324L25.9994 71.9348C26.1832 71.9657 26.3401 71.947 26.4696 71.8787C26.5991 71.8105 26.7024 71.6921 26.779 71.5241C26.8223 71.4291 26.8437 71.3353 26.8435 71.2429C26.8433 71.1506 26.8213 71.0593 26.778 70.9691C26.734 70.879 26.6703 70.797 26.5869 70.7236C26.5029 70.6497 26.3987 70.5844 26.2747 70.5279C26.1494 70.4708 26.0251 70.4302 25.902 70.4066C25.7829 70.3837 25.6648 70.3765 25.5477 70.3849L25.4233 70.6578C25.549 70.6406 25.6695 70.6386 25.7844 70.652C25.9099 70.6666 26.0292 70.6997 26.1418 70.751C26.2218 70.7875 26.2889 70.8305 26.3427 70.8797C26.3971 70.9295 26.4382 70.986 26.4657 71.0488C26.4931 71.1118 26.5058 71.1766 26.5037 71.2429C26.5017 71.3088 26.4849 71.3763 26.4535 71.4451C26.417 71.5252 26.3706 71.59 26.3145 71.6395C26.258 71.6892 26.1915 71.7234 26.115 71.7422C26.0393 71.7607 25.9574 71.763 25.8694 71.7493C25.782 71.7357 25.6885 71.7061 25.589 71.6607L25.3522 71.5528L25.2503 71.7764L25.5092 71.8944C25.7428 72.0009 25.8988 72.1247 25.977 72.2658C26.0562 72.4085 26.0559 72.568 25.9758 72.7437C25.9389 72.8246 25.8911 72.8906 25.8326 72.9417C25.7737 72.9931 25.7041 73.0294 25.624 73.0506C25.5441 73.0719 25.4595 73.0765 25.3705 73.0646C25.2822 73.0529 25.1892 73.0247 25.0918 72.9803C24.9587 72.9196 24.8414 72.8429 24.7399 72.7502C24.6469 72.6654 24.5671 72.5672 24.5007 72.4556H24.5006ZM28.7703 74.7641L28.4341 74.6334L29.2031 72.6542C29.2377 72.565 29.2688 72.49 29.2961 72.4291L29.3264 72.3644L29.3111 72.3783C29.2849 72.4015 29.258 72.4229 29.2306 72.4423L26.9834 74.0698C26.843 74.0159 26.7028 73.9609 26.5627 73.9063L27.6314 71.1557L27.9844 71.2928L27.2344 73.2229C27.1945 73.3256 27.1605 73.4093 27.1326 73.4739L27.0985 73.5498L27.1236 73.5296C27.1529 73.5063 27.1851 73.4822 27.2197 73.4571L29.4202 71.8507L29.8564 72.0201C29.4991 72.9365 29.1427 73.8536 28.7877 74.7708L28.7703 74.7641ZM28.4824 74.6122L28.7664 74.7225L29.8081 72.0414L29.4256 71.8928L27.2416 73.4873C27.208 73.5117 27.1764 73.5355 27.1469 73.5589C27.1175 73.5822 27.0907 73.6047 27.0666 73.6266L27.058 73.6344L27.0198 73.6193L27.0307 73.6006C27.0475 73.5716 27.0702 73.5243 27.0983 73.4591C27.1268 73.3929 27.1607 73.3096 27.1996 73.2094L27.936 71.3141L27.6527 71.204L26.611 73.8851L26.9779 74.0276L29.2088 72.4118C29.2356 72.3929 29.2615 72.3723 29.2862 72.3503C29.3114 72.3279 29.336 72.3038 29.3594 72.2781L29.3681 72.2687L29.4124 72.286L29.4007 72.305C29.3808 72.3375 29.3572 72.384 29.3302 72.4443C29.3028 72.5052 29.272 72.5796 29.2378 72.6676L28.4823 74.6121L28.4824 74.6122ZM30.2328 74.0565L29.9281 75.1166L29.5642 75.012C29.8344 74.0663 30.1062 73.1206 30.3791 72.1757L31.1665 72.402C31.318 72.4455 31.4474 72.5027 31.5546 72.5735C31.6624 72.6447 31.7479 72.7298 31.811 72.8288C31.874 72.9276 31.9115 73.0359 31.9234 73.1533C31.9351 73.2701 31.9216 73.396 31.8829 73.5309C31.8441 73.6659 31.7854 73.7824 31.7069 73.8799C31.6283 73.9774 31.5296 74.0561 31.4112 74.1156C31.2933 74.1749 31.165 74.2081 31.0268 74.215C30.8891 74.2218 30.7414 74.2026 30.5842 74.1574L30.2328 74.0565ZM29.9025 75.0703L30.2072 74.0102L30.5945 74.1215C30.7478 74.1655 30.8914 74.1842 31.025 74.1776C31.1581 74.171 31.2814 74.1391 31.3945 74.0823C31.5081 74.0252 31.6026 73.9498 31.6778 73.8565C31.7531 73.763 31.8096 73.6509 31.8469 73.5207C31.8844 73.3903 31.8975 73.2689 31.8862 73.1569C31.875 73.0454 31.8394 72.9427 31.7796 72.8489C31.7194 72.7545 31.6374 72.673 31.534 72.6047C31.43 72.5361 31.304 72.4805 31.1563 72.438L30.4047 72.222L29.6104 74.9864L29.9025 75.0703ZM30.6477 72.6123L30.3282 73.7245L30.6542 73.8182C30.7654 73.8502 30.8674 73.8656 30.9593 73.8646C31.0504 73.8635 31.132 73.8463 31.2039 73.8128C31.2757 73.7796 31.336 73.7318 31.3849 73.6697C31.434 73.6071 31.4719 73.5298 31.4983 73.4379C31.5498 73.2584 31.5359 73.1091 31.4563 72.9901C31.3761 72.8701 31.2287 72.7793 31.0145 72.7178L30.6477 72.6123ZM30.287 73.7323L30.6221 72.566L31.0247 72.6818C31.2477 72.7458 31.4021 72.8417 31.4874 72.9694C31.5733 73.098 31.5889 73.2576 31.5343 73.4481C31.5065 73.5448 31.4665 73.6264 31.4142 73.6928C31.3618 73.7595 31.2968 73.8109 31.2197 73.8466C31.1431 73.8824 31.0562 73.9009 30.9596 73.9019C30.8639 73.903 30.7585 73.8871 30.6439 73.8542L30.2818 73.7501L30.287 73.7323ZM33.0399 75.9695C32.8361 75.9228 32.6599 75.8471 32.5119 75.7425C32.3636 75.6377 32.2433 75.5037 32.1513 75.3406C32.0594 75.1777 32.0026 75.0014 31.9812 74.8122C31.96 74.6235 31.9738 74.4218 32.0228 74.2073C32.0755 73.9768 32.1544 73.7764 32.259 73.6064C32.3638 73.4359 32.4948 73.2959 32.6514 73.1868C32.8083 73.0773 32.98 73.0076 33.1664 72.9775C33.3527 72.9476 33.5535 72.9573 33.7687 73.0064C33.9671 73.0518 34.1389 73.1264 34.2837 73.23C34.4287 73.3338 34.5468 73.4667 34.6375 73.6287C34.7285 73.7905 34.7843 73.966 34.8049 74.1551C34.8255 74.3437 34.8111 74.5458 34.7618 74.761C34.7084 74.9948 34.6292 75.1973 34.5247 75.3683C34.4199 75.5399 34.2895 75.6798 34.1339 75.7881C33.978 75.8965 33.8087 75.9658 33.6261 75.9959C33.4438 76.026 33.2484 76.0171 33.0398 75.9694L33.0399 75.9695ZM32.5334 75.7119C32.6774 75.8136 32.8491 75.8874 33.0482 75.933C33.252 75.9796 33.4428 75.9883 33.6201 75.9591C33.797 75.9299 33.9612 75.8626 34.1126 75.7574C34.264 75.652 34.3909 75.5159 34.4929 75.3489C34.5951 75.1816 34.6727 74.9827 34.7254 74.7527C34.7737 74.5414 34.7879 74.3435 34.7678 74.1591C34.7477 73.9753 34.6934 73.8045 34.6049 73.647C34.5168 73.4898 34.4025 73.3609 34.262 73.2605C34.1213 73.1598 33.954 73.0873 33.7603 73.043C33.5498 72.9948 33.3537 72.9853 33.1723 73.0144C32.9915 73.0435 32.8249 73.1112 32.6727 73.2175C32.5203 73.3237 32.3929 73.4599 32.2908 73.626C32.1884 73.7924 32.1111 73.9891 32.0592 74.2157C32.0111 74.4261 31.9975 74.6237 32.0184 74.8081C32.0392 74.9925 32.0944 75.164 32.1838 75.3223C32.2729 75.4803 32.3895 75.6103 32.5334 75.7119V75.7119ZM33.6672 73.3375C33.5208 73.304 33.3821 73.3001 33.2512 73.3256C33.1205 73.3512 32.9972 73.4065 32.8815 73.4913C32.766 73.576 32.6692 73.6828 32.5916 73.8114C32.5138 73.9404 32.4549 74.0916 32.4153 74.2644C32.3757 74.4375 32.3623 74.5989 32.3752 74.7484C32.3881 74.8973 32.4272 75.0345 32.4925 75.1599C32.5574 75.2847 32.6421 75.3865 32.746 75.4652C32.85 75.544 32.9738 75.6 33.1169 75.6327C33.2704 75.6678 33.4131 75.6743 33.5451 75.652C33.6765 75.6299 33.7978 75.579 33.9087 75.4994C34.0199 75.4198 34.1134 75.3149 34.1895 75.1852C34.2657 75.0549 34.3246 74.8989 34.3663 74.7173C34.4088 74.5315 34.4251 74.3619 34.415 74.2087C34.405 74.0565 34.3686 73.9202 34.3061 73.8001C34.2437 73.6804 34.1593 73.582 34.0533 73.5051C33.9468 73.4279 33.818 73.372 33.6672 73.3375ZM33.2441 73.2888C33.38 73.2622 33.5239 73.2663 33.6756 73.301C33.8313 73.3367 33.9647 73.3946 34.0753 73.4749C34.1862 73.5553 34.2743 73.658 34.3394 73.7829C34.4043 73.9076 34.442 74.0488 34.4524 74.2064C34.4627 74.3631 34.4461 74.5363 34.4027 74.7257C34.3604 74.9107 34.3 75.0702 34.2216 75.2041C34.1428 75.3386 34.0458 75.4474 33.9306 75.5299C33.8151 75.6128 33.6886 75.6658 33.5513 75.6889C33.4145 75.712 33.2668 75.7054 33.1086 75.6692C32.9603 75.6352 32.8317 75.577 32.7234 75.4951C32.6149 75.4129 32.5268 75.3068 32.4593 75.1772C32.3917 75.0474 32.3511 74.9054 32.3379 74.7516C32.3246 74.5984 32.3383 74.4331 32.3788 74.256C32.4192 74.0793 32.4796 73.9246 32.5595 73.7921C32.6398 73.6592 32.7398 73.5487 32.8594 73.4611C32.9796 73.373 33.1078 73.3155 33.244 73.2888H33.2441ZM35.0483 76.254L35.4327 73.347L36.2731 73.4581C36.3996 73.4748 36.5116 73.5055 36.6084 73.55C36.7058 73.5946 36.788 73.6533 36.8545 73.7256C36.9214 73.7985 36.9686 73.8785 36.9956 73.9655C37.0226 74.0524 37.0295 74.1463 37.0162 74.247C37.0052 74.3305 36.9834 74.4074 36.951 74.4773C36.9185 74.5475 36.8751 74.6108 36.8212 74.667C36.7676 74.7231 36.7064 74.7691 36.6379 74.805C36.5853 74.8325 36.5283 74.854 36.4669 74.8695C36.5418 74.8931 36.6095 74.9242 36.6695 74.9629C36.7445 75.0111 36.8081 75.0712 36.8597 75.1427C36.9114 75.2148 36.9469 75.2945 36.966 75.3817C36.985 75.4684 36.9877 75.5626 36.9743 75.664C36.9577 75.7901 36.9198 75.9014 36.8609 75.9978C36.8019 76.0944 36.7217 76.176 36.6205 76.2424C36.5195 76.3088 36.4093 76.354 36.2903 76.3778C36.1713 76.4016 36.0432 76.4045 35.9062 76.3863L35.0459 76.2725L35.0483 76.254H35.0483ZM35.4649 73.389L35.0878 76.2404L35.911 76.3493C36.0442 76.3669 36.1682 76.3642 36.283 76.3412C36.3976 76.3181 36.5033 76.2749 36.6 76.2113C36.6965 76.1479 36.7729 76.0702 36.829 75.9784C36.8851 75.8866 36.9213 75.7801 36.9373 75.6592C36.9501 75.5621 36.9474 75.4721 36.9294 75.3895C36.9114 75.3074 36.878 75.2323 36.8294 75.1645C36.7806 75.0968 36.7204 75.04 36.6493 74.9943C36.578 74.9484 36.4952 74.9135 36.4015 74.8898L36.3853 74.8857L36.3904 74.8475L36.4038 74.8451C36.4834 74.8302 36.5557 74.8058 36.6206 74.7718C36.6854 74.7379 36.7434 74.6943 36.7943 74.641C36.8453 74.5879 36.8863 74.5279 36.9171 74.4616C36.9478 74.3952 36.9687 74.3219 36.9792 74.2421C36.9917 74.1468 36.9853 74.0582 36.96 73.9765C36.9347 73.8949 36.8902 73.8196 36.827 73.7508C36.7638 73.6821 36.6857 73.6264 36.5929 73.5839C36.4997 73.5411 36.3914 73.5114 36.2683 73.4952L35.465 73.389H35.4649ZM35.7629 73.7391L35.6445 74.6346L35.9725 74.6779C36.063 74.6899 36.1455 74.6897 36.2195 74.6773C36.2929 74.6651 36.3581 74.6408 36.4152 74.6045C36.4715 74.5684 36.5164 74.5219 36.5496 74.4651C36.583 74.408 36.605 74.3399 36.6154 74.2612C36.6331 74.1271 36.6027 74.0209 36.5241 73.9429C36.4442 73.8636 36.3137 73.8118 36.1329 73.7879L35.7628 73.739L35.7629 73.7391ZM35.605 74.6483L35.7308 73.6971L36.1378 73.7509C36.327 73.7759 36.4646 73.8311 36.5505 73.9165C36.6379 74.0032 36.6718 74.1197 36.6525 74.2661C36.6415 74.3497 36.6179 74.4224 36.5818 74.484C36.5455 74.5461 36.4966 74.5968 36.4353 74.6361C36.3739 74.6751 36.304 74.7012 36.2257 74.7143C36.1481 74.7273 36.062 74.7275 35.9677 74.7151L35.6025 74.6668L35.605 74.6483V74.6483ZM35.5992 74.977L35.4666 75.9798L35.9074 76.0381C36.005 76.051 36.093 76.051 36.1713 76.038C36.2487 76.0252 36.3169 75.9995 36.3756 75.9612C36.4344 75.9229 36.481 75.8747 36.5153 75.8164C36.5498 75.7577 36.5723 75.6885 36.5828 75.6089C36.6045 75.4446 36.5651 75.3142 36.4648 75.218C36.3629 75.1202 36.1976 75.0562 35.9693 75.026L35.5992 74.9771V74.977ZM35.427 75.9935L35.567 74.9351L35.9741 74.9889C36.2105 75.0201 36.3828 75.0876 36.4907 75.191C36.6001 75.296 36.6432 75.437 36.6199 75.6136C36.6087 75.6983 36.5846 75.7722 36.5474 75.8353C36.5101 75.8986 36.4596 75.951 36.396 75.9924C36.3329 76.0336 36.26 76.0612 36.1772 76.0749C36.0953 76.0884 36.0036 76.0885 35.9026 76.0751L35.4247 76.0119L35.4271 75.9935L35.427 75.9935ZM39.7631 76.7294L39.3732 76.6998L39.1271 75.863L37.9204 75.7713L37.5688 76.5628L37.1502 76.531C37.6006 75.5786 38.0506 74.6258 38.5024 73.6741L38.8808 73.7028C39.1814 74.7129 39.4857 75.7226 39.7903 76.7315L39.7631 76.7295V76.7294ZM39.4017 76.6644L39.7387 76.69L38.8523 73.7382L38.5251 73.7134L37.2073 76.4977L37.5455 76.5235L37.8971 75.7319C38.3163 75.7652 38.7364 75.7972 39.1558 75.8275L39.4018 76.6644H39.4017ZM39.0274 75.5089L38.6728 74.2626C38.6667 74.2405 38.6609 74.2122 38.6558 74.1779L38.6508 74.1408L38.6413 74.1717C38.6308 74.2048 38.6198 74.2336 38.6089 74.2576L38.0737 75.4365L39.0274 75.5089ZM38.7087 74.2524L39.0781 75.5503C38.7246 75.5236 38.3709 75.4971 38.0175 75.4698L38.5749 74.2423C38.5852 74.2198 38.5956 74.1923 38.6058 74.1604C38.6155 74.13 38.6253 74.0948 38.6347 74.0548L38.6385 74.0392L38.6787 74.0423L38.68 74.0582C38.6838 74.1023 38.6882 74.1406 38.6929 74.1726C38.6979 74.2058 38.7033 74.2325 38.7088 74.2524H38.7087ZM42.4664 76.6416L42.1065 76.6488L42.0798 75.3213L40.6093 75.3509L40.636 76.6784L40.2574 76.686C40.2367 75.7026 40.2161 74.719 40.198 73.7356L40.5766 73.728L40.6023 75.0056L42.0728 74.976L42.047 73.6984L42.4256 73.6908C42.4463 74.6742 42.4669 75.6578 42.485 76.6412L42.4664 76.6416ZM42.1431 76.6108L42.447 76.6047L42.3891 73.729L42.0852 73.7351L42.1109 75.0126C41.5959 75.0235 41.0808 75.0342 40.5657 75.0437L40.54 73.7662L40.2361 73.7722L40.2939 76.6479L40.5979 76.6419L40.5712 75.3143C41.0862 75.3048 41.6013 75.294 42.1164 75.2832L42.1431 76.6108ZM45.4869 76.3344L45.13 76.3815L44.9559 75.0653L43.4979 75.2581L43.6719 76.5744L43.2965 76.624C43.1697 75.6487 43.0389 74.6735 42.9097 73.6984L43.2851 73.6488L43.4526 74.9157L44.9107 74.7229L44.7432 73.456L45.1185 73.4063C45.2475 74.3814 45.3782 75.3565 45.5054 76.3319L45.4869 76.3344ZM45.1622 76.3396L45.4634 76.2998L45.0864 73.4484L44.7851 73.4882L44.9526 74.755C44.4419 74.8228 43.9312 74.8912 43.4204 74.9576L43.2529 73.6908L42.9516 73.7307L43.3286 76.5821L43.63 76.5422L43.4559 75.2259C43.9667 75.1597 44.4775 75.0912 44.9881 75.0233L45.1622 76.3396ZM48.78 75.7859L48.4246 75.8474L47.9213 72.9395L48.2952 72.8749C48.4652 73.8435 48.6321 74.8134 48.7984 75.7827L48.78 75.7859L48.78 75.7859ZM48.4551 75.8041L48.7552 75.7522L48.2647 72.9181L47.9645 72.97L48.4551 75.8041ZM46.3009 76.1959L45.8009 73.3065L46.174 73.2419L46.3849 74.46L46.9113 74.369C47.0559 74.3439 47.1878 74.3392 47.3068 74.3547C47.4263 74.3703 47.5328 74.4065 47.6263 74.4632C47.7205 74.5199 47.7968 74.5953 47.8551 74.6891C47.9131 74.7824 47.9533 74.8941 47.9758 75.024C47.9991 75.1582 47.9986 75.2826 47.9744 75.3965C47.9502 75.5108 47.9021 75.6148 47.8304 75.7079C47.7587 75.8014 47.668 75.8778 47.5585 75.9371C47.4496 75.9961 47.3219 76.0382 47.1757 76.0636L46.3042 76.2143L46.301 76.1959L46.3009 76.1959ZM45.8442 73.337L46.3346 76.1711L47.1693 76.0267C47.3114 76.0021 47.4354 75.9613 47.5407 75.9042C47.6455 75.8475 47.7322 75.7744 47.8006 75.6852C47.869 75.5965 47.9147 75.4976 47.9378 75.3888C47.9609 75.2795 47.9613 75.1598 47.9389 75.0303C47.9172 74.9053 47.8787 74.7981 47.8233 74.7089C47.7682 74.6201 47.6961 74.5489 47.6071 74.4953C47.5182 74.4413 47.4165 74.4068 47.3019 74.3918C47.1868 74.3768 47.0586 74.3815 46.9176 74.4059L46.3544 74.5034L46.1435 73.2853L45.8441 73.3371L45.8442 73.337ZM46.4438 74.8004L46.6185 75.8094L47.0724 75.7308C47.1701 75.714 47.2548 75.6876 47.3258 75.6517C47.3961 75.6164 47.4534 75.5716 47.4975 75.5176C47.5416 75.4637 47.5714 75.4031 47.5865 75.3359C47.6018 75.2682 47.6024 75.1933 47.5882 75.1114L47.588 75.11C47.5593 74.9457 47.4883 74.8312 47.375 74.7669C47.2602 74.7018 47.1011 74.6867 46.8977 74.7219L46.4438 74.8005L46.4438 74.8004ZM46.5848 75.8342L46.4006 74.7699C46.5647 74.7415 46.729 74.7136 46.8931 74.6846C47.1044 74.6483 47.2713 74.6649 47.3936 74.7344C47.5173 74.8047 47.5946 74.9283 47.6251 75.1049L47.6254 75.1066C47.6402 75.1929 47.6393 75.272 47.623 75.344C47.6065 75.4171 47.5742 75.4829 47.5265 75.5412C47.4791 75.5992 47.4176 75.6473 47.3426 75.6851C47.2681 75.7226 47.18 75.7502 47.0787 75.7677L46.588 75.8526L46.5848 75.8342V75.8342ZM51.8521 74.8884L51.5054 74.9879L50.9189 72.947C50.8927 72.8555 50.8719 72.777 50.8567 72.7117L50.8417 72.6418L50.8379 72.6619C50.8313 72.6957 50.8228 72.7291 50.8126 72.7614L50.0096 75.4176L49.5758 75.5423L48.7608 72.706L49.1247 72.6014L49.6967 74.5917C49.7266 74.6959 49.7502 74.7831 49.7675 74.8528L49.7864 74.934L49.7941 74.9028C49.8035 74.8658 49.8145 74.8272 49.8266 74.7869L50.605 72.176C50.7551 72.1336 50.9051 72.0899 51.0549 72.0467C51.3279 72.9917 51.5998 73.9373 51.8699 74.883L51.852 74.8883L51.8521 74.8884ZM51.531 74.9416L51.8238 74.8575L51.0295 72.0931L50.6352 72.2064L49.8626 74.7978C49.8504 74.8382 49.8395 74.8764 49.8305 74.9121C49.8212 74.9484 49.8134 74.9827 49.8076 75.0145L49.8054 75.026L49.7659 75.0373L49.7632 75.0156C49.759 74.9825 49.7484 74.9311 49.7313 74.8618C49.7143 74.7934 49.6908 74.7066 49.6607 74.602L49.0992 72.6478L48.8071 72.7318L49.6015 75.4961L49.9797 75.3874L50.7768 72.7507C50.7866 72.7198 50.7947 72.6877 50.8012 72.6547C50.8077 72.6213 50.8127 72.5873 50.8158 72.5532L50.8169 72.5404L50.8626 72.5272L50.865 72.5495C50.8689 72.5875 50.8783 72.6389 50.8932 72.7034C50.9083 72.768 50.9289 72.8459 50.955 72.9368L51.5311 74.9416H51.531ZM50.4 71.3299C50.4171 71.4269 50.4175 71.5185 50.401 71.6041C50.3845 71.6899 50.3511 71.7698 50.3009 71.8433C50.2506 71.917 50.1882 71.9794 50.1138 72.0305C50.0396 72.0813 49.9534 72.1209 49.8551 72.1491C49.7543 72.1781 49.6586 72.1908 49.5683 72.1873C49.4777 72.1837 49.3922 72.1637 49.3123 72.1272C49.2327 72.0909 49.1644 72.0401 49.1079 71.9753C49.0514 71.9106 49.0064 71.8316 48.9732 71.739L48.9664 71.7203L49.3189 71.619L49.3249 71.6354C49.3675 71.7509 49.4269 71.8294 49.5028 71.8705C49.5784 71.9115 49.6719 71.916 49.7828 71.8843C49.833 71.8698 49.8764 71.8491 49.9129 71.822C49.9491 71.7952 49.9789 71.7618 50.002 71.722C50.0255 71.6821 50.0408 71.6375 50.0483 71.5886C50.0558 71.5391 50.0553 71.4851 50.047 71.4267L50.0446 71.4105L50.3963 71.3095L50.4 71.33V71.3299ZM50.3642 71.5971C50.3787 71.522 50.3794 71.4417 50.3665 71.3569L50.0861 71.4374C50.0929 71.4935 50.0927 71.5458 50.0853 71.594C50.0772 71.6474 50.0602 71.6964 50.0342 71.7406C50.0087 71.7848 49.9755 71.8219 49.935 71.8519C49.8948 71.8817 49.8474 71.9044 49.7929 71.9201C49.6724 71.9547 49.5696 71.9491 49.4851 71.9033C49.4046 71.8597 49.3415 71.78 49.296 71.6644L49.0152 71.7451C49.046 71.8252 49.0863 71.8938 49.1359 71.9507C49.189 72.0115 49.2531 72.0592 49.3278 72.0932C49.4031 72.1276 49.4838 72.1464 49.5697 72.1498C49.656 72.1532 49.7478 72.141 49.8449 72.1131C49.9393 72.086 50.0219 72.0481 50.0926 71.9996C50.1631 71.9513 50.2223 71.8921 50.27 71.8222C50.3172 71.753 50.3487 71.6778 50.3642 71.5971L50.3642 71.5971ZM53.475 74.1437L53.3234 73.7656L53.3591 73.7747C53.4937 73.8091 53.6278 73.8218 53.7611 73.8126C53.8943 73.8034 54.0271 73.7723 54.1591 73.7194C54.255 73.681 54.3363 73.635 54.403 73.5815C54.4691 73.5284 54.5211 73.4677 54.5585 73.3995C54.5956 73.332 54.6159 73.262 54.6191 73.1898C54.6222 73.1175 54.6084 73.0426 54.5774 72.9651C54.5102 72.7975 54.4035 72.6946 54.2577 72.6565C54.1096 72.6178 53.92 72.6448 53.6893 72.7372L53.3905 72.8569L53.2713 72.5595L53.5476 72.4489C53.6457 72.4096 53.7287 72.364 53.7962 72.3124C53.863 72.2611 53.9148 72.2038 53.9512 72.1405C53.9873 72.0777 54.0067 72.0116 54.0095 71.9425C54.0122 71.8729 53.9982 71.7997 53.9675 71.723C53.9412 71.6574 53.9066 71.6028 53.8639 71.5595C53.8214 71.5162 53.7703 71.4836 53.7111 71.4619C53.6516 71.4403 53.5875 71.4318 53.5192 71.4363C53.4503 71.441 53.3767 71.459 53.2987 71.4902C53.1876 71.5347 53.0848 71.5962 52.9904 71.6745C52.8959 71.7529 52.8098 71.8484 52.7323 71.9605L52.7125 71.9891L52.5669 71.6259L52.5739 71.6174C52.6522 71.521 52.7437 71.4354 52.8484 71.3609C52.9528 71.2865 53.0705 71.2231 53.2013 71.1707C53.3316 71.1185 53.4541 71.0873 53.569 71.0773C53.6845 71.0671 53.7926 71.0782 53.8932 71.1103C53.9938 71.1429 54.0798 71.1929 54.1509 71.2603C54.2218 71.3276 54.2779 71.4124 54.3187 71.5143C54.3905 71.6936 54.4053 71.8581 54.363 72.007C54.3255 72.139 54.2433 72.2583 54.1166 72.3651C54.1925 72.3494 54.2655 72.3438 54.3354 72.3479C54.4258 72.3533 54.5114 72.3753 54.5921 72.4133C54.6727 72.4517 54.7424 72.503 54.8008 72.5672C54.859 72.6312 54.9062 72.708 54.942 72.7973C54.9927 72.9237 55.0157 73.0466 55.0111 73.1654C55.0065 73.2847 54.9742 73.4 54.9142 73.5107C54.8545 73.6215 54.7707 73.7204 54.6632 73.8068C54.556 73.8929 54.425 73.9671 54.2704 74.029C54.1163 74.0907 53.9742 74.1322 53.8443 74.1533C53.7136 74.1744 53.5951 74.175 53.4888 74.1552L53.4787 74.1533L53.4749 74.1437L53.475 74.1437ZM53.3854 73.8196L53.5058 74.1202C53.6054 74.1375 53.7164 74.1361 53.8385 74.1163C53.9655 74.0957 54.105 74.055 54.2566 73.9942C54.4078 73.9337 54.5357 73.8614 54.6399 73.7777C54.7435 73.6943 54.8241 73.5993 54.8814 73.493C54.9386 73.3872 54.9695 73.2775 54.9738 73.1641C54.9782 73.0504 54.956 72.9326 54.9074 72.8112C54.8733 72.7261 54.8285 72.6531 54.7733 72.5923C54.7182 72.5319 54.6524 72.4833 54.5763 72.4472C54.5001 72.4112 54.419 72.3905 54.3334 72.3853C54.2477 72.3801 54.1572 72.3905 54.0624 72.4165L54.0463 72.4209L54.0316 72.3844L54.0431 72.3759C54.1923 72.2642 54.2871 72.1377 54.3271 71.9969C54.3671 71.8561 54.3528 71.6996 54.2841 71.5282C54.2452 71.4312 54.1922 71.3509 54.1252 71.2874C54.0584 71.224 53.9771 71.1768 53.8819 71.1459C53.7863 71.1154 53.6831 71.105 53.5723 71.1146C53.4609 71.1244 53.3418 71.1547 53.2153 71.2054C53.0872 71.2567 52.9722 71.3187 52.8701 71.3914C52.7714 71.4616 52.6846 71.5422 52.6099 71.6326L52.7215 71.9111C52.7958 71.8082 52.8776 71.7196 52.9666 71.6458C53.0639 71.5651 53.1701 71.5016 53.2849 71.4556C53.3667 71.4229 53.444 71.4039 53.5168 71.3991C53.5903 71.3941 53.6594 71.4034 53.724 71.4269C53.7884 71.4505 53.8441 71.4861 53.8907 71.5334C53.9369 71.5804 53.9743 71.6391 54.0023 71.7092C54.035 71.7908 54.05 71.8691 54.0469 71.944C54.0439 72.0192 54.0228 72.091 53.9837 72.1592C53.9447 72.2269 53.8897 72.288 53.819 72.3421C53.7489 72.3958 53.663 72.4431 53.5616 72.4837L53.32 72.5804L53.4114 72.8085L53.6755 72.7026C53.9137 72.6072 54.1111 72.5798 54.2671 72.6205C54.4251 72.6618 54.5403 72.7721 54.6122 72.9513C54.6452 73.0338 54.66 73.114 54.6565 73.1915C54.6531 73.2696 54.6313 73.345 54.5914 73.4176C54.5516 73.4902 54.4965 73.5546 54.4265 73.6108C54.3569 73.6666 54.2723 73.7145 54.1731 73.7542C54.0373 73.8086 53.9008 73.8406 53.7637 73.8501C53.6381 73.8587 53.5121 73.8486 53.3855 73.8198L53.3854 73.8196ZM57.8649 72.2483L57.5184 72.4295L56.8669 71.8494L55.7945 72.4101L55.9148 73.2677C55.7911 73.333 55.6669 73.3976 55.5428 73.4622C55.4227 72.4156 55.3003 71.3692 55.1787 70.3228L55.515 70.1468C56.3073 70.8421 57.0977 71.5394 57.8891 72.2356L57.865 72.2482L57.8649 72.2483ZM57.524 72.3844L57.8235 72.2279L55.5094 70.192L55.2187 70.344L55.5737 73.4041L55.8742 73.247L55.7538 72.3894C56.1269 72.1951 56.5005 72.0008 56.8725 71.8045L57.524 72.3845L57.524 72.3844ZM56.5951 71.6019L55.6347 70.7319C55.6179 70.7165 55.5981 70.6956 55.5756 70.6692L55.5515 70.6401L55.56 70.6716C55.5684 70.7053 55.5744 70.7355 55.5778 70.7616L55.7473 72.0452L56.595 71.6019H56.5951ZM55.6598 70.7043L56.6597 71.6102C56.3457 71.7747 56.0317 71.9392 55.7173 72.1029L55.5408 70.7664C55.5376 70.7418 55.5319 70.7131 55.5237 70.6806C55.5157 70.649 55.5053 70.6139 55.4925 70.5756L55.4873 70.5604L55.5229 70.5419L55.5325 70.5547C55.5591 70.5902 55.5831 70.6203 55.604 70.6449C55.6258 70.6704 55.6444 70.6903 55.6597 70.7043L55.6598 70.7043ZM59.9754 70.8996C59.9092 71.0042 59.8241 71.1027 59.7204 71.1951C59.6171 71.287 59.495 71.3733 59.3543 71.4532C59.1719 71.5569 58.9909 71.621 58.8114 71.6453C58.6316 71.6697 58.4531 71.6542 58.2763 71.5989C58.0993 71.5438 57.9393 71.4545 57.7964 71.3312C57.6539 71.2083 57.5283 71.0515 57.4202 70.8612C57.3039 70.6568 57.2296 70.4541 57.1971 70.2536C57.1646 70.0524 57.174 69.8531 57.2254 69.6561C57.2769 69.4596 57.3631 69.285 57.4838 69.1327C57.6045 68.9804 57.7596 68.8504 57.9489 68.7428C58.0697 68.6741 58.1854 68.6198 58.2958 68.5801C58.4066 68.5402 58.5121 68.515 58.6122 68.5047L58.6243 68.5034L58.8257 68.8576L58.794 68.8579C58.676 68.8588 58.5606 68.875 58.4477 68.906C58.3347 68.9372 58.2241 68.9835 58.116 69.045C57.9728 69.1264 57.8568 69.224 57.7681 69.3377C57.6796 69.4511 57.618 69.5809 57.5836 69.7271C57.5489 69.8732 57.5457 70.0228 57.5738 70.1757C57.602 70.3292 57.6618 70.4864 57.7532 70.6471C57.8399 70.7997 57.9387 70.9249 58.0493 71.0225C58.1594 71.1197 58.2816 71.1898 58.4156 71.2326C58.5497 71.2752 58.684 71.2882 58.8182 71.2714C58.9527 71.2545 59.0876 71.2077 59.2228 71.1307C59.3484 71.0593 59.4579 70.9785 59.5508 70.8886C59.6433 70.7991 59.7197 70.7001 59.7794 70.5923L59.7955 70.5633L59.9814 70.8902L59.9755 70.8996L59.9754 70.8996ZM59.6955 71.1672C59.7936 71.0798 59.8744 70.9871 59.9378 70.8891L59.7956 70.6391C59.7368 70.739 59.6637 70.8312 59.5767 70.9154C59.4815 71.0075 59.3696 71.0903 59.2412 71.1632C59.1016 71.2426 58.962 71.291 58.8227 71.3085C58.6832 71.326 58.5437 71.3126 58.4042 71.2682C58.2652 71.2238 58.1384 71.1511 58.0244 71.0504C57.9107 70.9501 57.8094 70.8217 57.7206 70.6656C57.6271 70.5011 57.5658 70.34 57.5369 70.1823C57.5078 70.0242 57.5111 69.8694 57.5469 69.7185C57.5827 69.5672 57.6465 69.4325 57.7385 69.3146C57.8302 69.1971 57.95 69.0964 58.0973 69.0125C58.2081 68.9495 58.3217 68.902 58.4376 68.87C58.5435 68.8409 58.6517 68.8245 58.7619 68.8211L58.6038 68.5431C58.5101 68.5539 58.4116 68.578 58.3083 68.6151C58.2 68.654 58.0863 68.7074 57.9672 68.7751C57.7822 68.8804 57.6306 69.0073 57.513 69.1558C57.3956 69.304 57.3116 69.474 57.2615 69.6654C57.2115 69.8574 57.2022 70.0516 57.2339 70.2476C57.2656 70.4437 57.3385 70.6422 57.4525 70.8426C57.5586 71.0292 57.6814 71.1828 57.8208 71.3029C57.9596 71.4227 58.1153 71.5095 58.2873 71.5631C58.4588 71.6168 58.6319 71.6318 58.8063 71.6082C58.9811 71.5845 59.1576 71.5219 59.3357 71.4206C59.4739 71.342 59.594 71.2574 59.6954 71.167L59.6955 71.1672ZM60.4817 67.4871L59.8093 67.9612L61.3108 70.0907L61.0013 70.3089L59.4997 68.1794L58.8137 68.6631L58.6146 68.3809C59.1763 67.9866 59.7382 67.5912 60.2979 67.194L60.497 67.4763L60.4817 67.4871ZM59.7725 67.9414L60.4449 67.4673L60.289 67.2461L58.6669 68.3899L58.8228 68.611L59.5087 68.1273L61.0103 70.2568L61.2587 70.0817L59.7571 67.9522L59.7725 67.9414ZM62.0159 68.203L62.6967 69.0709L62.3987 69.3047C61.7925 68.5301 61.1853 67.756 60.5775 66.9827L61.2222 66.4771C61.3462 66.3798 61.4684 66.3084 61.5884 66.263C61.7093 66.2174 61.8284 66.198 61.9456 66.2048C62.0625 66.2115 62.1722 66.2447 62.2743 66.3038C62.3759 66.3626 62.4701 66.4474 62.5567 66.5578C62.6434 66.6684 62.7034 66.7841 62.7363 66.9049C62.7693 67.0259 62.7754 67.1519 62.7542 67.2826C62.7332 67.4129 62.6849 67.5363 62.6094 67.6524C62.5344 67.768 62.4323 67.8765 62.3036 67.9774L62.0159 68.2031L62.0159 68.203ZM62.6442 69.0646L61.9634 68.1966L62.2805 67.9479C62.4061 67.8496 62.5053 67.7441 62.5782 67.6319C62.6507 67.5203 62.6972 67.4017 62.7174 67.2766C62.7376 67.1511 62.732 67.0303 62.7003 66.9146C62.6687 66.7989 62.611 66.6875 62.5273 66.5808C62.4436 66.4742 62.3529 66.3924 62.2555 66.336C62.1585 66.2799 62.0545 66.2485 61.9434 66.242C61.8315 66.2355 61.7175 66.2541 61.6016 66.2979C61.4849 66.3419 61.3661 66.4115 61.2451 66.5063L60.6298 66.9889L62.405 69.2521L62.6442 69.0645L62.6442 69.0646ZM61.0886 67.0207L61.8027 67.9313L62.0698 67.7219C62.1607 67.6505 62.2329 67.5771 62.286 67.5018C62.3385 67.4273 62.3723 67.351 62.3872 67.2732C62.4023 67.1956 62.399 67.1186 62.3773 67.0426C62.3555 66.9661 62.3149 66.8901 62.256 66.815C62.1407 66.6681 62.0115 66.5919 61.8685 66.5867C61.7242 66.5814 61.5642 66.6476 61.3889 66.7852L61.0886 67.0207L61.0886 67.0207ZM61.7849 67.969L61.0361 67.0143L61.3657 66.7558C61.5483 66.6125 61.7165 66.5437 61.8697 66.5493C62.0244 66.555 62.1629 66.6358 62.2853 66.7919C62.3474 66.8711 62.3901 66.9513 62.4133 67.0324C62.4366 67.1142 62.4402 67.1968 62.424 67.2802C62.408 67.3632 62.3722 67.4445 62.3165 67.5234C62.2614 67.6015 62.1867 67.6776 62.0927 67.7513L61.7963 67.9837L61.7848 67.969L61.7849 67.969ZM65.1842 67.0134C65.0325 67.1574 64.8719 67.2621 64.7028 67.3275C64.5333 67.393 64.3551 67.4189 64.1685 67.4054C63.9821 67.3917 63.804 67.3414 63.6344 67.2544C63.4655 67.1677 63.3051 67.0444 63.1537 66.8848C62.991 66.7133 62.8676 66.5367 62.784 66.3555C62.7001 66.1738 62.656 65.9872 62.6518 65.7964C62.6474 65.6052 62.6844 65.4234 62.7625 65.2516C62.8408 65.0798 62.9601 64.9179 63.1201 64.7661C63.2679 64.626 63.4251 64.5241 63.5916 64.4609C63.7583 64.3977 63.9343 64.373 64.1193 64.387C64.3045 64.4009 64.4816 64.4516 64.6504 64.5391C64.8188 64.6262 64.9791 64.7502 65.1311 64.9104C65.2962 65.0845 65.4211 65.2625 65.5056 65.4441C65.5904 65.6263 65.6348 65.8123 65.6387 66.0021C65.6427 66.1919 65.6067 66.3713 65.5307 66.54C65.455 66.7083 65.3394 66.8662 65.184 67.0135L65.1842 67.0134ZM64.6893 67.2927C64.8539 67.2291 65.0103 67.127 65.1584 66.9864C65.3101 66.8426 65.4229 66.6886 65.4968 66.5246C65.5704 66.3609 65.6053 66.187 65.6015 66.0027C65.5977 65.8183 65.5544 65.6374 65.4718 65.4599C65.3891 65.2819 65.2664 65.1073 65.1041 64.9362C64.955 64.779 64.798 64.6576 64.6333 64.5723C64.4691 64.4873 64.2968 64.4379 64.1166 64.4245C63.937 64.4108 63.7663 64.4347 63.6048 64.496C63.4431 64.5574 63.29 64.6566 63.1459 64.7932C62.9893 64.9418 62.8728 65.0999 62.7966 65.2671C62.7208 65.434 62.685 65.6102 62.6892 65.7957C62.6932 65.9814 62.7362 66.1629 62.8179 66.3399C62.8998 66.5174 63.0208 66.6906 63.1807 66.8592C63.3293 67.0157 63.4863 67.1365 63.6514 67.2212C63.8163 67.3059 63.9897 67.3548 64.1712 67.3681C64.3524 67.3813 64.5251 67.3561 64.6893 67.2928L64.6893 67.2927ZM63.3398 65.0338C63.2308 65.1372 63.1506 65.2506 63.0995 65.3737C63.0485 65.4967 63.0263 65.63 63.0328 65.7733C63.0393 65.9164 63.0748 66.0561 63.1389 66.1919C63.2032 66.3283 63.2965 66.461 63.4185 66.5895C63.5408 66.7185 63.6679 66.819 63.7994 66.8909C63.9305 66.9626 64.0665 67.006 64.2071 67.021C64.3469 67.036 64.4786 67.022 64.6018 66.979C64.725 66.936 64.8401 66.8639 64.9465 66.7629C65.0607 66.6547 65.1452 66.5393 65.1997 66.417C65.254 66.2952 65.2788 66.1661 65.2741 66.0297C65.2692 65.8932 65.2337 65.7573 65.1677 65.622C65.1013 65.4861 65.004 65.3506 64.876 65.2157C64.7448 65.0774 64.6126 64.9699 64.4794 64.8936C64.347 64.8177 64.2134 64.7724 64.0788 64.758C63.9446 64.7437 63.816 64.7594 63.6932 64.8052C63.57 64.8511 63.4521 64.9274 63.3399 65.0338H63.3398ZM63.065 65.3594C63.1181 65.2314 63.2012 65.1138 63.3141 65.0068C63.4299 64.8969 63.552 64.8179 63.6801 64.7702C63.8084 64.7224 63.9427 64.7059 64.0827 64.7208C64.2225 64.7358 64.361 64.7827 64.498 64.8612C64.6342 64.9393 64.7692 65.0491 64.903 65.19C65.0337 65.3278 65.1332 65.4664 65.2012 65.6056C65.2695 65.7456 65.3064 65.8866 65.3113 66.0284C65.3163 66.1705 65.2904 66.3051 65.2337 66.4323C65.1772 66.559 65.0899 66.6783 64.9722 66.79C64.8619 66.8947 64.7422 66.9696 64.614 67.0144C64.4856 67.0592 64.3485 67.0739 64.2031 67.0583C64.0576 67.0427 63.917 66.9978 63.7815 66.9238C63.6465 66.8499 63.5164 66.7471 63.3915 66.6154C63.2667 66.4838 63.1711 66.3479 63.1051 66.2079C63.0389 66.0676 63.0023 65.9231 62.9955 65.775C62.9887 65.6262 63.0119 65.4876 63.0651 65.3594L63.065 65.3594ZM68.1754 63.795L67.9396 64.0678L66.3328 62.6796C66.2608 62.6173 66.2005 62.5629 66.152 62.5164L66.1012 62.4661L66.1092 62.4854C66.1222 62.5175 66.1333 62.55 66.1424 62.5825L66.922 65.2454C66.8244 65.3597 66.7255 65.4733 66.627 65.5869C65.8817 64.9451 65.1383 64.3008 64.394 63.6577L64.6416 63.3711L66.2085 64.7249C66.291 64.7962 66.3585 64.8564 66.4108 64.9051L66.4708 64.9625L66.4602 64.9321C66.448 64.8964 66.436 64.8581 66.4241 64.8174L65.6486 62.2056L65.9545 61.8514C66.6997 62.4935 67.4431 63.1378 68.1875 63.7808L68.1753 63.795H68.1754ZM67.9358 64.0152L68.135 63.7847L65.9585 61.9041L65.6903 62.2146L66.46 64.8069C66.4718 64.847 66.4836 64.8849 66.4956 64.9201C66.5075 64.9552 66.5199 64.988 66.5325 65.0184L66.5369 65.029L66.5102 65.0602L66.496 65.0435C66.4745 65.0181 66.4375 64.9809 66.3854 64.9324C66.3335 64.884 66.2663 64.8241 66.1841 64.7531L64.6455 63.4238L64.4468 63.6538L66.6232 65.5343L66.8806 65.2364L66.1065 62.5929C66.0977 62.5615 66.087 62.5302 66.0746 62.4993C66.0619 62.4681 66.0473 62.4369 66.0312 62.4062L66.0252 62.3949L66.0563 62.3589L66.0704 62.3763C66.0944 62.406 66.1304 62.4438 66.1779 62.4894C66.2258 62.5354 66.2857 62.5893 66.3574 62.6513L67.9358 64.0152H67.9358ZM65.0141 61.6092C65.0815 61.681 65.1319 61.7575 65.1649 61.8382C65.198 61.9192 65.2137 62.0044 65.2119 62.0932C65.2101 62.1824 65.192 62.2688 65.1576 62.3522C65.1232 62.4354 65.0726 62.5157 65.0058 62.593C64.9373 62.6723 64.864 62.7354 64.7865 62.7817C64.7085 62.8284 64.6259 62.8584 64.5393 62.8715C64.453 62.8845 64.368 62.8793 64.2851 62.856C64.2023 62.8326 64.1215 62.7911 64.0431 62.7318L64.0272 62.7197L64.267 62.4422L64.2809 62.4525C64.3798 62.5261 64.4723 62.5592 64.5585 62.5521C64.6443 62.5452 64.725 62.4979 64.8004 62.4107C64.8344 62.3712 64.8595 62.3301 64.8752 62.2875C64.8909 62.2451 64.8976 62.2009 64.8951 62.155C64.893 62.1085 64.8815 62.0627 64.8611 62.0179C64.8405 61.9725 64.8104 61.9275 64.7714 61.8831L64.7606 61.8709L64.9999 61.594L65.0141 61.6092H65.0141ZM65.1304 61.8524C65.1015 61.7817 65.0582 61.7141 65.0009 61.65L64.8102 61.8708C64.8465 61.9139 64.8749 61.9578 64.8952 62.0026C64.9176 62.0519 64.9302 62.1022 64.9326 62.1532C64.9353 62.2042 64.9278 62.2534 64.9104 62.3005C64.8931 62.3474 64.8657 62.3924 64.8286 62.4353C64.7466 62.5302 64.6574 62.5817 64.5615 62.5896C64.4705 62.597 64.3741 62.5648 64.2728 62.4928L64.0818 62.7139C64.1515 62.7641 64.2228 62.7996 64.2952 62.8201C64.3728 62.8419 64.4525 62.8468 64.5337 62.8345C64.6157 62.8221 64.6937 62.7938 64.7673 62.7497C64.8415 62.7055 64.9116 62.645 64.9776 62.5686C65.0419 62.4942 65.0904 62.4173 65.1231 62.3381C65.1557 62.2591 65.1729 62.1772 65.1746 62.0926C65.1763 62.0086 65.1615 61.9285 65.1305 61.8524L65.1304 61.8524ZM71.4767 60.7203L71.2837 60.9924L70.6454 60.5397L68.7607 63.1968C67.9574 62.6293 67.1558 62.0589 66.3537 61.4896L66.5727 61.1807L68.6981 62.6882L69.3009 61.8382L67.1757 60.3308L67.3947 60.0219L69.52 61.5293L70.1217 60.6811L67.9964 59.1736L68.2154 58.8648L70.3408 60.3722L70.5675 60.0525L71.4874 60.705L71.4767 60.7203ZM71.2748 60.9403L71.4354 60.7139L70.5764 60.1046L70.3497 60.4243L68.2244 58.9169L68.0485 59.1648L70.1738 60.6722C69.9599 60.9759 69.7443 61.2788 69.5289 61.5814L67.4036 60.074L67.2278 60.3219L69.353 61.8293C69.1388 62.1336 68.9228 62.4371 68.707 62.7403L66.5817 61.2328L66.4058 61.4808L68.7519 63.1447L70.6365 60.4876L71.2748 60.9403V60.9403ZM72.3197 57.7298L72.1405 58.0428L70.2977 56.9877C70.2151 56.9404 70.1455 56.8985 70.0891 56.8621L70.0295 56.8225L70.041 56.8398C70.0598 56.8687 70.077 56.8985 70.0922 56.9287L71.367 59.3934C71.2928 59.5243 71.2176 59.6546 71.1428 59.7851L68.5819 58.3186L68.7701 57.9899L70.5671 59.0191C70.6617 59.0732 70.7393 59.1192 70.7998 59.1569L70.8701 59.202L70.8538 59.1743C70.8351 59.1416 70.8159 59.1062 70.7964 59.0684L69.5356 56.6533L69.7681 56.2471C70.6224 56.7349 71.475 57.2256 72.329 57.7136L72.3197 57.7299L72.3197 57.7298ZM72.1266 57.9918L72.278 57.7275L69.782 56.2981L69.5781 56.6542L70.8295 59.0512C70.8488 59.0884 70.8677 59.1233 70.8862 59.1557C70.9043 59.1873 70.9227 59.2172 70.9413 59.2451L70.9476 59.2546L70.9273 59.2902L70.9102 59.2766C70.8845 59.2561 70.841 59.2266 70.78 59.1886C70.7196 59.151 70.6424 59.1052 70.5484 59.0514L68.7839 58.041L68.6329 58.3047L71.1288 59.7341L71.3244 59.3925L70.0589 56.9458C70.0443 56.9167 70.0278 56.8881 70.0097 56.8601C69.9914 56.832 69.9711 56.8042 69.9492 56.777L69.9412 56.767L69.9648 56.7258L69.982 56.7402C70.0114 56.7649 70.0539 56.7951 70.1091 56.8307C70.1648 56.8666 70.234 56.9081 70.3163 56.9552L72.1265 57.9919L72.1266 57.9918ZM73.6425 55.1752L73.4196 55.6055L71.7099 55.9942C71.6773 56.0011 71.6504 56.0067 71.6296 56.0104L71.6279 56.0107L72.8751 56.6567L72.7008 56.993C71.8274 56.5406 70.9536 56.0889 70.0806 55.6356L70.2547 55.2993L71.4448 55.9158L71.4386 55.9028C71.4299 55.8838 71.4211 55.8627 71.4126 55.8399L70.7824 54.2807L71.0012 53.8583L71.6764 55.6348L73.6616 55.1384L73.6426 55.1752H73.6425ZM73.3944 55.5728L73.5902 55.1948L71.6532 55.6791L70.9959 53.9498L70.8235 54.2826L71.4472 55.8261C71.4555 55.8484 71.464 55.8687 71.4725 55.8872C71.4812 55.9059 71.4899 55.9228 71.4986 55.9375L71.5039 55.9464L71.4869 55.9796L70.2708 55.3497L70.131 55.6196L72.6849 56.9426L72.8248 56.6727L71.5508 56.0128L71.5685 55.9786L71.5801 55.9788C71.5887 55.9789 71.6033 55.977 71.6232 55.9735C71.6441 55.9698 71.6703 55.9644 71.7019 55.9576L73.3944 55.5728V55.5728Z" fill="#F5EDE0"/>
<path d="M6.20312 38.2363C6.82812 38.2363 7.39412 38.4898 7.80372 38.8994C8.21336 39.3089 8.46678 39.8749 8.46678 40.5C8.46678 41.1251 8.21336 41.6911 7.80372 42.1006C7.39412 42.5102 6.82812 42.7637 6.20312 42.7637C5.57802 42.7637 5.01206 42.5102 4.60252 42.1006C4.19288 41.6911 3.93945 41.1251 3.93945 40.5C3.93945 39.8749 4.19288 39.3089 4.60252 38.8994C5.01206 38.4898 5.57802 38.2363 6.20312 38.2363ZM7.06797 39.6351C6.84673 39.4139 6.54092 39.2769 6.20312 39.2769C5.86531 39.2769 5.55955 39.4139 5.33827 39.6351C5.11698 39.8564 4.98007 40.1622 4.98007 40.5C4.98007 40.8378 5.11698 41.1436 5.33827 41.3649C5.55955 41.5861 5.86531 41.723 6.20312 41.723C6.54092 41.723 6.84673 41.5861 7.06797 41.3649C7.28926 41.1436 7.42617 40.8378 7.42617 40.5C7.42617 40.1622 7.28926 39.8564 7.06797 39.6351Z" fill="#F5EDE0"/>
<path fill-rule="evenodd" clip-rule="evenodd" d="M73.1562 53.0566C73.053 53.3237 72.7526 53.4566 72.4855 53.3534C72.2184 53.2501 72.0856 52.9498 72.1888 52.6827C72.8353 51.011 73.3467 49.2906 73.7199 47.5388C74.0934 45.7858 74.3273 44.0058 74.4183 42.2159C74.4329 41.9297 74.6768 41.7095 74.963 41.7241C75.2492 41.7386 75.4694 41.9825 75.4548 42.2687C75.3608 44.1173 75.1201 45.9516 74.7361 47.7542C74.3526 49.5539 73.8249 51.3272 73.1562 53.0566L73.1562 53.0566ZM75.4548 38.7304C75.4694 39.0166 75.2492 39.2605 74.963 39.2751C74.6768 39.2897 74.4329 39.0695 74.4183 38.7833C74.3307 37.0613 74.1118 35.3513 73.7645 33.6685C73.4172 31.9867 72.9417 30.3307 72.3406 28.7159C72.2408 28.4476 72.3773 28.1491 72.6456 28.0493C72.9138 27.9495 73.2123 28.0859 73.3122 28.3542C73.9323 30.0203 74.4228 31.7279 74.7807 33.4613C75.139 35.1974 75.3647 36.959 75.4548 38.7304Z" fill="#F5EDE0"/>
<path d="M74.981 39.2769C74.6431 39.2769 74.3373 39.4139 74.1161 39.6351C73.8948 39.8564 73.7579 40.1622 73.7579 40.5C73.7579 40.8378 73.8948 41.1436 74.1161 41.3649C74.3373 41.5861 74.6431 41.723 74.981 41.723C75.3188 41.723 75.6245 41.5861 75.8458 41.3649C76.0671 41.1436 76.204 40.8378 76.204 40.5C76.204 40.1622 76.0671 39.8564 75.8458 39.6351C75.6245 39.4139 75.3188 39.2769 74.981 39.2769ZM73.3804 38.8994C73.7899 38.4898 74.3559 38.2363 74.981 38.2363C75.6061 38.2363 76.172 38.4898 76.5816 38.8994C76.9912 39.3089 77.2446 39.8749 77.2446 40.5C77.2446 41.1251 76.9912 41.6911 76.5816 42.1006C76.172 42.5102 75.6061 42.7637 74.981 42.7637C74.3559 42.7637 73.7899 42.5102 73.3804 42.1006C72.9707 41.6911 72.7173 41.1251 72.7173 40.5C72.7173 39.8749 72.9707 39.3089 73.3804 38.8994Z" fill="#F5EDE0"/>
<path fill-rule="evenodd" clip-rule="evenodd" d="M22.8791 59.417L22.8667 60.4564C22.4853 60.1257 22.1138 59.7838 21.752 59.4321L22.8791 59.417Z" fill="#F5EDE0"/>
<path fill-rule="evenodd" clip-rule="evenodd" d="M22.9235 55.6436L22.9097 56.8099L19.4257 56.8567C19.1277 56.48 18.8396 56.095 18.562 55.7021L22.9235 55.6436Z" fill="#F5EDE0"/>
<path fill-rule="evenodd" clip-rule="evenodd" d="M22.9684 51.8691L22.9546 53.0356L16.9493 53.1161C16.7413 52.7356 16.5421 52.3496 16.3525 51.958L22.9684 51.8692V51.8691Z" fill="#F5EDE0"/>
<path fill-rule="evenodd" clip-rule="evenodd" d="M25.5533 48.0618L24.2856 48.5689L23.0014 49.0825L22.9993 49.2622L15.264 49.3661C15.1268 48.9831 14.9983 48.5959 14.8784 48.205L25.5533 48.0618V48.0618Z" fill="#F5EDE0"/>
<path fill-rule="evenodd" clip-rule="evenodd" d="M31.6964 44.2063L31.6896 45.3726L14.2237 45.6071C14.1474 45.2222 14.079 44.8343 14.0195 44.4436L31.6964 44.2063L31.6964 44.2063Z" fill="#F5EDE0"/>
<path fill-rule="evenodd" clip-rule="evenodd" d="M31.7184 40.4326L31.7116 41.5989L13.7538 41.84C13.7334 41.4536 13.7215 41.0649 13.7178 40.6742L31.7184 40.4326Z" fill="#F5EDE0"/>
<path fill-rule="evenodd" clip-rule="evenodd" d="M31.7405 36.6592L31.7337 37.8255L13.8213 38.0659C13.8559 37.6742 13.898 37.2847 13.9495 36.898L31.7405 36.6592Z" fill="#F5EDE0"/>
<path fill-rule="evenodd" clip-rule="evenodd" d="M31.7627 32.8867L31.7559 34.053L14.4312 34.2856C14.5245 33.8922 14.6255 33.5017 14.7361 33.1153L31.7627 32.8868L31.7627 32.8867Z" fill="#F5EDE0"/>
<path fill-rule="evenodd" clip-rule="evenodd" d="M31.7846 29.1133L31.7779 30.2796L15.6382 30.4962C15.7981 30.1004 15.9672 29.7093 16.1454 29.3232L31.7846 29.1133Z" fill="#F5EDE0"/>
<path fill-rule="evenodd" clip-rule="evenodd" d="M59.2048 58.9288C58.8078 59.3359 58.3976 59.7304 57.9753 60.1114L57.1914 60.1219L57.1925 58.9557L59.2048 58.9287V58.9288Z" fill="#F5EDE0"/>
<path fill-rule="evenodd" clip-rule="evenodd" d="M62.2943 55.1143C62.0272 55.5145 61.7495 55.9071 61.4616 56.2916L57.1948 56.3489L57.196 55.1827L62.2943 55.1143Z" fill="#F5EDE0"/>
<path fill-rule="evenodd" clip-rule="evenodd" d="M64.4027 51.3134C64.2238 51.7099 64.0357 52.1013 63.8382 52.4871L57.1987 52.5762L57.1999 51.41L64.4027 51.3134V51.3134Z" fill="#F5EDE0"/>
<path fill-rule="evenodd" clip-rule="evenodd" d="M65.7758 47.5215C65.6664 47.9157 65.548 48.306 65.4212 48.6924L57.2025 48.8027L57.2026 48.7755L54.1465 47.6775L65.7758 47.5215L65.7758 47.5215Z" fill="#F5EDE0"/>
<path fill-rule="evenodd" clip-rule="evenodd" d="M66.5316 43.7383C66.4826 44.1305 66.4254 44.5202 66.3595 44.9068L53.6162 45.0778L53.6215 43.9116L66.5316 43.7383V43.7383Z" fill="#F5EDE0"/>
<path fill-rule="evenodd" clip-rule="evenodd" d="M66.7325 39.963C66.7352 40.1151 66.7383 40.2673 66.7383 40.4201C66.7383 40.6572 66.7348 40.8935 66.7287 41.1292L53.6338 41.305L53.6391 40.1387L66.7325 39.9629V39.963Z" fill="#F5EDE0"/>
<path fill-rule="evenodd" clip-rule="evenodd" d="M66.4016 36.1944C66.4635 36.5797 66.5161 36.9679 66.5613 37.3584L53.6509 37.5317L53.6562 36.3655L66.4016 36.1944H66.4016Z" fill="#F5EDE0"/>
<path fill-rule="evenodd" clip-rule="evenodd" d="M65.5125 32.4336C65.6335 32.817 65.7453 33.2045 65.8492 33.5953L43.1946 33.8994L41.667 32.7537L65.5125 32.4336V32.4336Z" fill="#F5EDE0"/>
<path fill-rule="evenodd" clip-rule="evenodd" d="M64.0018 28.6805C64.1904 29.0617 64.37 29.4482 64.5406 29.8395L38.2527 30.1923L36.7251 29.0466L64.0018 28.6805Z" fill="#F5EDE0"/>
<path fill-rule="evenodd" clip-rule="evenodd" d="M61.7481 24.9377C62.0206 25.3158 62.284 25.7008 62.5368 26.0934L33.3102 26.4857L31.8065 25.3579L31.7999 26.5059L17.54 26.6973C17.7821 26.2981 18.0348 25.9061 18.297 25.521L61.7481 24.9377Z" fill="#F5EDE0"/>
<path fill-rule="evenodd" clip-rule="evenodd" d="M58.4952 21.208C58.886 21.5797 59.2642 21.9643 59.6318 22.359L20.3442 22.8863C20.7013 22.4817 21.0694 22.0872 21.4502 21.7053L58.4952 21.208Z" fill="#F5EDE0"/>
<path fill-rule="evenodd" clip-rule="evenodd" d="M53.5587 17.502C54.1714 17.8591 54.7682 18.2405 55.3484 18.6441L24.5278 19.0578C25.0975 18.6385 25.6844 18.2415 26.2875 17.868L53.5587 17.502Z" fill="#F5EDE0"/>
<path fill-rule="evenodd" clip-rule="evenodd" d="M40.2272 13.9091C42.8159 13.9091 45.3174 14.2818 47.6825 14.9736L32.0913 15.1829C34.6552 14.357 37.3887 13.9092 40.2272 13.9092V13.9091Z" fill="#F5EDE0"/>
<path d="M24.6057 66.047C24.5465 66.0101 24.4874 65.9729 24.4285 65.9357L24.4278 65.9353V65.9352C20.1717 63.2401 16.6381 59.505 14.1839 55.0865C11.7827 50.7632 10.415 45.7895 10.415 40.5C10.415 32.1923 13.7825 24.671 19.2268 19.2267C24.6711 13.7823 32.1924 10.4149 40.5001 10.4149C48.8078 10.4149 56.3291 13.7823 61.7735 19.2267C67.2178 24.671 70.5852 32.1923 70.5852 40.5C70.5852 45.9392 69.1409 51.0422 66.615 55.4462C64.0703 59.8831 60.4249 63.6102 56.0505 66.2566V66.2568L56.0475 66.2584C55.9273 66.3312 55.8066 66.4032 55.6852 66.4743L55.6747 66.4563L54.6721 66.9885L54.7525 50.7682L52.4332 49.9349L52.3387 68.1726C51.54 68.5073 50.7219 68.7844 49.6762 69.1147C48.9907 69.3312 48.2912 69.5348 47.6422 69.7062V69.7063L47.6419 69.7063L47.6417 69.7064C47.2777 69.8025 46.9295 69.8885 46.6087 69.961L46.601 69.927L46.1746 70.0174L46.3493 46.3729L51.1553 48.0994L51.204 37.3315L43.7151 38.9565L43.8281 70.3517H43.7031L43.7057 70.3818C42.621 70.4729 41.5336 70.5186 40.4269 70.5141C39.3316 70.5096 38.2396 70.4543 37.1364 70.3435L37.2921 39.0205L42.4158 37.9087L42.411 36.5875L34.7688 30.8559L34.5451 69.1939L33.2496 69.1887L33.3729 48.0573L25.9734 51.0171L25.771 66.5641L24.6194 66.025L24.6056 66.0471L24.6057 66.047ZM56.0504 64.7295C59.9356 62.2305 63.1816 58.8206 65.4871 54.8009C67.9031 50.5886 69.2845 45.706 69.2845 40.5C69.2845 32.5514 66.0628 25.3552 60.8539 20.1463C55.645 14.9374 48.4488 11.7156 40.5002 11.7156C32.5515 11.7156 25.3554 14.9374 20.1464 20.1463C14.9376 25.3551 11.7158 32.5513 11.7158 40.5C11.7158 45.567 13.0226 50.3254 15.317 54.4564C17.5351 58.4497 20.6765 61.8606 24.4531 64.401L24.6882 50.1339L33.3811 46.6568L33.4883 28.2759L43.7043 35.9379L43.7104 37.6278L52.5069 35.7191L52.4404 48.5611L56.0491 49.8575L56.0504 64.7295ZM47.6423 68.3618C48.1682 68.2168 48.7275 68.051 49.2851 67.8749C49.9051 67.679 50.5159 67.4724 51.0686 67.2697L51.1492 49.4735L47.6416 48.2134L47.6423 68.3617V68.3618ZM38.3966 69.1473C39.08 69.1924 39.7572 69.2157 40.432 69.2185C41.1217 69.2213 41.8192 69.2019 42.5282 69.1618L42.4206 39.2374L38.5811 40.0705L38.3966 69.1473V69.1473Z" fill="#F5EDE0"/>
</g>
<defs>
<clipPath id="clip0_500_638">
<rect width="81" height="81" fill="white"/>
</clipPath>
</defs>
</svg>
