<svg width="102" height="102" viewBox="0 0 102 102" fill="none" xmlns="http://www.w3.org/2000/svg">
<path d="M51 0C65.0831 0 77.8332 5.70842 87.0624 14.9376C96.2916 24.1668 102 36.9168 102 51C102 65.0831 96.2916 77.8332 87.0624 87.0624C77.8332 96.2916 65.0832 102 51 102C36.9169 102 24.1668 96.2916 14.9376 87.0624C5.70842 77.8332 0 65.0832 0 51C0 36.9169 5.70842 24.1668 14.9376 14.9376C24.1668 5.70842 36.9168 0 51 0ZM85.9044 16.0956C76.9717 7.16294 64.631 1.63793 51 1.63793C37.369 1.63793 25.0283 7.163 16.0956 16.0956C7.16294 25.0283 1.63793 37.369 1.63793 51C1.63793 64.631 7.163 76.9717 16.0956 85.9044C25.0283 94.8371 37.369 100.362 51 100.362C64.631 100.362 76.9717 94.837 85.9044 85.9044C94.8371 76.9717 100.362 64.631 100.362 51C100.362 37.369 94.837 25.0283 85.9044 16.0956Z" fill="#C29977"/>
<path fill-rule="evenodd" clip-rule="evenodd" d="M11.3271 66.3423C11.4571 66.6787 11.2898 67.0569 10.9534 67.1869C10.6171 67.3169 10.2389 67.1496 10.1089 66.8132C9.26674 64.6355 8.60217 62.4024 8.11934 60.1361C7.63577 57.8662 7.33268 55.5563 7.21424 53.2285C7.1959 52.8681 7.47319 52.561 7.8336 52.5426C8.19401 52.5243 8.50115 52.8016 8.51949 53.162C8.63413 55.4159 8.9287 57.6573 9.39891 59.8648C9.86894 62.0709 10.5129 64.2372 11.327 66.3424L11.3271 66.3423ZM8.51955 48.8393C8.50121 49.1997 8.19408 49.477 7.83366 49.4586C7.47325 49.4403 7.19596 49.1331 7.2143 48.7727C7.32777 46.5421 7.61208 44.3238 8.06327 42.1375C8.51395 39.9547 9.13151 37.8045 9.91246 35.7064C10.0382 35.3686 10.4141 35.1967 10.7519 35.3224C11.0898 35.4481 11.2616 35.824 11.1359 36.1619C10.3789 38.1953 9.78015 40.2806 9.3429 42.3985C8.90551 44.5176 8.62984 46.6709 8.51955 48.8393Z" fill="#C29977"/>
<path d="M16.629 31.8879L16.0458 32.9927L14.5692 32.4571L13.8958 33.7325L15.1709 34.6497L14.6301 35.674L8.20459 30.8177L8.99455 29.3213L16.6289 31.8879H16.629ZM9.73074 30.7244L13.016 33.0882L13.5409 32.094L9.73074 30.7244ZM19.1117 27.8277L18.4191 28.9348L14.8997 27.9653L15.4758 28.9287L17.5939 30.2538L16.9313 31.3129L10.1921 27.0965L10.8547 26.0375L13.7525 27.8505L11.6859 24.7089L12.3605 23.6306L14.0457 26.4398L19.1117 27.8277V27.8277ZM23.2617 24.6016L22.447 25.5487L21.6377 24.8525L19.5196 27.3147L13.4931 22.1305L14.3078 21.1834L19.4734 25.6271L20.3473 24.6112L15.1818 20.1675L15.9964 19.2205L21.162 23.6642L21.5915 23.1648L23.2617 24.6016L23.2617 24.6016ZM21.7903 20.6284L19.3989 15.831L20.3171 14.9675L25.7631 20.7584L24.9525 21.5209L21.4203 17.765L23.8273 22.579L22.909 23.4425L17.463 17.6516L18.2738 16.8891L21.7903 20.6284ZM25.3787 18.628L22.9933 15.1966C22.6303 14.6744 22.483 14.1774 22.5515 13.7056C22.62 13.2339 22.9061 12.8229 23.4097 12.4729C23.9132 12.1229 24.398 11.998 24.8641 12.0981C25.3302 12.1982 25.7447 12.5094 26.1077 13.0316L28.4931 16.4631C28.8561 16.9853 29.0034 17.4823 28.9349 17.954C28.8663 18.4259 28.5802 18.8367 28.0767 19.1868C27.5732 19.5368 27.0883 19.6618 26.6222 19.5616C26.1561 19.4615 25.7416 19.1502 25.3787 18.628ZM27.5127 17.2414L25.0366 13.6794C24.7385 13.2504 24.4122 13.1591 24.0579 13.4054C23.7035 13.6517 23.6754 13.9894 23.9736 14.4183L26.4498 17.9803C26.7479 18.4093 27.0742 18.5006 27.4285 18.2543C27.7829 18.0079 27.811 17.6703 27.5127 17.2414ZM31.4106 16.9067L30.3195 17.5151L26.4482 10.5719L27.5393 9.96357L29.1155 12.7905L30.2859 12.1379L28.7097 9.31101L29.8007 8.70265L33.6721 15.6458L32.5809 16.2542L30.8389 13.1298L29.6685 13.7824L31.4106 16.9067ZM37.7079 13.9029L34.5576 15.2001L31.531 7.84928L34.6813 6.55211L35.1137 7.60226L33.1185 8.42375L33.9184 10.3664L35.5041 9.71358L35.9365 10.7637L34.3507 11.4166L35.2804 13.6743L37.2756 12.8528L37.7079 13.903V13.9029ZM39.606 13.345L38.4072 13.6965L36.1709 6.06797L37.9363 5.55045C39.1278 5.20111 39.9078 5.65496 40.2763 6.91184L40.4967 7.66381C40.8652 8.92063 40.4537 9.72371 39.2622 10.073L38.6955 10.2392L39.606 13.3451V13.345ZM37.6892 6.8064L38.376 9.14936L38.9427 8.98318C39.1461 8.92355 39.2785 8.82358 39.34 8.68332C39.4014 8.54306 39.3949 8.34572 39.3204 8.09144L39.0551 7.18689C38.9806 6.93267 38.8796 6.76306 38.7521 6.67807C38.6247 6.59314 38.4592 6.58059 38.2558 6.64021L37.6892 6.8064ZM43.9084 12.3077L42.6756 12.5093L41.392 4.66418L42.6248 4.46244L43.1475 7.6566L44.4699 7.44024L43.9472 4.24608L45.1801 4.04433L46.4637 11.8895L45.2309 12.0912L44.6533 8.56096L43.3308 8.77732L43.9084 12.3077ZM47.3354 9.83264L47.2889 5.65372C47.2817 5.01776 47.4391 4.52392 47.7607 4.17197C48.0823 3.82013 48.5498 3.64083 49.163 3.63399C49.7762 3.62715 50.2475 3.79607 50.5769 4.14063C50.9063 4.48525 51.0746 4.97554 51.0816 5.61151L51.1281 9.79042C51.1352 10.4263 50.9779 10.9202 50.6563 11.2721C50.3346 11.624 49.8672 11.8033 49.254 11.8102C48.6408 11.817 48.1694 11.6481 47.8401 11.3034C47.5107 10.9588 47.3424 10.4686 47.3354 9.83264ZM49.8799 9.88374L49.8316 5.54591C49.8258 5.02348 49.6071 4.76472 49.1756 4.76957C48.7441 4.77435 48.5312 5.0379 48.537 5.56027L48.5853 9.89817C48.5911 10.4205 48.8098 10.6793 49.2413 10.6745C49.6729 10.6697 49.8857 10.4062 49.8799 9.88374ZM55.4472 11.8826L52.05 11.6252L52.6507 3.6984L56.0479 3.95585L55.9621 5.08826L53.8105 4.92525L53.6518 7.02014L55.3617 7.14971L55.2759 8.28206L53.566 8.15249L53.3815 10.5872L55.5331 10.7502L55.4473 11.8826H55.4472ZM58.2987 10.3706L59.219 6.29391C59.359 5.67362 59.6261 5.22939 60.0204 4.96137C60.4146 4.69334 60.9109 4.62682 61.509 4.76192C62.1072 4.89696 62.5268 5.17014 62.7676 5.58148C63.0085 5.99293 63.0589 6.50878 62.9189 7.12913L61.9986 11.2057C61.8586 11.8261 61.5915 12.2703 61.1972 12.5383C60.8029 12.8064 60.3067 12.8728 59.7086 12.7378C59.1103 12.6027 58.6907 12.3295 58.4499 11.9181C58.2091 11.5067 58.1587 10.9908 58.2987 10.3706ZM60.7626 11.0082L61.7178 6.77655C61.8328 6.26693 61.6799 5.96464 61.259 5.86964C60.838 5.77465 60.57 5.98187 60.4549 6.49149L59.4997 10.7231C59.3846 11.2328 59.5376 11.535 59.9586 11.63C60.3795 11.725 60.6474 11.5178 60.7626 11.0082ZM64.2612 13.9647L62.4377 13.3305L65.0492 5.82214L68.1706 6.90774L67.7975 7.9804L65.8561 7.3052L65.2032 9.18219L65.8468 9.40607C67.0195 9.81392 67.3907 10.6365 66.9605 11.8735L66.6657 12.7209C66.2354 13.958 65.434 14.3726 64.2613 13.9647L64.2612 13.9647ZM64.8301 10.2548L63.9907 12.6682L64.6343 12.8921C64.8345 12.9617 65.0004 12.9573 65.1319 12.8787C65.2634 12.8002 65.3727 12.6359 65.4598 12.3856L65.8067 11.3881C65.8937 11.1378 65.9101 10.9411 65.8557 10.7979C65.8013 10.6547 65.6739 10.5483 65.4737 10.4787L64.8301 10.2548ZM75.6027 10.5384L72.4215 16.564L73.004 16.8716L71.9701 18.8299L70.8654 18.2467L71.3691 17.2926L66.7092 14.8325L70.4207 7.80258L71.5254 8.38582L68.3442 14.4114L69.2782 14.9045L72.4594 8.87891L73.5642 9.46215L70.3829 15.4878L71.317 15.9809L74.4982 9.95524L75.6029 10.5385L75.6027 10.5384ZM75.746 20.3159L72.9629 18.3508L77.5482 11.857L80.3313 13.8221L79.6762 14.7498L77.9136 13.5052L76.7018 15.2215L78.1026 16.2106L77.4476 17.1383L76.0468 16.1492L74.6385 18.1437L76.401 19.3882L75.746 20.3159ZM77.488 19.4074L80.4163 16.2996C80.842 15.8477 81.2874 15.6068 81.7524 15.5769C82.2176 15.547 82.6649 15.7345 83.0948 16.1395C83.5245 16.5445 83.7384 16.98 83.7361 17.446C83.7339 17.9121 83.52 18.371 83.0942 18.8228L82.5179 19.4345L81.6583 18.6246L82.2891 17.955C82.6265 17.5969 82.6438 17.275 82.3407 16.9895C82.0377 16.7039 81.7173 16.7402 81.3798 17.0983L78.3347 20.3301C78.0025 20.6828 77.9879 21.002 78.291 21.2875C78.594 21.573 78.9116 21.5395 79.2439 21.1868L80.0383 20.3437L80.898 21.1537L80.1659 21.9306C79.7402 22.3824 79.2947 22.6233 78.8297 22.6532C78.3646 22.6831 77.9172 22.4956 77.4874 22.0906C77.0576 21.6856 76.8438 21.2502 76.846 20.784C76.8482 20.3181 77.0622 19.8592 77.4879 19.4073L77.488 19.4074ZM80.9434 25.4998L80.1148 24.5649L85.2142 20.0456L84.348 19.0682L85.1979 18.3149L87.7589 21.2046L86.909 21.9579L86.0428 20.9805L80.9434 25.4998ZM83.3288 28.6196L82.2074 27.0064L88.7348 22.4689L89.8109 24.0168C90.1738 24.539 90.3179 25.0083 90.243 25.4245C90.1682 25.8407 89.8758 26.2261 89.3662 26.5804L89.105 26.7618C88.4336 27.2285 87.8544 27.3039 87.3674 26.9878L87.3487 27.0008C87.529 27.6315 87.2524 28.2018 86.5187 28.7118L85.9593 29.1007C85.4558 29.4507 84.9801 29.5855 84.5322 29.5049C84.0843 29.4244 83.6832 29.1292 83.3288 28.6194V28.6196ZM88.5153 24.1429L86.7902 25.3421L87.069 25.743C87.2159 25.9544 87.3784 26.072 87.5563 26.0958C87.7343 26.1196 87.9444 26.0473 88.1868 25.8788L88.5505 25.626C88.998 25.3147 89.1008 24.9852 88.8589 24.6371L88.5153 24.1428V24.1429ZM85.8578 25.9903L83.8529 27.384L84.2612 27.9714C84.3909 28.1579 84.5331 28.2596 84.6879 28.2766C84.8425 28.2935 85.038 28.2199 85.2742 28.0556L85.843 27.6602C86.1352 27.4571 86.3058 27.2648 86.3548 27.0832C86.4038 26.9016 86.344 26.6896 86.1755 26.4472L85.8578 25.9903H85.8578ZM86.4219 29.8797L90.097 27.8899C90.6562 27.5871 91.1665 27.496 91.6278 27.6165C92.089 27.7369 92.4656 28.0669 92.7576 28.6061C93.0496 29.1454 93.1199 29.6411 92.9686 30.0932C92.8173 30.5453 92.4621 30.9227 91.9029 31.2255L88.2278 33.2152C87.6685 33.518 87.1583 33.6092 86.697 33.4887C86.2358 33.3682 85.8592 33.0383 85.5672 32.499C85.2753 31.9597 85.2048 31.464 85.3562 31.012C85.5075 30.5598 85.8627 30.1825 86.4219 29.8797ZM87.5632 32.1545L91.3781 30.0891C91.8374 29.8404 91.9645 29.5264 91.759 29.1468C91.5535 28.7673 91.2211 28.7019 90.7617 28.9506L86.9468 31.016C86.4874 31.2648 86.3604 31.5789 86.5658 31.9584C86.7713 32.3379 87.1038 32.4033 87.5632 32.1545Z" fill="#C29977"/>
<path d="M11.7849 73.8879C11.5257 73.7237 11.2956 73.4657 11.0957 73.1141C10.8375 72.66 10.7769 72.2141 10.9143 71.7752C11.0513 71.3355 11.3578 70.9804 11.8325 70.7105C12.3428 70.4203 12.8428 70.34 13.3324 70.4676C13.8212 70.5957 14.1999 70.8959 14.4681 71.3675C14.6399 71.6697 14.7391 71.9449 14.7649 72.1936L14.367 72.4198C14.3646 72.1187 14.2851 71.8303 14.1283 71.5546C13.9202 71.1886 13.6291 70.9612 13.2543 70.8728C12.8802 70.784 12.4881 70.8562 12.0788 71.0889C11.69 71.31 11.4406 71.5925 11.3307 71.9365C11.2211 72.2811 11.2641 72.6254 11.461 72.9717C11.6428 73.2915 11.8722 73.5288 12.148 73.6815L11.785 73.8879H11.7849ZM13.6173 77.0012L13.3814 76.6355L16.1298 74.8626L15.0908 73.2519L12.3425 75.0249L12.1081 74.6616L15.1912 72.6726L16.7004 75.0122L13.6173 77.0012ZM15.3987 79.4156L14.1986 77.8856L17.0856 75.6212L18.2356 77.0874L17.9304 77.3267L17.0457 76.1988L16.0847 76.9525L16.9032 77.9959L16.598 78.2352L15.7795 77.1918L14.7691 77.9843L15.7039 79.1763L15.3987 79.4156V79.4156ZM17.3179 83.1147L17.0564 82.8153L17.7985 82.1671L15.9215 80.0183L18.6847 77.6046L18.9674 77.9283L16.4963 80.087L17.7458 81.5172L20.2169 79.3586L20.4996 79.6823L18.0285 81.8409L18.3521 82.2113L17.3179 83.1148V83.1147ZM20.7275 85.0118L20.4151 84.7153L22.2397 82.7929C22.4046 82.6193 22.5263 82.5037 22.6057 82.4454L22.5944 82.4346C22.5139 82.4724 22.4323 82.5012 22.3507 82.52L18.9673 83.3411L18.5815 82.9748L21.1074 80.3136L21.4191 80.6096L19.6401 82.4838C19.4501 82.684 19.3211 82.8098 19.2539 82.8615L19.2609 82.8682C19.3399 82.8396 19.4307 82.8138 19.5339 82.7887L22.8523 81.97L23.2534 82.3507L20.7275 85.0118H20.7275ZM23.7584 87.4886L23.3858 87.1923L23.7207 86.1462L22.502 85.1776L21.5762 85.754L21.2022 85.4567L24.5869 83.4602L24.9357 83.7375L23.7584 87.4886ZM23.8512 85.7546L24.373 84.1729C24.3902 84.1219 24.4263 84.0457 24.482 83.946L24.4738 83.9395C24.3961 84.0105 24.3293 84.0623 24.2753 84.0952L22.8556 84.9631L23.8512 85.7545V85.7546ZM26.3845 89.3816L26.0339 89.1329L27.9322 86.4566L27.1014 85.8674C26.4711 86.5536 26.0169 87.0324 25.7404 87.3044C25.4635 87.577 25.2445 87.7666 25.0828 87.8737C24.9212 87.9807 24.7657 88.0354 24.6175 88.0374C24.4696 88.0407 24.3275 87.9934 24.1906 87.8964C24.081 87.8185 23.9955 87.7366 23.9357 87.6502L24.1688 87.3218C24.2117 87.4122 24.2759 87.4878 24.3621 87.5489C24.4483 87.6101 24.566 87.6163 24.7148 87.5667C24.8638 87.5181 25.1308 87.3048 25.516 86.9278C25.9023 86.5507 26.4077 86.0224 27.0336 85.3438L28.5071 86.389L26.3845 89.3817L26.3845 89.3816ZM29.8357 91.3766L29.462 91.1626L30.7791 88.8626C30.8981 88.6548 30.9889 88.5137 31.0522 88.4382L31.0386 88.4304C30.9694 88.4863 30.8971 88.5335 30.8221 88.5711L27.7297 90.1706L27.2681 89.9063L29.0913 86.7224L29.4643 86.9359L28.1802 89.1783C28.043 89.4178 27.9475 89.5705 27.8945 89.6368L27.9028 89.6416C27.9727 89.595 28.0548 89.5484 28.1492 89.4997L31.1791 87.9179L31.659 88.1927L29.8357 91.3766ZM30.6387 91.6223L30.8323 91.1978C31.006 91.5075 31.2583 91.7376 31.5889 91.8883C31.8298 91.9981 32.0478 92.0275 32.2433 91.9755C32.4377 91.924 32.5806 91.8 32.6709 91.6021C32.8662 91.1737 32.6736 90.8275 32.095 90.5637L31.7476 90.4054L31.8955 90.081L32.215 90.2268C32.4614 90.3391 32.6772 90.3731 32.8621 90.3278C33.0469 90.2825 33.1834 90.1622 33.2725 89.9668C33.3491 89.799 33.3538 89.639 33.2877 89.4869C33.2209 89.3345 33.0888 89.2137 32.8916 89.1238C32.6126 88.9967 32.3009 88.9602 31.9572 89.0148L32.1377 88.6189C32.4457 88.5942 32.759 88.6545 33.0786 88.8001C33.3957 88.9447 33.6101 89.1337 33.7235 89.3669C33.8359 89.6006 33.8371 89.8401 33.7251 90.0857C33.5276 90.5189 33.1916 90.696 32.718 90.6163L32.7136 90.6259C32.9314 90.7568 33.0738 90.9265 33.1427 91.1336C33.2111 91.3414 33.1961 91.5535 33.0979 91.7688C32.9584 92.0749 32.7382 92.2692 32.4389 92.3508C32.1393 92.433 31.8007 92.3881 31.4231 92.216C31.0456 92.0438 30.7843 91.8461 30.6387 91.6222L30.6387 91.6223ZM36.2275 94.1102L35.8261 93.9542L36.786 91.4836C36.8727 91.2605 36.9415 91.1074 36.9929 91.0233L36.9783 91.0176C36.9181 91.0832 36.8537 91.1407 36.7852 91.189L33.9655 93.2312L33.4696 93.0385L34.7984 89.6185L35.1989 89.7742L34.2631 92.1828C34.1632 92.4401 34.0915 92.6054 34.0489 92.6788L34.0578 92.6823C34.1201 92.6259 34.1943 92.5676 34.2803 92.5053L37.0409 90.4899L37.5563 90.6901L36.2276 94.1101L36.2275 94.1102ZM38.0442 93.2485L37.6606 94.5835L37.2475 94.4648L38.2607 90.9384L39.2297 91.2169C39.6067 91.3252 39.8726 91.5006 40.0279 91.7444C40.1827 91.987 40.2117 92.2752 40.1157 92.6094C40.0197 92.9436 39.826 93.1843 39.5338 93.3311C39.2428 93.4775 38.9006 93.4945 38.5094 93.3821L38.0442 93.2484V93.2485ZM38.5668 91.4299L38.1513 92.8757L38.5845 93.0002C38.8692 93.0819 39.1063 93.0792 39.2932 92.992C39.4808 92.905 39.6083 92.7426 39.6767 92.5051C39.8106 92.039 39.602 91.7274 39.0512 91.5691L38.5668 91.4299V91.4299ZM41.6124 95.6167C41.1049 95.5006 40.7369 95.2407 40.5087 94.8363C40.2805 94.4319 40.2268 93.9616 40.3494 93.4259C40.4812 92.8503 40.7422 92.4261 41.1314 92.155C41.5208 91.8829 41.984 91.8089 42.5196 91.9315C43.0136 92.0445 43.3732 92.3016 43.5985 92.7036C43.8246 93.1058 43.8757 93.5754 43.7526 94.1128C43.6189 94.697 43.3583 95.123 42.9714 95.392C42.5845 95.661 42.1318 95.7357 41.6124 95.6167ZM42.4024 92.3025C42.0269 92.2166 41.6911 92.2822 41.3939 92.5C41.0977 92.7172 40.8985 93.0472 40.7978 93.4874C40.6967 93.9285 40.7296 94.3097 40.897 94.6312C41.0639 94.9517 41.3319 95.1547 41.6989 95.2387C42.0916 95.3286 42.4299 95.2716 42.7151 95.0671C43.0002 94.8627 43.1948 94.5299 43.3004 94.0683C43.4087 93.5958 43.3833 93.2056 43.2226 92.8972C43.062 92.5888 42.7883 92.3909 42.4025 92.3025H42.4024ZM44.1393 96.0198L44.6204 92.3825L45.6553 92.5194C45.9696 92.5609 46.2098 92.6711 46.3731 92.8487C46.5372 93.0272 46.6034 93.2395 46.5707 93.4863C46.5435 93.6924 46.4634 93.8643 46.3316 94.0019C46.1997 94.1396 46.0321 94.2275 45.8271 94.2657L45.8257 94.276C46.0669 94.337 46.2514 94.4557 46.3779 94.631C46.5044 94.8073 46.5511 95.0206 46.518 95.2708C46.477 95.5818 46.3319 95.819 46.0829 95.9826C45.8339 96.1462 45.5397 96.2051 45.1994 96.1601L44.1393 96.0199V96.0198ZM44.9956 92.8233L44.8403 93.9977L45.2768 94.0554C45.5098 94.0862 45.7008 94.0542 45.8499 93.9595C45.9982 93.8645 46.0858 93.7148 46.1128 93.5104C46.1596 93.157 45.9509 92.9497 45.4849 92.8881L44.9956 92.8233ZM44.7895 94.3822L44.6163 95.6917L45.1948 95.7682C45.4451 95.8013 45.6468 95.7681 45.8002 95.6677C45.9545 95.5673 46.0443 95.4144 46.0717 95.2074C46.1284 94.7779 45.8641 94.5244 45.2788 94.447L44.7895 94.3822ZM50.0793 96.5753L49.6045 96.5391L49.2947 95.4853L47.7425 95.3674L47.2997 96.3641L46.8232 96.3279L48.5043 92.776L48.9486 92.8097L50.0793 96.5752V96.5753ZM49.183 95.0879L48.7272 93.486C48.7128 93.4342 48.6999 93.3507 48.6901 93.237L48.6797 93.2362C48.6553 93.3386 48.6289 93.4189 48.6027 93.4765L47.9147 94.9916L49.1829 95.0878L49.183 95.0879ZM53.4869 96.4681L53.0573 96.4767L53.0236 94.805L51.1248 94.8432L51.1585 96.5149L50.7288 96.5235L50.6549 92.8552L51.0846 92.8467L51.1171 94.4554L53.0159 94.4172L52.9834 92.8084L53.4131 92.7998L53.4869 96.4681ZM57.2813 96.1085L56.8553 96.1649L56.636 94.5073L54.7533 94.7563L54.9725 96.4139L54.5464 96.4702L54.0653 92.8328L54.4915 92.7765L54.7024 94.3718L56.5852 94.1228L56.3742 92.5275L56.8003 92.4712L57.2813 96.1085ZM61.4073 95.3916L60.9829 95.465L60.3571 91.8497L60.7816 91.7762L61.4073 95.3916ZM58.3128 95.9271L57.6871 92.3118L58.1106 92.2385L58.3761 93.7724L59.0622 93.6537C59.4219 93.5914 59.7167 93.6299 59.9465 93.7692C60.1772 93.9083 60.3198 94.1382 60.3754 94.4592C60.4329 94.7915 60.3734 95.073 60.1968 95.3022C60.0203 95.5322 59.7503 95.6782 59.387 95.7411L58.3128 95.927V95.9271ZM58.4422 94.1546L58.6701 95.4716L59.2649 95.3687C59.5154 95.3253 59.699 95.2332 59.8145 95.0918C59.9301 94.9503 59.9705 94.7739 59.9337 94.5614C59.8592 94.131 59.5603 93.9611 59.037 94.0517L58.4422 94.1546ZM65.2976 94.2729L64.8836 94.3918L64.1517 91.8445C64.0856 91.6145 64.0477 91.4508 64.0377 91.3528L64.0225 91.3572C64.0145 91.4458 63.9979 91.5306 63.9726 91.6106L62.9652 94.9432L62.4539 95.0901L61.4405 91.5638L61.8536 91.445L62.5673 93.9286C62.6436 94.1939 62.6865 94.3689 62.697 94.4531L62.7063 94.4504C62.7217 94.3678 62.7454 94.2765 62.7762 94.1749L63.7528 90.8994L64.2843 90.7467L65.2976 94.273V94.2729ZM63.4522 89.8185C63.4945 90.0573 63.4541 90.2679 63.3313 90.4478C63.2078 90.6287 63.0256 90.7537 62.783 90.8235C62.5336 90.8951 62.3112 90.8864 62.1155 90.7971C61.9209 90.7085 61.7825 90.5493 61.7009 90.3218L62.0996 90.2073C62.211 90.5097 62.4132 90.6189 62.7046 90.5351C62.8364 90.4973 62.9332 90.4258 62.9946 90.32C63.0568 90.214 63.076 90.0848 63.0542 89.9329L63.4522 89.8186V89.8185ZM67.3627 93.3657L67.1892 92.9326C67.5332 93.0207 67.8738 92.9971 68.2111 92.8619C68.4568 92.7635 68.6285 92.6259 68.7259 92.4486C68.8228 92.2724 68.8318 92.0834 68.7508 91.8815C68.5756 91.4444 68.1923 91.3449 67.6019 91.5814L67.2476 91.7234L67.1149 91.3926L67.441 91.262C67.6924 91.1613 67.866 91.0286 67.9608 90.8635C68.0555 90.6985 68.0628 90.5168 67.9828 90.3174C67.9143 90.1463 67.8018 90.0324 67.6461 89.9752C67.4897 89.9183 67.3112 89.9306 67.11 90.0112C66.8254 90.1252 66.5838 90.3256 66.3861 90.6119L66.2243 90.2081C66.419 89.9683 66.6789 89.7831 67.0048 89.6525C67.3284 89.5228 67.6131 89.4982 67.8602 89.577C68.1068 89.657 68.2809 89.8215 68.3813 90.0721C68.5585 90.5141 68.4546 90.8794 68.0701 91.1671L68.074 91.1768C68.319 91.1096 68.5402 91.1237 68.7375 91.2167C68.9351 91.3107 69.0781 91.468 69.1662 91.6878C69.2913 91.9999 69.2799 92.2934 69.1323 92.5662C68.985 92.8398 68.7188 93.0538 68.3336 93.2081C67.9485 93.3624 67.625 93.4149 67.3624 93.3657L67.3627 93.3657ZM72.8565 90.9581L72.4345 91.1788L71.6141 90.4484L70.2346 91.1696L70.3861 92.2496L69.9627 92.471L69.5099 88.5675L69.9047 88.361L72.8565 90.958V90.9581ZM71.309 90.1702L70.0747 89.052C70.035 89.0157 69.9799 88.9517 69.9114 88.8603L69.9021 88.8652C69.9356 88.965 69.9558 89.047 69.9641 89.1098L70.1818 90.7595L71.309 90.1702ZM75.4876 89.2664C75.3234 89.5256 75.0654 89.7557 74.7138 89.9556C74.2597 90.2138 73.8138 90.2744 73.3749 90.137C72.9352 90 72.5801 89.6935 72.3102 89.2188C72.02 88.7085 71.9397 88.2085 72.0673 87.7189C72.1954 87.2301 72.4956 86.8514 72.9672 86.5832C73.2694 86.4114 73.5446 86.3122 73.7932 86.2863L74.0195 86.6843C73.7184 86.6867 73.43 86.7662 73.1543 86.923C72.7883 87.1311 72.5609 87.4222 72.4725 87.797C72.3837 88.1711 72.4559 88.5632 72.6886 88.9725C72.9097 89.3613 73.1922 89.6107 73.5362 89.7206C73.8808 89.8302 74.2251 89.7871 74.5714 89.5903C74.8912 89.4085 75.1285 89.179 75.2812 88.9033L75.4876 89.2663V89.2664ZM76.1239 84.9858L75.258 85.5964L77.1488 88.278L76.7975 88.5257L74.9066 85.8441L74.0427 86.4532L73.8192 86.1362L75.9004 84.6688L76.1239 84.9858ZM78.0826 85.8626L78.9399 86.9556L78.6017 87.2209L76.3373 84.3339L77.1305 83.7117C77.4392 83.4697 77.7371 83.3569 78.0257 83.3738C78.3129 83.3905 78.5635 83.5358 78.7781 83.8094C78.9927 84.083 79.0744 84.381 79.0222 84.7038C78.9703 85.0254 78.7836 85.3127 78.4634 85.5639L78.0826 85.8626H78.0826ZM76.9149 84.3737L77.8433 85.5574L78.198 85.2792C78.4311 85.0965 78.5677 84.9026 78.6065 84.7001C78.646 84.4971 78.589 84.2986 78.4365 84.1041C78.1373 83.7225 77.7625 83.709 77.3116 84.0626L76.915 84.3737H76.9149ZM82.0425 84.38C81.6648 84.7383 81.2446 84.9008 80.7814 84.867C80.3183 84.8331 79.897 84.6174 79.5188 84.2188C79.1124 83.7904 78.9037 83.3381 78.8933 82.8639C78.8824 82.389 79.0772 81.9622 79.4758 81.584C79.8435 81.2353 80.2567 81.0782 80.7161 81.1131C81.1762 81.1475 81.5955 81.365 81.9749 81.7649C82.3873 82.1996 82.5978 82.6526 82.6077 83.1236C82.6174 83.5948 82.4291 84.0131 82.0424 84.3798L82.0425 84.38ZM79.72 81.8871C79.4404 82.1523 79.3092 82.4682 79.326 82.8364C79.3429 83.2033 79.5073 83.5518 79.8182 83.8795C80.1297 84.2077 80.4652 84.3915 80.8257 84.43C81.1849 84.4685 81.5024 84.3577 81.7755 84.0986C82.0677 83.8214 82.2075 83.5081 82.1952 83.1574C82.1828 82.8067 82.0134 82.4605 81.6875 82.117C81.3538 81.7652 81.0148 81.5704 80.6691 81.5334C80.3234 81.4965 80.007 81.6148 79.7198 81.8872L79.72 81.8871ZM85.8293 80.3023L85.5477 80.6282L83.5421 78.8954C83.361 78.7389 83.2398 78.6227 83.1779 78.5461L83.1676 78.558C83.2092 78.6367 83.2417 78.7167 83.2643 78.7974L84.2426 82.1386L83.8947 82.5412L81.1185 80.1424L81.3995 79.8171L83.3548 81.5065C83.5637 81.687 83.6953 81.8099 83.7502 81.8748L83.7565 81.8674C83.7242 81.7899 83.6941 81.7005 83.6644 81.5986L82.6914 78.322L83.053 77.9035L85.8292 80.3023H85.8293ZM81.8491 77.5814C82.0149 77.7582 82.0962 77.9566 82.0917 78.1743C82.0872 78.3933 82.0031 78.5976 81.838 78.7887C81.6684 78.985 81.4773 79.0993 81.2647 79.1315C81.0534 79.1636 80.8504 79.106 80.6577 78.9602L80.929 78.6462C81.1877 78.8386 81.4166 78.8195 81.6148 78.5901C81.7045 78.4863 81.7465 78.3736 81.74 78.2514C81.7341 78.1286 81.6796 78.01 81.5783 77.8947L81.8491 77.5814V77.5814ZM89.9808 76.4256L89.7514 76.7492L88.9476 76.1791L86.5743 79.5252L83.5816 77.4025L83.8303 77.0519L86.5066 78.9502L87.293 77.8415L84.6167 75.9432L84.8653 75.5926L87.5417 77.4909L88.3265 76.3843L85.6502 74.486L85.8989 74.1354L88.5752 76.0337L88.8607 75.6311L89.9808 76.4256V76.4256ZM91.0409 72.6869L90.8269 73.0606L88.5269 71.7435C88.3191 71.6245 88.178 71.5337 88.1025 71.4704L88.0948 71.484C88.1507 71.5532 88.1978 71.6255 88.2355 71.7005L89.835 74.7929L89.5706 75.2545L86.3867 73.4313L86.6003 73.0583L88.8426 74.3424C89.0822 74.4796 89.2349 74.5751 89.3012 74.6281L89.3059 74.6198C89.2594 74.5499 89.2127 74.4678 89.1641 74.3734L87.5822 71.3435L87.857 70.8636L91.0409 72.6869ZM92.7096 69.4649L92.434 69.997L90.2917 70.484C90.211 70.5013 90.1585 70.5114 90.1331 70.5111L90.1283 70.5204L91.7324 71.3513L91.5347 71.733L88.2769 70.0454L88.4745 69.6637L90.0057 70.4569L90.0105 70.4476C89.9881 70.4094 89.9657 70.3614 89.9443 70.304L89.1547 68.3505L89.4011 67.875L90.24 70.0824L92.7096 69.4649Z" fill="#C29977"/>
<path d="M11.7852 73.8817C11.6535 73.7983 11.5294 73.6912 11.4131 73.5605C11.2973 73.4305 11.1887 73.2768 11.0881 73.0996C10.9575 72.8699 10.8768 72.642 10.8461 72.416C10.8154 72.1895 10.8349 71.9648 10.9046 71.7421C10.974 71.5192 11.0865 71.3177 11.2417 71.1378C11.3964 70.9583 11.5939 70.8002 11.8336 70.664C12.0909 70.5176 12.3462 70.4241 12.5987 70.3832C12.852 70.3422 13.103 70.3541 13.351 70.4188C13.5985 70.4836 13.8184 70.5922 14.0102 70.7441C14.202 70.8961 14.3657 71.0914 14.5012 71.3298C14.5877 71.4819 14.6561 71.6276 14.7061 71.7667C14.7563 71.9062 14.788 72.0391 14.801 72.1652L14.8026 72.1804L14.3566 72.434L14.3562 72.394C14.3551 72.2455 14.3347 72.1001 14.2956 71.9579C14.2564 71.8157 14.198 71.6763 14.1206 71.5403C14.0181 71.36 13.8952 71.2138 13.7521 71.1021C13.6092 70.9907 13.4457 70.9132 13.2617 70.8698C13.0777 70.8261 12.8893 70.822 12.6968 70.8575C12.5034 70.893 12.3055 70.9683 12.1032 71.0834C11.911 71.1926 11.7534 71.3169 11.6305 71.4562C11.508 71.5948 11.4198 71.7487 11.3658 71.9175C11.3122 72.0864 11.2958 72.2555 11.317 72.4245C11.3383 72.5939 11.3973 72.7637 11.4941 72.934C11.584 73.0921 11.6859 73.2301 11.799 73.347C11.9118 73.4636 12.0364 73.5597 12.1721 73.6349L12.2087 73.6552L11.797 73.8893L11.7852 73.8818L11.7852 73.8817ZM11.4483 73.5292C11.5582 73.6527 11.6751 73.7545 11.7984 73.8344L12.1132 73.6553C11.9875 73.5813 11.8713 73.4892 11.7653 73.3797C11.6493 73.2598 11.5451 73.1188 11.4533 72.9572C11.3533 72.7813 11.2923 72.6056 11.2703 72.4301C11.2482 72.2545 11.2652 72.0789 11.321 71.9032C11.3769 71.7281 11.4685 71.5685 11.5953 71.4249C11.7216 71.2817 11.8833 71.1542 12.0799 71.0423C12.287 70.9246 12.4899 70.8474 12.6884 70.811C12.8876 70.7744 13.0825 70.7786 13.2725 70.8237C13.4631 70.8687 13.6326 70.9491 13.7811 71.0649C13.9291 71.1804 14.056 71.3312 14.1615 71.5168C14.2409 71.6563 14.3007 71.7993 14.341 71.9452C14.3777 72.0786 14.3983 72.2148 14.4026 72.3536L14.7527 72.1545C14.7391 72.0366 14.7087 71.9125 14.6619 71.7824C14.613 71.6461 14.5457 71.5029 14.4604 71.3529C14.3279 71.1198 14.168 70.929 13.9812 70.7809C13.7945 70.633 13.5805 70.5273 13.3394 70.4642C13.0976 70.4012 12.8531 70.3896 12.6062 70.4295C12.3593 70.4694 12.1093 70.5612 11.857 70.7047C11.622 70.8383 11.4286 70.993 11.2773 71.1685C11.1265 71.3434 11.0172 71.5393 10.9497 71.7559C10.8821 71.972 10.8632 72.1899 10.8929 72.4095C10.9228 72.6296 11.0016 72.8519 11.1291 73.0762C11.228 73.2502 11.3347 73.4014 11.4484 73.5291L11.4483 73.5292ZM13.5767 77.0247L13.3282 76.6393L16.0766 74.8664L15.0631 73.2953L12.3147 75.0683L12.0548 74.6653C13.0963 73.9949 14.137 73.3229 15.1775 72.6509C15.6871 73.4449 16.1993 74.2382 16.7123 75.0301L13.5895 77.0445L13.5767 77.0247ZM13.3932 76.6534L13.6035 76.9795L16.6472 75.016L15.1634 72.7159L12.1198 74.6794L12.3287 75.0033L15.0771 73.2302C15.4306 73.7809 15.7858 74.3312 16.1416 74.8804L13.3932 76.6534ZM15.387 79.4164L14.1724 77.8678C15.1478 77.1044 16.1225 76.3398 17.0964 75.5744C17.4879 76.0763 17.8812 76.5778 18.2754 77.0776L17.9332 77.3459L17.0486 76.218L16.1246 76.9427L16.943 77.9861L16.6009 78.2544L15.7824 77.211L14.8089 77.9745L15.7438 79.1664L15.4016 79.4348L15.3871 79.4163L15.387 79.4164ZM14.2384 77.8757L15.4094 79.3689L15.6777 79.1586L14.7428 77.9666L15.7903 77.145L16.6087 78.1885L16.8769 77.9783L16.0585 76.9348L17.0565 76.152L17.941 77.28L18.2093 77.0697L17.0883 75.6405L14.2383 77.8759L14.2384 77.8757ZM17.2855 83.146L17.0086 82.8289L17.7506 82.1807L15.8737 80.0319C16.8065 79.2169 17.7383 78.4009 18.6723 77.5873L18.986 77.9463L16.5149 80.105L17.7334 81.4999L20.2045 79.3413L20.5181 79.7003L18.047 81.8589L18.3706 82.2293L17.301 83.1638L17.2855 83.146ZM17.0749 82.8334L17.3055 83.0974L18.3043 82.2249L17.9806 81.8545L20.4517 79.6959L20.2 79.4077L17.7288 81.5662C17.3013 81.0787 16.8734 80.5903 16.4485 80.1005L18.9196 77.9419L18.6677 77.6537L15.9399 80.0365L17.8169 82.1852L17.0748 82.8335L17.0749 82.8334ZM20.7085 85.0517L20.3791 84.7391L22.2199 82.7997C22.3026 82.7126 22.3745 82.6399 22.4357 82.5818L22.5019 82.5208L22.4773 82.5297C22.436 82.5443 22.3944 82.5564 22.3531 82.5659L18.9576 83.3898C18.8197 83.2601 18.6825 83.1292 18.5454 82.9986C19.3964 82.0987 20.2509 81.2017 21.1036 80.3033L21.4495 80.6316L19.6543 82.5229C19.5599 82.6224 19.4804 82.7037 19.4159 82.7667L19.3399 82.839L19.3787 82.8274C19.424 82.8143 19.473 82.8014 19.5253 82.7888L22.8562 81.967L23.2837 82.3727C22.4326 83.2725 21.5781 84.1694 20.7256 85.0679L20.7084 85.0517L20.7085 85.0517ZM20.4455 84.7373L20.7238 85.0014L23.2173 82.3744L22.8426 82.0188L19.5366 82.8345C19.4858 82.8467 19.4375 82.8594 19.392 82.8726C19.3468 82.8857 19.3047 82.8992 19.2661 82.9132L19.2524 82.9182L19.2151 82.8824L19.2368 82.8658C19.2699 82.8403 19.3189 82.7959 19.3833 82.733C19.4471 82.6705 19.5263 82.5897 19.6204 82.4905L21.3832 80.6333L21.1055 80.3698L18.6119 82.9969L18.9715 83.3381L22.3423 82.52C22.3825 82.5108 22.4224 82.4991 22.4619 82.4852C22.502 82.4712 22.542 82.4547 22.5816 82.4361L22.5962 82.4292L22.6397 82.4705L22.617 82.4872C22.5779 82.5159 22.5282 82.5588 22.4682 82.6157C22.4076 82.6733 22.3361 82.7455 22.2541 82.8319L20.4457 84.7372L20.4455 84.7373ZM23.739 87.5232L23.3537 87.2167L23.6886 86.1707L22.4957 85.2224L21.5699 85.7988C21.4315 85.6899 21.2939 85.5796 21.1561 85.4699C22.2985 84.7955 23.4432 84.1243 24.5842 83.4477L24.9583 83.7451C24.557 85.01 24.1633 86.2781 23.7659 87.5444L23.739 87.5231V87.5232ZM23.4084 87.2L23.7415 87.4649L24.9037 83.7619L24.5801 83.5047L21.239 85.4756L21.5732 85.7414L22.499 85.1649C22.9137 85.4947 23.328 85.8252 23.7434 86.154L23.4084 87.2001V87.2ZM23.8347 85.7311L24.3459 84.1816C24.355 84.1547 24.3691 84.1213 24.3881 84.0816L24.4094 84.0388L24.3773 84.0648C24.3427 84.0919 24.311 84.1142 24.2829 84.1313L22.8919 84.9815L23.8348 85.731L23.8347 85.7311ZM24.3907 84.1963L23.8584 85.8101C23.5088 85.5324 23.1589 85.255 22.8099 84.9766L24.2583 84.0912C24.285 84.0749 24.3151 84.0537 24.3482 84.0278C24.3808 84.0021 24.416 83.9722 24.4533 83.9382L24.4681 83.9247L24.5077 83.956L24.4979 83.9735C24.4706 84.0225 24.448 84.0655 24.4305 84.1019C24.4126 84.1395 24.3991 84.1711 24.3907 84.1963H24.3907ZM26.3492 89.3747L25.9795 89.1124L27.8777 86.4361L27.083 85.8725C26.7774 86.205 26.5131 86.489 26.2905 86.7241C26.0603 86.9671 25.875 87.1575 25.7352 87.2951C25.5964 87.4318 25.4719 87.5478 25.3622 87.6428C25.2518 87.7383 25.1556 87.8132 25.0742 87.8672C24.9919 87.9217 24.9107 87.9631 24.8314 87.991C24.7515 88.0191 24.6729 88.0338 24.5963 88.0348C24.5196 88.0364 24.4444 88.0251 24.371 88.0008C24.2975 87.9763 24.2256 87.9391 24.1555 87.8894C24.0998 87.85 24.05 87.8091 24.0066 87.7673C23.9629 87.7251 23.9255 87.6818 23.8948 87.6374L23.8855 87.6239L24.1513 87.2492L24.1685 87.2855C24.1891 87.3289 24.2149 87.3688 24.2456 87.4049C24.2766 87.4413 24.3128 87.4743 24.3542 87.5035C24.3937 87.5314 24.4407 87.5469 24.4949 87.5496C24.5507 87.5524 24.6145 87.5421 24.6858 87.5182C24.7577 87.4947 24.8594 87.4305 24.9906 87.3258C25.1238 87.2195 25.2863 87.0724 25.4779 86.8848C25.6709 86.6965 25.8938 86.4703 26.1465 86.2063C26.3987 85.9429 26.6816 85.6413 26.9947 85.3017L27.0088 85.2864C27.5109 85.6445 28.0146 86.0013 28.5184 86.3571C27.803 87.3683 27.0849 88.3777 26.3686 89.3882L26.3493 89.3746L26.3492 89.3747ZM26.045 89.1013L26.3572 89.3227L28.4525 86.3684L27.0151 85.3488C26.708 85.6815 26.4297 85.9784 26.1802 86.239C25.9272 86.5032 25.7039 86.7298 25.5106 86.9185C25.3171 87.1078 25.1535 87.256 25.0197 87.3627C24.8841 87.4709 24.7775 87.5378 24.7004 87.5629C24.6233 87.5885 24.5539 87.5998 24.4924 87.5967C24.429 87.5935 24.3736 87.5751 24.3267 87.5419C24.2821 87.5102 24.2428 87.4747 24.2094 87.4354C24.1845 87.406 24.1625 87.3744 24.1438 87.3408L23.9429 87.6241C23.97 87.6613 24.0021 87.6979 24.039 87.7334C24.0806 87.7734 24.1286 87.8128 24.1825 87.851C24.249 87.8982 24.3168 87.9332 24.3855 87.9561C24.4541 87.9786 24.5242 87.9893 24.5954 87.9878C24.6669 87.9868 24.7405 87.973 24.8158 87.9466C24.8914 87.92 24.9689 87.8803 25.0481 87.8279C25.128 87.775 25.2226 87.7013 25.3312 87.6072C25.4405 87.5126 25.5642 87.3973 25.7021 87.2615C25.8414 87.1244 26.0263 86.9345 26.2563 86.6916C26.4812 86.4541 26.75 86.1652 27.0622 85.8253L27.0763 85.8101C27.365 86.0152 27.6539 86.2205 27.9431 86.4249L26.0449 89.1013H26.045ZM29.8469 91.3799L29.4528 91.1542L30.7814 88.8337C30.841 88.7297 30.8937 88.6421 30.9395 88.5709L30.9895 88.496L30.9677 88.5104C30.9312 88.5341 30.8937 88.5558 30.8557 88.5749L27.752 90.1802C27.5872 90.0868 27.4231 89.992 27.2588 89.8978L29.1055 86.6731L29.5193 86.91L28.2234 89.1729C28.1553 89.292 28.0973 89.3898 28.0498 89.466L27.993 89.5544L28.0279 89.534C28.0691 89.5104 28.1137 89.4862 28.1612 89.4617L31.2025 87.874L31.714 88.1668C31.0998 89.2425 30.4819 90.3162 29.8673 91.3916L29.8468 91.38L29.8469 91.3799ZM29.517 91.1367L29.8498 91.3274L31.6497 88.1843L31.2014 87.9276L28.1829 89.5034C28.1361 89.5277 28.0922 89.5515 28.0514 89.5748C28.0116 89.5975 27.9739 89.6207 27.9388 89.6441L27.9268 89.6521L27.8819 89.6265L27.8991 89.605C27.9249 89.5727 27.962 89.5179 28.0099 89.441C28.0572 89.3649 28.1149 89.2678 28.1826 89.1494L29.4551 86.9274L29.1229 86.7372L27.323 89.8803L27.7531 90.1266L30.8342 88.533C30.8708 88.5146 30.9068 88.4939 30.9421 88.471C30.9775 88.448 31.0125 88.4224 31.0467 88.3948L31.0593 88.3847L31.1112 88.4145L31.0931 88.4361C31.062 88.4731 31.024 88.5266 30.9791 88.5963C30.9339 88.6664 30.8817 88.7534 30.8223 88.8571L29.5169 91.1367L29.517 91.1367ZM30.6351 91.6036L30.8479 91.1369L30.8705 91.1773C30.9561 91.3299 31.0612 91.463 31.1853 91.5763C31.3096 91.6897 31.4534 91.7838 31.6164 91.8581C31.7345 91.9119 31.8471 91.9461 31.9538 91.9603C32.0598 91.9745 32.1603 91.969 32.255 91.9438C32.3488 91.919 32.4302 91.8766 32.4987 91.8168C32.5672 91.7569 32.6235 91.6791 32.6671 91.5834C32.7614 91.3765 32.7623 91.1899 32.6704 91.024C32.5768 90.8553 32.3875 90.706 32.1028 90.5762L31.7341 90.4081L31.9014 90.041L32.2423 90.1965C32.3636 90.2518 32.4773 90.2879 32.583 90.3044C32.6876 90.3207 32.7847 90.318 32.874 90.2961C32.9625 90.2744 33.0395 90.2347 33.1051 90.177C33.171 90.119 33.2256 90.0426 33.2686 89.9481C33.3055 89.8674 33.3252 89.7884 33.3275 89.7117C33.3299 89.635 33.3153 89.5602 33.2836 89.4874C33.2515 89.4143 33.2037 89.3485 33.1401 89.2903C33.076 89.2317 32.9956 89.1802 32.8993 89.1363C32.7623 89.0739 32.6168 89.0336 32.4634 89.0157C32.3098 88.9978 32.148 89.0022 31.9784 89.0291L31.9352 89.0359L32.1397 88.5876L32.1533 88.5865C32.3092 88.5741 32.4668 88.5831 32.6257 88.6137C32.784 88.6441 32.9442 88.6963 33.1058 88.7699C33.2666 88.8432 33.4016 88.9279 33.5105 89.0237C33.6202 89.1201 33.7041 89.2282 33.7622 89.3477C33.8199 89.4679 33.8492 89.5897 33.8495 89.713C33.8499 89.836 33.8214 89.9607 33.764 90.0866C33.6631 90.308 33.526 90.4644 33.3535 90.5553C33.2008 90.6358 33.0205 90.6647 32.8132 90.6421C32.8934 90.6976 32.962 90.7592 33.019 90.8266C33.0926 90.9136 33.147 91.0107 33.1825 91.1174C33.2178 91.2241 33.2316 91.3321 33.2239 91.4412C33.2163 91.5497 33.1872 91.6595 33.1368 91.7698C33.0657 91.9258 32.9738 92.0535 32.8615 92.1528C32.7489 92.2522 32.6158 92.3229 32.4627 92.3646C32.3099 92.4065 32.1471 92.4161 31.9749 92.3933C31.8034 92.3707 31.6219 92.3156 31.431 92.2285C31.2406 92.1418 31.0792 92.0483 30.9474 91.9485C30.8147 91.848 30.711 91.7404 30.6366 91.6262L30.6296 91.6153L30.635 91.6036H30.6351ZM30.8524 91.2401L30.6833 91.6112C30.754 91.7167 30.8516 91.8167 30.976 91.9108C31.1054 92.0088 31.2638 92.1006 31.4507 92.1858C31.6372 92.2708 31.8141 92.3244 31.9811 92.3466C32.1473 92.3686 32.304 92.3594 32.4505 92.3193C32.5966 92.2795 32.7235 92.2121 32.8306 92.1175C32.938 92.0227 33.026 91.9002 33.0944 91.7502C33.1422 91.6452 33.1699 91.5409 33.1771 91.4379C33.1843 91.335 33.1713 91.233 33.1381 91.1321C33.1048 91.0314 33.0532 90.9395 32.9834 90.857C32.9137 90.7745 32.8257 90.7012 32.7194 90.6372L32.7013 90.6264L32.722 90.5812L32.7397 90.5843C32.9712 90.6231 33.1688 90.5996 33.3319 90.5136C33.495 90.4277 33.6251 90.2787 33.7215 90.0671C33.776 89.9475 33.803 89.8293 33.8027 89.7129C33.8025 89.5968 33.7747 89.4818 33.7202 89.3682C33.6648 89.2547 33.5846 89.1514 33.4796 89.0591C33.3738 88.966 33.2427 88.8837 33.0865 88.8125C32.9287 88.7407 32.7722 88.6896 32.6171 88.6599C32.4671 88.631 32.3184 88.622 32.171 88.6325L32.0143 88.9762C32.1727 88.9545 32.3244 88.952 32.469 88.9688C32.6272 88.9873 32.7774 89.029 32.9192 89.0936C33.0199 89.1395 33.1044 89.1936 33.1722 89.2556C33.2407 89.3184 33.2923 89.3894 33.327 89.4686C33.3615 89.5479 33.3775 89.6296 33.3749 89.713C33.3723 89.796 33.3512 89.881 33.3117 89.9676C33.2657 90.0684 33.2073 90.1501 33.1366 90.2124C33.0655 90.275 32.9817 90.3181 32.8854 90.3417C32.7901 90.365 32.6869 90.368 32.5761 90.3507C32.4661 90.3335 32.3482 90.2962 32.223 90.2392L31.9249 90.1032L31.7965 90.3848L32.1226 90.5334C32.4166 90.6675 32.6132 90.8235 32.7116 91.001C32.8113 91.1808 32.8109 91.3816 32.71 91.6029C32.6636 91.7047 32.6034 91.7879 32.5298 91.8522C32.4556 91.9169 32.3679 91.9626 32.2671 91.9894C32.1665 92.0161 32.06 92.022 31.9479 92.007C31.8366 91.9922 31.7195 91.9567 31.5969 91.9008C31.4293 91.8244 31.2816 91.7277 31.1537 91.6111C31.0367 91.5043 30.9362 91.3806 30.8525 91.2401H30.8524ZM36.2291 94.1471L35.8057 93.9825L36.774 91.4901C36.8176 91.3779 36.8568 91.2833 36.8912 91.2067L36.9294 91.1252L36.9101 91.1428C36.8771 91.172 36.8432 91.1989 36.8087 91.2233L33.9789 93.2727C33.8021 93.205 33.6255 93.1357 33.4491 93.0669L34.795 89.6031L35.2394 89.7758L34.295 92.2063C34.2448 92.3356 34.2019 92.441 34.1668 92.5224L34.1239 92.618L34.1554 92.5925C34.1923 92.5632 34.2329 92.5328 34.2765 92.5012L37.0474 90.4783L37.5968 90.6917C37.1469 91.8457 36.698 93.0005 36.251 94.1555L36.2291 94.1471ZM35.8665 93.9558L36.2242 94.0947L37.5359 90.7185L37.0543 90.5314L34.3041 92.5393C34.2617 92.57 34.2219 92.6 34.1848 92.6294C34.1478 92.6587 34.114 92.6871 34.0837 92.7147L34.0728 92.7245L34.0248 92.7055L34.0385 92.6819C34.0597 92.6454 34.0882 92.5859 34.1236 92.5038C34.1595 92.4204 34.2022 92.3155 34.2512 92.1893L35.1785 89.8026L34.8217 89.6639L33.5099 93.0401L33.972 93.2196L36.7813 91.1849C36.8151 91.1611 36.8477 91.1352 36.8787 91.1075C36.9105 91.0793 36.9414 91.0489 36.9709 91.0166L36.9818 91.0047L37.0376 91.0265L37.0229 91.0504C36.9979 91.0914 36.9681 91.15 36.9341 91.2258C36.8997 91.3025 36.8608 91.3962 36.8178 91.507L35.8665 93.9557L35.8665 93.9558ZM38.0707 93.256L37.6871 94.591L37.2288 94.4592C37.569 93.2683 37.9113 92.0775 38.255 90.8876L39.2465 91.1726C39.4373 91.2273 39.6003 91.2994 39.7353 91.3885C39.871 91.4782 39.9786 91.5854 40.0581 91.7101C40.1374 91.8345 40.1846 91.9708 40.1996 92.1186C40.2144 92.2657 40.1974 92.4243 40.1487 92.5942C40.0998 92.7642 40.0259 92.9108 39.927 93.0336C39.828 93.1565 39.7038 93.2555 39.5547 93.3305C39.4062 93.4052 39.2446 93.4469 39.0706 93.4556C38.8972 93.4642 38.7112 93.44 38.5133 93.3831L38.0707 93.256ZM37.6548 94.5327L38.0385 93.1977L38.5262 93.3378C38.7192 93.3933 38.9002 93.4168 39.0684 93.4085C39.236 93.4002 39.3913 93.3601 39.5337 93.2885C39.6766 93.2167 39.7956 93.1217 39.8904 93.0041C39.9853 92.8864 40.0563 92.7453 40.1034 92.5813C40.1506 92.4171 40.167 92.2643 40.1529 92.1232C40.1387 91.9828 40.0939 91.8535 40.0185 91.7354C39.9427 91.6165 39.8395 91.5139 39.7093 91.4278C39.5783 91.3414 39.4197 91.2714 39.2337 91.2179L38.2873 90.9459L37.287 94.427L37.6548 94.5327ZM38.5933 91.4375L38.1908 92.838L38.6014 92.956C38.7415 92.9962 38.8698 93.0156 38.9856 93.0143C39.1003 93.013 39.2031 92.9913 39.2936 92.9491C39.384 92.9073 39.46 92.8471 39.5215 92.7689C39.5834 92.6902 39.6311 92.5928 39.6643 92.477C39.7292 92.251 39.7116 92.063 39.6115 91.9131C39.5105 91.7621 39.3249 91.6477 39.0551 91.5702L38.5933 91.4375ZM38.139 92.8477L38.561 91.3791L39.068 91.5249C39.3488 91.6055 39.5431 91.7263 39.6506 91.887C39.7588 92.049 39.7785 92.2501 39.7096 92.4899C39.6746 92.6117 39.6243 92.7145 39.5585 92.798C39.4924 92.882 39.4106 92.9468 39.3135 92.9918C39.2171 93.0368 39.1076 93.06 38.986 93.0614C38.8655 93.0628 38.7328 93.0427 38.5884 93.0013L38.1325 92.8702L38.139 92.8477ZM41.6056 95.6649C41.3489 95.6062 41.1271 95.5109 40.9407 95.3791C40.754 95.2471 40.6025 95.0784 40.4867 94.8731C40.371 94.6679 40.2993 94.4459 40.2725 94.2076C40.2457 93.9701 40.2631 93.7161 40.3248 93.4459C40.3912 93.1557 40.4905 92.9033 40.6222 92.6892C40.7543 92.4746 40.9192 92.2982 41.1164 92.1608C41.3139 92.023 41.5302 91.9352 41.7649 91.8973C41.9995 91.8596 42.2524 91.8718 42.5233 91.9337C42.7732 91.9909 42.9896 92.0848 43.1718 92.2152C43.3545 92.3459 43.5032 92.5134 43.6174 92.7173C43.7319 92.9211 43.8023 93.1421 43.8283 93.3802C43.8541 93.6177 43.836 93.8721 43.774 94.1432C43.7066 94.4376 43.607 94.6926 43.4754 94.908C43.3434 95.124 43.1792 95.3002 42.9833 95.4366C42.787 95.573 42.5737 95.6603 42.3438 95.6983C42.1143 95.7361 41.8681 95.725 41.6055 95.6649L41.6056 95.6649ZM40.9678 95.3406C41.1491 95.4687 41.3654 95.5617 41.6161 95.619C41.8727 95.6777 42.1129 95.6887 42.3362 95.6519C42.5591 95.6151 42.7658 95.5303 42.9564 95.3979C43.1471 95.2652 43.3069 95.0938 43.4353 94.8836C43.5641 94.6728 43.6618 94.4224 43.7281 94.1328C43.789 93.8667 43.8069 93.6174 43.7815 93.3853C43.7562 93.1538 43.6878 92.9387 43.5763 92.7404C43.4655 92.5425 43.3215 92.3801 43.1446 92.2537C42.9674 92.1269 42.7567 92.0355 42.5128 91.9797C42.2477 91.9191 42.0008 91.9071 41.7724 91.9437C41.5447 91.9804 41.3348 92.0657 41.1432 92.1994C40.9513 92.3332 40.7909 92.5048 40.6623 92.7139C40.5334 92.9235 40.436 93.1711 40.3707 93.4564C40.3101 93.7215 40.2929 93.9702 40.3192 94.2025C40.3454 94.4347 40.415 94.6507 40.5275 94.85C40.6397 95.049 40.7867 95.2126 40.9678 95.3406V95.3406ZM42.3956 92.3506C42.2112 92.3085 42.0365 92.3035 41.8717 92.3357C41.7071 92.3679 41.5519 92.4375 41.4062 92.5443C41.2607 92.651 41.1389 92.7855 41.0411 92.9474C40.9431 93.1098 40.8689 93.3002 40.8191 93.5179C40.7692 93.7359 40.7524 93.9391 40.7686 94.1274C40.7848 94.3148 40.834 94.4876 40.9163 94.6456C40.998 94.8026 41.1047 94.9309 41.2355 95.03C41.3665 95.1292 41.5224 95.1996 41.7026 95.2409C41.8959 95.2851 42.0756 95.2932 42.2418 95.2652C42.4073 95.2373 42.56 95.1732 42.6997 95.0731C42.8396 94.9728 42.9575 94.8407 43.0532 94.6773C43.1493 94.5133 43.2234 94.3168 43.2758 94.0882C43.3294 93.8542 43.3499 93.6407 43.3372 93.4477C43.3246 93.256 43.2788 93.0844 43.2001 92.9332C43.1215 92.7824 43.0153 92.6585 42.8818 92.5617C42.7477 92.4645 42.5854 92.3941 42.3956 92.3506ZM41.8627 92.2894C42.0339 92.2558 42.2151 92.261 42.4062 92.3047C42.6022 92.3496 42.7702 92.4226 42.9095 92.5236C43.0491 92.6248 43.1601 92.7542 43.242 92.9114C43.3237 93.0685 43.3712 93.2464 43.3843 93.4448C43.3973 93.6422 43.3764 93.8602 43.3218 94.0988C43.2685 94.3317 43.1925 94.5325 43.0937 94.7011C42.9945 94.8706 42.8723 95.0075 42.7272 95.1115C42.5818 95.2158 42.4225 95.2825 42.2496 95.3117C42.0773 95.3407 41.8913 95.3324 41.6921 95.2868C41.5054 95.244 41.3434 95.1708 41.2071 95.0676C41.0705 94.9641 40.9594 94.8305 40.8745 94.6673C40.7893 94.5038 40.7383 94.3251 40.7216 94.1314C40.7049 93.9384 40.7221 93.7303 40.7732 93.5073C40.824 93.2847 40.9001 93.0899 41.0007 92.9231C41.1017 92.7558 41.2277 92.6166 41.3783 92.5062C41.5297 92.3953 41.6911 92.3229 41.8627 92.2894H41.8627ZM44.1347 96.0233L44.6188 92.3626L45.677 92.5025C45.8364 92.5236 45.9774 92.5622 46.0993 92.6182C46.2219 92.6744 46.3254 92.7482 46.4091 92.8393C46.4935 92.9312 46.5529 93.0319 46.5869 93.1415C46.6209 93.2509 46.6296 93.3692 46.6128 93.4959C46.599 93.6011 46.5715 93.6979 46.5307 93.7859C46.4897 93.8743 46.4351 93.954 46.3673 94.0248C46.2997 94.0954 46.2226 94.1534 46.1364 94.1985C46.0702 94.2332 45.9984 94.2603 45.9212 94.2799C46.0155 94.3095 46.1007 94.3487 46.1762 94.3974C46.2707 94.4582 46.3507 94.5338 46.4157 94.6238C46.4809 94.7146 46.5255 94.815 46.5495 94.9248C46.5735 95.0339 46.577 95.1526 46.5601 95.2803C46.5392 95.4391 46.4914 95.5793 46.4172 95.7007C46.3429 95.8223 46.2419 95.925 46.1145 96.0087C45.9874 96.0922 45.8486 96.1491 45.6987 96.1792C45.5489 96.2091 45.3876 96.2127 45.2151 96.1899L44.1317 96.0466L44.1348 96.0233H44.1347ZM44.6593 92.4154L44.1845 96.0061L45.2211 96.1432C45.3888 96.1654 45.545 96.1621 45.6895 96.133C45.8339 96.104 45.967 96.0495 46.0887 95.9695C46.2102 95.8897 46.3064 95.7918 46.3771 95.6762C46.4478 95.5606 46.4933 95.4264 46.5134 95.2743C46.5296 95.152 46.5262 95.0387 46.5035 94.9347C46.4809 94.8312 46.4388 94.7366 46.3776 94.6513C46.3161 94.5661 46.2403 94.4945 46.1508 94.437C46.061 94.3792 45.9567 94.3353 45.8388 94.3054L45.8184 94.3002L45.8248 94.2521L45.8416 94.249C45.9419 94.2304 46.0329 94.1996 46.1146 94.1568C46.1963 94.1141 46.2693 94.0591 46.3334 93.9921C46.3976 93.9252 46.4492 93.8497 46.488 93.7661C46.5267 93.6825 46.553 93.5902 46.5662 93.4898C46.582 93.3698 46.5739 93.2581 46.542 93.1553C46.5101 93.0525 46.4542 92.9577 46.3746 92.8711C46.295 92.7846 46.1966 92.7144 46.0798 92.6609C45.9624 92.607 45.826 92.5696 45.671 92.5492L44.6594 92.4154H44.6593ZM45.0346 92.8563L44.8854 93.984L45.2985 94.0386C45.4125 94.0536 45.5164 94.0534 45.6096 94.0378C45.7019 94.0224 45.7841 93.9918 45.856 93.9461C45.9269 93.9006 45.9835 93.842 46.0253 93.7705C46.0673 93.6986 46.0951 93.6129 46.1081 93.5138C46.1304 93.3449 46.0921 93.2112 45.9932 93.113C45.8925 93.0131 45.7282 92.9479 45.5006 92.9179L45.0345 92.8562L45.0346 92.8563ZM44.8357 94.0012L44.9941 92.8035L45.5067 92.8712C45.7449 92.9027 45.9182 92.9723 46.0264 93.0797C46.1364 93.1889 46.1792 93.3356 46.1549 93.52C46.141 93.6252 46.1112 93.7168 46.0658 93.7944C46.0201 93.8725 45.9585 93.9364 45.8814 93.9858C45.804 94.035 45.7159 94.0679 45.6174 94.0843C45.5196 94.1007 45.4112 94.101 45.2925 94.0853L44.8326 94.0245L44.8357 94.0013V94.0012ZM44.8284 94.4152L44.6614 95.678L45.2166 95.7514C45.3394 95.7676 45.4503 95.7676 45.5488 95.7513C45.6464 95.7351 45.7322 95.7028 45.8061 95.6545C45.8801 95.6064 45.9388 95.5456 45.982 95.4722C46.0255 95.3983 46.0538 95.3111 46.0671 95.2109C46.0944 95.004 46.0448 94.8398 45.9185 94.7187C45.7901 94.5955 45.5819 94.5149 45.2945 94.4769L44.8284 94.4153V94.4152ZM44.6116 95.6952L44.7879 94.3624L45.3006 94.4301C45.5982 94.4695 45.8152 94.5544 45.9511 94.6847C46.0888 94.8168 46.1431 94.9944 46.1138 95.2169C46.0997 95.3235 46.0693 95.4166 46.0225 95.496C45.9755 95.5757 45.9119 95.6417 45.8318 95.6938C45.7524 95.7458 45.6605 95.7805 45.5563 95.7977C45.4532 95.8148 45.3377 95.8148 45.2105 95.798L44.6086 95.7184L44.6117 95.6952L44.6116 95.6952ZM50.0718 96.622L49.5809 96.5847L49.271 95.5308L47.7514 95.4154L47.3087 96.4121L46.7816 96.372C47.3488 95.1727 47.9153 93.973 48.4843 92.7745L48.9608 92.8107C49.3394 94.0826 49.7226 95.3541 50.1061 96.6246L50.0718 96.622V96.622ZM49.6168 96.5401L50.0411 96.5723L48.9249 92.8552L48.5129 92.824L46.8534 96.3302L47.2793 96.3626L47.7221 95.3658C48.2499 95.4077 48.779 95.448 49.3071 95.4862L49.6169 96.5401H49.6168ZM49.1454 95.085L48.6989 93.5156C48.6912 93.4877 48.684 93.4521 48.6775 93.409L48.6712 93.3621L48.6593 93.4011C48.646 93.4428 48.6322 93.4791 48.6184 93.5093L47.9444 94.9938L49.1454 95.085ZM48.7442 93.5027L49.2093 95.1371C48.7641 95.1035 48.3188 95.0701 47.8737 95.0357L48.5756 93.49C48.5886 93.4616 48.6017 93.427 48.6145 93.3869C48.6267 93.3486 48.639 93.3043 48.651 93.2539L48.6557 93.2342L48.7063 93.2381L48.708 93.2581C48.7128 93.3137 48.7182 93.3619 48.7243 93.4022C48.7305 93.444 48.7373 93.4777 48.7442 93.5027H48.7442ZM53.476 96.5114L53.0228 96.5204L52.9892 94.8487L51.1374 94.886L51.1711 96.5577L50.6943 96.5672C50.6683 95.3289 50.6423 94.0902 50.6195 92.8519L51.0963 92.8424L51.1287 94.4511L52.9804 94.4139L52.9479 92.8051L53.4247 92.7955C53.4507 94.0338 53.4766 95.2724 53.4995 96.5109L53.476 96.5114ZM53.0689 96.4725L53.4515 96.4648L53.3787 92.8436L52.996 92.8513L53.0284 94.46C52.3799 94.4737 51.7312 94.4873 51.0826 94.4992L51.0501 92.8905L50.6675 92.8981L50.7403 96.5193L51.1231 96.5117L51.0894 94.8399C51.7379 94.828 52.3867 94.8144 53.0352 94.8007L53.0689 96.4725ZM57.2796 96.1245L56.8302 96.1838L56.611 94.5263L54.7749 94.7691L54.9941 96.4267L54.5213 96.4892C54.3617 95.261 54.197 94.033 54.0342 92.8051L54.507 92.7427L54.7179 94.3379L56.554 94.0951L56.3431 92.4998L56.8157 92.4373C56.9782 93.6652 57.1428 94.8931 57.3029 96.1213L57.2796 96.1245ZM56.8707 96.131L57.2501 96.0809L56.7753 92.4902L56.3959 92.5404L56.6068 94.1357C55.9637 94.221 55.3206 94.3072 54.6773 94.3908L54.4664 92.7956L54.087 92.8457L54.5618 96.4364L54.9412 96.3862L54.722 94.7286C55.3653 94.6452 56.0085 94.559 56.6515 94.4735L56.8707 96.131ZM61.4265 95.4338L60.9789 95.5112L60.3451 91.8495L60.816 91.7681C61.0301 92.9879 61.2403 94.2092 61.4497 95.4297L61.4265 95.4338L61.4265 95.4338ZM61.0173 95.4567L61.3952 95.3914L60.7776 91.8225L60.3996 91.8878L61.0173 95.4567ZM58.3047 95.9501L57.675 92.3116L58.1449 92.2303L58.4104 93.7642L59.0733 93.6495C59.2555 93.618 59.4215 93.612 59.5713 93.6315C59.7218 93.6512 59.856 93.6968 59.9737 93.7682C60.0924 93.8396 60.1884 93.9346 60.2618 94.0526C60.3348 94.1702 60.3854 94.3108 60.4138 94.4743C60.4431 94.6434 60.4425 94.8 60.412 94.9435C60.3816 95.0874 60.321 95.2183 60.2307 95.3356C60.1404 95.4533 60.0262 95.5495 59.8883 95.6242C59.7512 95.6985 59.5904 95.7515 59.4062 95.7834L58.3088 95.9733L58.3048 95.9501L58.3047 95.9501ZM57.7295 92.35L58.3471 95.9189L59.3982 95.737C59.5772 95.706 59.7332 95.6546 59.8659 95.5827C59.9979 95.5113 60.1071 95.4193 60.1932 95.307C60.2793 95.1954 60.3369 95.0707 60.3659 94.9337C60.395 94.7961 60.3955 94.6454 60.3673 94.4823C60.34 94.3249 60.2915 94.1898 60.2217 94.0776C60.1524 93.9658 60.0615 93.8761 59.9495 93.8085C59.8376 93.7406 59.7094 93.6971 59.5652 93.6783C59.4202 93.6594 59.2588 93.6653 59.0812 93.696L58.372 93.8187L58.1065 92.2849L57.7294 92.3501L57.7295 92.35ZM58.4846 94.1928L58.7045 95.4634L59.2762 95.3645C59.3993 95.3432 59.5058 95.31 59.5953 95.2649C59.6838 95.2203 59.756 95.1639 59.8115 95.0959C59.867 95.028 59.9045 94.9517 59.9236 94.8671C59.9428 94.7819 59.9436 94.6876 59.9257 94.5844L59.9254 94.5826C59.8893 94.3757 59.7999 94.2316 59.6573 94.1507C59.5127 94.0686 59.3123 94.0496 59.0562 94.094L58.4846 94.1929L58.4846 94.1928ZM58.6621 95.4946L58.4302 94.1544C58.6369 94.1186 58.8438 94.0835 59.0503 94.047C59.3165 94.0013 59.5266 94.0222 59.6806 94.1097C59.8364 94.1982 59.9338 94.3539 59.9722 94.5763L59.9725 94.5784C59.9911 94.687 59.99 94.7867 59.9695 94.8773C59.9487 94.9694 59.9081 95.0522 59.848 95.1257C59.7883 95.1987 59.7109 95.2593 59.6164 95.3068C59.5225 95.3541 59.4116 95.3888 59.2841 95.4109L58.6662 95.5178L58.6621 95.4946V95.4946ZM65.295 94.3035L64.8584 94.4289L64.1199 91.8589C64.0869 91.7437 64.0607 91.6448 64.0416 91.5626L64.0226 91.4746L64.0179 91.4998C64.0096 91.5424 63.9989 91.5844 63.986 91.6252L62.9749 94.97L62.4286 95.127L61.4023 91.5554L61.8606 91.4237L62.5808 93.93C62.6185 94.0613 62.6483 94.171 62.67 94.2588L62.6938 94.361L62.7035 94.3217C62.7153 94.2752 62.7291 94.2266 62.7444 94.1758L63.7247 90.888C63.9137 90.8346 64.1025 90.7796 64.2912 90.7252C64.6349 91.9151 64.9773 93.1059 65.3175 94.2968L65.2949 94.3034L65.295 94.3035ZM64.8908 94.3706L65.2594 94.2647L64.2592 90.7837L63.7627 90.9263L62.7898 94.1895C62.7744 94.2404 62.7607 94.2885 62.7493 94.3335C62.7377 94.3792 62.7278 94.4223 62.7204 94.4625L62.7177 94.4769L62.668 94.4911L62.6646 94.4638C62.6593 94.4221 62.646 94.3574 62.6244 94.2702C62.603 94.1839 62.5734 94.0746 62.5355 93.9429L61.8284 91.4821L61.4606 91.5879L62.4609 95.0689L62.9372 94.932L63.9409 91.6117C63.9533 91.5728 63.9635 91.5324 63.9717 91.4908C63.9799 91.4487 63.9862 91.4059 63.9901 91.363L63.9915 91.3468L64.0491 91.3303L64.052 91.3583C64.0569 91.4061 64.0688 91.4709 64.0876 91.5521C64.1065 91.6335 64.1325 91.7316 64.1653 91.846L64.8908 94.3706H64.8908ZM63.4665 89.8225C63.488 89.9447 63.4885 90.06 63.4678 90.1678C63.447 90.2758 63.405 90.3764 63.3417 90.469C63.2784 90.5619 63.1998 90.6405 63.106 90.7048C63.0127 90.7688 62.9042 90.8186 62.7804 90.8542C62.6534 90.8906 62.5329 90.9066 62.4192 90.9022C62.305 90.8977 62.1974 90.8724 62.0967 90.8265C61.9965 90.7809 61.9106 90.7169 61.8393 90.6353C61.7683 90.5538 61.7116 90.4543 61.6697 90.3378L61.6612 90.3141L62.1051 90.1866L62.1127 90.2072C62.1663 90.3527 62.2411 90.4515 62.3367 90.5033C62.4319 90.5549 62.5497 90.5606 62.6892 90.5206C62.7525 90.5025 62.8072 90.4763 62.8531 90.4423C62.8987 90.4085 62.9362 90.3664 62.9653 90.3163C62.9949 90.2661 63.0142 90.2099 63.0236 90.1483C63.0331 90.086 63.0324 90.0179 63.0219 89.9444L63.0189 89.924L63.4619 89.7968L63.4665 89.8227V89.8225ZM63.4214 90.159C63.4397 90.0644 63.4405 89.9634 63.4243 89.8565L63.0712 89.9579C63.0798 90.0285 63.0796 90.0944 63.0702 90.1552C63.06 90.2223 63.0386 90.2841 63.0059 90.3398C62.9737 90.3954 62.9319 90.4421 62.881 90.4799C62.8303 90.5174 62.7706 90.546 62.702 90.5657C62.5502 90.6093 62.4208 90.6023 62.3143 90.5446C62.213 90.4897 62.1335 90.3894 62.0763 90.2438L61.7226 90.3454C61.7614 90.4462 61.8122 90.5326 61.8747 90.6042C61.9415 90.6808 62.0223 90.7409 62.1163 90.7837C62.2111 90.827 62.3128 90.8507 62.421 90.855C62.5296 90.8593 62.6452 90.844 62.7674 90.8088C62.8863 90.7746 62.9904 90.727 63.0794 90.6658C63.1682 90.605 63.2427 90.5304 63.3028 90.4425C63.3623 90.3554 63.4019 90.2606 63.4214 90.159L63.4214 90.159ZM67.3387 93.3658L67.1479 92.8897L67.1928 92.9012C67.3623 92.9445 67.5312 92.9604 67.699 92.9489C67.8668 92.9373 68.034 92.8981 68.2002 92.8315C68.3209 92.7831 68.4233 92.7252 68.5073 92.6579C68.5906 92.5911 68.656 92.5146 68.7031 92.4287C68.7498 92.3437 68.7754 92.2556 68.7794 92.1646C68.7834 92.0736 68.7659 91.9792 68.7269 91.8816C68.6423 91.6706 68.5079 91.541 68.3243 91.4931C68.1378 91.4444 67.899 91.4784 67.6086 91.5947L67.2324 91.7455L67.0822 91.3709L67.4301 91.2316C67.5537 91.1821 67.6582 91.1247 67.7432 91.0597C67.8273 90.9952 67.8926 90.923 67.9383 90.8433C67.9838 90.7642 68.0083 90.681 68.0118 90.5939C68.0152 90.5063 67.9976 90.4141 67.9589 90.3176C67.9258 90.235 67.8822 90.1662 67.8285 90.1116C67.7749 90.0572 67.7106 90.0161 67.636 89.9887C67.5611 89.9615 67.4804 89.9508 67.3944 89.9566C67.3076 89.9624 67.2149 89.9851 67.1167 90.0244C66.9768 90.0804 66.8473 90.1579 66.7285 90.2565C66.6095 90.3552 66.501 90.4754 66.4034 90.6166L66.3785 90.6527L66.1952 90.1953L66.204 90.1846C66.3026 90.0631 66.4178 89.9553 66.5496 89.8615C66.6811 89.7679 66.8294 89.688 66.994 89.622C67.1581 89.5564 67.3124 89.517 67.457 89.5044C67.6025 89.4917 67.7386 89.5056 67.8653 89.546C67.992 89.587 68.1003 89.6501 68.1898 89.7349C68.2792 89.8197 68.3497 89.9264 68.4011 90.0548C68.4916 90.2806 68.5102 90.4877 68.4569 90.6752C68.4097 90.8414 68.3062 90.9917 68.1467 91.1261C68.2422 91.1064 68.3341 91.0992 68.4222 91.1045C68.536 91.1113 68.6439 91.139 68.7454 91.1868C68.847 91.2352 68.9347 91.2998 69.0082 91.3806C69.0816 91.4612 69.141 91.558 69.1861 91.6704C69.2499 91.8296 69.2788 91.9843 69.273 92.1339C69.2673 92.2841 69.2265 92.4293 69.1511 92.5688C69.0759 92.7083 68.9704 92.8327 68.8349 92.9416C68.7 93.05 68.5351 93.1434 68.3403 93.2214C68.1463 93.2992 67.9674 93.3514 67.8038 93.3779C67.6392 93.4045 67.49 93.4053 67.3561 93.3803L67.3434 93.3779L67.3386 93.3659L67.3387 93.3658ZM67.2258 92.9577L67.3775 93.3362C67.5029 93.358 67.6427 93.3563 67.7964 93.3314C67.9564 93.3054 68.132 93.2541 68.323 93.1776C68.5134 93.1014 68.6744 93.0104 68.8056 92.9049C68.9361 92.8 69.0376 92.6804 69.1097 92.5464C69.1818 92.4133 69.2206 92.2751 69.2261 92.1323C69.2316 91.9891 69.2037 91.8408 69.1425 91.6879C69.0995 91.5807 69.0431 91.4888 68.9736 91.4123C68.9042 91.3361 68.8214 91.275 68.7256 91.2295C68.6296 91.1842 68.5274 91.1581 68.4197 91.1515C68.3117 91.1451 68.1978 91.1581 68.0783 91.1908L68.0581 91.1964L68.0396 91.1504L68.0541 91.1397C68.242 90.999 68.3613 90.8398 68.4117 90.6624C68.4621 90.4851 68.444 90.2881 68.3576 90.0722C68.3086 89.9501 68.2418 89.849 68.1575 89.769C68.0733 89.6891 67.971 89.6297 67.8511 89.5908C67.7307 89.5525 67.6007 89.5393 67.4613 89.5515C67.321 89.5637 67.171 89.6019 67.0116 89.6657C66.8504 89.7303 66.7055 89.8084 66.577 89.8999C66.4527 89.9884 66.3434 90.0898 66.2493 90.2037L66.3899 90.5544C66.4834 90.4248 66.5864 90.3133 66.6985 90.2203C66.821 90.1187 66.9548 90.0388 67.0994 89.9808C67.2023 89.9396 67.2997 89.9157 67.3914 89.9096C67.4838 89.9034 67.5709 89.9151 67.6522 89.9446C67.7334 89.9744 67.8035 90.0192 67.8622 90.0788C67.9204 90.138 67.9674 90.2119 68.0027 90.3002C68.0439 90.403 68.0627 90.5016 68.0589 90.5959C68.0551 90.6905 68.0285 90.7809 67.9792 90.8668C67.9302 90.9521 67.861 91.029 67.772 91.0972C67.6837 91.1648 67.5754 91.2243 67.4477 91.2754L67.1436 91.3973L67.2587 91.6845L67.5912 91.5512C67.8912 91.431 68.1397 91.3965 68.3362 91.4477C68.5352 91.4997 68.6802 91.6386 68.7707 91.8643C68.8123 91.9682 68.8309 92.0691 68.8266 92.1667C68.8223 92.2651 68.7947 92.3601 68.7445 92.4515C68.6944 92.5429 68.6251 92.624 68.5369 92.6947C68.4492 92.765 68.3428 92.8253 68.2178 92.8754C68.0468 92.9439 67.8748 92.9842 67.7022 92.9961C67.5442 93.007 67.3854 92.9943 67.226 92.958L67.2258 92.9577ZM72.8668 90.979L72.4303 91.2072L71.61 90.4768L70.2596 91.1828L70.4111 92.2627C70.2553 92.3449 70.0989 92.4263 69.9426 92.5077C69.7913 91.1898 69.6372 89.872 69.4841 88.5543L69.9076 88.3328C70.9053 89.2083 71.9006 90.0864 72.8973 90.963L72.8669 90.9789L72.8668 90.979ZM72.4375 91.1505L72.8146 90.9533L69.9006 88.3896L69.5345 88.581L69.9815 92.4345L70.3599 92.2367L70.2083 91.1567C70.6781 90.912 71.1486 90.6674 71.617 90.4201L72.4374 91.1506L72.4375 91.1505ZM71.2677 90.1651L70.0583 89.0695C70.0371 89.0502 70.0123 89.0238 69.9839 88.9905L69.9536 88.9539L69.9642 88.9935C69.9749 89.0361 69.9824 89.074 69.9867 89.1069L70.2001 90.7232L71.2676 90.1651H71.2677ZM70.0899 89.0347L71.349 90.1755C70.9536 90.3826 70.5582 90.5898 70.1623 90.796L69.9401 89.113C69.936 89.082 69.9288 89.0458 69.9185 89.0048C69.9084 88.9651 69.8953 88.9209 69.8792 88.8727L69.8728 88.8535L69.9175 88.8303L69.9296 88.8463C69.9631 88.891 69.9933 88.9289 70.0197 88.9599C70.0471 88.992 70.0706 89.0171 70.0899 89.0347L70.0899 89.0347ZM75.5243 89.2806C75.441 89.4124 75.3338 89.5365 75.2032 89.6527C75.0732 89.7686 74.9195 89.8771 74.7423 89.9778C74.5126 90.1084 74.2846 90.1891 74.0586 90.2198C73.8322 90.2505 73.6075 90.2309 73.3848 90.1613C73.1619 90.0919 72.9604 89.9794 72.7805 89.8242C72.601 89.6695 72.4429 89.4719 72.3067 89.2323C72.1603 88.9749 72.0668 88.7197 72.0258 88.4672C71.9849 88.2138 71.9967 87.9628 72.0615 87.7148C72.1263 87.4673 72.2349 87.2475 72.3868 87.0557C72.5388 86.8639 72.7341 86.7002 72.9725 86.5646C73.1246 86.4782 73.2703 86.4098 73.4094 86.3598C73.5489 86.3096 73.6817 86.2778 73.8078 86.2648L73.8231 86.2632L74.0767 86.7093L74.0367 86.7096C73.8882 86.7108 73.7427 86.7311 73.6006 86.7702C73.4584 86.8095 73.319 86.8679 73.1829 86.9453C73.0026 87.0478 72.8565 87.1707 72.7448 87.3138C72.6334 87.4566 72.5559 87.6201 72.5125 87.8042C72.4688 87.9881 72.4647 88.1765 72.5002 88.3691C72.5357 88.5624 72.611 88.7604 72.726 88.9627C72.8353 89.1549 72.9596 89.3125 73.0989 89.4354C73.2375 89.5579 73.3914 89.6461 73.5602 89.7001C73.7291 89.7537 73.8982 89.7701 74.0672 89.7489C74.2366 89.7276 74.4064 89.6686 74.5767 89.5717C74.7348 89.4818 74.8728 89.38 74.9897 89.2668C75.1062 89.1541 75.2024 89.0295 75.2776 88.8937L75.2979 88.8571L75.5319 89.2688L75.5245 89.2807L75.5243 89.2806ZM75.1719 89.6176C75.2954 89.5076 75.3972 89.3908 75.477 89.2675L75.298 88.9527C75.2239 89.0784 75.1319 89.1945 75.0224 89.3005C74.9025 89.4165 74.7615 89.5208 74.5998 89.6126C74.424 89.7126 74.2483 89.7736 74.0728 89.7956C73.8972 89.8176 73.7215 89.8007 73.5458 89.7449C73.3708 89.6889 73.2112 89.5974 73.0675 89.4706C72.9244 89.3442 72.7968 89.1826 72.685 88.9859C72.5673 88.7789 72.4901 88.576 72.4537 88.3775C72.4171 88.1783 72.4213 87.9834 72.4663 87.7934C72.5113 87.6028 72.5917 87.4333 72.7076 87.2848C72.8231 87.1368 72.9739 87.0099 73.1594 86.9044C73.299 86.825 73.4419 86.7652 73.5879 86.7249C73.7213 86.6882 73.8575 86.6675 73.9963 86.6633L73.7972 86.3132C73.6793 86.3268 73.5552 86.3572 73.425 86.4039C73.2888 86.4529 73.1456 86.5201 72.9956 86.6054C72.7625 86.738 72.5717 86.8978 72.4236 87.0847C72.2757 87.2714 72.17 87.4854 72.1069 87.7265C72.0439 87.9682 72.0323 88.2128 72.0722 88.4597C72.1121 88.7065 72.2038 88.9565 72.3474 89.2089C72.481 89.4439 72.6357 89.6373 72.8112 89.7886C72.986 89.9394 73.182 90.0487 73.3986 90.1162C73.6147 90.1838 73.8326 90.2027 74.0522 90.1729C74.2723 90.1431 74.4946 90.0643 74.7188 89.9367C74.8929 89.8378 75.0441 89.7312 75.1718 89.6174L75.1719 89.6176ZM76.1619 84.9834L75.3152 85.5805L77.206 88.262L76.8162 88.5369L74.9254 85.8553L74.0615 86.4644L73.8108 86.1089C74.5182 85.6124 75.2257 85.1145 75.9305 84.6144L76.1812 84.9698L76.1619 84.9834ZM75.2689 85.5555L76.1156 84.9585L75.9193 84.68L73.8766 86.1203L74.0729 86.3988L74.9368 85.7896L76.8277 88.4713L77.1404 88.2507L75.2495 85.5691L75.2689 85.5555ZM78.0939 85.885L78.9512 86.9779L78.576 87.2722C77.8126 86.2968 77.0479 85.3221 76.2825 84.3483L77.0944 83.7116C77.2506 83.5891 77.4044 83.4992 77.5556 83.442C77.7078 83.3845 77.8579 83.3601 78.0053 83.3687C78.1526 83.3772 78.2907 83.4189 78.4193 83.4933C78.5472 83.5674 78.6659 83.6742 78.7749 83.8133C78.8841 83.9525 78.9596 84.0982 79.0011 84.2503C79.0427 84.4027 79.0503 84.5613 79.0237 84.7259C78.9972 84.89 78.9363 85.0454 78.8413 85.1916C78.7468 85.3372 78.6182 85.4738 78.4562 85.6008L78.0939 85.885L78.0939 85.885ZM78.8851 86.9699L78.0278 85.8769L78.4271 85.5637C78.5852 85.4399 78.7102 85.3071 78.8019 85.1658C78.8933 85.0253 78.9519 84.8759 78.9773 84.7184C79.0028 84.5604 78.9956 84.4083 78.9558 84.2626C78.916 84.1168 78.8433 83.9766 78.7379 83.8422C78.6325 83.7079 78.5183 83.605 78.3956 83.5339C78.2735 83.4632 78.1425 83.4237 78.0027 83.4156C77.8617 83.4074 77.7182 83.4308 77.5722 83.4859C77.4253 83.5414 77.2756 83.629 77.1233 83.7484L76.3485 84.3561L78.5838 87.2061L78.8851 86.9698L78.8851 86.9699ZM76.9261 84.3961L77.8255 85.5428L78.1618 85.2791C78.2763 85.1893 78.3672 85.0968 78.434 85.002C78.5002 84.9082 78.5428 84.812 78.5615 84.7141C78.5806 84.6164 78.5764 84.5194 78.549 84.4237C78.5216 84.3274 78.4705 84.2317 78.3962 84.1371C78.2511 83.9521 78.0884 83.8562 77.9083 83.8496C77.7266 83.843 77.5251 83.9264 77.3043 84.0996L76.9262 84.3962L76.9261 84.3961ZM77.803 85.5903L76.8601 84.3881L77.2751 84.0625C77.5051 83.8822 77.7169 83.7955 77.9098 83.8026C78.1046 83.8097 78.2791 83.9115 78.4332 84.108C78.5114 84.2077 78.5651 84.3087 78.5943 84.4109C78.6237 84.5138 78.6282 84.6179 78.6078 84.7229C78.5877 84.8275 78.5426 84.9298 78.4724 85.0291C78.4031 85.1275 78.309 85.2233 78.1906 85.3161L77.8174 85.6088L77.8029 85.5903L77.803 85.5903ZM82.0836 84.387C81.8926 84.5682 81.6904 84.7001 81.4774 84.7825C81.2639 84.8649 81.0395 84.8976 80.8046 84.8805C80.5699 84.8634 80.3456 84.8 80.132 84.6904C79.9193 84.5813 79.7174 84.426 79.5267 84.225C79.3218 84.009 79.1665 83.7866 79.0611 83.5584C78.9555 83.3296 78.8999 83.0947 78.8947 82.8544C78.8891 82.6136 78.9357 82.3847 79.0341 82.1684C79.1326 81.9521 79.2829 81.7482 79.4844 81.557C79.6706 81.3805 79.8685 81.2523 80.0781 81.1727C80.2881 81.093 80.5096 81.062 80.7427 81.0797C80.9758 81.0971 81.1988 81.1609 81.4114 81.2711C81.6235 81.3809 81.8253 81.537 82.0168 81.7388C82.2247 81.958 82.382 82.182 82.4883 82.4108C82.5952 82.6402 82.651 82.8744 82.656 83.1134C82.661 83.3525 82.6157 83.5783 82.52 83.7908C82.4246 84.0027 82.279 84.2016 82.0834 84.3871L82.0836 84.387ZM81.4604 84.7386C81.6677 84.6586 81.8646 84.5299 82.0511 84.353C82.2421 84.1718 82.3843 83.9779 82.4772 83.7714C82.57 83.5653 82.6139 83.3462 82.6091 83.1142C82.6043 82.8821 82.5498 82.6543 82.4458 82.4307C82.3416 82.2065 82.1872 81.9867 81.9828 81.7712C81.795 81.5733 81.5973 81.4204 81.3899 81.313C81.1832 81.2059 80.9661 81.1438 80.7393 81.1268C80.5131 81.1096 80.2981 81.1397 80.0948 81.2169C79.8911 81.2942 79.6983 81.4191 79.5169 81.5912C79.3197 81.7782 79.1729 81.9773 79.077 82.188C78.9816 82.398 78.9364 82.6199 78.9417 82.8536C78.9468 83.0873 79.001 83.316 79.1039 83.5388C79.207 83.7624 79.3594 83.9805 79.5607 84.1927C79.7478 84.3899 79.9455 84.542 80.1534 84.6487C80.361 84.7552 80.5794 84.8169 80.8079 84.8336C81.0361 84.8502 81.2537 84.8185 81.4604 84.7388L81.4604 84.7386ZM79.7611 81.8941C79.6238 82.0244 79.5228 82.1671 79.4585 82.3221C79.3942 82.477 79.3662 82.6449 79.3745 82.8254C79.3827 83.0055 79.4273 83.1815 79.5081 83.3525C79.5891 83.5242 79.7066 83.6913 79.8602 83.8532C80.0142 84.0156 80.1742 84.1422 80.3399 84.2327C80.5049 84.323 80.6761 84.3777 80.8532 84.3966C81.0293 84.4154 81.1952 84.3978 81.3502 84.3437C81.5054 84.2895 81.6503 84.1987 81.7844 84.0715C81.9281 83.9352 82.0345 83.7899 82.1032 83.636C82.1716 83.4826 82.2028 83.3199 82.1968 83.1482C82.1907 82.9763 82.146 82.8051 82.0628 82.6349C81.9792 82.4636 81.8567 82.2931 81.6955 82.1232C81.5303 81.949 81.3639 81.8137 81.1961 81.7176C81.0293 81.6219 80.8611 81.5649 80.6917 81.5468C80.5227 81.5287 80.3607 81.5486 80.206 81.6062C80.0509 81.664 79.9025 81.7601 79.7612 81.8941H79.7611ZM79.415 82.3041C79.4819 82.1429 79.5866 81.9949 79.7286 81.8601C79.8745 81.7217 80.0283 81.6222 80.1896 81.5622C80.3511 81.502 80.5203 81.4812 80.6965 81.5C80.8726 81.5189 81.047 81.5779 81.2195 81.6768C81.391 81.7751 81.561 81.9133 81.7295 82.0908C81.8941 82.2644 82.0194 82.4388 82.105 82.6142C82.1911 82.7904 82.2375 82.968 82.2437 83.1466C82.25 83.3255 82.2174 83.4951 82.146 83.6552C82.0748 83.8148 81.9649 83.965 81.8167 84.1056C81.6777 84.2375 81.5271 84.3318 81.3656 84.3882C81.2039 84.4446 81.0312 84.4631 80.8482 84.4434C80.6649 84.4239 80.4879 84.3673 80.3173 84.2741C80.1472 84.1811 79.9834 84.0516 79.8261 83.8858C79.6689 83.72 79.5486 83.5488 79.4655 83.3727C79.3821 83.196 79.336 83.014 79.3275 82.8275C79.319 82.6401 79.3482 82.4656 79.4151 82.3042L79.415 82.3041ZM85.8503 80.3341L85.5534 80.6777L83.53 78.9295C83.4393 78.8511 83.3633 78.7826 83.3024 78.724L83.2383 78.6607L83.2485 78.685C83.2647 78.7255 83.2788 78.7664 83.2902 78.8073L84.272 82.1606C84.149 82.3045 84.0245 82.4476 83.9005 82.5907C82.9619 81.7825 82.0258 80.9711 81.0886 80.1612L81.4003 79.8004L83.3735 81.5052C83.4774 81.595 83.5624 81.6707 83.6282 81.732L83.7038 81.8044L83.6904 81.7661C83.6751 81.7211 83.66 81.6729 83.645 81.6216L82.6684 78.3327L83.0537 77.8867C83.992 78.6952 84.9281 79.5066 85.8655 80.3162L85.8502 80.3341H85.8503ZM85.5486 80.6114L85.7994 80.3211L83.0587 77.953L82.721 78.344L83.6903 81.6083C83.705 81.6589 83.7199 81.7066 83.7351 81.7509C83.7501 81.7952 83.7656 81.8365 83.7815 81.8747L83.7871 81.888L83.7534 81.9274L83.7355 81.9063C83.7085 81.8744 83.6619 81.8275 83.5962 81.7664C83.5308 81.7054 83.4462 81.63 83.3427 81.5407L81.4053 79.8667L81.155 80.1564L83.8957 82.5244L84.2198 82.1493L83.245 78.8203C83.234 78.7808 83.2205 78.7414 83.2048 78.7025C83.1889 78.6632 83.1706 78.6239 83.1502 78.5853L83.1426 78.571L83.1818 78.5257L83.1996 78.5476C83.2299 78.5851 83.2751 78.6326 83.335 78.6901C83.3952 78.748 83.4707 78.8159 83.5609 78.8939L85.5487 80.6114H85.5486ZM81.8695 77.5816C81.9543 77.6721 82.0178 77.7684 82.0593 77.87C82.101 77.972 82.1208 78.0793 82.1185 78.1911C82.1163 78.3035 82.0934 78.4123 82.0501 78.5172C82.0069 78.622 81.9431 78.7232 81.859 78.8205C81.7727 78.9204 81.6805 78.9998 81.5828 79.0581C81.4846 79.1169 81.3806 79.1547 81.2715 79.1712C81.1628 79.1876 81.0558 79.1811 80.9514 79.1516C80.8472 79.1222 80.7454 79.07 80.6467 78.9953L80.6266 78.9801L80.9286 78.6306L80.9462 78.6436C81.0706 78.7362 81.1872 78.7779 81.2957 78.769C81.4037 78.7603 81.5054 78.7007 81.6003 78.5909C81.6431 78.5412 81.6748 78.4894 81.6945 78.4358C81.7143 78.3825 81.7227 78.3267 81.7196 78.2689C81.7169 78.2104 81.7024 78.1528 81.6767 78.0963C81.6508 78.0391 81.6129 77.9825 81.5638 77.9266L81.5502 77.9112L81.8515 77.5625L81.8694 77.5816H81.8695ZM82.0159 77.8879C81.9795 77.7988 81.925 77.7137 81.8528 77.6331L81.6126 77.9111C81.6583 77.9653 81.6941 78.0207 81.7197 78.077C81.7479 78.1392 81.7638 78.2025 81.7668 78.2667C81.7702 78.331 81.7608 78.3928 81.7388 78.4522C81.7171 78.5113 81.6826 78.5678 81.6359 78.6219C81.5326 78.7414 81.4203 78.8063 81.2995 78.8162C81.1848 78.8255 81.0635 78.785 80.9359 78.6943L80.6954 78.9728C80.7831 79.036 80.8729 79.0807 80.9642 79.1064C81.0619 79.134 81.1622 79.1401 81.2645 79.1246C81.3677 79.109 81.466 79.0733 81.5587 79.0179C81.6521 78.9621 81.7403 78.886 81.8235 78.7897C81.9044 78.6961 81.9655 78.5993 82.0067 78.4995C82.0477 78.4 82.0694 78.2969 82.0715 78.1903C82.0737 78.0846 82.0551 77.9837 82.016 77.8879L82.0159 77.8879ZM90.0075 76.4623L89.7644 76.8049L88.9607 76.2349L86.5874 79.5809C85.5758 78.8662 84.5663 78.1479 83.5563 77.4311L83.8321 77.0421L86.5085 78.9404L87.2677 77.87L84.5914 75.9718L84.8672 75.5828L87.5436 77.4811L88.3012 76.413L85.6249 74.5146L85.9007 74.1257L88.5771 76.0239L88.8626 75.6214L90.021 76.443L90.0075 76.4623ZM89.7533 76.7394L89.9555 76.4542L88.8738 75.687L88.5883 76.0895L85.912 74.1913L85.6905 74.5035L88.3668 76.4018C88.0975 76.7842 87.826 77.1656 87.5548 77.5467L84.8784 75.6485L84.657 75.9606L87.3332 77.8588C87.0635 78.242 86.7915 78.6242 86.5197 79.006L83.8434 77.1077L83.6219 77.42L86.5762 79.5153L88.9495 76.1692L89.7533 76.7393V76.7394ZM91.0691 72.6965L90.8434 73.0906L88.5229 71.762C88.4189 71.7024 88.3312 71.6497 88.2601 71.6039L88.1851 71.5539L88.1996 71.5757C88.2232 71.6122 88.2449 71.6497 88.264 71.6877L89.8694 74.7914C89.776 74.9562 89.6812 75.1203 89.587 75.2847L86.3622 73.4379L86.5992 73.0241L88.8621 74.32C88.9812 74.3881 89.0789 74.4461 89.1551 74.4936L89.2436 74.5504L89.2232 74.5154C89.1995 74.4743 89.1754 74.4297 89.1508 74.3822L87.5632 71.3409L87.856 70.8294C88.9317 71.4436 90.0053 72.0615 91.0807 72.6761L91.0691 72.6966L91.0691 72.6965ZM90.8259 73.0264L91.0165 72.6936L87.8735 70.8937L87.6167 71.342L89.1926 74.3605C89.2168 74.4073 89.2406 74.4512 89.2639 74.492C89.2867 74.5318 89.3099 74.5695 89.3333 74.6046L89.3412 74.6166L89.3157 74.6615L89.2942 74.6443C89.2618 74.6185 89.2071 74.5814 89.1302 74.5335C89.0541 74.4862 88.9569 74.4285 88.8386 74.3608L86.6166 73.0883L86.4264 73.4205L89.5695 75.2204L89.8157 74.7903L88.2221 71.7092C88.2038 71.6726 88.183 71.6366 88.1601 71.6013C88.1371 71.5659 88.1116 71.5309 88.084 71.4967L88.0739 71.4841L88.1037 71.4322L88.1253 71.4503C88.1623 71.4814 88.2158 71.5194 88.2854 71.5643C88.3555 71.6095 88.4426 71.6617 88.5462 71.7211L90.8258 73.0265L90.8259 73.0264ZM92.7348 69.4796L92.4541 70.0214L90.3012 70.5109C90.2601 70.5196 90.2263 70.5267 90.2 70.5313L90.198 70.5317L91.7684 71.3452L91.549 71.7686C90.4491 71.199 89.3488 70.6301 88.2494 70.0594L88.4688 69.6359L89.9673 70.4122L89.9596 70.3959C89.9486 70.3719 89.9375 70.3454 89.9268 70.3166L89.1333 68.3531L89.4087 67.8213L90.259 70.0584L92.7588 69.4332L92.7349 69.4796H92.7348ZM92.4224 69.9803L92.669 69.5042L90.2297 70.1141L89.402 67.9364L89.1849 68.3556L89.9704 70.2992C89.9809 70.3273 89.9915 70.3529 90.0022 70.3761C90.0131 70.3998 90.0242 70.421 90.0351 70.4396L90.0417 70.4507L90.0203 70.4926L88.489 69.6993L88.3129 70.0392L91.5289 71.7052L91.7051 71.3653L90.1009 70.5343L90.1232 70.4912L90.1377 70.4915C90.1486 70.4916 90.1669 70.4892 90.192 70.4848C90.2183 70.4802 90.2514 70.4734 90.2912 70.4648L92.4224 69.9802V69.9803Z" fill="#C29977"/>
<path d="M7.81099 48.1494C8.59803 48.1494 9.31077 48.4685 9.82656 48.9844C10.3424 49.5001 10.6615 50.2128 10.6615 51C10.6615 51.7871 10.3424 52.4998 9.82656 53.0155C9.31077 53.5314 8.59803 53.8505 7.81099 53.8505C7.02383 53.8505 6.31114 53.5314 5.79542 53.0155C5.27958 52.4998 4.96045 51.7871 4.96045 51C4.96045 50.2128 5.27958 49.5001 5.79542 48.9844C6.31114 48.4685 7.02383 48.1494 7.81099 48.1494ZM8.90006 49.9109C8.62147 49.6322 8.23637 49.4598 7.81099 49.4598C7.38561 49.4598 7.00057 49.6322 6.72192 49.9109C6.44326 50.1895 6.27086 50.5746 6.27086 51C6.27086 51.4253 6.44326 51.8104 6.72192 52.089C7.00057 52.3677 7.38561 52.5401 7.81099 52.5401C8.23637 52.5401 8.62147 52.3677 8.90006 52.089C9.17872 51.8104 9.35112 51.4253 9.35112 51C9.35112 50.5746 9.17872 50.1895 8.90006 49.9109Z" fill="#C29977"/>
<path fill-rule="evenodd" clip-rule="evenodd" d="M92.1226 66.8132C91.9926 67.1495 91.6144 67.3168 91.2781 67.1868C90.9417 67.0568 90.7744 66.6786 90.9044 66.3423C91.7185 64.2371 92.3625 62.0708 92.8325 59.8647C93.3028 57.6572 93.5973 55.4158 93.7119 53.1618C93.7303 52.8014 94.0374 52.5241 94.3978 52.5425C94.7582 52.5608 95.0355 52.868 95.0172 53.2284C94.8988 55.5562 94.5957 57.8661 94.1121 60.136C93.6293 62.4023 92.9647 64.6354 92.1226 66.8131L92.1226 66.8132ZM95.0172 48.7727C95.0355 49.1331 94.7582 49.4403 94.3978 49.4586C94.0374 49.477 93.7303 49.1997 93.7119 48.8393C93.6017 46.6709 93.326 44.5176 92.8886 42.3985C92.4513 40.2806 91.8525 38.1953 91.0956 36.1619C90.9699 35.824 91.1417 35.4481 91.4796 35.3224C91.8174 35.1967 92.1933 35.3686 92.319 35.7064C93.1 37.8045 93.7176 39.9547 94.1682 42.1375C94.6195 44.3238 94.9037 46.5421 95.0172 48.7727Z" fill="#C29977"/>
<path d="M94.4204 49.4598C93.995 49.4598 93.6099 49.6322 93.3313 49.9109C93.0526 50.1895 92.8802 50.5746 92.8802 51C92.8802 51.4253 93.0526 51.8104 93.3313 52.089C93.6099 52.3677 93.995 52.5401 94.4204 52.5401C94.8458 52.5401 95.2308 52.3677 95.5094 52.089C95.7881 51.8104 95.9605 51.4253 95.9605 51C95.9605 50.5746 95.7881 50.1895 95.5094 49.9109C95.2308 49.6322 94.8458 49.4598 94.4204 49.4598ZM92.4048 48.9844C92.9206 48.4685 93.6333 48.1494 94.4204 48.1494C95.2075 48.1494 95.9202 48.4685 96.4359 48.9844C96.9518 49.5001 97.2709 50.2128 97.2709 51C97.2709 51.7871 96.9518 52.4998 96.4359 53.0155C95.9202 53.5314 95.2075 53.8505 94.4204 53.8505C93.6333 53.8505 92.9206 53.5314 92.4048 53.0155C91.889 52.4998 91.5698 51.7871 91.5698 51C91.5698 50.2128 91.889 49.5001 92.4048 48.9844Z" fill="#C29977"/>
<path fill-rule="evenodd" clip-rule="evenodd" d="M28.8104 74.8213L28.7949 76.1302C28.3146 75.7137 27.8467 75.2832 27.3911 74.8403L28.8104 74.8213Z" fill="#C29977"/>
<path fill-rule="evenodd" clip-rule="evenodd" d="M28.8668 70.0693L28.8493 71.5381L24.4622 71.597C24.0868 71.1226 23.7241 70.6378 23.3745 70.143L28.8668 70.0693Z" fill="#C29977"/>
<path fill-rule="evenodd" clip-rule="evenodd" d="M28.9229 65.3174L28.9055 66.7862L21.3433 66.8877C21.0813 66.4084 20.8305 65.9224 20.5918 65.4293L28.9229 65.3174V65.3174Z" fill="#C29977"/>
<path fill-rule="evenodd" clip-rule="evenodd" d="M32.1778 60.5225L30.5814 61.161L28.9643 61.8079L28.9616 62.0342L19.2209 62.1649C19.0481 61.6827 18.8864 61.1951 18.7354 60.7029L32.1778 60.5225V60.5225Z" fill="#C29977"/>
<path fill-rule="evenodd" clip-rule="evenodd" d="M39.914 55.667L39.9055 57.1357L17.9114 57.431C17.8153 56.9463 17.7292 56.4579 17.6543 55.9659L39.9141 55.6671L39.914 55.667Z" fill="#C29977"/>
<path fill-rule="evenodd" clip-rule="evenodd" d="M39.9418 50.916L39.9333 52.3847L17.3198 52.6882C17.2941 52.2017 17.2791 51.7122 17.2744 51.2203L39.9418 50.916Z" fill="#C29977"/>
<path fill-rule="evenodd" clip-rule="evenodd" d="M39.9698 46.1641L39.9612 47.6328L17.4048 47.9355C17.4484 47.4422 17.5014 46.9517 17.5662 46.4648L39.9698 46.1641Z" fill="#C29977"/>
<path fill-rule="evenodd" clip-rule="evenodd" d="M39.9977 41.4121L39.9891 42.8808L18.1729 43.1736C18.2904 42.6783 18.4176 42.1865 18.5569 41.7L39.9978 41.4122L39.9977 41.4121Z" fill="#C29977"/>
<path fill-rule="evenodd" clip-rule="evenodd" d="M40.0249 36.6611L40.0164 38.1298L19.6924 38.4026C19.8938 37.9041 20.1066 37.4116 20.3311 36.9255L40.0249 36.6611Z" fill="#C29977"/>
<path fill-rule="evenodd" clip-rule="evenodd" d="M74.5544 74.2071C74.0544 74.7198 73.538 75.2165 73.0062 75.6964L72.019 75.7096L72.0205 74.241L74.5544 74.207V74.2071Z" fill="#C29977"/>
<path fill-rule="evenodd" clip-rule="evenodd" d="M78.445 69.4033C78.1086 69.9074 77.7589 70.4017 77.3964 70.8859L72.0234 70.9581L72.0249 69.4895L78.445 69.4033Z" fill="#C29977"/>
<path fill-rule="evenodd" clip-rule="evenodd" d="M81.0995 64.6172C80.8742 65.1166 80.6374 65.6095 80.3886 66.0953L72.0278 66.2075L72.0293 64.7389L81.0995 64.6172V64.6172Z" fill="#C29977"/>
<path fill-rule="evenodd" clip-rule="evenodd" d="M82.8283 59.8419C82.6906 60.3382 82.5416 60.8297 82.3818 61.3163L72.0324 61.4552L72.0325 61.4209L68.1841 60.0383L82.8284 59.8418L82.8283 59.8419Z" fill="#C29977"/>
<path fill-rule="evenodd" clip-rule="evenodd" d="M83.7809 55.0782C83.7193 55.5721 83.6472 56.0628 83.5641 56.5496L67.5171 56.765L67.5238 55.2964L83.7809 55.0781V55.0782Z" fill="#C29977"/>
<path fill-rule="evenodd" clip-rule="evenodd" d="M84.0333 50.3243C84.0366 50.5159 84.0405 50.7074 84.0405 50.8999C84.0405 51.1985 84.0362 51.4961 84.0284 51.7929L67.5386 52.0142L67.5453 50.5455L84.0333 50.3242V50.3243Z" fill="#C29977"/>
<path fill-rule="evenodd" clip-rule="evenodd" d="M83.6165 45.5781C83.6944 46.0633 83.7607 46.5522 83.8176 47.044L67.5601 47.2622L67.5667 45.7936L83.6166 45.5781H83.6165Z" fill="#C29977"/>
<path fill-rule="evenodd" clip-rule="evenodd" d="M82.4974 40.8418C82.6498 41.3246 82.7906 41.8126 82.9214 42.3047L54.3933 42.6876L52.4697 41.2449L82.4974 40.8419V40.8418Z" fill="#C29977"/>
<path fill-rule="evenodd" clip-rule="evenodd" d="M80.5945 36.1162C80.8321 36.5962 81.0582 37.0829 81.273 37.5756L48.1697 38.0199L46.2461 36.5772L80.5945 36.1162Z" fill="#C29977"/>
<path fill-rule="evenodd" clip-rule="evenodd" d="M77.7569 31.4033C78.1 31.8794 78.4317 32.3642 78.7499 32.8586L41.9461 33.3525L40.0526 31.9325L40.0442 33.3781L22.0874 33.6191C22.3922 33.1164 22.7104 32.6227 23.0406 32.1378L77.7569 31.4033Z" fill="#C29977"/>
<path fill-rule="evenodd" clip-rule="evenodd" d="M73.6606 26.707C74.1527 27.1751 74.629 27.6594 75.0919 28.1564L25.6187 28.8204C26.0683 28.311 26.5318 27.8142 27.0114 27.3332L73.6606 26.707Z" fill="#C29977"/>
<path fill-rule="evenodd" clip-rule="evenodd" d="M67.4441 22.0391C68.2157 22.4888 68.9672 22.9691 69.6978 23.4774L30.8867 23.9983C31.6041 23.4703 32.3431 22.9704 33.1025 22.5L67.4441 22.0391Z" fill="#C29977"/>
<path fill-rule="evenodd" clip-rule="evenodd" d="M50.6563 17.5156C53.9162 17.5156 57.0662 17.9849 60.0445 18.8561L40.4111 19.1197C43.6397 18.0797 47.0819 17.5157 50.6563 17.5157V17.5156Z" fill="#C29977"/>
<path d="M30.9845 83.1705C30.9099 83.124 30.8356 83.0772 30.7614 83.0302L30.7604 83.0298V83.0297C25.4009 79.6358 20.9511 74.9324 17.8607 69.3683C14.837 63.9242 13.1147 57.6611 13.1147 51.0002C13.1147 40.5387 17.3552 31.0673 24.211 24.2115C31.0668 17.3557 40.5381 13.1152 50.9997 13.1152C61.4612 13.1152 70.9325 17.3557 77.7883 24.2115C84.6441 31.0673 88.8846 40.5386 88.8846 51.0002C88.8846 57.8496 87.0659 64.2756 83.8851 69.8213C80.6806 75.4085 76.0901 80.1019 70.5817 83.4344V83.4346L70.5778 83.4367C70.4264 83.5283 70.2745 83.619 70.1217 83.7085L70.1084 83.6858L68.8458 84.356L68.9472 63.9305L66.0265 62.8812L65.9076 85.8472C64.9018 86.2686 63.8715 86.6176 62.5547 87.0335C61.6915 87.3061 60.8106 87.5625 59.9934 87.7783V87.7784L59.993 87.7785L59.9927 87.7785C59.5344 87.8996 59.0959 88.0079 58.6919 88.0992L58.6822 88.0564L58.1453 88.1702L58.3654 58.3956L64.4173 60.5698L64.4786 47.0102L55.0482 49.0565L55.1904 88.5911H55.0331L55.0363 88.6291C53.6703 88.7438 52.3011 88.8014 50.9074 88.7957C49.5282 88.79 48.1531 88.7204 46.7639 88.5809L46.96 49.1371L53.412 47.7371L53.406 46.0734L43.7825 38.8558L43.5008 87.1332L41.8693 87.1267L42.0246 60.5168L32.7068 64.2439L32.4519 83.8216L31.0017 83.1428L30.9844 83.1706L30.9845 83.1705ZM70.5815 81.5114C75.474 78.3645 79.5615 74.0706 82.4648 69.0087C85.5071 63.7043 87.2467 57.5559 87.2467 51.0002C87.2467 40.9908 83.1897 31.9289 76.6304 25.3695C70.071 18.8102 61.0092 14.7532 50.9997 14.7532C40.9904 14.7532 31.9285 18.8102 25.3691 25.3695C18.8098 31.9288 14.7527 40.9907 14.7527 51.0002C14.7527 57.3808 16.3983 63.3729 19.2876 68.5749C22.0807 73.6035 26.0365 77.8987 30.7923 81.0977L31.0883 63.1318L42.035 58.7532L42.17 35.6069L55.0346 45.2553L55.0422 47.3833L66.1194 44.9798L66.0356 61.1512L70.5798 62.7837L70.5815 81.5114ZM59.9935 86.0853C60.6558 85.9029 61.36 85.694 62.0622 85.4722C62.8429 85.2256 63.6121 84.9654 64.3082 84.7102L64.4096 62.3002L59.9927 60.7133L59.9935 86.0853V86.0853ZM48.3508 87.0745C49.2114 87.1313 50.0641 87.1607 50.9139 87.1642C51.7824 87.1678 52.6608 87.1433 53.5536 87.0928L53.418 49.4102L48.5832 50.4593L48.3508 87.0746V87.0745Z" fill="#C29977"/>
</svg>
